<?xml version="1.0" encoding="utf-8"?>
<!-- Generator: Adobe Illustrator 27.1.0, SVG Export Plug-In . SVG Version: 6.00 Build 0)  -->
<svg version="1.1" id="Capa_1" xmlns="http://www.w3.org/2000/svg" xmlns:xlink="http://www.w3.org/1999/xlink" x="0px" y="0px"
	 viewBox="0 0 40 50" style="enable-background:new 0 0 40 50;" xml:space="preserve">
<style type="text/css">
	.st0{fill:#FFFFFF;filter:url(#Adobe_OpacityMaskFilter);}
	.st1{mask:url(#mask0_825_1038_00000033363125755396285620000002026913584154230189_);}
	.st2{fill:#788D29;}
	.st3{fill:#515C27;}
	.st4{fill:#A5BA4E;}
	.st5{fill:#9660A4;}
	.st6{fill:#7E4292;}
	.st7{fill:#B288BD;}
	.st8{fill:#E1D0E7;}
	.st9{fill:#CDB2D6;}
	.st10{fill:#601A2A;}
	.st11{fill:#8A663A;}
	.st12{fill:#C38B47;}
	.st13{fill:#B69E97;}
</style>
<defs>
	<filter id="Adobe_OpacityMaskFilter" filterUnits="userSpaceOnUse" x="2.42" y="0" width="44.15" height="134.4">
		<feColorMatrix  type="matrix" values="1 0 0 0 0  0 1 0 0 0  0 0 1 0 0  0 0 0 1 0"/>
	</filter>
</defs>
<mask maskUnits="userSpaceOnUse" x="2.42" y="0" width="44.15" height="134.4" id="mask0_825_1038_00000033363125755396285620000002026913584154230189_">
	<path class="st0" d="M40.1-5.1H-0.2v62.08h40.3V-5.1z"/>
</mask>
<g class="st1">
	<path class="st2" d="M46.08,134.02c-1.04-8.25-0.37-16.67-0.01-24.94c0.45-10.4,0.8-20.81,0.1-31.2
		c-0.77-11.35-2.87-22.66-7.11-33.25c-4.23-10.55-10.63-20.31-18.79-28.26c-0.25-0.25-0.59,0.17-0.35,0.42
		c4.63,4.72,8.78,9.83,12.26,15.46c3.18,5.16,5.75,10.68,7.74,16.4c3.75,10.73,5.36,22.08,5.8,33.4c0.4,10.25-0.2,20.48-0.64,30.72
		c-0.3,7.07-0.69,14.28,0.28,21.32C45.43,134.54,46.14,134.48,46.08,134.02z"/>
	<path class="st2" d="M25.45,34.93c2.55-0.6,5.37-0.93,7.91-0.15c1.12,0.34,2.19,0.9,2.6,2.07c0.34,0.98,0.2,2.03,0.28,3.05
		c-1.61-1.62-3.24-3.55-5.52-4.2c-0.9-0.26-1.82-0.46-2.75-0.61C27.18,34.96,26.25,34.77,25.45,34.93
		C26.69,34.68,28.24,34.29,25.45,34.93L25.45,34.93z"/>
	<path class="st3" d="M20.36,40.74c0.83,0.01,1.46,0.01,2.14-0.56c0.71-0.61,1.38-1.27,2.06-1.91c1.37-1.28,2.94-2.66,4.87-2.94
		c-1.59-0.44-3.21-0.83-4.85-0.36C21.94,35.73,20.84,38.27,20.36,40.74C20.41,40.44,20.98,40.74,20.36,40.74L20.36,40.74z"/>
	<path class="st3" d="M28.54,35.28c0.4-0.11,0.89-0.01,1.29,0.09c0.42,0.11,0.82,0.29,1.2,0.5c0.69,0.38,1.35,0.88,1.92,1.43
		c0.53,0.51,1,1.08,1.51,1.6c0.23,0.24,0.47,0.48,0.74,0.68c0.25,0.19,0.54,0.41,0.87,0.3c0.18-0.06,0.31-0.3,0.22-0.48
		c-0.14-0.28-0.44-0.36-0.68-0.53c-0.31-0.22-0.6-0.44-0.89-0.68c-0.57-0.47-1.11-0.98-1.72-1.41c-0.67-0.47-1.37-0.92-2.14-1.23
		c-0.35-0.15-0.73-0.25-1.1-0.32c-0.42-0.07-0.81,0-1.22,0C28.51,35.25,28.52,35.29,28.54,35.28L28.54,35.28z"/>
	<path class="st3" d="M32.44,35.16c0.47,0.11,0.93,0.46,1.31,0.74c0.39,0.3,0.75,0.64,1.07,1.02c0.31,0.36,0.56,0.77,0.77,1.2
		c0.12,0.25,0.1,0.59,0.09,0.81c-0.01,0.17,0.02,0.39,0.18,0.49c0.01,0,0.01,0.01,0.02,0.01c0.19,0.12,0.4,0.16,0.6,0.02
		c0,0,0.01-0.01,0.02-0.01c0.15-0.1,0.24-0.29,0.22-0.47c-0.04-0.37-0.09-0.8-0.3-1.12c-0.29-0.46-0.7-0.88-1.11-1.24
		c-0.4-0.35-0.86-0.64-1.33-0.89c-0.23-0.12-0.46-0.22-0.7-0.32c-0.27-0.11-0.57-0.16-0.83-0.27
		C32.43,35.12,32.41,35.15,32.44,35.16L32.44,35.16z"/>
	<path class="st3" d="M31.25,34.24c0.33-0.02,0.72,0.1,1.04,0.17c0.34,0.08,0.68,0.18,1.01,0.3c0.63,0.23,1.2,0.58,1.67,1.05
		c0.51,0.52,0.92,1.32,0.99,2.04c0.02,0.19-0.01,0.38-0.04,0.57c-0.03,0.22-0.12,0.54-0.07,0.76c0.07,0.3,0.49,0.55,0.72,0.22
		c0.27-0.38,0.23-1.07,0.17-1.52c-0.11-0.84-0.7-1.68-1.29-2.26c-0.53-0.51-1.22-0.83-1.92-1.04c-0.37-0.11-0.75-0.18-1.14-0.23
		c-0.37-0.05-0.78-0.01-1.14-0.1C31.23,34.2,31.23,34.25,31.25,34.24L31.25,34.24z"/>
	<path class="st4" d="M22.37,36.16c0.28-0.21,0.64-0.35,0.96-0.49c0.28-0.13,0.56-0.24,0.85-0.35c0.57-0.21,1.16-0.37,1.76-0.46
		c1.27-0.19,2.58,0.02,3.76,0.49c1.07,0.42,2.19,0.78,3.18,1.37c0.46,0.27,0.86,0.66,1.26,1.01c0.38,0.32,0.82,0.76,1.31,0.88
		c0.07,0.02,0.14-0.08,0.09-0.14c-0.16-0.19-0.37-0.34-0.54-0.51c-0.22-0.22-0.43-0.46-0.63-0.7c-0.37-0.43-0.73-0.86-1.17-1.23
		c-0.47-0.39-1.04-0.61-1.61-0.82c-0.63-0.23-1.25-0.38-1.91-0.47c-1.27-0.17-2.5-0.25-3.77-0.02c-0.58,0.1-1.14,0.27-1.68,0.49
		c-0.32,0.12-0.63,0.27-0.93,0.42c-0.32,0.16-0.63,0.37-0.96,0.5C22.33,36.14,22.34,36.17,22.37,36.16L22.37,36.16z"/>
	<path class="st4" d="M27.44,34.57c0.16-0.07,0.37-0.06,0.54-0.07c0.19-0.02,0.38-0.03,0.58-0.04c0.41-0.02,0.83-0.04,1.25,0
		c0.78,0.07,1.57,0.22,2.32,0.49c0.35,0.12,0.68,0.31,1.03,0.44c0.35,0.12,0.68,0.29,0.98,0.5c0.69,0.47,1.21,1,1.55,1.76
		c0.04,0.09,0.18,0.06,0.17-0.04c-0.1-0.81-0.44-1.67-1.03-2.26c-0.3-0.3-0.66-0.54-1.02-0.74c-0.39-0.22-0.8-0.32-1.24-0.39
		c-0.86-0.14-1.75-0.13-2.61-0.04c-0.43,0.04-0.85,0.08-1.28,0.14c-0.21,0.03-0.43,0.07-0.64,0.11c-0.19,0.04-0.41,0.12-0.6,0.12
		C27.41,34.54,27.42,34.58,27.44,34.57L27.44,34.57z"/>
	<path class="st2" d="M26.35,35.67c-0.66,0.08-1.36,0.34-1.94,0.67c-0.67,0.38-1.17,1.1-1.68,1.65c-0.55,0.58-0.98,1.22-1.64,1.69
		c-0.15,0.11-0.28,0.29-0.42,0.42c-0.15,0.15-0.31,0.27-0.48,0.39c-0.28,0.2-0.72,0.22-1.05,0.27c-0.03,0-0.04,0.05,0,0.06
		c0.29,0.03,0.59,0.06,0.88,0.04c0.33-0.02,0.63-0.17,0.91-0.33c0.36-0.2,0.67-0.41,0.94-0.72c0.27-0.32,0.47-0.69,0.71-1.04
		c0.45-0.66,0.97-1.32,1.52-1.9c0.3-0.32,0.63-0.52,1.02-0.71c0.4-0.19,0.78-0.37,1.23-0.47C26.37,35.7,26.37,35.67,26.35,35.67
		L26.35,35.67z"/>
	<path class="st2" d="M20.51,40.03c0.15-0.32,0.2-0.67,0.36-0.98c0.22-0.43,0.48-0.84,0.72-1.26c0.19-0.33,0.4-0.66,0.59-0.98
		c0.21-0.35,0.57-0.59,0.84-0.9c0.04-0.04-0.01-0.12-0.07-0.09c-0.68,0.35-1.32,0.8-1.66,1.51c-0.2,0.42-0.34,0.88-0.5,1.32
		c-0.07,0.2-0.15,0.39-0.17,0.6c-0.03,0.25,0.02,0.54-0.14,0.77C20.47,40.03,20.5,40.05,20.51,40.03L20.51,40.03z"/>
	<path class="st4" d="M26.63,23.94c0.49,0.01,0.79,0.46,1.02,0.84c0.24,0.39,0.43,0.81,0.67,1.2c0.67,1.09,1.45,2.12,2.13,3.21
		c1.39,2.23,2.69,4.51,4.13,6.71c0.02,0.03,0.06,0,0.05-0.03c-1.12-2.52-2.56-4.88-4.08-7.17c-0.75-1.13-1.59-2.18-2.32-3.32
		c-0.35-0.55-0.79-1.54-1.59-1.44C26.62,23.93,26.62,23.94,26.63,23.94L26.63,23.94z"/>
	<path class="st5" d="M18.51,15.46c-0.2-0.17-0.66-0.18-0.9-0.22c-0.66-0.11-1.31-0.2-1.97-0.29c-1.75-0.24-3.5-0.47-5.24-0.78
		c-1.19-0.22-2.75-0.37-3.78-1.08c-1.2-0.84,2-1.6,2.43-1.63c1.85-0.14,3.71,0.51,5.34,1.32c1.67,0.83,3.26,1.9,4.57,3.23"/>
	<path class="st6" d="M18.35,15.39c-0.72-0.5-1.4-1.03-2.15-1.49c-0.65-0.4-1.33-0.76-2.02-1.07c-1.06-0.48-2.17-0.87-3.33-1.07
		c-1.3-0.22-2.77-0.13-3.98,0.42c-0.17,0.08-0.54,0.23-0.6,0.44c-0.05,0.17,0.17,0.18,0.26,0.11c0.11-0.08,0.21-0.19,0.31-0.29
		c0.08-0.08-0.04-0.19-0.13-0.13c-0.09,0.07-0.24,0.16-0.31,0.19c-0.01,0-0.02,0.01-0.03,0.02c-0.02,0.01,0.36-0.07,0.13,0.21
		c-0.03,0.04,0.02-0.01,0.04-0.02c0.07-0.04,0.2-0.1,0.3-0.15c0.18-0.09,0.37-0.17,0.57-0.23c1.52-0.52,3.23-0.36,4.76,0.02
		c0.97,0.24,1.9,0.6,2.8,1.04c0.52,0.25,1.03,0.54,1.52,0.83c0.62,0.37,1.26,0.75,1.84,1.2C18.35,15.4,18.36,15.4,18.35,15.39
		L18.35,15.39z"/>
	<path class="st5" d="M17.55,13.9c-0.17-0.19-0.18-0.66-0.22-0.89c-0.11-0.65-0.2-1.3-0.29-1.95c-0.24-1.73-0.47-3.47-0.78-5.19
		c-0.22-1.21-0.38-2.74-1.07-3.79c-0.82-1.24-1.6,1.81-1.64,2.26c-0.18,1.88,0.49,3.8,1.32,5.46c0.83,1.66,1.91,3.25,3.24,4.56"/>
	<path class="st6" d="M17.04,12.77c-0.31-0.3-0.35-0.87-0.39-1.27c-0.05-0.44-0.14-0.88-0.23-1.32c-0.24-1.22-0.44-2.44-0.63-3.67
		c-0.19-1.2-0.37-2.41-0.56-3.62c-0.05-0.32-0.07-0.68-0.24-0.97c-0.1-0.18-0.28-0.27-0.41-0.06c-0.07,0.1,0.08,0.23,0.15,0.12
		c0.01-0.01,0.01-0.02,0.02-0.02c0.07-0.1-0.08-0.22-0.15-0.12c-0.01,0.01-0.01,0.02-0.02,0.02c0.05,0.04,0.1,0.08,0.15,0.12
		c0.07-0.11,0.15,0.16,0.17,0.23c0.06,0.16,0.07,0.32,0.1,0.48c0.09,0.55,0.17,1.1,0.25,1.66c0.17,1.11,0.35,2.21,0.53,3.32
		c0.18,1.07,0.39,2.14,0.59,3.21C16.5,11.55,16.58,12.25,17.04,12.77C17.04,12.79,17.05,12.78,17.04,12.77L17.04,12.77z"/>
	<path class="st6" d="M16.28,11.52c-0.12,0.03-0.53-1.08-0.56-1.17c-0.32-0.8-0.62-1.61-0.84-2.45c-0.5-1.96-0.73-4.01-0.15-5.97
		c0.03-0.11-0.13-0.14-0.17-0.05C14.05,2.73,14,3.76,14.05,4.73c0.05,1.05,0.31,2.09,0.62,3.09c0.27,0.87,0.58,1.73,0.96,2.55
		c0.13,0.27,0.26,0.53,0.4,0.79C16.07,11.22,16.28,11.47,16.28,11.52C16.27,11.55,16.3,11.51,16.28,11.52L16.28,11.52z"/>
	<path class="st6" d="M17.49,13.74c-0.6-0.66-1.11-1.42-1.6-2.17c-0.42-0.65-0.8-1.32-1.13-2.02c-0.48-1.05-0.81-2.19-0.91-3.33
		c-0.12-1.31,0-2.69,0.67-3.85c0.09-0.15,0.15-0.29,0.25-0.41c-0.03,0.04-0.22-0.04-0.2-0.1c0.01-0.05-0.01,0.02-0.02,0.03
		c-0.05,0.09-0.1,0.17-0.16,0.25c-0.07,0.1,0.06,0.2,0.14,0.12c0.09-0.09,0.18-0.17,0.25-0.27c0.07-0.1,0.06-0.27-0.1-0.26
		c-0.21,0.02-0.4,0.38-0.49,0.54c-0.65,1.15-0.82,2.57-0.68,3.87c0.13,1.18,0.55,2.34,1.07,3.4c0.33,0.67,0.7,1.32,1.12,1.94
		C16.23,12.28,16.87,12.99,17.49,13.74C17.49,13.75,17.5,13.74,17.49,13.74L17.49,13.74z"/>
	<path class="st5" d="M17.3,15.36c-0.23-0.06-0.6,0.13-0.81,0.2c-0.57,0.19-1.13,0.4-1.69,0.6c-1.6,0.59-3.2,1.2-4.81,1.77
		c-0.53,0.19-6.77,2.45-6.7,1.14c0.02-0.31,0.25-0.63,0.41-0.88c0.37-0.56,0.85-1.05,1.39-1.46c1.2-0.9,2.66-1.38,4.12-1.65
		c2.88-0.52,6.05-0.33,8.83,0.59"/>
	<path class="st6" d="M15.88,15.45c-0.43-0.09-0.91,0.05-1.34,0.14c-0.57,0.11-1.13,0.29-1.69,0.47c-1.18,0.36-2.35,0.76-3.51,1.17
		C8.23,17.61,7.11,18,5.99,18.4c-0.58,0.21-1.16,0.42-1.74,0.62c-0.15,0.05-0.3,0.1-0.46,0.13c-0.09,0.01-0.35,0.07-0.27-0.06
		c-0.07-0.03-0.14-0.06-0.21-0.1C3.31,19,3.31,19.01,3.3,19.03c-0.07,0.13,0.14,0.22,0.21,0.1c0.01-0.01,0.01-0.02,0.02-0.03
		c0.07-0.13-0.13-0.22-0.21-0.1c-0.13,0.21-0.01,0.37,0.22,0.39c0.31,0.03,0.62-0.09,0.91-0.19c1.26-0.45,2.52-0.91,3.79-1.35
		c1.27-0.45,2.54-0.89,3.82-1.31c0.62-0.2,1.25-0.4,1.88-0.58c0.33-0.1,0.65-0.21,0.98-0.31c0.29-0.09,0.66-0.26,0.97-0.17
		C15.89,15.47,15.89,15.46,15.88,15.45L15.88,15.45z"/>
	<path class="st6" d="M14.22,15.35c-0.13,0.02-0.32-0.03-0.45-0.04c-0.31-0.01-0.63,0-0.94,0.01c-0.96,0.04-1.91,0.17-2.85,0.35
		c-2.22,0.42-4.52,1.06-6.2,2.65c-0.19,0.18-0.34,0.42-0.48,0.65c-0.07,0.11,0.1,0.19,0.18,0.11c0.83-0.78,1.75-1.45,2.78-1.93
		c1.06-0.5,2.17-0.89,3.3-1.19c0.98-0.26,1.99-0.4,2.99-0.52c0.52-0.06,1.09-0.16,1.62-0.1c0.02,0,0.03,0,0.05,0.02
		C14.22,15.38,14.23,15.35,14.22,15.35L14.22,15.35z"/>
	<path class="st6" d="M17.1,15.38c-0.78-0.15-1.55-0.37-2.34-0.49c-0.69-0.11-1.39-0.17-2.08-0.2c-1.14-0.05-2.29,0.01-3.41,0.22
		c-1.6,0.29-3.11,0.93-4.37,1.97c-0.61,0.51-1.32,1.18-1.62,1.93c-0.05,0.12-0.18,0.55,0.14,0.44c0.17-0.06,0.24-0.4,0.28-0.54
		c0.04-0.13-0.13-0.21-0.2-0.09c-0.06,0.12-0.12,0.21-0.19,0.31c-0.02,0.02-0.03,0.05-0.05,0.06c0.08-0.08,0.26,0.08,0.24,0.15
		c0.07-0.2,0.21-0.36,0.33-0.54c0.61-0.92,1.49-1.65,2.43-2.21c1.27-0.75,2.71-1.2,4.16-1.42c1-0.15,2.01-0.16,3.02-0.1
		c0.58,0.03,1.16,0.1,1.73,0.18c0.63,0.08,1.29,0.16,1.91,0.34C17.11,15.4,17.11,15.38,17.1,15.38L17.1,15.38z"/>
	<path class="st7" d="M18.32,16.27c-1.3,0.12-2.58,0.98-3.67,1.63c-1.65,1-3.24,2.1-4.83,3.2c-1.48,1.02-2.95,2.06-4.49,2.98
		c-0.56,0.34-1.93,1.34-2.66,0.98c-0.77-0.39,0.36-2.4,0.6-2.8c0.97-1.61,2.56-2.77,4.2-3.62c3.49-1.83,7.74-2.74,11.68-2.53"/>
	<path class="st5" d="M17.21,16.73c-1.23,0.43-2.27,1.56-3.17,2.46c-1.36,1.36-2.64,2.82-3.91,4.26c-1.19,1.34-2.36,2.71-3.64,3.97
		c-0.47,0.46-1.55,1.76-2.34,1.58c-0.81-0.19-0.26-2.28-0.14-2.71c0.52-1.83,1.79-3.37,3.2-4.62c2.95-2.64,6.89-4.56,10.78-5.3"/>
	<path class="st6" d="M15.68,17.65c-0.53,0.17-0.97,0.58-1.4,0.92c-0.53,0.42-1.01,0.9-1.49,1.37c-1.06,1.03-2.09,2.09-3.11,3.16
		c-1.01,1.05-2.02,2.12-3.02,3.18c-0.5,0.54-1.01,1.07-1.51,1.61c-0.18,0.19-0.35,0.39-0.56,0.55c-0.06,0.05-0.44,0.3-0.44,0.2
		c-0.09,0-0.18-0.01-0.28-0.01c0,0.02,0,0.03,0,0.05c0.01,0.18,0.29,0.15,0.28-0.02c0-0.02,0-0.03,0-0.05
		c-0.01-0.15-0.27-0.17-0.28-0.01c-0.02,0.38,0.27,0.42,0.56,0.27c0.44-0.23,0.75-0.62,1.08-0.98c1.11-1.18,2.21-2.37,3.33-3.55
		c1.1-1.16,2.2-2.32,3.33-3.45c0.56-0.56,1.12-1.11,1.69-1.65c0.29-0.27,0.57-0.56,0.86-0.84c0.27-0.26,0.58-0.66,0.96-0.74
		C15.69,17.67,15.69,17.65,15.68,17.65z"/>
	<path class="st6" d="M13.74,18.54c-0.07,0.07-0.3,0.11-0.39,0.16c-0.24,0.11-0.48,0.24-0.72,0.37c-0.77,0.42-1.5,0.89-2.22,1.39
		c-1.87,1.31-3.71,2.77-5.06,4.62c-0.4,0.54-0.75,1.12-1.04,1.72c-0.28,0.59-0.45,1.16-0.48,1.81c-0.01,0.17,0.21,0.21,0.26,0.05
		c0.16-0.5,0.37-1,0.58-1.48c0.23-0.51,0.5-0.99,0.82-1.45c0.65-0.97,1.44-1.86,2.26-2.7c1.43-1.46,3.07-2.7,4.79-3.81
		c0.25-0.16,0.5-0.32,0.76-0.46c0.06-0.04,0.36-0.25,0.45-0.2C13.76,18.57,13.76,18.53,13.74,18.54L13.74,18.54z"/>
	<path class="st7" d="M18.62,16.64c-1.07,0.52-1.87,1.69-2.56,2.61c-1.11,1.47-2.1,3.02-3.1,4.56c-1,1.56-1.98,3.13-3.02,4.65
		c-0.67,0.99-1.38,2.14-2.34,2.89c-0.18,0.14-0.46,0.33-0.7,0.21c-0.3-0.16-0.22-0.52-0.33-0.78c-0.26-2.32,0.51-4.59,1.77-6.52
		c2.45-3.75,6.68-6.84,11-8.08"/>
	<path class="st8" d="M19.59,17.08c-0.96,0.7-1.55,1.99-2.07,3.02c-0.83,1.64-1.55,3.34-2.25,5.03c-0.71,1.71-1.41,3.42-2.17,5.11
		c-0.49,1.09-0.98,2.35-1.8,3.25c-0.46,0.51-0.87,0.36-1.08-0.27c-0.7-2.12-0.38-4.45,0.43-6.49c0.92-2.32,2.44-4.4,4.18-6.17
		c1.56-1.6,3.37-3.05,5.39-4.04"/>
	<path class="st7" d="M10.41,32.41c-0.03,0.07-0.11-0.2-0.11-0.21c-0.02-0.17-0.01-0.35,0.01-0.53c0.05-0.61,0.2-1.21,0.37-1.8
		c0.62-2.16,1.62-4.17,2.87-6.05c0.68-1.03,1.43-2.03,2.2-2.99c0.93-1.15,1.97-2.21,2.94-3.34c0.09-0.1-0.05-0.26-0.16-0.17
		c-1.38,1.1-2.53,2.46-3.61,3.85c-0.89,1.15-1.67,2.39-2.35,3.67c-0.93,1.75-1.76,3.64-2.14,5.6c-0.1,0.5-0.17,1.01-0.16,1.52
		C10.28,32.14,10.27,32.33,10.41,32.41C10.44,32.43,10.42,32.38,10.41,32.41L10.41,32.41z"/>
	<path class="st6" d="M3.63,22.54c0-0.05,0.03-0.1,0.08-0.17c0.11-0.13,0.23-0.25,0.35-0.37c0.46-0.44,0.96-0.82,1.46-1.2
		c1.75-1.31,3.69-2.33,5.73-3.12c1.11-0.43,2.24-0.81,3.38-1.13c0.62-0.18,1.25-0.33,1.89-0.47c0.68-0.15,1.36-0.3,2.03-0.49
		c0.16-0.04,0.09-0.27-0.06-0.27c-0.41,0.01-0.83,0.01-1.23,0.09c-0.42,0.08-0.85,0.17-1.26,0.26c-0.76,0.17-1.51,0.37-2.25,0.6
		c-1.33,0.41-2.61,0.96-3.85,1.59c-1.75,0.9-3.49,1.94-4.97,3.25c-0.44,0.39-0.9,0.79-1.24,1.27c-0.01,0.02-0.11,0.14-0.08,0.16
		C3.65,22.58,3.62,22.51,3.63,22.54L3.63,22.54z"/>
	<path class="st6" d="M6.06,22.55c0.15-0.32,0.5-0.62,0.74-0.88c0.26-0.28,0.54-0.55,0.83-0.81c0.63-0.57,1.33-1.06,2.05-1.5
		c0.95-0.58,1.98-1.03,3.02-1.44c1.4-0.57,2.81-1.12,4.23-1.62c0.27-0.1,0.54-0.19,0.82-0.29c0.28-0.1,0.55-0.27,0.82-0.4
		c0.13-0.06,0.1-0.3-0.06-0.27c-0.42,0.08-0.84,0.16-1.25,0.3c-0.43,0.15-0.85,0.3-1.28,0.46c-0.73,0.27-1.45,0.54-2.17,0.83
		c-1.13,0.46-2.23,1.03-3.28,1.65c-1.47,0.86-2.83,1.84-3.89,3.19C6.43,22,6.27,22.32,6.04,22.54C6.03,22.55,6.05,22.56,6.06,22.55z
		"/>
	<path class="st6" d="M7.69,12.92c0.59-0.1,1.22-0.09,1.82-0.1c0.46-0.01,0.93,0,1.39,0.06c0.59,0.07,1.14,0.28,1.67,0.54
		c0.51,0.25,1,0.5,1.55,0.66c0.39,0.11,0.78,0.18,1.19,0.24c0.25,0.03,0.51,0.06,0.77,0.07c0.3,0.02,0.58-0.02,0.88-0.08
		c0.15-0.03,0.17-0.24,0.01-0.28c-0.27-0.06-0.52-0.13-0.8-0.15c-0.26-0.02-0.51-0.04-0.77-0.07c-0.4-0.05-0.8-0.13-1.19-0.24
		c-0.54-0.15-1.06-0.37-1.58-0.56c-0.57-0.21-1.14-0.32-1.75-0.37c-0.43-0.03-0.87-0.02-1.31,0.01c-0.64,0.04-1.26,0.19-1.89,0.25
		C7.68,12.9,7.68,12.92,7.69,12.92L7.69,12.92z"/>
	<path class="st6" d="M8.81,13.5c0.43,0.01,0.87,0.1,1.3,0.15c0.33,0.03,0.65,0.07,0.97,0.12c0.53,0.08,1.05,0.2,1.57,0.34
		c0.52,0.15,1.03,0.31,1.55,0.45c0.32,0.08,0.63,0.17,0.95,0.25c0.38,0.1,0.71,0.16,1.11,0.16c0.15,0,0.16-0.2,0.05-0.27
		c-0.62-0.34-1.33-0.46-2.01-0.65c-0.52-0.14-1.04-0.25-1.57-0.33c-0.53-0.08-1.06-0.13-1.6-0.17c-0.33-0.03-0.66-0.05-0.98-0.06
		c-0.44-0.02-0.88,0.02-1.32-0.01C8.79,13.48,8.79,13.5,8.81,13.5L8.81,13.5z"/>
	<path class="st7" d="M13.07,28.4c0.17-0.59,0.43-1.17,0.65-1.74c0.17-0.47,0.33-0.95,0.49-1.42c0.29-0.83,0.6-1.64,0.97-2.43
		c0.4-0.85,0.87-1.66,1.35-2.46c0.66-1.1,1.45-2.12,2.06-3.24c0.07-0.12-0.11-0.22-0.2-0.13c-0.87,0.93-1.55,2.03-2.21,3.12
		c-0.5,0.83-0.91,1.69-1.26,2.59c-0.32,0.81-0.59,1.65-0.86,2.49c-0.15,0.46-0.29,0.92-0.43,1.38c-0.19,0.61-0.33,1.26-0.57,1.85
		C13.06,28.41,13.07,28.41,13.07,28.4L13.07,28.4z"/>
	<path class="st5" d="M7.81,27.41c0.03-0.41,0.32-0.87,0.5-1.23c0.26-0.5,0.56-0.97,0.87-1.44c0.73-1.1,1.57-2.13,2.46-3.12
		c0.96-1.07,1.99-2.09,3.03-3.08c0.95-0.91,1.97-1.73,2.94-2.6c0.12-0.1,0-0.27-0.14-0.2c-1.13,0.64-2.08,1.52-3.02,2.4
		c-1.05,0.99-2.01,2.05-2.92,3.16c-0.84,1.03-1.66,2.1-2.38,3.22c-0.53,0.81-1.01,1.68-1.28,2.62c-0.03,0.09-0.04,0.18-0.07,0.26
		C7.79,27.42,7.8,27.42,7.81,27.41L7.81,27.41z"/>
	<path class="st5" d="M10.82,24.97c0.12-0.7,0.5-1.43,0.82-2.05c0.38-0.73,0.84-1.4,1.37-2.01c0.6-0.7,1.28-1.33,1.97-1.95
		c0.78-0.7,1.64-1.3,2.39-2.03c0.08-0.08-0.03-0.24-0.13-0.19c-0.96,0.49-1.79,1.21-2.58,1.93c-0.69,0.62-1.3,1.32-1.85,2.07
		c-0.48,0.65-0.91,1.34-1.27,2.06c-0.17,0.35-0.31,0.71-0.43,1.08c-0.12,0.36-0.18,0.74-0.3,1.1C10.8,24.97,10.82,24.98,10.82,24.97
		L10.82,24.97z"/>
	<path class="st7" d="M18.71,14.45c-0.58-0.2-1.07-0.66-1.51-1.07c-0.67-0.62-1.28-1.29-1.89-1.97c-1.28-1.42-2.49-2.92-3.89-4.22
		C11,6.79,10.52,6.32,9.95,6.13C9.55,5.99,9.17,6.24,8.97,6.6c-0.88,1.65,0.95,3.47,2.09,4.42C13.13,12.75,15.98,14.29,18.71,14.45"
		/>
	<path class="st6" d="M16.78,13.37c-0.09,0.05-0.37-0.1-0.45-0.14c-0.27-0.11-0.54-0.25-0.8-0.39c-0.79-0.42-1.56-0.88-2.27-1.43
		c-0.84-0.66-1.59-1.42-2.24-2.26c-0.67-0.87-1.07-1.86-1.39-2.9C9.59,6.12,9.42,6.18,9.42,6.3c0.01,1.12,0.57,2.15,1.23,3.03
		c0.67,0.89,1.56,1.62,2.47,2.25c0.75,0.51,1.53,0.99,2.36,1.36c0.28,0.12,0.56,0.24,0.86,0.34c0.14,0.05,0.31,0.05,0.44,0.11
		C16.79,13.39,16.79,13.36,16.78,13.37L16.78,13.37z"/>
	<path class="st6" d="M18.42,14.41c-0.88-0.27-1.73-0.7-2.56-1.08c-0.68-0.32-1.36-0.66-2-1.05c-1-0.61-1.93-1.32-2.75-2.15
		C10.3,9.31,9.34,8.2,9.34,6.97c0-0.12,0-0.31,0.05-0.43C9.42,6.46,9.5,6.39,9.54,6.39c0.14,0.01,0.18-0.2,0.04-0.21
		C8.81,6.13,8.92,7.24,9.05,7.7c0.4,1.47,1.63,2.68,2.82,3.55c0.84,0.62,1.75,1.13,2.68,1.61c0.56,0.29,1.14,0.55,1.73,0.79
		c0.71,0.29,1.44,0.5,2.15,0.78C18.43,14.44,18.43,14.42,18.42,14.41L18.42,14.41z"/>
	<path class="st9" d="M19.37,16.66c-0.76,1.16-0.77,2.87-0.83,4.2c-0.1,2.01-0.06,4.01-0.09,6.02c-0.03,1.72-0.02,3.52-0.46,5.2
		c-0.14,0.52-0.33,1.08-0.72,1.47c-0.15,0.14-0.32,0.25-0.52,0.3c-0.1,0.02-0.2,0.04-0.31,0.04c-0.08,0-0.1-0.04-0.15-0.1
		c-0.08-0.08-0.16,0.07-0.28-0.07c-2.07-2.57-1.81-6.2-0.95-9.19c0.9-3.11,2.5-6.19,4.69-8.6"/>
	<path class="st7" d="M18.75,18.29c-0.38,0.48-0.65,0.95-0.85,1.53c-0.19,0.57-0.27,1.18-0.37,1.78c-0.28,1.65-0.4,3.33-0.5,5
		c-0.1,1.58-0.21,3.18-0.23,4.77c0,0.38,0,0.76-0.02,1.13c-0.01,0.19-0.03,1-0.31,1.02c-0.16,0.01-0.14,0.26,0.02,0.25
		c0.3-0.02,0.39-0.35,0.45-0.59c0.1-0.43,0.1-0.88,0.1-1.32c0.01-1.43,0.09-2.86,0.16-4.28c0.09-1.76,0.2-3.52,0.44-5.26
		c0.1-0.7,0.21-1.41,0.36-2.1c0.14-0.65,0.26-1.42,0.75-1.91C18.77,18.29,18.76,18.28,18.75,18.29z"/>
	<path class="st7" d="M16.48,22.39c0.01,0.07-0.2,0.33-0.23,0.39c-0.13,0.27-0.25,0.56-0.35,0.85c-0.33,0.9-0.53,1.84-0.68,2.79
		c-0.18,1.18-0.3,2.39-0.18,3.58c0.14,1.3,0.44,2.68,1.2,3.77c0.08,0.11,0.25,0.02,0.21-0.11c-0.42-1.22-0.83-2.4-0.98-3.7
		c-0.13-1.16-0.18-2.34-0.05-3.5c0.1-0.91,0.3-1.81,0.54-2.69c0.08-0.31,0.18-0.61,0.29-0.9c0.02-0.05,0.16-0.47,0.23-0.46
		C16.51,22.4,16.48,22.37,16.48,22.39L16.48,22.39z"/>
	<path class="st8" d="M19.52,17.27c-0.57,1.36-0.1,3.25,0.12,4.64c0.33,2,0.77,3.99,0.99,6.01c0.1,0.95,0.46,3.06-0.6,3.66
		c-0.76,0.43-1.46-0.73-1.82-1.32c-0.61-1.02-0.92-2.19-1.03-3.36c-0.34-3.47,0.7-7.33,2.54-10.28"/>
	<path class="st7" d="M19.74,30.31c-0.28-0.61-0.47-1.28-0.65-1.93c-0.18-0.64-0.35-1.27-0.49-1.92c-0.23-1.13-0.33-2.27-0.33-3.42
		c0-1.03,0.08-2.08,0.25-3.1c0.15-0.91,0.41-1.81,0.62-2.72c0.03-0.14-0.17-0.19-0.23-0.07c-0.44,0.86-0.66,1.76-0.83,2.71
		c-0.18,1.03-0.25,2.07-0.19,3.12c0.06,1.18,0.25,2.35,0.52,3.5c0.14,0.62,0.32,1.24,0.52,1.84c0.22,0.68,0.54,1.32,0.79,1.99
		C19.72,30.33,19.74,30.32,19.74,30.31L19.74,30.31z"/>
	<path class="st7" d="M19.93,28.23c-0.1-0.74-0.1-1.5-0.17-2.25c-0.06-0.65-0.13-1.3-0.2-1.96c-0.12-1.1-0.22-2.2-0.29-3.31
		c-0.05-0.87-0.11-1.74-0.05-2.61c0.05-0.82,0.22-1.64,0.38-2.45c0.03-0.14-0.17-0.19-0.23-0.07c-0.74,1.52-0.71,3.39-0.51,5.04
		c0.13,1.09,0.33,2.17,0.48,3.25c0.1,0.67,0.19,1.35,0.28,2.03c0.1,0.77,0.26,1.56,0.3,2.33C19.92,28.25,19.94,28.24,19.93,28.23
		L19.93,28.23z"/>
	<path class="st7" d="M19.06,14.72C18.71,12.96,19.42,11,20,9.36c0.68-1.91,1.52-3.76,2.19-5.68c0.18-0.53,1.07-2.67,0.01-2.86
		c-0.86-0.16-1.69,0.88-2.17,1.47c-0.75,0.92-1.27,2-1.62,3.12C17.5,8.39,17.66,11.91,19.06,14.72"/>
	<path class="st6" d="M21.05,2.02c-0.26,0.36-0.59,0.68-0.86,1.04c-0.27,0.37-0.5,0.76-0.71,1.17c-0.44,0.87-0.73,1.8-0.93,2.75
		c-0.24,1.12-0.34,2.3-0.29,3.45c0.06,1.46,0.21,2.97,0.68,4.35c0.05,0.14,0.25,0.08,0.24-0.05c-0.1-1.39-0.38-2.77-0.46-4.16
		c-0.06-1.13-0.08-2.26,0.07-3.39c0.12-0.95,0.39-1.88,0.78-2.76c0.18-0.41,0.4-0.81,0.63-1.19c0.24-0.39,0.51-0.86,0.86-1.18
		C21.07,2.02,21.06,2,21.05,2.02L21.05,2.02z"/>
	<path class="st6" d="M21.18,4.54c-0.14,0.28-0.4,0.54-0.58,0.79c-0.19,0.27-0.37,0.54-0.54,0.82c-0.39,0.66-0.68,1.35-0.92,2.07
		c-0.31,0.93-0.49,1.91-0.59,2.89c-0.06,0.63-0.05,1.27-0.03,1.9c0.01,0.37,0.03,0.73,0.05,1.1c0.02,0.39,0.1,0.74,0.19,1.11
		c0.03,0.12,0.23,0.1,0.24-0.02c0.09-1.34-0.07-2.67,0-4.01c0.05-0.98,0.12-1.94,0.35-2.9c0.17-0.71,0.47-1.39,0.81-2.03
		c0.15-0.28,0.31-0.56,0.48-0.84c0.17-0.28,0.33-0.63,0.55-0.86C21.21,4.54,21.19,4.53,21.18,4.54L21.18,4.54z"/>
	<path class="st6" d="M23.57,4.15c-0.14,0.28-0.4,0.54-0.58,0.79c-0.19,0.27-0.37,0.54-0.54,0.82c-0.39,0.66-0.68,1.35-0.92,2.07
		c-0.31,0.93-0.49,1.91-0.59,2.89c-0.06,0.63-0.05,1.27-0.03,1.9c0.01,0.37,0.03,0.73,0.05,1.1c0.02,0.39,0.1,0.74,0.19,1.11
		c0.03,0.12,0.23,0.1,0.24-0.02c0.08-1.34-0.07-2.67,0-4.01c0.05-0.98,0.12-1.94,0.35-2.9c0.17-0.71,0.47-1.39,0.81-2.03
		c0.15-0.28,0.31-0.56,0.48-0.84c0.17-0.28,0.33-0.63,0.55-0.86C23.59,4.16,23.57,4.15,23.57,4.15L23.57,4.15z"/>
	<path class="st7" d="M18.99,15.63c0.68-1.19,1.98-2.1,3.04-2.92c1.59-1.24,3.25-2.39,4.88-3.56c1.47-1.06,2.97-2.12,4.31-3.35
		c0.43-0.4,1.82-1.54,1.32-2.27c-1.72-2.52-5.6,0.91-6.97,2.22c-1.53,1.46-2.89,3.11-4.07,4.87C20.47,12.17,19.51,13.84,18.99,15.63
		"/>
	<path class="st5" d="M19.24,14.97c0.21-1.65,1.2-3.31,1.95-4.76c1.01-1.94,2.12-3.83,3.3-5.67c0.77-1.2,1.9-2.35,2.24-3.75
		c0.04-0.16,0.28-0.9-0.07-0.78c-0.45,0.15-0.86,0.37-1.25,0.64c-0.86,0.59-1.56,1.39-2.17,2.22c-1.39,1.91-2.36,4.13-3.05,6.38
		c-0.55,1.8-1.06,3.85-0.79,5.75"/>
	<path class="st7" d="M24.66,3.56c-0.46,0.78-1.01,1.51-1.5,2.27c-0.41,0.64-0.8,1.3-1.2,1.94c-0.6,0.97-1.22,1.95-1.72,2.98
		c-0.51,1.06-1.05,2.2-1.21,3.37c-0.04,0.29,0.02,0.61,0.09,0.89c0.04,0.14,0.23,0.07,0.23-0.05c0-0.66,0.22-1.44,0.45-2.08
		c0.25-0.72,0.57-1.41,0.91-2.09c0.52-1.05,1.02-2.11,1.57-3.14c0.33-0.62,0.7-1.23,1.06-1.84c0.44-0.74,0.83-1.53,1.32-2.24
		C24.68,3.56,24.67,3.55,24.66,3.56L24.66,3.56z"/>
	<path class="st9" d="M19.48,14.8c0.39-1.54,1.58-2.99,2.5-4.25c1.29-1.77,2.67-3.48,4.1-5.14c0.87-1.02,1.77-2,2.73-2.93
		c0.45-0.44,0.94-0.85,1.38-1.3c0.12-0.12,0.82-0.83,0.33-0.9c-0.56-0.07-1.26,0.27-1.77,0.46c-0.78,0.29-1.5,0.65-2.17,1.15
		c-1.38,1.03-2.5,2.4-3.46,3.81c-1.01,1.5-1.87,3.12-2.52,4.82c-0.53,1.36-1,2.86-0.96,4.33"/>
	<path class="st7" d="M28.4,0.92c-0.62,0.69-1.32,1.3-1.95,1.98c-0.56,0.61-1.11,1.22-1.64,1.85c-0.88,1.04-1.74,2.11-2.53,3.23
		c-1.03,1.45-1.92,3.01-2.53,4.69c-0.15,0.43-0.31,0.87-0.36,1.32c-0.03,0.27-0.02,0.54-0.02,0.82c0,0.15,0.24,0.13,0.24-0.02
		c0-0.24,0.13-0.6,0.21-0.84c0.18-0.52,0.31-1.05,0.51-1.57c0.72-1.8,1.77-3.5,2.85-5.11c0.68-1.01,1.42-1.98,2.2-2.91
		c0.45-0.55,0.92-1.08,1.39-1.61c0.54-0.61,1.06-1.27,1.65-1.82C28.42,0.92,28.4,0.91,28.4,0.92L28.4,0.92z"/>
	<path class="st6" d="M25.17,2.81c-0.52,0.68-1.14,1.3-1.67,1.97c-0.41,0.52-0.81,1.05-1.2,1.58c-0.54,0.73-1.05,1.49-1.46,2.3
		c-0.3,0.61-0.51,1.26-0.7,1.92c-0.21,0.74-0.49,1.48-0.63,2.24c-0.03,0.13-0.05,0.26-0.08,0.39c-0.03,0.14,0.17,0.2,0.23,0.07
		c0.22-0.41,0.38-0.8,0.52-1.24c0.11-0.36,0.21-0.71,0.31-1.07c0.18-0.64,0.39-1.27,0.63-1.89c0.83-2.19,2.37-4.05,3.77-5.9
		c0.09-0.12,0.18-0.24,0.29-0.36C25.19,2.81,25.18,2.8,25.17,2.81L25.17,2.81z"/>
	<path class="st7" d="M26.85,3.49c-0.6,0.68-1.28,1.29-1.88,1.96c-0.51,0.57-1.01,1.16-1.5,1.75c-0.75,0.89-1.49,1.82-2.09,2.81
		c-0.4,0.67-0.77,1.37-1.05,2.1c-0.18,0.46-0.36,0.97-0.38,1.46c-0.01,0.21,0,0.41,0.03,0.62c0.02,0.13,0.22,0.15,0.24,0.01
		c0.04-0.34,0.15-0.65,0.22-0.97c0.13-0.56,0.34-1.09,0.58-1.61c0.38-0.83,0.86-1.62,1.34-2.39c0.72-1.16,1.54-2.26,2.42-3.31
		c0.33-0.39,0.66-0.78,0.99-1.16c0.36-0.42,0.71-0.87,1.11-1.26C26.88,3.49,26.86,3.48,26.85,3.49L26.85,3.49z"/>
	<path class="st5" d="M27.76,4.73c-0.65,0.67-1.38,1.26-2.04,1.92c-0.59,0.59-1.17,1.2-1.75,1.8c-0.95,0.99-1.9,2-2.72,3.09
		c-0.58,0.77-1.14,1.56-1.62,2.4c-0.28,0.48-0.54,0.98-0.59,1.54c-0.01,0.08-0.01,0.15,0,0.23c0.01,0.13,0.22,0.15,0.24,0.01
		c0.02-0.17,0.1-0.33,0.17-0.49c0.13-0.26,0.25-0.51,0.39-0.77c0.42-0.79,0.93-1.54,1.46-2.26c0.78-1.06,1.58-2.11,2.42-3.12
		c1.09-1.32,2.29-2.55,3.48-3.78c0.19-0.19,0.37-0.39,0.57-0.57C27.78,4.73,27.77,4.71,27.76,4.73L27.76,4.73z"/>
	<path class="st5" d="M31.59,4c-0.48,0.32-1.03,0.55-1.53,0.85c-0.54,0.33-1.07,0.68-1.59,1.05c-1.09,0.78-2.15,1.62-3.18,2.47
		c-1.82,1.51-3.55,3.13-5.1,4.93c-0.35,0.41-0.72,0.82-0.98,1.29c-0.14,0.25-0.28,0.53-0.29,0.82c0,0.15,0.24,0.13,0.24-0.02
		c0-0.1,0.17-0.31,0.24-0.41c0.19-0.25,0.39-0.5,0.58-0.75c0.59-0.76,1.24-1.46,1.91-2.15c1.8-1.88,3.68-3.71,5.71-5.33
		c0.65-0.52,1.33-1.01,2.01-1.49c0.32-0.23,0.64-0.44,0.97-0.66C30.91,4.4,31.25,4.15,31.59,4C31.61,4.01,31.6,3.99,31.59,4L31.59,4
		z"/>
	<path class="st6" d="M25.56,23.92c0,0,0.01-0.02,0-0.02C25.55,23.91,25.55,23.93,25.56,23.92z"/>
	<path class="st9" d="M18.67,16.16c0.89,0.23,1.74,0.76,2.56,1.16c1.33,0.66,2.66,1.31,4.04,1.87c1.33,0.54,2.72,1.05,4.15,1.22
		c0.58,0.07,1.17,0.08,1.74-0.07c0.24-0.06,0.48-0.16,0.69-0.29c0.09-0.05,0.5-0.49,0.57-0.36c-0.56-0.96-1.77-1.75-2.73-2.25
		c-1.1-0.57-2.3-0.92-3.52-1.13C23.7,15.87,21.16,15.98,18.67,16.16C20.43,16.62,23.21,15.82,18.67,16.16L18.67,16.16z"/>
	<path class="st9" d="M31.01,18.27c-0.68-0.74-1.69-1.13-2.63-1.42c-1.11-0.35-2.26-0.56-3.41-0.7c-1.9-0.23-3.87-0.38-5.78-0.22
		c-0.21,0.02-0.43,0.04-0.64,0.06c-0.06,0-0.28,0.06-0.27,0.06c-0.05-0.01-0.06,0.06-0.01,0.07c0.32,0.07,0.74,0.06,1.1,0.07
		c0.86,0.02,1.73-0.01,2.59,0c2.29,0.04,4.63,0.25,6.8,1.03c0.78,0.28,1.51,0.67,2.23,1.07C31.01,18.29,31.02,18.28,31.01,18.27
		L31.01,18.27z"/>
	<path class="st7" d="M32.34,19.64c-0.84-0.87-2.07-1.35-3.19-1.76c-1.19-0.44-2.43-0.78-3.67-1.05c-1.15-0.25-2.3-0.46-3.47-0.62
		c-0.87-0.12-1.74-0.23-2.62-0.23c-0.26,0-0.53,0-0.79,0c-0.08,0-0.17-0.01-0.25,0.02c-0.05,0.02-0.11,0.02-0.07,0.03
		c-0.06-0.02-0.08,0.08-0.02,0.1c-0.05-0.01,0.03,0.02,0.06,0.04c0.07,0.04,0.14,0.04,0.22,0.05c0.25,0.03,0.5,0.06,0.75,0.1
		c0.86,0.12,1.72,0.17,2.58,0.27c2.45,0.27,4.89,0.73,7.21,1.6c1.12,0.42,2.14,1.02,3.23,1.49C32.34,19.69,32.36,19.66,32.34,19.64
		L32.34,19.64z"/>
	<path class="st7" d="M26.14,18.86c-0.68-0.14-1.3-0.49-1.93-0.76c-0.57-0.24-1.14-0.46-1.69-0.73c-0.55-0.28-1.07-0.63-1.67-0.8
		c-0.68-0.19-1.37-0.28-2.07-0.29c-0.06,0-0.05,0.08,0,0.1c0.32,0.09,0.63,0.21,0.95,0.3c0.37,0.1,0.74,0.19,1.09,0.32
		c0.59,0.21,1.16,0.54,1.7,0.85c0.52,0.31,1.12,0.4,1.7,0.57c0.64,0.18,1.27,0.33,1.93,0.46C26.15,18.88,26.15,18.87,26.14,18.86
		L26.14,18.86z"/>
	<path class="st9" d="M19.28,15.64c0.81-1.32,2.45-2.15,3.78-2.83c1.89-0.97,3.88-1.76,5.85-2.53c1.68-0.66,3.39-1.26,5.03-2.03
		c0.82-0.38,2.47-1.28,1.39-2.32c-0.71-0.68-2.45,0.07-3.21,0.36c-1.6,0.59-3.13,1.4-4.59,2.27c-2.95,1.75-6.07,3.88-8.16,6.65"/>
	<path class="st7" d="M35.4,6.22c-1.26-0.01-2.49,0.35-3.67,0.77c-1.25,0.44-2.45,1.01-3.62,1.63c-2.17,1.17-4.23,2.53-6.18,4.03
		c-0.76,0.58-1.48,1.19-2.17,1.86c-0.05,0.05-0.73,0.71-0.57,0.73c0.05,0.01,0.06-0.07,0.01-0.07c0.08,0.02-0.02,0.08,0.08,0.02
		c0.06-0.04,0.11-0.07,0.16-0.12c0.17-0.15,0.35-0.3,0.53-0.44c0.62-0.51,1.24-1,1.86-1.5c1.89-1.51,3.88-2.91,5.99-4.08
		c1.21-0.67,2.47-1.27,3.76-1.76c1.24-0.46,2.52-0.76,3.81-1.04C35.43,6.24,35.43,6.22,35.4,6.22L35.4,6.22z"/>
	<path class="st7" d="M28.44,9.33c-0.75,0.19-1.45,0.6-2.13,0.96c-0.65,0.35-1.3,0.71-1.93,1.09c-0.99,0.59-1.97,1.21-2.91,1.88
		c-0.58,0.41-1.16,0.83-1.67,1.31c-0.15,0.14-0.29,0.27-0.43,0.41c-0.03,0.03-0.19,0.19-0.16,0.18c-0.05,0-0.04,0.08,0.01,0.07
		c0.22-0.02,0.47-0.24,0.67-0.39c0.57-0.41,1.11-0.86,1.67-1.28c0.91-0.68,1.85-1.32,2.82-1.91c0.63-0.38,1.26-0.74,1.9-1.09
		c0.73-0.39,1.52-0.73,2.19-1.22C28.47,9.34,28.46,9.32,28.44,9.33L28.44,9.33z"/>
	<path class="st8" d="M20.5,14.95c0.77-1.08,2.44-1.52,3.64-1.87c1.87-0.56,3.8-0.94,5.7-1.37c1.61-0.36,3.31-0.68,4.83-1.36
		c0.66-0.29,1.96-1.18,0.94-1.94c-0.83-0.62-2.09-0.44-3.03-0.25c-1.52,0.31-2.99,0.9-4.39,1.56C25.46,11,22.49,12.65,20.5,14.95"/>
	<path class="st7" d="M34.16,8.55c-0.86,0.11-1.71,0.36-2.54,0.61c-0.78,0.23-1.57,0.49-2.34,0.76c-1.31,0.46-2.6,0.98-3.87,1.54
		c-1.6,0.71-3.21,1.49-4.65,2.5c-0.23,0.16-0.45,0.32-0.67,0.48c-0.05,0.04-0.24,0.2-0.24,0.2c-0.04,0-0.04,0.07,0.01,0.07
		c0.14,0,0.39-0.17,0.55-0.27c0.49-0.3,0.99-0.58,1.48-0.88c1.89-1.14,3.89-2.09,5.94-2.89c0.95-0.37,1.92-0.71,2.89-1.02
		c1.14-0.37,2.32-0.64,3.44-1.07C34.18,8.57,34.17,8.55,34.16,8.55z"/>
	<path class="st7" d="M29.63,10.9c-0.9-0.04-1.82,0.2-2.68,0.42c-0.86,0.22-1.71,0.5-2.53,0.85c-0.79,0.33-1.55,0.71-2.3,1.13
		c-0.4,0.23-0.8,0.48-1.19,0.74c-0.18,0.12-0.35,0.28-0.53,0.42c-0.15,0.13-0.34,0.24-0.44,0.42c-0.02,0.03,0.02,0.05,0.04,0.04
		c0.19-0.05,0.35-0.19,0.52-0.29c0.19-0.12,0.38-0.24,0.57-0.35c0.37-0.22,0.72-0.49,1.09-0.71c0.73-0.45,1.5-0.86,2.3-1.2
		c0.79-0.34,1.61-0.61,2.43-0.82c0.89-0.24,1.82-0.33,2.7-0.61C29.65,10.92,29.65,10.9,29.63,10.9L29.63,10.9z"/>
	<path class="st9" d="M19.62,15.3c1.03-0.88,2.8-0.88,4.07-0.93c1.99-0.08,3.98,0.02,5.97,0.07c1.64,0.04,3.38,0.15,5-0.18
		c0.82-0.17,2.03-0.85,1.08-1.76c-0.75-0.73-2.01-0.82-2.99-0.85c-1.54-0.04-3.09,0.18-4.6,0.49C25.25,12.72,22.06,13.59,19.62,15.3
		z"/>
	<path class="st7" d="M34.15,12.35c-1.33-0.42-2.82-0.37-4.2-0.26c-1.41,0.12-2.81,0.39-4.18,0.72c-1.97,0.48-3.88,1.12-5.72,1.96
		c-0.1,0.05-0.21,0.09-0.31,0.14c-0.03,0.01-0.05,0.04-0.07,0.05c-0.04,0.02-0.04,0.01-0.01,0.01c-0.04-0.01-0.05,0.06-0.01,0.06
		c0.04,0.01,0.18-0.01,0.28-0.04c0.25-0.09,0.51-0.18,0.76-0.27c0.91-0.32,1.81-0.68,2.72-0.99c2.65-0.9,5.42-1.53,8.23-1.52
		c0.83,0,1.67,0.1,2.5,0.15C34.16,12.38,34.17,12.36,34.15,12.35z"/>
	<path class="st7" d="M30.45,13.26c-0.74-0.21-1.52-0.22-2.28-0.21c-0.71,0.01-1.42,0.07-2.12,0.17c-1.16,0.16-2.3,0.45-3.41,0.81
		c-0.79,0.26-1.59,0.54-2.35,0.87c-0.3,0.13-0.79,0.39-1.11,0.2c-0.03-0.02-0.05,0.02-0.04,0.04c0.1,0.35,0.73,0.16,0.96,0.1
		c0.78-0.2,1.51-0.57,2.26-0.84c1.12-0.42,2.27-0.74,3.46-0.93c0.72-0.12,1.45-0.18,2.18-0.2c0.82-0.02,1.64,0.07,2.45,0.03
		C30.47,13.29,30.47,13.27,30.45,13.26L30.45,13.26z"/>
	<path class="st8" d="M19.49,16.05c0.81-0.27,1.9-0.01,2.71,0.09c1.45,0.17,2.9,0.38,4.36,0.49c1.42,0.11,2.89,0.19,4.3-0.08
		c0.57-0.11,1.14-0.27,1.63-0.58c0.21-0.13,0.4-0.29,0.56-0.49c0.07-0.08,0.32-0.61,0.43-0.52c-0.8-0.71-2.14-1.09-3.17-1.28
		c-1.23-0.22-2.5-0.2-3.74-0.01C24.11,14.04,21.74,14.99,19.49,16.05C21.17,15.49,23.68,14.07,19.49,16.05L19.49,16.05z"/>
	<path class="st9" d="M31.78,14.32c-0.82-0.45-1.85-0.46-2.77-0.45c-1.19,0-2.37,0.14-3.53,0.32c-1.12,0.18-2.23,0.4-3.33,0.69
		c-0.79,0.21-1.57,0.45-2.27,0.88c-0.18,0.11-0.44,0.25-0.47,0.48c0,0.03,0.03,0.06,0.06,0.04c0.45-0.35,0.98-0.49,1.51-0.69
		c0.96-0.37,1.97-0.63,2.98-0.86c2.23-0.5,4.56-0.78,6.84-0.52c0.33,0.04,0.66,0.09,0.98,0.14C31.78,14.35,31.79,14.33,31.78,14.32
		L31.78,14.32z"/>
	<path class="st9" d="M33.39,14.95c-0.78-0.41-1.71-0.46-2.57-0.5c-1.13-0.05-2.26-0.01-3.39,0.07c-2.15,0.16-4.32,0.42-6.42,0.95
		c-0.36,0.09-0.72,0.24-1.05,0.39c-0.2,0.09-0.44,0.18-0.55,0.38c-0.02,0.03,0.02,0.06,0.05,0.05c1.43-0.55,2.97-0.84,4.48-1.1
		c2.29-0.39,4.64-0.62,6.97-0.5c0.83,0.04,1.66,0.15,2.48,0.29C33.4,14.99,33.41,14.96,33.39,14.95L33.39,14.95z"/>
	<path class="st9" d="M27.26,16.12c-0.68,0.08-1.38,0.02-2.06-0.03c-0.69-0.06-1.38-0.15-2.07-0.25c-0.66-0.1-1.27-0.27-1.94-0.19
		c-0.3,0.03-0.61,0.09-0.9,0.17c-0.3,0.09-0.56,0.3-0.86,0.39c-0.04,0.01-0.03,0.08,0.02,0.07c0.26-0.03,0.5-0.11,0.75-0.18
		c0.33-0.1,0.68-0.13,1.02-0.16c0.71-0.06,1.38,0.14,2.07,0.24C24.63,16.38,25.92,16.28,27.26,16.12
		C27.26,16.13,27.26,16.11,27.26,16.12L27.26,16.12z"/>
	<path class="st8" d="M19.27,15.73c0.54,0.71,1.32,1.27,1.98,1.85c1.11,0.96,2.21,1.93,3.25,2.97c0.98,0.98,1.97,2.03,2.65,3.25
		c0.25,0.46,0.47,0.95,0.53,1.48c0.02,0.22,0.03,0.44-0.06,0.64c-0.08,0.19-0.27,0.4-0.18,0.52c-0.05-0.06-0.5-0.05-0.59-0.07
		c-0.21-0.04-0.42-0.11-0.62-0.19c-0.47-0.19-0.9-0.48-1.29-0.8c-0.9-0.75-1.62-1.7-2.26-2.68C21.28,20.53,20.23,18.13,19.27,15.73
		C20.32,17.1,20.87,19.73,19.27,15.73L19.27,15.73z"/>
	<path class="st9" d="M26.04,25.58c-1.51-1.37-2.68-3.03-3.77-4.74c-1.02-1.6-1.86-3.3-2.84-4.93c-0.11-0.18-0.25-0.37-0.36-0.51
		c-0.03-0.03-0.08,0-0.05,0.04c0.04,0.06,0.08,0.25,0.13,0.34c0.12,0.26,0.24,0.52,0.37,0.78c0.39,0.82,0.88,1.6,1.34,2.38
		c1.13,1.9,2.3,3.84,3.77,5.51c0.4,0.46,0.84,0.91,1.4,1.17C26.05,25.61,26.06,25.59,26.04,25.58L26.04,25.58z"/>
	<path class="st9" d="M27.39,26.4c-1.41-1.24-2.59-2.73-3.7-4.23c-1.24-1.68-2.39-3.44-3.5-5.21c-0.25-0.39-0.52-0.77-0.79-1.15
		c-0.08-0.11-0.15-0.21-0.22-0.32c-0.02-0.03-0.06-0.05-0.08-0.07c-0.03-0.02-0.04-0.04-0.03-0.02c-0.02-0.03-0.08,0-0.05,0.04
		c-0.02-0.02,0,0.01,0.01,0.05c0.02,0.07,0.05,0.12,0.08,0.18c0.12,0.2,0.23,0.41,0.35,0.61c0.4,0.71,0.85,1.38,1.3,2.06
		c1.22,1.83,2.48,3.65,3.85,5.38c0.46,0.58,0.94,1.15,1.45,1.68c0.38,0.4,0.8,0.78,1.31,1.03C27.39,26.43,27.41,26.41,27.39,26.4
		L27.39,26.4z"/>
	<path class="st9" d="M24.3,21.33c-0.71-1.01-1.4-1.98-2.3-2.83c-0.43-0.4-0.9-0.76-1.29-1.2c-0.44-0.49-0.84-1.03-1.24-1.55
		c-0.02-0.03-0.08,0-0.06,0.03c0.27,0.54,0.59,1.03,0.95,1.51c0.34,0.47,0.8,0.83,1.23,1.21c0.48,0.42,0.93,0.87,1.38,1.32
		C23.43,20.3,23.91,20.79,24.3,21.33C24.29,21.34,24.3,21.33,24.3,21.33z"/>
	<path class="st9" d="M19.32,17.09c0.31,0.66,0.84,1.24,1.27,1.81c0.7,0.93,1.39,1.86,2.03,2.82c0.6,0.92,1.19,1.89,1.53,2.94
		c0.12,0.38,0.21,0.79,0.19,1.2c-0.01,0.18-0.03,0.39-0.13,0.54c-0.03,0.05-0.36,0.43-0.26,0.43c-0.79,0.04-1.66-1.1-2.02-1.64
		C20.37,22.85,19.79,19.82,19.32,17.09C19.91,18.34,20.82,25.77,19.32,17.09L19.32,17.09z"/>
	<path class="st9" d="M22.99,25.93c-1.15-1.6-1.89-3.46-2.51-5.32c-0.3-0.89-0.58-1.79-0.83-2.69c-0.08-0.28-0.19-0.55-0.29-0.83
		c-0.02-0.07-0.04-0.17-0.08-0.23c-0.02-0.02-0.07-0.1-0.05-0.07c-0.01-0.03-0.06-0.01-0.05,0.02c0.01,0.03,0.03,0.24,0.05,0.32
		c0.07,0.29,0.13,0.57,0.2,0.86c0.23,0.93,0.59,1.84,0.91,2.74c0.37,1.05,0.77,2.09,1.24,3.09c0.35,0.74,0.73,1.61,1.4,2.12
		C22.99,25.95,23,25.94,22.99,25.93L22.99,25.93z"/>
	<path class="st7" d="M22.33,22.31c-0.35-0.86-0.62-1.73-1.18-2.48c-0.29-0.39-0.61-0.76-0.86-1.17c-0.29-0.49-0.54-1.01-0.81-1.52
		c-0.02-0.03-0.08-0.03-0.07,0.02c0.12,0.52,0.3,0.99,0.51,1.47c0.19,0.43,0.52,0.78,0.79,1.16c0.59,0.79,1.22,1.61,1.61,2.52
		C22.32,22.32,22.33,22.31,22.33,22.31L22.33,22.31z"/>
	<path class="st7" d="M23.53,26.35c-0.31-0.21-0.55-0.62-0.75-0.93c-0.28-0.43-0.5-0.89-0.72-1.35c-0.48-1.02-0.9-2.08-1.3-3.13
		c-0.35-0.93-0.68-1.86-1-2.79c-0.15-0.43-0.34-0.85-0.49-1.27c-0.02-0.05-0.09-0.02-0.07,0.03c0.15,0.43,0.19,0.9,0.32,1.34
		c0.28,0.95,0.59,1.89,0.93,2.82c0.39,1.05,0.83,2.08,1.37,3.06c0.43,0.77,0.92,1.57,1.59,2.16C23.46,26.3,23.5,26.33,23.53,26.35
		C23.53,26.37,23.54,26.35,23.53,26.35L23.53,26.35z"/>
	<path class="st10" d="M14.68,14.12c-0.73-0.01-0.84,0.87-0.75,1.42c0.13,0.81,0.74,0.67,1.3,1.03c0.63,0.4,0.73,1.48,1.69,1.29
		c0.54-0.1,0.93-0.6,0.85-1.15c0.08-0.06,0.43,0.09,0.51,0.11c0.32,0.08,0.67,0.16,1,0.11c0.65-0.1,0.67-0.85,0.67-1.36
		c0-0.27,0.37-0.21,0.56-0.2c0.36,0.01,0.65-0.05,0.81-0.4c0.2-0.4,0.09-0.84-0.17-1.19c-0.01-0.02-0.47-0.49-0.47-0.47
		c0.01-0.03,0.3-0.12,0.33-0.13c0.21-0.12,0.47-0.28,0.48-0.54c0.02-0.47-0.49-0.83-0.77-1.13c-0.09-0.1-0.11-0.54-0.16-0.56
		c-0.31-0.15-0.54-0.33-0.83-0.5c-0.23-0.14-0.52,0.01-0.75-0.13c-0.25-0.15-0.37-0.28-0.68-0.33c-0.84-0.12-1.32,0.33-2.01,0.71
		c-0.51,0.28-1.15,0.45-1.57,0.86c-0.33,0.33-0.69,1-0.79,1.46C13.85,13.35,14.44,13.97,14.68,14.12
		C14.5,14.12,14.58,14.06,14.68,14.12L14.68,14.12z"/>
	<path class="st11" d="M14.99,16.16c-0.77,0.06-1.54-0.16-2.29-0.26c0.02,0.08,0.04,0.16,0.05,0.23c0,0,0.01-0.01,0.02-0.01
		c0.13-0.11-0.01-0.31-0.15-0.21c-0.01,0-0.01,0.01-0.02,0.01c-0.1,0.07-0.05,0.21,0.05,0.23c0.36,0.08,0.69,0.25,1.06,0.24
		c0.43-0.01,0.85-0.22,1.28-0.2C15.01,16.19,15.01,16.15,14.99,16.16L14.99,16.16z"/>
	<path class="st11" d="M15.22,14.79c-0.41-0.1-0.77-0.32-1.18-0.41c-0.32-0.08-0.69-0.09-0.95-0.32c-0.19-0.17-0.44,0.13-0.25,0.3
		c0.27,0.23,0.65,0.32,0.99,0.37c0.22,0.04,0.43,0.13,0.65,0.13c0.25,0.01,0.49,0,0.73-0.04C15.24,14.82,15.24,14.8,15.22,14.79
		L15.22,14.79z"/>
	<path class="st11" d="M16.13,12.99c-0.29-0.24-0.58-0.46-0.88-0.69c-0.18-0.13-0.33-0.04-0.48,0.1c-0.17,0.15-0.34,0.31-0.51,0.46
		c-0.08,0.08-0.17,0.17-0.27,0.23c0.23-0.12,0.08,0.24,0.15,0.07c0.03-0.06,0.05-0.11,0.08-0.17c0.11-0.21,0.23-0.42,0.35-0.63
		c0.08-0.15,0.18-0.34,0.03-0.48c-0.16-0.15-0.41-0.18-0.61-0.26c-0.18-0.07-0.38-0.2-0.56-0.22c-0.17-0.02-0.21,0.23-0.05,0.25
		c0.13,0.02,0.35,0.15,0.5,0.21c0.11,0.05,0.58,0.15,0.51,0.28c-0.18,0.33-0.47,0.67-0.55,1.03c-0.03,0.13,0.11,0.22,0.23,0.18
		c0.18-0.06,0.33-0.23,0.46-0.36c0.15-0.15,0.28-0.33,0.42-0.49c0.16-0.18,0.36,0,0.51,0.08c0.22,0.11,0.51,0.21,0.64,0.43
		C16.11,13.04,16.15,13.01,16.13,12.99z"/>
	<path class="st11" d="M16.1,12.02c-0.32-0.48-0.71-0.9-1.13-1.28c-0.19-0.17-0.41-0.3-0.64-0.42c-0.2-0.11-0.47-0.17-0.63-0.34
		c-0.01,0.06-0.02,0.12-0.03,0.18l0.02-0.01c0.13-0.1-0.02-0.31-0.15-0.21c0,0-0.01,0.01-0.02,0.01c-0.05,0.04-0.08,0.13-0.03,0.18
		c0.11,0.13,0.25,0.21,0.4,0.28c0.25,0.13,0.49,0.25,0.73,0.42c0.52,0.38,1.02,0.73,1.46,1.21C16.09,12.05,16.12,12.04,16.1,12.02
		L16.1,12.02z"/>
	<path class="st11" d="M16.85,10.98c-0.08-0.45-0.23-0.9-0.48-1.28c-0.27-0.42-0.61-0.8-0.9-1.2c-0.15-0.2-0.47,0.03-0.32,0.23
		c0.58,0.73,1.28,1.4,1.63,2.28C16.8,11.03,16.86,11.02,16.85,10.98z"/>
	<path class="st11" d="M16.6,11.44c-0.26-0.41-0.57-0.8-0.91-1.15c-0.17-0.17-0.36-0.34-0.55-0.49c-0.18-0.13-0.4-0.18-0.56-0.34
		c-0.11-0.12-0.32,0.07-0.21,0.2c0.11,0.13,0.24,0.21,0.39,0.29c0.23,0.12,0.4,0.29,0.58,0.47c0.4,0.37,0.86,0.66,1.23,1.05
		C16.59,11.48,16.61,11.46,16.6,11.44L16.6,11.44z"/>
	<path class="st11" d="M18.39,11.73c-0.06-0.27-0.05-0.54-0.07-0.82c-0.01-0.27-0.1-0.49-0.22-0.73c-0.26-0.53-0.56-1.04-0.88-1.53
		c-0.14-0.21-0.48,0.03-0.32,0.23c0.35,0.42,0.67,0.85,0.96,1.3c0.18,0.27,0.3,0.51,0.35,0.84c0.04,0.24,0.06,0.48,0.14,0.71
		C18.37,11.75,18.4,11.75,18.39,11.73z"/>
	<path class="st11" d="M18.82,11.57c0.08-0.64,0.07-1.26-0.14-1.87c-0.1-0.29-0.24-0.58-0.39-0.85c-0.09-0.15-0.3-0.34-0.29-0.53
		c0-0.29-0.47-0.25-0.45,0.04c0.01,0.18,0.14,0.34,0.25,0.48c0.16,0.21,0.3,0.42,0.44,0.65c0.37,0.62,0.53,1.35,0.56,2.07
		C18.79,11.59,18.82,11.59,18.82,11.57L18.82,11.57z"/>
	<path class="st11" d="M19.69,11.6c-0.01-0.2,0.08-0.43,0.12-0.62c0.04-0.22,0.05-0.45,0.06-0.68c0.02-0.42-0.03-0.87-0.22-1.24
		c-0.06-0.11-0.15-0.15-0.27-0.12c-0.04,0.01-0.07,0.03-0.09,0.06c-0.05,0.08-0.07,0.17-0.01,0.25c0.23,0.31,0.32,0.69,0.37,1.07
		c0.03,0.19,0.04,0.38,0.05,0.58c0.01,0.21,0.04,0.5-0.05,0.7C19.64,11.62,19.69,11.63,19.69,11.6L19.69,11.6z"/>
	<path class="st11" d="M20.4,12.8c0.21-0.4,0.38-0.81,0.4-1.26c0.01-0.2,0.09-0.41,0.08-0.61c0-0.18-0.13-0.34-0.12-0.51
		c0-0.25-0.42-0.22-0.39,0.04c0.02,0.14,0.08,0.24,0.15,0.36c0.11,0.17,0.03,0.43,0.04,0.62c0,0.23,0.03,0.45-0.01,0.68
		c-0.03,0.23-0.11,0.46-0.19,0.68C20.36,12.8,20.39,12.81,20.4,12.8L20.4,12.8z"/>
	<path class="st11" d="M19.22,15.8c-0.07-0.32-0.11-1.14-0.56-1.18c-0.36-0.04-0.33,0.52,0.04,0.44c-0.1,0.02-0.11-0.02-0.06,0.01
		c0.04,0.02,0.07,0.06,0.09,0.09c0.06,0.07,0.12,0.16,0.18,0.24c0.09,0.14,0.17,0.28,0.25,0.42C19.18,15.84,19.23,15.83,19.22,15.8
		L19.22,15.8z"/>
	<path class="st11" d="M18.01,14.01c-0.01-0.11,0.02-0.25-0.05-0.35c-0.07-0.11-0.16-0.21-0.25-0.31c-0.08-0.08-0.18-0.14-0.28-0.2
		c-0.09-0.06-0.14-0.12-0.24-0.15c-0.08-0.02-0.14,0.05-0.13,0.12c0.01,0.19,0.22,0.3,0.35,0.41c0.1,0.09,0.16,0.23,0.24,0.34
		c0.06,0.09,0.21,0.12,0.31,0.16C17.99,14.06,18.01,14.04,18.01,14.01L18.01,14.01z"/>
	<path class="st11" d="M16.79,12.97c-0.11-0.24-0.19-0.58-0.5-0.64c-0.07-0.01-0.16,0.01-0.2,0.07c0,0,0,0.01-0.01,0.01
		c-0.06,0.09-0.06,0.2,0.03,0.28c0.04,0.04,0.11,0.07,0.16,0.05c0.01,0,0.02,0,0.03,0c-0.04,0,0,0,0.01,0.01
		c-0.03-0.01,0.04,0.02,0.04,0.02c0.03,0.01,0.05,0.03,0.08,0.05c0.09,0.07,0.16,0.15,0.25,0.22
		C16.74,13.08,16.82,13.03,16.79,12.97L16.79,12.97z"/>
	<path class="st11" d="M16.48,14.53c-0.06-0.31-0.26-0.44-0.52-0.6c-0.28-0.18-0.59-0.34-0.93-0.35c-0.25,0-0.22,0.39,0.04,0.39
		c0.25-0.01,0.5,0.14,0.71,0.25c0.12,0.07,0.24,0.15,0.35,0.23c0.08,0.06,0.21,0.07,0.3,0.11C16.46,14.57,16.49,14.55,16.48,14.53
		L16.48,14.53z"/>
	<path class="st11" d="M17.46,15.85c-0.11,0-0.23-0.18-0.3-0.25c-0.08-0.07-0.2-0.14-0.3-0.18c-0.3-0.14-0.61-0.27-0.94-0.19
		c-0.32,0.07-0.13,0.61,0.18,0.48c0.22-0.09,0.58,0.02,0.78,0.12c0.13,0.06,0.44,0.16,0.58,0.05
		C17.48,15.88,17.48,15.85,17.46,15.85L17.46,15.85z"/>
	<path class="st11" d="M17.41,16.55c-0.23,0.1-0.47,0.15-0.71,0.18c-0.23,0.02-0.53,0.1-0.73-0.08c-0.21-0.2-0.51,0.16-0.29,0.35
		c0.54,0.44,1.35,0.03,1.77-0.4C17.47,16.58,17.44,16.54,17.41,16.55z"/>
	<path class="st11" d="M15.46,17.12c-0.07,0.07-0.2,0.04-0.28,0.02c-0.13-0.02-0.25-0.02-0.38-0.03c-0.19-0.02-0.48-0.07-0.61-0.23
		c-0.16-0.2-0.48,0.05-0.32,0.23c0.2,0.22,0.5,0.3,0.8,0.34c0.15,0.02,0.34,0.04,0.48-0.02c0.15-0.06,0.22-0.18,0.34-0.27
		C15.5,17.13,15.47,17.09,15.46,17.12z"/>
	<path class="st11" d="M17.5,17.49c-0.2,0.14-0.42,0.07-0.64,0.07c-0.14,0.01-0.3,0.03-0.43-0.02c-0.15-0.06-0.44-0.15-0.54-0.27
		c-0.13-0.16-0.4,0.03-0.26,0.19c0.16,0.2,0.5,0.3,0.73,0.38c0.43,0.15,0.81-0.11,1.16-0.32C17.54,17.51,17.52,17.48,17.5,17.49
		L17.5,17.49z"/>
	<path class="st11" d="M18.71,17.5c-0.29,0.52-1.18,0.38-1.65,0.29c-0.23-0.04-0.29,0.33-0.06,0.35c0.34,0.03,0.66,0,0.99-0.09
		c0.34-0.1,0.52-0.3,0.76-0.54C18.76,17.5,18.72,17.48,18.71,17.5L18.71,17.5z"/>
	<path class="st11" d="M15.55,17.88c-0.17,0-0.35-0.08-0.49-0.15c-0.09-0.04-0.17-0.09-0.24-0.17c-0.06-0.07-0.01-0.11-0.03-0.19
		c-0.02-0.07-0.09-0.11-0.15-0.07c-0.1,0.06-0.08,0.2-0.03,0.29c0.06,0.1,0.17,0.16,0.27,0.2c0.19,0.08,0.46,0.15,0.67,0.11
		C15.58,17.91,15.58,17.88,15.55,17.88L15.55,17.88z"/>
	<path class="st11" d="M20.12,16.59c-0.12,0.03-0.26,0.07-0.36,0.13c-0.14,0.1-0.26,0.22-0.43,0.28c-0.19,0.07-0.6,0.23-0.78,0.07
		c-0.11-0.1-0.29,0.06-0.19,0.17c0.22,0.24,0.6,0.18,0.89,0.13c0.16-0.03,0.31-0.07,0.45-0.15c0.23-0.12,0.35-0.29,0.53-0.47
		C20.33,16.68,20.21,16.56,20.12,16.59L20.12,16.59z"/>
	<path class="st11" d="M19.03,16.16c-0.17,0.39-0.94,0.74-1.29,0.41c-0.15-0.14-0.36,0.11-0.21,0.25c0.51,0.46,1.53,0.05,1.53-0.65
		C19.06,16.15,19.04,16.15,19.03,16.16L19.03,16.16z"/>
	<path class="st11" d="M20.87,15.8c-0.18,0.14-0.51,0.05-0.71,0c-0.23-0.05-0.54-0.17-0.71-0.35c-0.11-0.13-0.32,0.02-0.21,0.15
		c0.29,0.35,1.39,0.83,1.65,0.22C20.9,15.81,20.88,15.79,20.87,15.8L20.87,15.8z"/>
	<path class="st11" d="M21.21,15.82c0.01-0.38,0-0.78-0.37-1c-0.2-0.12-0.4-0.22-0.62-0.28c-0.16-0.04-0.39,0.01-0.52-0.11
		c-0.16-0.14-0.35,0.1-0.21,0.25c0.2,0.2,0.54,0.15,0.79,0.25c0.41,0.16,0.66,0.54,0.87,0.91C21.17,15.88,21.21,15.85,21.21,15.82z"
		/>
	<path class="st11" d="M21.4,15c0.13-0.38,0.01-0.88-0.26-1.18c-0.27-0.3-0.71-0.29-1.04-0.49c-0.18-0.11-0.31,0.18-0.14,0.29
		c0.23,0.15,0.49,0.18,0.74,0.28c0.37,0.15,0.7,0.71,0.67,1.09C21.37,15.01,21.4,15.02,21.4,15L21.4,15z"/>
	<path class="st11" d="M21.53,14.19c-0.08-0.37,0.01-0.73-0.35-0.98c-0.4-0.27-0.94-0.28-1.36-0.5c-0.26-0.13-0.46,0.3-0.19,0.41
		c0.66,0.27,1.74,0.15,1.87,1.07C21.5,14.22,21.54,14.21,21.53,14.19L21.53,14.19z"/>
	<path class="st11" d="M21.4,13.14c0.04-0.5,0.01-1.34-0.55-1.54c-0.21-0.08-0.37,0.24-0.15,0.32c0.21,0.08,0.35,0.37,0.44,0.55
		c0.1,0.21,0.18,0.44,0.23,0.67C21.37,13.16,21.39,13.16,21.4,13.14z"/>
	<path class="st11" d="M19.31,12.54c0.14-0.38,0.24-0.79,0.11-1.19c-0.09-0.28-0.31-0.66-0.63-0.72c-0.13-0.02-0.23,0.06-0.26,0.18
		c-0.03,0.11,0.06,0.25,0.18,0.26c0.13,0.01,0.24,0.19,0.3,0.29c0.17,0.25,0.45,0.88,0.27,1.16C19.26,12.54,19.3,12.56,19.31,12.54
		L19.31,12.54z"/>
	<path class="st11" d="M18.32,12.85c0.12-0.04,0.14-0.23,0.14-0.33c-0.01-0.24-0.27-0.53-0.41-0.71c-0.22-0.29-0.73-0.87-1.15-0.77
		c-0.13,0.03-0.07,0.22,0.05,0.22c0.28-0.01,0.6,0.55,0.74,0.74c0.13,0.16,0.24,0.33,0.34,0.5c0.02,0.04,0.23,0.26,0.22,0.29
		C18.24,12.83,18.27,12.87,18.32,12.85L18.32,12.85z"/>
	<path class="st11" d="M19.26,14.26c0.23-0.93-1.03-1.64-1.79-1.78c-0.25-0.05-0.31,0.33-0.07,0.38c0.36,0.08,0.69,0.28,0.98,0.51
		c0.25,0.2,0.58,0.56,0.65,0.88C19.06,14.38,19.23,14.39,19.26,14.26L19.26,14.26z"/>
	<path class="st11" d="M15.45,13.42c-0.27-0.47-0.58-0.81-1.04-1.09c-0.28-0.17-0.69-0.38-1.02-0.29c-0.22,0.05-0.1,0.39,0.13,0.33
		c0.23-0.06,0.61,0.18,0.8,0.29c0.4,0.23,0.78,0.46,1.11,0.78C15.44,13.46,15.46,13.44,15.45,13.42z"/>
	<path class="st11" d="M14.77,14.29c-0.09-0.72-1.22-0.85-1.8-0.83c-0.25,0.01-0.21,0.4,0.04,0.39c0.29-0.01,0.58,0.02,0.87,0.09
		c0.18,0.04,0.35,0.12,0.5,0.22c0.13,0.08,0.23,0.1,0.37,0.15C14.75,14.31,14.77,14.3,14.77,14.29z"/>
	<path class="st11" d="M15.18,15.21c-0.39,0.05-0.78,0.09-1.17,0.01c-0.26-0.05-0.61-0.1-0.77-0.32c-0.13-0.17-0.4-0.02-0.33,0.17
		c0.14,0.35,0.66,0.45,0.98,0.52c0.47,0.1,1.04,0.17,1.36-0.25C15.29,15.29,15.26,15.2,15.18,15.21L15.18,15.21z"/>
	<path class="st11" d="M14.89,16.48c-0.21-0.03-0.45-0.04-0.66-0.01c-0.23,0.03-0.66,0.17-0.84-0.05c-0.16-0.2-0.48,0.05-0.32,0.23
		c0.23,0.24,0.52,0.27,0.84,0.22c0.37-0.05,0.64-0.24,0.98-0.36C14.91,16.5,14.9,16.48,14.89,16.48z"/>
	<path class="st11" d="M11.46,16.2c0.02,0,0.04,0.01,0.06,0.02c0.02,0.01,0.03-0.03,0-0.03c-0.02,0-0.05,0.01-0.05-0.02
		c0-0.01-0.02-0.02-0.03,0C11.43,16.19,11.44,16.2,11.46,16.2z"/>
	<path class="st12" d="M11.42,16.24c0.06-0.02,0.16,0.02,0.22,0.03c0.11,0.02,0.2,0.05,0.31,0.05c0.15,0,0.4-0.05,0.38-0.24
		c-0.01-0.18-0.13-0.28-0.31-0.26c-0.28,0.02-0.53,0.15-0.75-0.08c-0.01-0.01-0.04,0-0.03,0.02c0.16,0.36,0.6,0.09,0.86,0.2
		c0.06,0.02,0.04,0.12,0,0.16c-0.06,0.05-0.16,0.05-0.24,0.06C11.72,16.2,11.57,16.25,11.42,16.24
		C11.41,16.24,11.41,16.25,11.42,16.24L11.42,16.24z"/>
	<path class="st11" d="M11.88,14.22c0.09,0.05,0.15,0.14,0.22,0.22c0.12,0.13,0.25,0.19,0.43,0.16c0.25-0.04,0.48-0.32,0.32-0.55
		c-0.1-0.16-0.32-0.2-0.48-0.25c-0.08-0.02-0.16-0.05-0.22-0.11c-0.05-0.05-0.1-0.11-0.18-0.05c-0.03,0.02-0.05,0.06-0.05,0.1
		c0.03,0.12,0.12,0.19,0.22,0.25c0.11,0.07,0.23,0.15,0.33,0.24c-0.02-0.02,0.02,0.02,0.02,0.02c-0.03-0.04-0.02-0.09,0.01-0.12
		c0.01-0.02,0.01,0,0.02,0c-0.04,0-0.08-0.02-0.13-0.03c-0.14-0.02-0.37,0.01-0.5,0.08C11.85,14.18,11.85,14.21,11.88,14.22
		L11.88,14.22z"/>
	<path class="st11" d="M12.38,12c0.15,0.07,0.17,0.24,0.25,0.37c0.09,0.15,0.28,0.21,0.45,0.21c0.32-0.01,0.66-0.31,0.44-0.64
		c-0.15-0.24-0.36-0.23-0.61-0.26c-0.11-0.01-0.23-0.02-0.33-0.06c-0.12-0.05-0.05-0.19-0.1-0.29c-0.02-0.04-0.06-0.06-0.1-0.03
		c-0.13,0.1-0.11,0.32-0.01,0.44c0.11,0.14,0.32,0.18,0.49,0.22c0.08,0.02,0.15,0.06,0.21,0.11c0.01,0.01,0.01,0.03,0.01,0.05
		c0.02-0.08,0.03-0.02-0.06-0.03c-0.23-0.02-0.39-0.21-0.63-0.14C12.36,11.96,12.36,12,12.38,12L12.38,12z"/>
	<path class="st11" d="M12.44,11.03c0.28,0.03,0.38,0.34,0.54,0.54c0.14,0.19,0.47,0.35,0.66,0.14c0.18-0.2,0.05-0.48-0.12-0.64
		c-0.23-0.22-0.58-0.21-0.74-0.5c-0.03-0.06-0.13-0.02-0.12,0.04c0.03,0.24,0.16,0.37,0.34,0.51c0.07,0.05,0.19,0.12,0.23,0.2
		c0.02,0.03,0.03,0.07,0.04,0.1c0.04,0.13-0.07,0.06,0.08-0.01c-0.12,0.06-0.37-0.24-0.45-0.3c-0.13-0.11-0.29-0.18-0.46-0.15
		C12.41,10.97,12.4,11.02,12.44,11.03z"/>
	<path class="st11" d="M12.71,9.84c0.17,0.13,0.3,0.32,0.46,0.47c0.19,0.17,0.48,0.12,0.6-0.1c0.09-0.16,0.07-0.36-0.11-0.44
		c-0.17-0.07-0.38-0.04-0.56-0.05c-0.02,0-0.03,0.03,0,0.03c0.13,0.02,0.25,0.04,0.37,0.1c0.04,0.02,0.1,0.05,0.12,0.1
		c0.02,0.05-0.12,0.09-0.05,0.09c-0.06-0.01-0.11-0.05-0.17-0.06c-0.08-0.01-0.17-0.03-0.25-0.06c-0.13-0.04-0.26-0.09-0.39-0.1
		C12.71,9.81,12.7,9.83,12.71,9.84L12.71,9.84z"/>
	<path class="st11" d="M13.71,9.08c0.09,0.06,0.13,0.17,0.17,0.27c0.05,0.11,0.09,0.23,0.15,0.34c0.14,0.25,0.4,0.32,0.63,0.13
		c0.22-0.18,0.17-0.44-0.02-0.62c-0.14-0.14-0.39-0.21-0.51-0.35c-0.12-0.14-0.35,0.01-0.24,0.17c0.09,0.12,0.23,0.2,0.34,0.29
		c0.07,0.05,0.13,0.1,0.18,0.17c0.01,0.01,0.02,0.05,0.02,0.03c0-0.03,0-0.02-0.03,0c-0.06,0.04-0.02,0,0.03,0.02
		c-0.04-0.01-0.08-0.04-0.11-0.06c-0.08-0.04-0.15-0.11-0.21-0.17c-0.1-0.09-0.23-0.24-0.38-0.25C13.71,9.06,13.7,9.07,13.71,9.08
		L13.71,9.08z"/>
	<path class="st11" d="M14.67,7.99c0,0.06-0.02,0.12-0.04,0.18c-0.03,0.1,0.08,0.27,0.12,0.36c0.09,0.19,0.25,0.49,0.5,0.45
		c0.27-0.04,0.45-0.33,0.32-0.59c-0.13-0.23-0.37-0.34-0.54-0.53C15,7.82,14.97,7.77,14.92,7.74c-0.03-0.01-0.06-0.02-0.09-0.02
		c0.07,0-0.01,0-0.01,0c-0.1,0.01-0.15,0.12-0.14,0.21c0.02,0.22,0.29,0.41,0.41,0.58c0.02,0.02,0.03,0.07,0.03,0.02
		c0.01-0.02,0.01-0.02,0,0c0,0,0-0.01,0-0.01c-0.06,0.06-0.02,0.05,0.13-0.03c0.06,0,0-0.01-0.03-0.04
		c-0.04-0.03-0.07-0.08-0.1-0.12c-0.06-0.08-0.13-0.26-0.23-0.29c-0.06-0.02-0.12-0.05-0.18-0.07C14.69,7.96,14.67,7.98,14.67,7.99
		L14.67,7.99z"/>
	<path class="st11" d="M17.03,8.73c0,0,0.01,0.01,0.01,0.01C17.04,8.74,17.04,8.73,17.03,8.73c-0.01-0.04-0.04-0.05-0.07-0.03
		c-0.03,0.02-0.03,0.06,0,0.08c0.03,0.02,0.07,0.04,0.1,0C17.07,8.76,17.06,8.73,17.03,8.73z"/>
	<path class="st11" d="M16.02,8.24c0.17,0.2,0.25,0.49,0.46,0.66c0.26,0.21,0.61,0.19,0.77-0.1c0.15-0.27-0.07-0.52-0.28-0.66
		c-0.12-0.08-0.24-0.15-0.36-0.23c-0.05-0.04-0.1-0.07-0.14-0.12c-0.04-0.05-0.04-0.12-0.08-0.17c-0.07-0.08-0.18-0.09-0.25-0.01
		c-0.31,0.36,0.45,0.76,0.63,0.97c0.09,0.1-0.04-0.07,0.13-0.04c-0.07-0.01-0.19-0.09-0.27-0.12c-0.19-0.07-0.37-0.17-0.57-0.23
		C16.03,8.15,16,8.21,16.02,8.24L16.02,8.24z"/>
	<path class="st11" d="M17.23,7.62c0.08,0.12,0.24,0.32,0.22,0.48c-0.02,0.12-0.08,0.26-0.03,0.38c0.09,0.23,0.38,0.34,0.58,0.16
		C18.17,8.47,18.15,8.22,18.1,8c-0.03-0.11-0.1-0.22-0.14-0.32C17.91,7.55,18.05,7.45,18,7.31c-0.01-0.03-0.03-0.05-0.06-0.05
		c-0.01,0-0.02,0-0.04-0.01c-0.05-0.01-0.1,0.01-0.14,0.05c-0.12,0.15-0.17,0.31-0.12,0.5c0.04,0.17,0.11,0.3,0.07,0.48
		c-0.04,0.07,0.01,0.09,0.16,0.07c-0.02-0.04-0.03-0.08-0.04-0.12c-0.03-0.07-0.04-0.15-0.07-0.22c-0.1-0.19-0.33-0.32-0.52-0.41
		C17.23,7.6,17.21,7.62,17.23,7.62L17.23,7.62z"/>
	<path class="st11" d="M19.31,8.26c-0.05,0.16-0.13,0.26-0.13,0.44c0,0.1,0.04,0.21,0.07,0.3c0,0.01,0,0.02,0.01,0.04
		c0,0.12,0.08,0.06,0.21-0.18c-0.06-0.01-0.11,0-0.16-0.01c0.04,0.02,0.05,0.01,0.01-0.02c-0.03-0.04-0.05-0.08-0.06-0.12
		c-0.03-0.07-0.06-0.14-0.09-0.21c-0.03-0.06-0.15-0.07-0.15,0.01C19,8.73,18.94,8.93,19.02,9.14c0.09,0.21,0.39,0.34,0.58,0.21
		c0.2-0.14,0.15-0.36,0.01-0.52c-0.14-0.15-0.37-0.31-0.26-0.55C19.37,8.25,19.33,8.24,19.31,8.26L19.31,8.26z"/>
	<path class="st11" d="M20.43,9.72c0.01,0.01-0.05,0.3-0.05,0.34c-0.01,0.08-0.04,0.19,0,0.26c0.02,0.03,0.03,0.06,0.04,0.1
		c0.01,0.03,0.01,0.03,0,0c0.15-0.12,0.19-0.17,0.11-0.16c-0.1-0.01-0.16-0.2-0.2-0.27c-0.07-0.12-0.16-0.21-0.29-0.24
		c-0.08-0.02-0.1,0.09-0.04,0.12c0.15,0.09,0.14,0.33,0.19,0.48c0.06,0.18,0.29,0.38,0.49,0.3c0.18-0.08,0.25-0.4,0.12-0.55
		c-0.02-0.03-0.36-0.36-0.35-0.37C20.5,9.69,20.39,9.68,20.43,9.72z"/>
	<path class="st11" d="M20.07,11.47c-0.14,0.08-0.19,0.21-0.18,0.37c0,0.08,0.03,0.16,0.05,0.24c0.01,0.03,0.02,0.06,0.02,0.1
		c0.01,0.05,0.1-0.05,0.02-0.02c0.02-0.01,0.06,0.02,0.06,0.01c-0.01-0.02-0.03-0.06-0.03-0.09c-0.02-0.09-0.01-0.18-0.04-0.27
		c-0.05-0.19-0.26-0.38-0.46-0.31c-0.05,0.02-0.05,0.08-0.02,0.11c0.1,0.1,0.21,0.14,0.2,0.31c0,0.1-0.03,0.18-0.03,0.28
		c0.01,0.22,0.19,0.45,0.43,0.35c0.2-0.08,0.25-0.29,0.15-0.48c-0.1-0.17-0.3-0.35-0.13-0.54C20.14,11.49,20.1,11.45,20.07,11.47
		L20.07,11.47z"/>
	<path class="st11" d="M21.34,11.62c-0.26,0.18-0.11,0.49-0.18,0.73c0.1-0.05,0.2-0.1,0.3-0.16c-0.11-0.05-0.11-0.32-0.13-0.43
		c-0.04-0.15-0.12-0.32-0.29-0.34c-0.13-0.01-0.24,0.16-0.11,0.24c0.12,0.08,0.08,0.26,0.09,0.39c0.01,0.19,0.06,0.38,0.22,0.49
		c0.12,0.08,0.27,0.06,0.33-0.07c0.07-0.14,0.07-0.27-0.01-0.4c-0.07-0.12-0.21-0.25-0.14-0.4C21.43,11.63,21.38,11.59,21.34,11.62
		L21.34,11.62z"/>
	<path class="st11" d="M21.58,16.58c-0.03-0.15-0.07-0.3-0.13-0.44c-0.03-0.08-0.08-0.17-0.16-0.21c-0.11-0.05-0.2,0.04-0.25,0.13
		c-0.08,0.15,0.14,0.24,0.23,0.11c-0.01,0.02-0.03,0.03-0.04,0.05c-0.03,0.01-0.06,0.01-0.1,0.02c-0.06-0.02-0.09-0.05-0.1-0.1
		c0,0,0,0.01,0,0.01c0,0.02,0,0.03,0,0.05c0,0.03,0,0.03,0,0.04c0,0.02,0,0.05-0.01,0.07c0,0.05-0.01,0.1-0.03,0.14
		c0.01-0.03,0.01-0.03,0-0.01c-0.01,0.02,0.04-0.04,0.04-0.04c0.14-0.02,0.17-0.03,0.07-0.03c-0.04,0-0.07,0.02-0.1,0.04
		c-0.07,0.04-0.1,0.15-0.07,0.22c0,0,0,0,0,0c0.04,0.08,0.11,0.13,0.2,0.12c0.25-0.02,0.21-0.32,0.18-0.49
		c-0.01-0.06-0.03-0.14-0.05-0.2c-0.06-0.12-0.21-0.11-0.25,0.02c0.08,0.01,0.16,0.03,0.25,0.04c0.01-0.03,0.01-0.02-0.02,0
		c-0.03,0.01-0.05-0.01-0.01,0.02c0.05,0.04,0.09,0.1,0.13,0.16c0.06,0.09,0.12,0.18,0.17,0.28C21.56,16.6,21.58,16.6,21.58,16.58z"
		/>
	<path class="st11" d="M17.65,17.49c0.13,0.1,0.34,0.1,0.49,0.09c0.15-0.01,0.44-0.12,0.4-0.33c-0.03-0.18-0.21-0.19-0.37-0.21
		c-0.13-0.01-0.37,0-0.41-0.16c-0.06-0.2-0.36-0.08-0.3,0.11c0.09,0.32,0.45,0.34,0.73,0.37c0.04,0,0.11,0.02,0.11,0.02
		c-0.04-0.01-0.05-0.13-0.07-0.09c-0.01,0.03-0.06,0.05-0.08,0.07c-0.11,0.07-0.33,0.13-0.46,0.08
		C17.65,17.42,17.62,17.47,17.65,17.49L17.65,17.49z"/>
	<path class="st11" d="M16.43,18.35c0.06-0.07,0.27-0.04,0.35-0.05c0.15-0.02,0.28-0.09,0.28-0.25c0-0.2-0.23-0.35-0.4-0.31
		c-0.22,0.05-0.37,0.26-0.59,0.13c-0.06-0.03-0.12,0.05-0.08,0.1c0.1,0.14,0.23,0.21,0.4,0.21c0.08,0,0.16-0.01,0.25-0.01
		c0.02,0,0.05,0.01,0.08,0.02c0.1,0.03,0.02-0.02,0.01-0.08c-0.02-0.08,0.04-0.09,0.01-0.06c-0.02,0.01-0.03,0.03-0.05,0.04
		c-0.05,0.03-0.1,0.06-0.14,0.09c-0.06,0.04-0.14,0.09-0.16,0.17C16.37,18.36,16.41,18.38,16.43,18.35L16.43,18.35z"/>
	<path class="st11" d="M15.24,15.87c0.1-0.04,0.27,0.05,0.37,0.07c0.15,0.03,0.29-0.02,0.34-0.17c0.06-0.18-0.01-0.48-0.24-0.48
		c-0.04,0-0.07,0.01-0.11,0.03c-0.03,0.02-0.07,0.02-0.03,0.03c-0.12-0.04-0.08-0.22-0.07-0.32s-0.11-0.13-0.15-0.05
		c-0.07,0.15-0.12,0.34-0.03,0.5c0.04,0.07,0.11,0.13,0.19,0.15c0.04,0.01,0.08,0.01,0.12,0.01c0.02,0,0.03-0.01,0.05-0.01
		c0.06,0,0.03-0.02-0.07-0.05c0.01,0.04,0.03,0.07,0.05,0.11c0.02,0.05,0,0.04,0.02,0.02c-0.03,0.03-0.12,0.02-0.16,0.02
		c-0.1,0-0.24-0.02-0.33,0.06C15.15,15.82,15.18,15.89,15.24,15.87L15.24,15.87z"/>
	<path class="st11" d="M17.37,15.09c0.09-0.04,0.17-0.07,0.27-0.07c0.08,0.01,0.14,0.07,0.21,0.1c0.12,0.04,0.24,0.06,0.37,0.05
		c0.28-0.02,0.38-0.32,0.32-0.55c-0.1-0.42-0.78-0.08-0.88-0.46c-0.02-0.09-0.18-0.05-0.16,0.04c0.08,0.37,0.4,0.35,0.68,0.48
		c0.05,0.02,0.05,0.05,0.02,0.1c-0.01,0.01-0.25-0.08-0.27-0.09c-0.25-0.08-0.5,0.19-0.58,0.39C17.35,15.08,17.36,15.1,17.37,15.09
		L17.37,15.09z"/>
	<path class="st11" d="M16.38,12.47c0.13-0.01,0.21,0.07,0.29,0.15c0.08,0.08,0.17,0.13,0.27,0.18c0.16,0.08,0.42,0.1,0.51-0.1
		c0.09-0.2-0.06-0.41-0.25-0.49c-0.22-0.09-0.57,0.05-0.55-0.31c0-0.08-0.11-0.11-0.13-0.02c-0.03,0.17,0,0.32,0.16,0.42
		c0.16,0.1,0.39,0.04,0.52,0.2c0.09,0.11-0.05,0.08-0.1,0.05c-0.08-0.05-0.14-0.12-0.23-0.16c-0.17-0.06-0.35-0.11-0.51-0.01
		C16.31,12.4,16.34,12.47,16.38,12.47L16.38,12.47z"/>
	<path class="st11" d="M14.12,13.71c0.08-0.04,0.15,0.04,0.2,0.09c0.08,0.07,0.19,0.1,0.29,0.13c0.19,0.06,0.37,0.04,0.43-0.17
		c0.05-0.19-0.09-0.35-0.25-0.43c-0.08-0.04-0.16-0.06-0.23-0.1c-0.1-0.06-0.06-0.19-0.03-0.28c0.03-0.1-0.1-0.17-0.15-0.07
		c-0.08,0.17-0.12,0.35,0.03,0.49c0.1,0.1,0.32,0.11,0.39,0.25c0.11,0.23-0.26,0.01-0.33-0.01c-0.1-0.03-0.32-0.04-0.38,0.08
		C14.1,13.7,14.11,13.72,14.12,13.71L14.12,13.71z"/>
	<path class="st11" d="M18.75,12.9c0.16,0,0.23,0.27,0.34,0.37c0.16,0.14,0.4,0.05,0.48-0.13c0.18-0.37-0.61-0.57-0.64-0.89
		c-0.01-0.09-0.15-0.1-0.16-0.01c-0.03,0.33,0.34,0.54,0.51,0.79c0.03,0.05-0.02,0.04,0.03-0.04c-0.01,0.02-0.07,0.04-0.09,0.05
		c-0.03,0.01-0.13-0.06-0.15-0.09c-0.09-0.07-0.2-0.14-0.32-0.09C18.73,12.88,18.74,12.9,18.75,12.9L18.75,12.9z"/>
	<path class="st11" d="M18.98,14.69c0.08-0.05,0.16,0.03,0.23,0.07c0.09,0.06,0.19,0.1,0.29,0.1c0.18,0,0.42-0.2,0.39-0.4
		c-0.03-0.2-0.23-0.23-0.4-0.2c-0.08,0.01-0.15,0.03-0.22,0.05c-0.06,0.02-0.13,0.05-0.2,0.03c-0.02-0.01-0.03,0.02-0.01,0.03
		c0.08,0.03,0.18,0.05,0.27,0.08c0.06,0.02,0.12,0.04,0.18,0.07c0.02,0.01,0.05,0.02,0.07,0.04c0.05,0.03,0-0.02-0.01-0.05
		c-0.01-0.05,0.02-0.05-0.02-0.01c-0.03,0.03-0.07,0.05-0.1,0.07c-0.06,0.04-0.14,0.02-0.21,0.01c-0.12-0.02-0.24-0.03-0.31,0.08
		C18.92,14.68,18.96,14.71,18.98,14.69L18.98,14.69z"/>
	<path class="st12" d="M17.09,15.21c0.02-0.11,0.25-0.2,0.35-0.16c0.15,0.05,0.26,0.15,0.44,0.14c0.26-0.02,0.49-0.29,0.39-0.54
		c-0.07-0.2-0.37-0.21-0.46-0.02c0.18-0.07,0.21-0.11,0.09-0.12c-0.09-0.02-0.17,0.01-0.25,0.04c-0.11,0.04-0.2,0.14-0.28,0.22
		c-0.05,0.05-0.12,0.1-0.17,0.15c-0.08,0.07-0.1,0.19-0.17,0.26C17,15.22,17.07,15.26,17.09,15.21L17.09,15.21z"/>
	<path class="st12" d="M16.19,12.38c0.13,0.1,0.24,0.22,0.38,0.32c0.1,0.07,0.19,0.11,0.32,0.09c0.09-0.02,0.18-0.05,0.24-0.13
		c0.09-0.12-0.03-0.33-0.18-0.25c-0.02,0.01-0.04,0-0.07-0.01c-0.08-0.03-0.18-0.01-0.27-0.01c-0.13,0-0.26-0.03-0.39-0.04
		C16.19,12.34,16.17,12.37,16.19,12.38z"/>
	<path class="st12" d="M16.32,18.38c0.07-0.03,0.16,0,0.23,0.02c0.07,0.01,0.13,0.02,0.2,0.02c0.1,0,0.22-0.02,0.29-0.1
		c0.17-0.2-0.09-0.37-0.25-0.45c-0.18-0.08-0.27,0.22-0.08,0.25c0.05,0.01,0.1,0.02,0.15,0.04c0.1,0.04,0.01,0.11-0.06,0.14
		c-0.07,0.02-0.14,0.03-0.21,0.03c-0.08,0-0.19,0.03-0.26-0.02C16.27,18.29,16.27,18.41,16.32,18.38L16.32,18.38z"/>
	<path class="st12" d="M17.05,18.19c0.28,0.01,0.59,0.19,0.87,0.1c0.3-0.1,0.57-0.24,0.82-0.43c0.17-0.13-0.02-0.38-0.19-0.26
		c-0.21,0.14-0.43,0.24-0.67,0.32c-0.26,0.08-0.53,0.27-0.82,0.22C17.02,18.12,17.01,18.19,17.05,18.19L17.05,18.19z"/>
	<path class="st12" d="M17.55,17.72c0.24-0.07,0.48,0.07,0.73,0.01c0.2-0.05,0.36-0.15,0.41-0.36c0.04-0.14-0.03-0.27-0.17-0.32
		c-0.14-0.04-0.51,0.05-0.6-0.07c-0.04-0.05-0.09,0.05-0.02,0.05c0.11-0.01,0.25,0.05,0.36,0.08c0.14,0.03,0.38,0.12,0.18,0.28
		c-0.06,0.05-0.16,0.04-0.23,0.04c-0.1,0-0.2,0.02-0.3,0.04c-0.14,0.03-0.29,0.06-0.41,0.15C17.45,17.67,17.5,17.74,17.55,17.72
		L17.55,17.72z"/>
	<path class="st12" d="M18.78,17.61c0.13-0.02,0.29,0.02,0.42,0.02c0.16-0.01,0.32-0.05,0.46-0.1c0.27-0.09,0.51-0.27,0.67-0.5
		c0.09-0.13-0.12-0.25-0.18-0.11c-0.1,0.21-0.27,0.36-0.47,0.48c-0.18,0.12-0.67,0.33-0.88,0.17
		C18.74,17.51,18.72,17.62,18.78,17.61L18.78,17.61z"/>
	<path class="st12" d="M18.19,18.29c0.03-0.04,0.24-0.04,0.29-0.05c0.13-0.02,0.27-0.06,0.4-0.11c0.19-0.06,0.45-0.17,0.49-0.39
		c0.05-0.27-0.41-0.29-0.37-0.02c0.01,0.09-0.74,0.6-0.8,0.52C18.13,18.16,18.13,18.37,18.19,18.29L18.19,18.29z"/>
	<path class="st12" d="M18.54,16.25c0.21-0.09,0.43,0,0.63,0.09c0.19,0.08,0.38,0.15,0.58,0.22c0.39,0.13,0.72,0.1,1.06-0.14
		c0.17-0.12-0.02-0.38-0.19-0.26c-0.43,0.29-0.81,0.07-1.24-0.07c-0.27-0.09-0.65-0.12-0.88,0.07
		C18.44,16.19,18.48,16.27,18.54,16.25z"/>
	<path class="st12" d="M20.56,16.88c0.03-0.04,0.24-0.03,0.29-0.04c0.14-0.02,0.28-0.06,0.42-0.12c0.26-0.11,0.47-0.31,0.39-0.61
		c-0.09-0.33-0.65-0.07-0.43,0.23c0.04,0.05,0-0.01,0-0.04c0,0.03-0.02,0.05-0.03,0.08c-0.04,0.07-0.12,0.14-0.18,0.2
		c-0.05,0.04-0.4,0.33-0.45,0.27C20.49,16.76,20.5,16.95,20.56,16.88z"/>
	<path class="st12" d="M19.49,15.37c0.13,0.1,0.25,0.21,0.37,0.33c0.16,0.15,0.35,0.21,0.56,0.27c0.25,0.07,0.72,0.15,0.87-0.14
		c0.04-0.07-0.03-0.16-0.11-0.15c-0.13,0.01-0.23,0.05-0.36,0.03c-0.17-0.03-0.34-0.12-0.49-0.2c-0.25-0.13-0.55-0.16-0.82-0.19
		C19.49,15.33,19.47,15.35,19.49,15.37z"/>
	<path class="st12" d="M19.02,15.46c0.03-0.12,0.59,0.26,0.66-0.05c0.03-0.12-0.13-0.18-0.2-0.22c-0.08-0.04-0.16-0.1-0.25-0.12
		c-0.07-0.01-0.16-0.02-0.22-0.06c-0.02-0.01-0.05,0-0.04,0.03c0.04,0.09,0.13,0.15,0.2,0.22c0.1,0.08,0.26,0.09,0.37,0.14
		c0.04,0.02,0-0.04,0.01,0c0,0.02-0.03,0.03-0.05,0.03c-0.06,0.01-0.13,0-0.19,0c-0.06,0-0.11-0.01-0.17-0.02
		c-0.05,0-0.11,0.02-0.15,0C18.91,15.4,18.99,15.56,19.02,15.46L19.02,15.46z"/>
	<path class="st12" d="M19.91,14.29c0.31,0.02,0.58,0.23,0.8,0.44c0.13,0.12,0.25,0.27,0.33,0.43c0.06,0.12,0.05,0.26,0.12,0.37
		c0.08,0.11,0.22,0.07,0.28-0.02c0.19-0.31-0.31-0.76-0.52-0.91c-0.28-0.2-0.65-0.39-1.01-0.35C19.89,14.24,19.88,14.29,19.91,14.29
		L19.91,14.29z"/>
	<path class="st12" d="M20.6,13.47c0.11,0.12,0.24,0.22,0.35,0.34c0.09,0.1,0.35,0.34,0.28,0.49c-0.08,0.18,0.21,0.27,0.25,0.08
		c0.1-0.44-0.57-0.75-0.86-0.95C20.6,13.41,20.58,13.45,20.6,13.47z"/>
	<path class="st12" d="M20.56,12.92c0.07,0,0.13,0.07,0.19,0.1c0.08,0.05,0.16,0.1,0.24,0.15c0.15,0.1,0.26,0.2,0.26,0.39
		c0,0.14,0.21,0.12,0.22-0.02c0-0.19-0.15-0.32-0.3-0.4c-0.09-0.05-0.18-0.08-0.28-0.12c-0.08-0.03-0.26-0.06-0.29-0.15
		C20.57,12.81,20.49,12.92,20.56,12.92L20.56,12.92z"/>
	<path class="st12" d="M20.58,12.08c0.04,0.1,0.06,0.21,0.07,0.32c0.01,0.12-0.04,0.24-0.01,0.35c0.04,0.14,0.21,0.14,0.3,0.05
		c0.2-0.21-0.16-0.62-0.32-0.75C20.6,12.04,20.57,12.06,20.58,12.08z"/>
	<path class="st12" d="M11.96,10.79c0.28-0.04,0.49,0.19,0.72,0.31c0.2,0.11,0.5,0.03,0.61-0.16c0.11-0.18-0.13-0.32-0.27-0.36
		c-0.22-0.06-0.56-0.04-0.66-0.28c-0.04-0.1-0.18-0.04-0.15,0.06c0.11,0.39,0.52,0.34,0.79,0.53c0-0.03-0.01-0.07-0.01-0.1
		c-0.03,0-0.07,0-0.1-0.01c-0.05-0.01-0.1-0.02-0.15-0.03c-0.1-0.01-0.21-0.04-0.31-0.06c-0.17-0.04-0.33-0.03-0.49,0.06
		C11.92,10.75,11.94,10.79,11.96,10.79L11.96,10.79z"/>
	<path class="st12" d="M13.57,10.8c0.18-0.2,0.61,0.18,0.82,0.17c0.11,0,0.31-0.06,0.26-0.21c-0.1-0.29-0.53-0.33-0.71-0.53
		c-0.07-0.07-0.18,0.05-0.1,0.12c0.05,0.06,0.15,0.1,0.22,0.13c0.13,0.07,0.26,0.15,0.38,0.24c0.02,0.02,0.04,0.03,0.06,0.06
		c0.02,0.02,0.03,0-0.01,0.01c-0.11,0.04-0.24,0.01-0.34-0.02c-0.1-0.02-0.19-0.05-0.28-0.05c-0.1-0.01-0.2,0.04-0.3,0.03
		C13.48,10.74,13.52,10.85,13.57,10.8L13.57,10.8z"/>
	<path class="st12" d="M12.83,12.12c0.23-0.02,0.38,0.2,0.59,0.25c0.16,0.03,0.41,0.07,0.53-0.08c0.1-0.13,0.11-0.31-0.02-0.42
		c-0.14-0.12-0.35-0.15-0.49-0.28c-0.07-0.06-0.17,0.04-0.12,0.11c0.07,0.09,0.17,0.15,0.26,0.21c0.08,0.05,0.27,0.2,0.06,0.16
		c-0.07-0.02-0.13-0.06-0.21-0.07c-0.09-0.02-0.18-0.01-0.27-0.01c-0.13,0-0.25,0.02-0.36,0.09C12.79,12.09,12.8,12.12,12.83,12.12
		L12.83,12.12z"/>
	<path class="st12" d="M12.45,13.7c0.18-0.04,0.4,0.13,0.56,0.18c0.18,0.05,0.33-0.09,0.39-0.24c0.16-0.42-0.5-0.27-0.58-0.5
		c-0.03-0.07-0.12-0.03-0.1,0.04c0.03,0.11,0.13,0.16,0.23,0.2c0.07,0.03,0.34,0.07,0.3,0.19c-0.07,0.18-0.3,0.09-0.44,0.05
		c-0.13-0.03-0.27-0.07-0.39-0.01C12.35,13.63,12.39,13.72,12.45,13.7L12.45,13.7z"/>
	<path class="st12" d="M14.87,14.17c0.12,0.02,0.23,0.03,0.34,0.09c0.1,0.05,0.16,0.14,0.26,0.19c0.16,0.08,0.39,0.03,0.47-0.14
		c0.08-0.17,0.01-0.42-0.16-0.51c-0.1-0.05-0.24-0.03-0.32-0.11c-0.07-0.07-0.08-0.2-0.1-0.29c-0.02-0.09-0.17-0.05-0.16,0.04
		c0.01,0.12,0.02,0.27,0.09,0.38c0.03,0.05,0.07,0.09,0.12,0.12c0.08,0.05,0.21,0.05,0.25,0.14c0.04,0.09-0.04,0.16-0.12,0.15
		c-0.08-0.01-0.15-0.06-0.22-0.09c-0.14-0.06-0.3-0.04-0.44-0.02C14.84,14.12,14.84,14.17,14.87,14.17z"/>
	<path class="st12" d="M16.03,11.05c0.24,0.04,0.35,0.32,0.51,0.48c0.19,0.19,0.53,0.12,0.66-0.11c0.21-0.36-0.34-0.65-0.57-0.83
		c-0.1-0.07-0.23,0.05-0.16,0.15c0.07,0.09,0.16,0.18,0.23,0.27c0.04,0.05,0.08,0.11,0.11,0.18c0.02,0.04,0.01,0.02,0.01,0.05
		c0-0.03,0.02-0.07,0.05-0.08c0.03-0.01-0.06,0.01-0.08,0.01c-0.07,0.01-0.08,0.02-0.04,0.01c0.05-0.01-0.01,0,0,0
		c-0.08-0.03-0.16-0.08-0.23-0.12c-0.16-0.09-0.33-0.16-0.51-0.11C15.97,10.96,15.99,11.04,16.03,11.05L16.03,11.05z"/>
	<path class="st12" d="M11.77,15.89c0.24,0.04,0.35,0.32,0.51,0.48c0.19,0.19,0.53,0.12,0.66-0.1c0.21-0.36-0.34-0.65-0.57-0.83
		c-0.1-0.07-0.23,0.05-0.16,0.15c0.07,0.09,0.16,0.18,0.23,0.27c0.04,0.05,0.08,0.11,0.11,0.18c0.02,0.04,0.01,0.02,0.01,0.05
		c0-0.03,0.02-0.07,0.05-0.08c0.03-0.01-0.06,0.01-0.08,0.01c-0.07,0.01-0.08,0.02-0.04,0.01c0.05-0.01-0.01,0,0,0
		c-0.08-0.03-0.16-0.08-0.23-0.12c-0.16-0.09-0.33-0.16-0.51-0.11C11.71,15.8,11.72,15.88,11.77,15.89L11.77,15.89z"/>
	<path class="st12" d="M12.13,14.77c0.24,0.04,0.35,0.32,0.51,0.48c0.19,0.19,0.53,0.12,0.66-0.1c0.21-0.36-0.34-0.65-0.57-0.83
		c-0.1-0.07-0.23,0.05-0.16,0.15c0.07,0.09,0.16,0.18,0.23,0.27c0.04,0.05,0.08,0.11,0.11,0.18c0.02,0.04,0.01,0.02,0.01,0.05
		c0-0.03,0.02-0.07,0.05-0.08c0.03-0.01-0.06,0.01-0.08,0.01c-0.07,0.01-0.08,0.02-0.04,0.01c0.05-0.01-0.01,0,0,0
		c-0.08-0.03-0.16-0.08-0.23-0.12c-0.16-0.09-0.33-0.16-0.51-0.11C12.07,14.68,12.09,14.76,12.13,14.77L12.13,14.77z"/>
	<path class="st12" d="M14.57,8.58c0.24,0.04,0.35,0.32,0.51,0.48c0.19,0.19,0.53,0.12,0.66-0.11c0.21-0.36-0.34-0.65-0.57-0.83
		c-0.1-0.07-0.23,0.05-0.16,0.15c0.07,0.09,0.16,0.18,0.23,0.27c0.04,0.05,0.08,0.11,0.11,0.18c0.02,0.04,0.01,0.02,0.01,0.05
		c0-0.03,0.02-0.07,0.05-0.08c0.03-0.01-0.06,0.01-0.08,0.01C15.27,8.7,15.25,8.71,15.3,8.7c0.05-0.01-0.01,0,0,0
		c-0.08-0.03-0.16-0.08-0.23-0.12c-0.16-0.09-0.33-0.16-0.51-0.11C14.51,8.48,14.52,8.56,14.57,8.58L14.57,8.58z"/>
	<path class="st12" d="M18.61,8.92c0.24,0.04,0.35,0.32,0.51,0.48c0.19,0.19,0.53,0.12,0.66-0.1c0.21-0.36-0.34-0.65-0.57-0.83
		c-0.1-0.07-0.23,0.05-0.16,0.15c0.07,0.09,0.16,0.18,0.23,0.27C19.33,8.94,19.37,9,19.4,9.06c0.02,0.04,0.01,0.02,0.01,0.05
		c0-0.03,0.02-0.07,0.05-0.08c0.03-0.01-0.06,0.01-0.08,0.01c-0.07,0.01-0.08,0.02-0.04,0.01c0.05-0.01-0.01,0,0,0
		c-0.08-0.03-0.16-0.08-0.23-0.12c-0.16-0.09-0.33-0.16-0.51-0.11C18.55,8.83,18.56,8.91,18.61,8.92L18.61,8.92z"/>
	<path class="st12" d="M20.29,11.79c0.24,0.04,0.35,0.32,0.51,0.48c0.19,0.19,0.53,0.12,0.66-0.1c0.21-0.36-0.34-0.65-0.57-0.83
		c-0.1-0.07-0.23,0.05-0.16,0.15c0.07,0.09,0.16,0.18,0.23,0.27c0.04,0.05,0.08,0.11,0.11,0.18c0.02,0.04,0.01,0.02,0.01,0.05
		c0-0.03,0.02-0.07,0.05-0.08c0.03-0.01-0.06,0.01-0.08,0.01c-0.07,0.01-0.08,0.02-0.04,0.01c0.05-0.01-0.01,0,0,0
		c-0.08-0.03-0.16-0.08-0.23-0.12c-0.16-0.09-0.33-0.16-0.51-0.11C20.23,11.7,20.24,11.78,20.29,11.79z"/>
	<path class="st12" d="M14.72,17.66c0.28,0.03,0.77,0.28,1.02,0.05c0.15-0.14-0.08-0.35-0.2-0.4c-0.32-0.16-0.73,0.18-1-0.11
		c-0.07-0.07-0.2,0.01-0.13,0.1c0.14,0.17,0.31,0.22,0.53,0.21c0.13,0,0.26-0.03,0.39-0.02c0.04,0,0.33,0.08,0.26,0.14
		c-0.11,0.09-0.38,0.04-0.5,0.03c-0.12-0.01-0.25-0.04-0.38-0.04C14.69,17.61,14.68,17.66,14.72,17.66L14.72,17.66z"/>
	<path class="st12" d="M13.74,15.95c0.26,0.14,0.7,0.71,1.04,0.38c0.18-0.18,0.05-0.49-0.16-0.57c-0.17-0.07-0.54,0.04-0.62-0.15
		c-0.03-0.08-0.16-0.06-0.16,0.04c0.01,0.18,0.14,0.28,0.29,0.34c0.08,0.03,0.17,0.05,0.25,0.09c0,0,0.04,0.02,0.03,0
		c-0.03-0.05,0.16-0.15,0.08-0.11c-0.16,0.07,0.04,0-0.03,0.02c-0.02,0-0.05,0-0.07,0c-0.09,0-0.18-0.02-0.27-0.04
		c-0.11-0.02-0.23-0.08-0.35-0.08C13.71,15.84,13.68,15.92,13.74,15.95L13.74,15.95z"/>
	<path class="st12" d="M16.74,13.32c0.03,0.01,0,0.12,0.02,0.17c0.03,0.09,0.11,0.17,0.17,0.24c0.14,0.17,0.32,0.29,0.53,0.16
		c0.2-0.12,0.22-0.45,0.12-0.63c-0.13-0.22-0.38-0.31-0.25-0.6c0.04-0.08-0.08-0.16-0.14-0.09c-0.14,0.18-0.18,0.36-0.08,0.57
		c0.06,0.12,0.21,0.29,0.09,0.4c0.05-0.04,0.14,0,0.1-0.02c-0.02-0.02-0.04-0.04-0.05-0.06c-0.06-0.08-0.12-0.19-0.21-0.23
		c-0.08-0.04-0.28-0.04-0.32,0.07C16.72,13.29,16.72,13.31,16.74,13.32L16.74,13.32z"/>
	<path class="st12" d="M19.07,10.95c0.2,0.22,0.13,0.55,0.26,0.81c0.1,0.2,0.33,0.31,0.52,0.16c0.16-0.12,0.12-0.36,0.08-0.53
		c-0.03-0.13-0.21-0.52-0.12-0.64c0.13-0.17-0.12-0.37-0.25-0.21c-0.23,0.29,0.03,0.73,0.08,1.04c0.02,0.1,0.02,0.12-0.03,0.02
		c-0.06-0.12-0.05-0.24-0.07-0.36c-0.04-0.24-0.22-0.33-0.45-0.33C19.06,10.91,19.05,10.94,19.07,10.95L19.07,10.95z"/>
	<path class="st12" d="M16.75,16.51c0.23-0.03,0.48,0.13,0.71,0.17c0.26,0.04,0.48-0.1,0.49-0.37c0.01-0.23-0.22-0.35-0.4-0.42
		c-0.04-0.02-0.08-0.03-0.12-0.05c-0.02-0.01-0.15-0.07-0.09-0.03c-0.08-0.05-0.15-0.07-0.24-0.08c0.05,0.01,0.08,0.06,0.03-0.01
		c-0.08-0.1-0.25-0.12-0.33-0.01c-0.15,0.2-0.09,0.45,0.08,0.62c0.09,0.09,0.21,0.11,0.33,0.11c0.06,0,0.12,0,0.18,0
		c0.02,0,0.14,0,0.11,0c0.15,0.01-0.01,0.01,0.02-0.09c0.01-0.03-0.01,0-0.05,0.01c-0.06,0.02-0.13,0.02-0.19,0.02
		c-0.17,0.01-0.38-0.01-0.54,0.07C16.71,16.48,16.72,16.52,16.75,16.51z"/>
	<path class="st12" d="M14.02,13.56c0.23,0.06,0.62,0.32,0.83,0.09c0.15-0.16,0.03-0.37-0.12-0.48c-0.03-0.02-0.06-0.04-0.09-0.06
		c-0.01-0.01-0.03-0.02-0.04-0.03c-0.01-0.01,0.04,0.09,0-0.04c-0.05-0.13-0.18-0.15-0.29-0.09c-0.05,0.03-0.09,0.11-0.08,0.17
		c0.03,0.14,0.1,0.23,0.22,0.31c0.04,0.02,0.08,0.05,0.11,0.08c0.04,0.05-0.01,0.03,0.02-0.04c0.01-0.03,0.04-0.03,0-0.02
		c-0.17,0.07-0.38,0.02-0.56,0.05C13.99,13.51,13.99,13.55,14.02,13.56L14.02,13.56z"/>
	<path class="st12" d="M16.94,10.28c0.17,0.07,0.19,0.24,0.27,0.39c0.08,0.15,0.25,0.25,0.43,0.2c0.15-0.05,0.18-0.24,0.17-0.38
		c-0.02-0.16-0.1-0.44-0.26-0.49c-0.09-0.03-0.18-0.03-0.26,0.02c-0.07,0.05-0.13,0.15-0.11,0.24c0.02,0.11,0.07,0.17,0.15,0.24
		c0.02,0.02,0.02,0.02-0.01-0.01c0.01,0.01,0.02,0.02,0.03,0.03c0.02,0.02,0.04,0.05,0.05,0.07c0.03,0.05,0,0,0.02,0.02
		c0.01,0.02,0.02,0.04,0.02,0.06c-0.01-0.03-0.01-0.03,0-0.01c0-0.02,0-0.04,0.01-0.05c0.01-0.01,0.02-0.03,0.03-0.04
		c0.01-0.01,0.06-0.02,0.02-0.01c-0.09,0.01-0.17-0.13-0.23-0.18c-0.08-0.09-0.18-0.14-0.3-0.14
		C16.93,10.23,16.92,10.28,16.94,10.28L16.94,10.28z"/>
	<path class="st13" d="M15.24,17.56c0.37,0.01,0.65,0.14,0.94,0.36c0.2,0.15,0.36,0.29,0.59,0.39c0.44,0.2,0.9,0.27,1.27-0.08
		c0.21-0.2-0.11-0.46-0.32-0.34c-0.36,0.2-0.92,0.14-1.28-0.02C16.07,17.7,15.66,17.54,15.24,17.56
		C15.24,17.55,15.24,17.56,15.24,17.56L15.24,17.56z"/>
	<path class="st13" d="M16.21,17.54c0.23,0.1,0.45,0.19,0.66,0.32c0.12,0.08,0.23,0.17,0.35,0.24c0.22,0.13,0.56,0.21,0.79,0.08
		c0.18-0.1-0.01-0.36-0.19-0.26c-0.14,0.07-0.53-0.11-0.66-0.16c-0.32-0.12-0.61-0.19-0.95-0.24C16.21,17.52,16.2,17.53,16.21,17.54
		z"/>
	<path class="st13" d="M17.37,17.59c0.49,0.29,1.1,0.88,1.63,0.33c0.42-0.43-0.67-0.68-0.63-1.03c0.01-0.12-0.17-0.16-0.19-0.03
		c-0.06,0.34,0.35,0.55,0.51,0.79c0.14,0.21-0.44,0.19-0.53,0.17c-0.27-0.05-0.52-0.19-0.79-0.27
		C17.36,17.56,17.36,17.58,17.37,17.59L17.37,17.59z"/>
	<path class="st13" d="M18.37,16.81c0.27,0.2,0.5,0.5,0.83,0.59c0.16,0.05,0.47,0.11,0.61-0.01c0.22-0.18,0.03-0.41-0.15-0.52
		c-0.32-0.19-0.65-0.14-0.68-0.61c0-0.04-0.06-0.04-0.06,0c-0.01,0.19,0.01,0.36,0.13,0.51c0.11,0.13,0.29,0.2,0.42,0.31
		c0.09,0.08,0.03,0.09,0.13,0.04c-0.03,0.02-0.08,0.02-0.12,0.03c-0.08,0.01-0.16,0.02-0.24,0.02c-0.29,0-0.6-0.26-0.86-0.37
		C18.37,16.79,18.36,16.8,18.37,16.81L18.37,16.81z"/>
	<path class="st13" d="M18.6,15.86c0.47,0.08,0.66,0.61,1.08,0.79c0.17,0.07,0.37,0.09,0.55,0.11c0.15,0.02,0.38,0,0.52,0.07
		c0.04-0.08,0.07-0.15,0.11-0.23c-0.16-0.1-0.34-0.18-0.49-0.3c-0.18-0.14-0.22-0.35-0.38-0.51c-0.26-0.26-0.55-0.46-0.92-0.48
		c-0.03,0-0.04,0.04-0.02,0.06c0.26,0.24,0.54,0.48,0.82,0.71c0.28,0.23,0.63,0.42,0.84,0.71c0.08,0.11,0.29,0.02,0.22-0.12
		c-0.19-0.41-0.73-0.28-1.09-0.3c-0.47-0.02-0.73-0.54-1.23-0.52C18.59,15.84,18.59,15.85,18.6,15.86z"/>
	<path class="st13" d="M19.42,15.21c0.23,0.32,0.6,0.54,0.94,0.71c0.41,0.2,0.92,0.19,1.26,0.51c0.05,0.05,0.15-0.03,0.1-0.09
		c-0.22-0.24-0.28-0.57-0.33-0.88c-0.04-0.26-0.14-0.44-0.33-0.63c-0.28-0.28-0.94-0.54-1.33-0.41c-0.03,0.01-0.03,0.05,0,0.06
		c0.17,0.08,0.36,0.1,0.53,0.18c0.23,0.1,0.44,0.27,0.6,0.46c0.33,0.38,0.51,0.84,0.74,1.28l0.12-0.06
		c-0.23-0.35-0.63-0.51-1.03-0.56c-0.44-0.05-0.95-0.25-1.26-0.58C19.43,15.2,19.42,15.21,19.42,15.21L19.42,15.21z"/>
	<path class="st13" d="M20.42,14.38c0.18,0.27,0.58,0.56,0.93,0.51c0.16-0.02,0.31-0.09,0.46-0.14c0.06-0.02,0.4-0.18,0.45-0.14
		c0.05-0.07,0.1-0.15,0.14-0.22c-0.17-0.07-0.33-0.06-0.51-0.05c-0.21,0-0.35-0.19-0.54-0.25c-0.24-0.07-0.65-0.12-0.84,0.09
		c-0.02,0.02,0,0.06,0.03,0.05c0.32-0.04,0.58-0.12,0.89,0.03c0.13,0.06,0.2,0.17,0.35,0.22c0.16,0.06,0.33,0.04,0.48,0.13
		c0.15,0.1,0.29-0.08,0.17-0.21c-0.18-0.19-0.54-0.01-0.72,0.08c-0.14,0.07-0.29,0.17-0.45,0.2c-0.27,0.05-0.63-0.14-0.82-0.32
		C20.42,14.36,20.41,14.37,20.42,14.38L20.42,14.38z"/>
	<path class="st13" d="M20.23,13.98c0.31-0.18,0.66-0.25,1.02-0.18c0.3,0.06,0.61,0,0.91-0.03c0.18-0.02,0.15-0.29-0.03-0.27
		c-0.43,0.06-0.96-0.05-1.32-0.31c-0.19-0.13-0.42-0.25-0.64-0.13c-0.04,0.02-0.02,0.09,0.02,0.1c0.17,0.03,0.3,0.03,0.45,0.13
		c0.11,0.08,0.22,0.16,0.35,0.22c0.34,0.16,0.79,0.24,1.17,0.25c-0.01-0.09-0.02-0.18-0.03-0.27c-0.36,0.02-0.71,0.08-1.06,0.1
		c-0.31,0.02-0.61,0.17-0.85,0.36C20.21,13.98,20.22,13.99,20.23,13.98L20.23,13.98z"/>
	<path class="st13" d="M19.76,11.87c0.14,0.37,0.52,0.44,0.83,0.63c0.23,0.14,0.7,0.49,0.98,0.27c-0.04-0.06-0.09-0.12-0.13-0.18
		c-0.22,0.17-0.5,0.01-0.74,0.03c-0.15,0.02-0.29,0.12-0.38,0.23c-0.02,0.02,0.01,0.06,0.04,0.05c0.09-0.03,0.08-0.03,0.16-0.08
		c0.17-0.11,0.35-0.08,0.53-0.04c0.18,0.04,0.33,0.06,0.5,0c0.14-0.05,0.06-0.24-0.08-0.2c-0.07,0.02-0.24-0.07-0.31-0.1
		c-0.14-0.06-0.28-0.12-0.42-0.17c-0.31-0.11-0.82-0.09-0.97-0.44C19.77,11.86,19.76,11.86,19.76,11.87L19.76,11.87z"/>
	<path class="st13" d="M13.33,16.77c0.48-0.25,1,0.08,1.47,0.16c0.14,0.02,0.24-0.14,0.16-0.25c-0.13-0.2-0.35-0.27-0.58-0.32
		c-0.13-0.03-0.27-0.06-0.4-0.11c-0.16-0.05-0.2-0.14-0.26-0.28c-0.01-0.03-0.05-0.04-0.07-0.01c-0.32,0.49,0.89,0.58,1.03,0.87
		c0.06-0.07,0.12-0.15,0.18-0.22c-0.48-0.07-1.14-0.21-1.55,0.12C13.29,16.74,13.31,16.78,13.33,16.77L13.33,16.77z"/>
	<path class="st13" d="M15.27,16.81c0.3,0.1,0.43,0.5,0.76,0.56c0.29,0.05,0.6-0.12,0.86,0.03c0.07,0.04,0.17-0.03,0.15-0.11
		c-0.04-0.25-0.38-0.34-0.59-0.41c-0.12-0.04-0.25-0.08-0.38-0.11c-0.33-0.08-0.44-0.22-0.57-0.51c-0.02-0.03-0.06-0.02-0.06,0.01
		c0,0.32,0.25,0.5,0.53,0.59c0.15,0.05,0.87,0.2,0.86,0.41c0.06-0.01,0.13-0.03,0.19-0.04c-0.14-0.26-0.54-0.15-0.77-0.11
		c-0.25,0.05-0.4-0.01-0.61-0.16c-0.12-0.08-0.23-0.16-0.37-0.18C15.27,16.79,15.26,16.8,15.27,16.81z"/>
	<path class="st13" d="M16.89,13.34c0.1,0.17,0.23,0.39,0.43,0.48c0.21,0.09,0.52,0.1,0.69,0.26c0.09,0.08,0.23-0.05,0.15-0.14
		c-0.17-0.2-0.32-0.41-0.48-0.61c-0.14-0.18-0.31-0.37-0.55-0.34c-0.03,0-0.06,0.04-0.04,0.07c0.1,0.2,0.29,0.27,0.45,0.41
		c0.2,0.17,0.31,0.39,0.45,0.6c0.06-0.04,0.12-0.08,0.17-0.12c-0.14-0.17-0.34-0.2-0.55-0.21C17.28,13.7,17.11,13.57,16.89,13.34
		C16.89,13.33,16.88,13.34,16.89,13.34L16.89,13.34z"/>
	<path class="st13" d="M17.76,15.03c0.21,0.03,0.43,0.03,0.65,0.06c0.2,0.02,0.29,0.27,0.43,0.38c0.07,0.05,0.19,0,0.18-0.09
		c-0.05-0.28-0.21-0.45-0.42-0.62c-0.11-0.09-0.23-0.18-0.33-0.29c-0.09-0.11-0.05-0.25-0.13-0.35c-0.02-0.03-0.05-0.02-0.08,0
		c-0.16,0.15,0.03,0.42,0.15,0.54c0.24,0.24,0.58,0.36,0.59,0.75c0.06-0.03,0.12-0.06,0.18-0.09c-0.14-0.12-0.18-0.33-0.38-0.39
		c-0.27-0.07-0.57,0.05-0.84,0.08C17.74,15,17.74,15.03,17.76,15.03L17.76,15.03z"/>
	<path class="st13" d="M14.88,13.67c0.32,0.45,0.87,0.51,1.36,0.66c0.1,0.03,0.14-0.09,0.1-0.16c-0.1-0.17-0.28-0.31-0.43-0.44
		c-0.1-0.08-0.27-0.27-0.41-0.26c-0.03,0-0.04,0.04-0.03,0.06c0.06,0.1,0.22,0.18,0.3,0.26c0.14,0.13,0.31,0.29,0.38,0.47
		c0.04-0.05,0.08-0.09,0.11-0.14C15.78,14.04,15.25,14.06,14.88,13.67C14.88,13.66,14.87,13.67,14.88,13.67L14.88,13.67z"/>
	<path class="st13" d="M15.98,14.77c0.32,0.45,0.87,0.51,1.36,0.66c0.1,0.03,0.14-0.09,0.1-0.16c-0.1-0.17-0.28-0.31-0.43-0.44
		c-0.1-0.08-0.27-0.27-0.41-0.26c-0.03,0-0.04,0.04-0.03,0.06c0.06,0.1,0.22,0.18,0.3,0.26c0.14,0.13,0.31,0.29,0.38,0.47
		c0.04-0.05,0.08-0.09,0.11-0.14C16.88,15.14,16.35,15.16,15.98,14.77C15.98,14.76,15.97,14.76,15.98,14.77L15.98,14.77z"/>
	<path class="st13" d="M15.03,17.29c0.32,0.45,0.87,0.51,1.36,0.66c0.1,0.03,0.14-0.09,0.1-0.16c-0.1-0.17-0.28-0.31-0.43-0.44
		c-0.1-0.08-0.27-0.27-0.41-0.26c-0.03,0-0.04,0.04-0.03,0.06c0.06,0.1,0.22,0.18,0.3,0.26c0.14,0.13,0.31,0.29,0.38,0.47
		c0.04-0.05,0.08-0.09,0.11-0.14C15.93,17.66,15.41,17.68,15.03,17.29C15.04,17.28,15.03,17.29,15.03,17.29L15.03,17.29z"/>
	<path class="st13" d="M16.36,16.83c0.32,0.45,0.87,0.51,1.36,0.66c0.1,0.03,0.14-0.09,0.1-0.16c-0.1-0.17-0.28-0.31-0.43-0.44
		c-0.1-0.08-0.27-0.27-0.41-0.26c-0.03,0-0.04,0.04-0.03,0.06c0.06,0.1,0.22,0.18,0.3,0.26c0.14,0.13,0.31,0.29,0.38,0.47
		c0.04-0.05,0.08-0.09,0.11-0.14C17.26,17.2,16.74,17.22,16.36,16.83C16.36,16.82,16.36,16.82,16.36,16.83L16.36,16.83z"/>
	<path class="st13" d="M17.88,15.33c0.32,0.45,0.87,0.51,1.36,0.66c0.1,0.03,0.14-0.09,0.1-0.16c-0.1-0.17-0.28-0.31-0.43-0.44
		c-0.1-0.08-0.27-0.27-0.41-0.26c-0.03,0-0.04,0.04-0.03,0.06c0.06,0.1,0.22,0.18,0.3,0.26c0.14,0.13,0.31,0.29,0.38,0.47
		c0.04-0.05,0.08-0.09,0.11-0.14C18.79,15.7,18.26,15.72,17.88,15.33C17.89,15.32,17.88,15.33,17.88,15.33z"/>
	<path class="st13" d="M19.05,14.02c0.32,0.45,0.87,0.51,1.36,0.66c0.1,0.03,0.14-0.09,0.1-0.16c-0.1-0.17-0.28-0.31-0.43-0.44
		c-0.1-0.08-0.27-0.27-0.41-0.26c-0.03,0-0.04,0.04-0.03,0.06c0.06,0.1,0.22,0.18,0.3,0.26c0.14,0.13,0.31,0.29,0.38,0.47
		c0.04-0.05,0.08-0.09,0.11-0.14C19.95,14.4,19.42,14.41,19.05,14.02C19.05,14.01,19.04,14.02,19.05,14.02L19.05,14.02z"/>
	<path class="st13" d="M19.09,14.67c0.32,0.45,0.87,0.51,1.36,0.66c0.1,0.03,0.14-0.09,0.1-0.16c-0.1-0.17-0.28-0.31-0.43-0.44
		c-0.1-0.08-0.27-0.27-0.41-0.26c-0.03,0-0.04,0.04-0.03,0.06c0.06,0.1,0.22,0.18,0.3,0.26c0.14,0.13,0.31,0.29,0.38,0.47
		c0.04-0.05,0.08-0.09,0.11-0.14C19.99,15.04,19.46,15.06,19.09,14.67C19.09,14.66,19.08,14.67,19.09,14.67L19.09,14.67z"/>
	<path class="st13" d="M19.49,13.39c0.32,0.45,0.87,0.51,1.36,0.66c0.1,0.03,0.14-0.09,0.1-0.16c-0.1-0.17-0.28-0.31-0.43-0.44
		c-0.1-0.08-0.27-0.27-0.41-0.26c-0.03,0-0.04,0.04-0.03,0.06c0.06,0.1,0.22,0.18,0.3,0.26c0.14,0.13,0.31,0.29,0.38,0.47
		c0.04-0.05,0.08-0.09,0.11-0.14C20.39,13.76,19.86,13.78,19.49,13.39C19.49,13.38,19.48,13.39,19.49,13.39L19.49,13.39z"/>
	<path class="st13" d="M18.97,11.94c0.32,0.45,0.87,0.51,1.36,0.66c0.1,0.03,0.14-0.09,0.1-0.16c-0.1-0.17-0.28-0.31-0.43-0.44
		c-0.1-0.08-0.27-0.27-0.41-0.26c-0.03,0-0.04,0.04-0.03,0.06c0.06,0.1,0.22,0.18,0.3,0.26c0.14,0.13,0.31,0.29,0.38,0.47
		c0.04-0.05,0.08-0.09,0.11-0.14C19.87,12.31,19.34,12.33,18.97,11.94C18.97,11.93,18.96,11.93,18.97,11.94z"/>
	<path class="st13" d="M16.33,15.67c0.38,0.13,0.78,0.11,1.16,0.26c0.09,0.03,0.2-0.07,0.13-0.15c-0.19-0.22-0.56-0.71-0.9-0.66
		c-0.02,0-0.04,0.01-0.04,0.03c0,0.01,0,0.01-0.01,0.02c0,0.01,0,0.03,0.01,0.04c0.05,0.03,0.1,0.02,0.15,0.04
		c0.09,0.04,0.17,0.12,0.24,0.19c0.14,0.14,0.27,0.3,0.38,0.46c0.04-0.05,0.08-0.1,0.13-0.15c-0.39-0.2-0.83-0.02-1.25-0.08
		C16.33,15.66,16.33,15.67,16.33,15.67L16.33,15.67z"/>
	<path class="st13" d="M18.8,10.7c0.06,0.33-0.01,0.7,0.14,1c0.08,0.15,0.28,0.5,0.5,0.37c0.23-0.14,0.13-0.43,0.03-0.61
		c-0.08-0.14-0.17-0.28-0.23-0.43c-0.09-0.19-0.01-0.27,0.08-0.43c0.02-0.03-0.01-0.05-0.04-0.05c-0.2,0-0.28,0.18-0.27,0.36
		c0.01,0.25,0.2,0.48,0.31,0.69c0.01,0.02,0.1,0.32,0.03,0.29c-0.11-0.04-0.2-0.24-0.24-0.34c-0.14-0.29-0.06-0.58-0.28-0.85
		C18.81,10.69,18.79,10.69,18.8,10.7L18.8,10.7z"/>
	<path class="st13" d="M19.45,11.32c0,0.19,0.23,0.29,0.38,0.36c0.23,0.11,0.38,0.35,0.63,0.42c0.07,0.02,0.14-0.05,0.13-0.12
		c-0.04-0.24-0.28-0.43-0.46-0.57c-0.16-0.12-0.43-0.31-0.63-0.23c-0.04,0.01-0.04,0.06,0,0.08c0.32,0.17,0.84,0.29,0.88,0.73
		c0.04-0.04,0.09-0.08,0.13-0.12c-0.18-0.04-0.33-0.23-0.51-0.29c-0.17-0.06-0.48-0.04-0.53-0.26
		C19.46,11.3,19.45,11.31,19.45,11.32L19.45,11.32z"/>
	<path class="st13" d="M19.83,13.03c0.08,0.07,0.21,0.08,0.31,0.07c0.08-0.01,0.14-0.05,0.18-0.12c0.04-0.07,0.02-0.2-0.03-0.25
		c-0.05-0.05-0.1-0.09-0.17-0.13c-0.03-0.02-0.07-0.05-0.1-0.07C20,12.51,19.96,12.46,20,12.5c0,0-0.01-0.01-0.01-0.01
		c0.04,0.06-0.07,0.21-0.03,0.19c0.14-0.08,0.05-0.34-0.11-0.3c-0.16,0.03-0.21,0.18-0.13,0.32c0.05,0.08,0.12,0.14,0.19,0.2
		c0.04,0.03,0.07,0.06,0.11,0.09c0.01,0.01,0.02,0.01,0.03,0.02c-0.09-0.05-0.12-0.19,0.01-0.25c-0.02,0.01,0.04,0-0.01,0
		c-0.02,0-0.05,0-0.07,0.01c-0.07,0.01-0.15,0.05-0.18,0.12C19.76,12.93,19.78,13,19.83,13.03L19.83,13.03z"/>
	<path class="st13" d="M19.85,13.86c0.03-0.01,0.08-0.04,0.11-0.03c0.02,0,0.03,0,0.04,0.01c0.05,0.02,0.11,0.03,0.16,0.04
		c0.15,0.03,0.35,0.01,0.4-0.18c0.07-0.3-0.41-0.53-0.62-0.34c-0.07,0.06-0.02,0.18,0.05,0.21c0.02,0.01,0.04,0.02,0.06,0.02
		c0.01,0,0.02,0,0.03,0c-0.01,0-0.01,0,0,0c0.01,0,0.02,0.01,0.03,0.01c-0.02-0.01-0.01-0.01,0,0c0.01,0,0.05,0.05,0.02,0.02
		c0.01,0.01,0.02,0.03,0.03,0.04c-0.04-0.06,0.01,0.02,0.03,0.04c-0.01-0.03-0.02-0.04-0.01-0.02c-0.01-0.02-0.01-0.05,0-0.07
		c0.01-0.04,0.03-0.07,0.06-0.09c0.03-0.01,0.03-0.02,0.01-0.01c0.05-0.02,0,0-0.01,0c-0.05,0-0.09,0.02-0.13,0.04
		c-0.03,0.02-0.08,0.03-0.11,0.06c-0.07,0.05-0.12,0.14-0.17,0.21C19.82,13.85,19.83,13.87,19.85,13.86z"/>
	<path class="st13" d="M19.37,15.14c0.13-0.05,0.21,0.05,0.28,0.15c0.06,0.09,0.14,0.17,0.22,0.24c0.18,0.17,0.48,0.19,0.6-0.05
		c0.03-0.06,0.01-0.13-0.04-0.17c-0.2-0.17-0.48-0.19-0.66-0.37c-0.05-0.05-0.14,0.03-0.09,0.09c0.06,0.09,0.14,0.15,0.23,0.21
		c0.1,0.06,0.26,0.11,0.3,0.24c0.04-0.07,0.08-0.13,0.12-0.2c-0.21,0.02-0.34-0.09-0.54-0.15c-0.14-0.05-0.32-0.12-0.44,0
		C19.34,15.12,19.35,15.14,19.37,15.14L19.37,15.14z"/>
	<path class="st13" d="M18.01,16.26c0.05,0,0.12,0.07,0.15,0.1c0.06,0.05,0.12,0.1,0.18,0.15c0.11,0.09,0.3,0.19,0.42,0.06
		c0.2-0.21-0.28-0.45-0.34-0.62c-0.05-0.12-0.21-0.07-0.21,0.05c0,0.11,0.11,0.22,0.17,0.29c0.04,0.05,0.09,0.1,0.13,0.15
		c0.01,0.01,0.03,0.03,0.04,0.04c0,0,0.01,0.01,0.01,0.01c-0.04-0.05-0.02-0.14,0.05-0.14c0.02,0-0.01-0.01-0.02-0.01
		c-0.04-0.01-0.08-0.02-0.11-0.03c-0.07-0.02-0.13-0.04-0.2-0.06c-0.07-0.02-0.21-0.07-0.28-0.03
		C17.98,16.24,17.99,16.26,18.01,16.26z"/>
	<path class="st13" d="M16.83,16.76c0.18-0.02,0.24,0.26,0.31,0.38c0.07,0.12,0.25,0.17,0.35,0.05c0.1-0.12-0.01-0.28-0.08-0.39
		c-0.03-0.05-0.26-0.33-0.2-0.39c0.12-0.11-0.02-0.32-0.15-0.21c-0.28,0.24,0.04,0.6,0.17,0.83c0.01,0.01,0.02,0.05,0.02,0.05
		c-0.01-0.08,0.08-0.07,0.06-0.09c-0.06-0.04-0.1-0.1-0.15-0.15c-0.09-0.09-0.2-0.17-0.33-0.12C16.8,16.72,16.8,16.76,16.83,16.76
		L16.83,16.76z"/>
	<path class="st13" d="M17.28,16.17c0.27,0.1,0.15,0.63,0.53,0.58c0.43-0.05,0.16-0.62-0.03-0.79c-0.09-0.08-0.25-0.05-0.24,0.1
		c0.01,0.08,0.09,0.15,0.14,0.21c0.05,0.06,0.11,0.14,0.12,0.22c0.01,0.05-0.06,0.03-0.08,0.02c-0.06-0.03-0.1-0.11-0.14-0.16
		c-0.07-0.1-0.16-0.21-0.29-0.22C17.27,16.14,17.26,16.17,17.28,16.17L17.28,16.17z"/>
	<path class="st13" d="M16.24,12.95c0.13,0.04,0.2,0.16,0.32,0.21c0.1,0.04,0.22,0.02,0.33,0.02c0.08,0,0.1-0.1,0.07-0.15
		c-0.07-0.1-0.09-0.15-0.08-0.27c0.01-0.07,0.01-0.13-0.01-0.2c-0.02-0.11-0.15-0.32-0.26-0.17c-0.02,0.03-0.02,0.07,0.01,0.09
		c-0.03-0.03,0.02,0.02,0.02,0.03c0.03,0.02,0.03,0.04,0.04,0.07c0.01,0.04,0.02,0.1,0,0.14c-0.05,0.17,0.02,0.29,0.12,0.42
		c0.02-0.05,0.05-0.1,0.07-0.15c-0.12,0.01-0.25,0.05-0.36,0.01c-0.1-0.03-0.16-0.09-0.27-0.09C16.22,12.92,16.23,12.95,16.24,12.95
		L16.24,12.95z"/>
	<path class="st13" d="M17.25,11.16c0.06,0.16,0.12,0.33,0.22,0.47c0.1,0.14,0.19,0.33,0.37,0.38c0.05,0.01,0.11-0.01,0.15-0.05
		c0.15-0.19-0.12-0.39-0.23-0.52c-0.08-0.1-0.17-0.2-0.26-0.29c-0.12-0.12-0.26-0.28-0.43-0.33c-0.03-0.01-0.06,0.03-0.05,0.06
		c0.03,0.1,0.11,0.15,0.18,0.23c0.1,0.1,0.2,0.2,0.29,0.32c0.04,0.05,0.08,0.1,0.12,0.16c0.03,0.04,0.05,0.07,0.07,0.12
		c0.01,0.02,0.02,0.05,0.03,0.07c0.01,0.06,0.03,0.05,0.05-0.04c0.06,0,0.13,0,0.19,0.01c0.05,0.04-0.05-0.08-0.06-0.1
		c-0.07-0.07-0.15-0.14-0.22-0.2c-0.12-0.12-0.28-0.19-0.41-0.28C17.26,11.14,17.25,11.14,17.25,11.16L17.25,11.16z"/>
	<path class="st13" d="M18.09,13c0.28,0.17,0.37,0.45,0.58,0.68c0.08,0.08,0.23,0.02,0.25-0.09c0.02-0.2,0.06-0.4-0.05-0.58
		c-0.12-0.21-0.31-0.42-0.48-0.59c-0.03-0.02-0.06,0-0.07,0.02c-0.04,0.18,0.04,0.29,0.15,0.43c0.08,0.1,0.17,0.2,0.2,0.33
		c0.02,0.1-0.02,0.22-0.04,0.32l0.25-0.09c-0.25-0.17-0.45-0.4-0.76-0.47C18.08,12.98,18.08,12.99,18.09,13L18.09,13z"/>
	<path class="st13" d="M19.7,10.1c-0.14,0.12-0.24,0.27-0.19,0.46c0.05,0.21,0.18,0.4,0.23,0.6c0.04,0.14,0.21,0.13,0.3,0.05
		c0.13-0.13,0.11-0.3,0.05-0.46c-0.04-0.11-0.22-0.34-0.13-0.46c0.09-0.11-0.05-0.25-0.17-0.18c-0.15,0.09-0.15,0.26-0.11,0.41
		c0.02,0.06,0.17,0.39,0.12,0.43c0.09,0.04,0.18,0.08,0.28,0.12c-0.03-0.17-0.13-0.28-0.25-0.4c-0.18-0.17-0.22-0.33-0.08-0.56
		C19.75,10.12,19.72,10.09,19.7,10.1L19.7,10.1z"/>
	<path class="st13" d="M13.56,14.66c0.2,0,0.4,0,0.59,0.08c0.08,0.03,0.11,0.11,0.21,0.09c0.2-0.03,0.13-0.29,0.05-0.4
		c-0.1-0.15-0.36-0.25-0.52-0.32c-0.12-0.05-0.24-0.12-0.34-0.21c-0.11-0.09-0.11-0.21-0.16-0.33c-0.01-0.02-0.04-0.03-0.05-0.01
		c-0.22,0.29,0.26,0.66,0.46,0.79c0.08,0.06,0.17,0.1,0.26,0.14c0.04,0.02,0.08,0.04,0.12,0.06c0.03,0.02,0.05,0.05,0.08,0.08
		c0.09-0.01,0.1-0.02,0.06-0.05c-0.23-0.11-0.53-0.01-0.76,0.04C13.54,14.64,13.55,14.67,13.56,14.66L13.56,14.66z"/>
</g>
</svg>
