<?xml version="1.0" encoding="UTF-8"?>
<svg id="Capa_1" data-name="Capa 1" xmlns="http://www.w3.org/2000/svg" xmlns:xlink="http://www.w3.org/1999/xlink" viewBox="0 0 141.73 141.73">
  <defs>
    <style>
      .cls-1 {
        fill: #fff;
      }

      .cls-2 {
        fill: #7e4293;
      }

      .cls-3 {
        fill: #cdb2d6;
      }

      .cls-4 {
        fill: #c48b47;
      }

      .cls-5 {
        fill: #a6ba4d;
      }

      .cls-6 {
        fill: #788d29;
      }

      .cls-7 {
        fill: #b69e97;
      }

      .cls-8 {
        fill: #60192a;
      }

      .cls-9 {
        fill: #b288bd;
      }

      .cls-10 {
        fill: #e1d0e7;
      }

      .cls-11 {
        fill: #8b663a;
      }

      .cls-12 {
        fill: #9660a4;
      }

      .cls-13 {
        fill: #515c27;
      }

      .cls-14 {
        mask: url(#mask);
      }
    </style>
    <mask id="mask" x="1.84" y="-8.07" width="131.72" height="392.88" maskUnits="userSpaceOnUse">
      <g id="mask0_825_1038" data-name="mask0 825 1038">
        <path class="cls-1" d="m115.35-8.07H1.84v174.85h113.51V-8.07Z"/>
      </g>
    </mask>
  </defs>
  <g class="cls-14">
    <g>
      <path class="cls-6" d="m132.18,383.75c-2.94-23.23-1.03-46.94-.03-70.24,1.26-29.28,2.26-58.6.29-87.88-2.16-31.96-8.08-63.82-20.03-93.65-11.9-29.72-29.95-57.21-52.93-79.59-.72-.7-1.67.49-.99,1.18,13.04,13.3,24.74,27.68,34.52,43.54,8.96,14.53,16.19,30.09,21.81,46.19,10.55,30.21,15.09,62.2,16.34,94.07,1.13,28.87-.57,57.69-1.79,86.52-.85,19.93-1.95,40.22.8,60.04.18,1.28,2.17,1.1,2-.19Z"/>
      <path class="cls-6" d="m74.08,104.67c7.18-1.68,15.12-2.61,22.29-.42,3.15.97,6.16,2.54,7.31,5.82.97,2.76.58,5.72.79,8.59-4.53-4.56-9.13-9.99-15.53-11.84-2.54-.74-5.14-1.28-7.74-1.71-2.24-.37-4.84-.9-7.11-.43,3.49-.72,7.85-1.83,0,0h0Z"/>
      <path class="cls-13" d="m59.75,121.02c2.34.03,4.13.03,6.02-1.58,2.01-1.71,3.88-3.56,5.8-5.37,3.87-3.61,8.28-7.48,13.72-8.27-4.48-1.25-9.05-2.34-13.67-1.02-7.42,2.13-10.51,9.3-11.87,16.23.16-.83,1.74.02,0,0h0Z"/>
      <path class="cls-13" d="m82.79,105.66c1.13-.32,2.52-.03,3.63.25,1.19.3,2.31.83,3.38,1.42,1.95,1.08,3.81,2.49,5.41,4.04,1.49,1.44,2.82,3.03,4.25,4.52.65.68,1.33,1.36,2.08,1.92.72.54,1.52,1.16,2.46.85.5-.16.87-.86.61-1.35-.4-.78-1.23-1.02-1.92-1.5-.86-.61-1.69-1.24-2.5-1.91-1.61-1.33-3.13-2.77-4.84-3.97-1.9-1.33-3.87-2.59-6.02-3.48-1-.41-2.04-.71-3.11-.89-1.18-.2-2.27,0-3.45,0-.06,0-.05.11.02.09h0Z"/>
      <path class="cls-13" d="m93.76,105.31c1.32.31,2.62,1.29,3.68,2.09,1.11.84,2.12,1.81,3.02,2.86.88,1.02,1.59,2.17,2.18,3.37.35.7.29,1.67.26,2.28-.03.49.05,1.09.51,1.38.02.01.04.03.06.03.54.35,1.13.44,1.69.06.01-.01.03-.02.04-.03.42-.28.67-.82.61-1.32-.12-1.05-.26-2.25-.83-3.16-.83-1.3-1.97-2.49-3.13-3.5-1.13-.98-2.42-1.81-3.74-2.51-.63-.34-1.29-.63-1.96-.89-.76-.3-1.59-.44-2.35-.75-.06-.03-.1.08-.03.09h0Z"/>
      <path class="cls-13" d="m90.43,102.72c.94-.06,2.02.28,2.93.49.97.22,1.92.51,2.84.86,1.76.66,3.38,1.62,4.71,2.96,1.45,1.46,2.58,3.71,2.8,5.75.06.54-.04,1.07-.12,1.61-.1.63-.33,1.51-.19,2.13.19.85,1.37,1.54,2.02.62.76-1.08.65-3,.47-4.27-.32-2.37-1.96-4.72-3.64-6.36-1.49-1.45-3.43-2.34-5.39-2.93-1.04-.31-2.12-.5-3.2-.65-1.04-.14-2.2-.04-3.22-.29-.06-.02-.08.1,0,.1h0Z"/>
      <path class="cls-5" d="m65.4,108.11c.79-.59,1.81-.98,2.7-1.39.78-.36,1.58-.68,2.39-.98,1.6-.59,3.27-1.03,4.96-1.29,3.57-.55,7.26.06,10.6,1.39,3.01,1.19,6.17,2.2,8.97,3.86,1.3.77,2.42,1.86,3.56,2.84,1.06.91,2.31,2.13,3.7,2.49.2.05.38-.22.24-.38-.45-.53-1.03-.95-1.53-1.43-.63-.61-1.2-1.29-1.76-1.96-1.03-1.21-2.06-2.43-3.29-3.46-1.33-1.1-2.92-1.73-4.52-2.3-1.77-.64-3.51-1.07-5.37-1.32-3.57-.48-7.05-.69-10.62-.06-1.62.28-3.2.77-4.73,1.37-.89.35-1.76.75-2.62,1.17-.9.44-1.77,1.04-2.72,1.4-.06.03-.01.12.04.08h0Z"/>
      <path class="cls-5" d="m79.7,103.63c.44-.19,1.04-.17,1.52-.21.54-.05,1.08-.08,1.62-.11,1.16-.06,2.35-.1,3.51,0,2.2.19,4.43.63,6.52,1.37,1,.35,1.92.88,2.91,1.25.97.35,1.92.81,2.77,1.4,1.93,1.33,3.4,2.8,4.37,4.97.11.24.51.18.47-.11-.28-2.28-1.23-4.71-2.9-6.36-.85-.84-1.85-1.51-2.88-2.1-1.1-.63-2.26-.91-3.5-1.11-2.42-.4-4.92-.36-7.35-.11-1.2.12-2.4.22-3.59.4-.6.09-1.2.2-1.79.31-.53.1-1.15.35-1.69.33-.08,0-.06.12,0,.09v-.02Z"/>
      <path class="cls-6" d="m76.62,106.75c-1.86.24-3.83.97-5.46,1.89-1.88,1.07-3.29,3.09-4.74,4.64-1.54,1.64-2.77,3.43-4.62,4.76-.44.31-.79.81-1.17,1.18-.42.41-.88.75-1.35,1.1-.79.57-2.02.62-2.95.77-.09.01-.1.15,0,.16.83.08,1.65.17,2.49.12.92-.05,1.79-.48,2.58-.92,1.02-.57,1.88-1.15,2.65-2.04.77-.89,1.33-1.95,2-2.93,1.27-1.85,2.74-3.72,4.27-5.35.85-.9,1.76-1.46,2.87-1.99,1.14-.54,2.2-1.05,3.46-1.32.05-.01.04-.09,0-.08h0Z"/>
      <path class="cls-6" d="m60.18,119.03c.41-.89.56-1.9,1.01-2.76.63-1.2,1.36-2.37,2.02-3.55.53-.93,1.12-1.85,1.67-2.77.58-1,1.6-1.67,2.36-2.54.1-.12-.03-.33-.19-.26-1.9.99-3.71,2.26-4.68,4.26-.58,1.18-.95,2.48-1.4,3.72-.2.56-.41,1.1-.49,1.69-.1.71.04,1.53-.39,2.16-.04.06.05.11.08.05h.01Z"/>
      <path class="cls-5" d="m77.4,73.7c1.37.03,2.23,1.31,2.87,2.36.67,1.1,1.2,2.27,1.88,3.37,1.9,3.08,4.08,5.97,5.99,9.03,3.9,6.28,7.58,12.71,11.63,18.89.05.08.18,0,.15-.08-3.15-7.08-7.21-13.75-11.49-20.21-2.1-3.17-4.48-6.14-6.55-9.34-.99-1.55-2.23-4.32-4.48-4.07-.02,0-.01.03,0,.03h0Z"/>
      <path class="cls-12" d="m54.53,49.83c-.55-.49-1.87-.5-2.54-.61-1.84-.31-3.7-.56-5.55-.8-4.93-.67-9.86-1.33-14.75-2.21-3.36-.61-7.75-1.03-10.63-3.04-3.39-2.36,5.63-4.5,6.85-4.59,5.2-.38,10.45,1.45,15.04,3.72,4.69,2.33,9.19,5.36,12.88,9.08"/>
      <path class="cls-2" d="m54.09,49.62c-2.02-1.4-3.94-2.91-6.05-4.2-1.84-1.12-3.74-2.13-5.7-3.02-3-1.36-6.11-2.46-9.37-3.01-3.66-.62-7.79-.37-11.21,1.17-.49.22-1.52.65-1.68,1.25-.13.49.47.5.74.3.31-.24.6-.52.87-.8.21-.22-.12-.54-.35-.38-.26.19-.67.45-.86.54-.03.01-.06.03-.1.04-.06.03,1.01-.19.37.59-.09.11.04-.02.12-.06.19-.11.58-.29.85-.42.51-.26,1.05-.47,1.6-.66,4.27-1.46,9.09-1.01,13.4.05,2.74.67,5.36,1.69,7.89,2.93,1.47.72,2.89,1.51,4.29,2.34,1.76,1.05,3.56,2.1,5.18,3.37.02.01.04-.01.03-.03h-.01Z"/>
      <path class="cls-12" d="m51.84,45.44c-.48-.54-.5-1.85-.61-2.52-.31-1.82-.55-3.65-.81-5.49-.67-4.88-1.33-9.77-2.2-14.62-.61-3.41-1.06-7.72-3.02-10.68-2.31-3.48-4.5,5.1-4.63,6.36-.52,5.31,1.37,10.71,3.71,15.39,2.33,4.68,5.37,9.15,9.12,12.83"/>
      <path class="cls-2" d="m50.4,42.26c-.88-.85-.98-2.45-1.11-3.59-.14-1.25-.4-2.47-.65-3.71-.67-3.43-1.23-6.88-1.78-10.33-.54-3.39-1.05-6.8-1.56-10.2-.13-.91-.2-1.91-.67-2.73-.29-.5-.78-.75-1.15-.18-.19.29.21.64.42.35.02-.03.03-.04.05-.07.2-.29-.22-.63-.42-.35-.02.03-.03.04-.05.07.14.11.28.23.42.35.2-.32.42.45.49.65.16.44.2.9.28,1.36.24,1.56.47,3.11.72,4.67.48,3.12.97,6.24,1.49,9.35.5,3.02,1.11,6.02,1.66,9.03.35,1.87.55,3.85,1.83,5.35.02.02.04,0,.03-.03h0Z"/>
      <path class="cls-2" d="m48.25,38.73c-.35.08-1.49-3.05-1.59-3.31-.9-2.26-1.75-4.54-2.36-6.89-1.42-5.51-2.04-11.3-.42-16.83.09-.3-.35-.38-.49-.15-1.43,2.41-1.55,5.32-1.43,8.05.13,2.97.87,5.89,1.76,8.71.77,2.44,1.62,4.87,2.72,7.19.36.75.73,1.49,1.14,2.22.08.15.68.86.65,1.02-.01.06.07-.03.01-.01h0Z"/>
      <path class="cls-2" d="m51.66,44.98c-1.69-1.85-3.13-4.01-4.5-6.1-1.19-1.82-2.26-3.72-3.18-5.69-1.36-2.94-2.28-6.16-2.58-9.39-.35-3.69,0-7.56,1.88-10.83.25-.43.42-.82.72-1.14-.1.1-.61-.12-.58-.29.04-.14-.03.05-.05.1-.13.25-.29.48-.45.71-.19.27.16.56.4.33.24-.24.51-.49.7-.77.19-.27.17-.77-.28-.72-.6.07-1.13,1.07-1.37,1.51-1.83,3.23-2.32,7.25-1.92,10.89.37,3.33,1.54,6.59,3.01,9.58.93,1.89,1.98,3.71,3.15,5.46,1.51,2.28,3.32,4.27,5.04,6.39.01.02.04,0,.03-.02h-.02Z"/>
      <path class="cls-12" d="m51.14,49.55c-.65-.16-1.68.36-2.27.55-1.6.52-3.18,1.12-4.77,1.7-4.51,1.67-9.01,3.39-13.54,4.99-1.5.53-19.07,6.91-18.87,3.22.04-.87.71-1.78,1.16-2.47,1.04-1.59,2.38-2.96,3.9-4.11,3.37-2.52,7.49-3.9,11.6-4.64,8.1-1.47,17.04-.93,24.86,1.67"/>
      <path class="cls-2" d="m47.15,49.79c-1.22-.25-2.56.15-3.76.38-1.61.31-3.18.83-4.75,1.32-3.32,1.02-6.61,2.15-9.9,3.28-3.16,1.09-6.31,2.2-9.46,3.33-1.63.58-3.25,1.17-4.89,1.74-.44.15-.83.29-1.29.36-.26.04-.99.2-.76-.17-.19-.09-.38-.18-.58-.27-.02.03-.03.06-.05.1-.19.36.39.63.58.27.02-.03.03-.06.05-.1.19-.38-.37-.61-.58-.27-.37.59-.04,1.04.61,1.11.88.09,1.74-.26,2.55-.54,3.56-1.26,7.1-2.56,10.67-3.81,3.57-1.26,7.16-2.51,10.76-3.69,1.76-.57,3.52-1.12,5.29-1.64.93-.27,1.84-.58,2.77-.86.83-.25,1.86-.72,2.73-.49.03,0,.03-.03,0-.04v-.02Z"/>
      <path class="cls-2" d="m42.45,49.52c-.36.07-.91-.1-1.28-.11-.88-.03-1.76,0-2.65.03-2.69.11-5.39.49-8.03.99-6.26,1.18-12.72,2.98-17.46,7.47-.54.51-.95,1.19-1.34,1.82-.2.31.28.53.51.32,2.33-2.2,4.93-4.08,7.83-5.45,2.98-1.41,6.11-2.5,9.29-3.34,2.76-.72,5.59-1.12,8.42-1.47,1.46-.18,3.08-.45,4.55-.27.04,0,.1,0,.13.04.03.04.05-.04.01-.03h0Z"/>
      <path class="cls-2" d="m50.58,49.59c-2.2-.41-4.36-1.03-6.59-1.39-1.93-.31-3.9-.48-5.86-.56-3.2-.13-6.44.03-9.59.61-4.51.83-8.77,2.61-12.31,5.55-1.72,1.43-3.71,3.32-4.55,5.45-.14.35-.49,1.55.39,1.24.47-.16.67-1.13.79-1.52.12-.36-.35-.6-.55-.26-.18.33-.33.59-.53.87-.04.06-.1.13-.15.18.22-.22.74.23.67.41.2-.56.6-1.02.92-1.51,1.73-2.58,4.18-4.65,6.84-6.23,3.57-2.11,7.62-3.39,11.72-3.99,2.82-.41,5.67-.45,8.51-.27,1.63.1,3.26.29,4.88.5,1.78.24,3.64.46,5.37.96.03,0,.03-.04,0-.04h.01Z"/>
      <path class="cls-9" d="m54.01,52.11c-3.66.34-7.27,2.75-10.33,4.59-4.66,2.81-9.12,5.93-13.59,9.01-4.16,2.88-8.3,5.81-12.64,8.4-1.59.95-5.45,3.78-7.48,2.75-2.18-1.1,1.01-6.75,1.68-7.88,2.74-4.52,7.21-7.79,11.83-10.2,9.82-5.14,21.8-7.72,32.88-7.14"/>
      <path class="cls-12" d="m50.88,53.41c-3.47,1.21-6.4,4.4-8.92,6.92-3.84,3.84-7.43,7.93-11.02,12-3.34,3.78-6.66,7.63-10.25,11.18-1.31,1.3-4.38,4.96-6.6,4.46-2.29-.52-.73-6.42-.38-7.63,1.47-5.16,5.05-9.5,9-13.02,8.32-7.42,19.4-12.83,30.36-14.94"/>
      <path class="cls-2" d="m46.56,56c-1.5.47-2.74,1.63-3.95,2.59-1.49,1.18-2.84,2.54-4.2,3.86-2.99,2.91-5.89,5.9-8.77,8.91-2.85,2.97-5.68,5.97-8.5,8.97-1.42,1.51-2.83,3.02-4.25,4.53-.51.54-.98,1.11-1.56,1.55-.16.13-1.24.86-1.23.58-.26-.01-.52-.02-.78-.03v.13c.03.5.81.43.78-.07v-.13c-.02-.43-.76-.48-.78-.03-.04,1.07.76,1.19,1.59.77,1.23-.64,2.11-1.76,3.03-2.75,3.12-3.33,6.23-6.68,9.37-9.99,3.09-3.27,6.2-6.52,9.38-9.72,1.57-1.58,3.15-3.13,4.77-4.66.82-.77,1.6-1.58,2.41-2.36.76-.73,1.63-1.87,2.72-2.08.04,0,.03-.06-.01-.05Z"/>
      <path class="cls-2" d="m41.1,58.51c-.19.2-.83.32-1.09.44-.69.32-1.36.67-2.02,1.03-2.17,1.18-4.23,2.51-6.25,3.92-5.25,3.68-10.45,7.8-14.25,13.01-1.11,1.53-2.11,3.14-2.92,4.84-.79,1.65-1.26,3.26-1.36,5.1-.03.48.59.59.73.13.44-1.4,1.03-2.81,1.62-4.16.63-1.43,1.42-2.8,2.3-4.09,1.83-2.73,4.06-5.25,6.36-7.6,4.03-4.12,8.65-7.6,13.49-10.72.7-.45,1.41-.89,2.13-1.29.18-.1,1.02-.7,1.26-.57.05.03.04-.08,0-.04h0Z"/>
      <path class="cls-9" d="m54.85,53.14c-3,1.46-5.27,4.77-7.21,7.36-3.11,4.14-5.93,8.5-8.73,12.85-2.82,4.38-5.58,8.8-8.51,13.1-1.9,2.78-3.88,6.04-6.59,8.13-.51.39-1.31.94-1.97.59-.85-.44-.63-1.48-.93-2.19-.74-6.55,1.43-12.92,4.99-18.37,6.9-10.56,18.82-19.27,30.98-22.76"/>
      <path class="cls-10" d="m57.58,54.38c-2.7,1.96-4.36,5.62-5.82,8.5-2.34,4.61-4.36,9.4-6.35,14.16-2.01,4.8-3.96,9.63-6.1,14.38-1.38,3.07-2.77,6.62-5.07,9.14-1.31,1.43-2.45,1.02-3.04-.76-1.97-5.98-1.06-12.53,1.21-18.29,2.59-6.54,6.86-12.38,11.76-17.39,4.4-4.5,9.49-8.59,15.18-11.36"/>
      <path class="cls-9" d="m31.73,97.55c-.09.2-.3-.55-.3-.58-.06-.49-.02-.99.02-1.48.15-1.72.57-3.42,1.04-5.07,1.75-6.09,4.57-11.76,8.07-17.03,1.92-2.9,4.02-5.7,6.2-8.41,2.63-3.25,5.56-6.22,8.28-9.4.25-.29-.15-.73-.45-.49-3.88,3.1-7.12,6.93-10.15,10.85-2.51,3.24-4.7,6.73-6.63,10.34-2.63,4.94-4.96,10.25-6.03,15.77-.27,1.4-.49,2.84-.44,4.27.01.47,0,1,.41,1.25.06.04.02-.1-.01-.03h0Z"/>
      <path class="cls-2" d="m12.62,69.77c0-.13.07-.29.24-.49.31-.37.65-.7,1-1.03,1.29-1.23,2.7-2.3,4.12-3.37,4.93-3.7,10.39-6.57,16.12-8.8,3.12-1.21,6.31-2.28,9.53-3.19,1.76-.5,3.53-.94,5.32-1.32,1.93-.42,3.82-.86,5.72-1.37.45-.12.24-.77-.18-.76-1.15.04-2.33.04-3.47.25-1.19.22-2.38.47-3.56.74-2.13.49-4.24,1.05-6.33,1.7-3.75,1.16-7.35,2.7-10.85,4.48-4.94,2.52-9.83,5.47-14,9.14-1.24,1.09-2.52,2.23-3.5,3.57-.04.05-.31.38-.22.45.14.1.06-.11.05,0h.01Z"/>
      <path class="cls-2" d="m19.47,69.78c.44-.91,1.4-1.76,2.08-2.49.74-.8,1.53-1.55,2.34-2.28,1.77-1.61,3.73-3,5.78-4.23,2.68-1.62,5.59-2.89,8.49-4.07,3.94-1.6,7.91-3.14,11.92-4.57.76-.27,1.53-.54,2.3-.8.79-.27,1.55-.76,2.3-1.13.37-.18.29-.86-.18-.76-1.19.24-2.36.45-3.51.85-1.2.42-2.4.85-3.6,1.29-2.05.75-4.09,1.53-6.11,2.35-3.18,1.3-6.28,2.91-9.25,4.64-4.13,2.41-7.98,5.19-10.96,8.98-.54.7-1.01,1.6-1.64,2.21-.03.03.03.06.04.03Z"/>
      <path class="cls-2" d="m24.07,42.68c1.67-.28,3.44-.24,5.13-.29,1.3-.03,2.61,0,3.9.16,1.67.2,3.21.78,4.7,1.52,1.44.72,2.82,1.41,4.38,1.85,1.1.31,2.21.51,3.34.66.72.1,1.44.16,2.17.21.86.06,1.62-.06,2.47-.22.44-.08.48-.68.03-.78-.76-.17-1.47-.37-2.25-.42-.72-.04-1.45-.12-2.17-.21-1.13-.14-2.24-.36-3.34-.66-1.52-.42-2.97-1.04-4.45-1.58-1.6-.59-3.22-.91-4.92-1.03-1.22-.09-2.45-.06-3.68.02-1.79.12-3.54.54-5.32.72-.03,0-.03.06,0,.05h0Z"/>
      <path class="cls-2" d="m27.22,44.3c1.22.03,2.44.28,3.65.41.92.1,1.83.2,2.74.34,1.5.22,2.96.56,4.42.96,1.45.41,2.9.87,4.36,1.26.89.24,1.78.47,2.66.71,1.08.29,2,.45,3.11.45.42,0,.44-.57.13-.75-1.74-.96-3.74-1.31-5.66-1.83-1.46-.39-2.92-.7-4.42-.93-1.49-.22-3-.36-4.5-.49-.92-.08-1.85-.13-2.77-.17-1.24-.06-2.49.06-3.73-.02-.04,0-.04.05,0,.05h.01Z"/>
      <path class="cls-9" d="m39.23,86.27c.48-1.66,1.22-3.28,1.82-4.91.49-1.32.92-2.67,1.39-4,.82-2.32,1.69-4.62,2.74-6.85,1.12-2.39,2.45-4.67,3.79-6.93,1.85-3.1,4.07-5.96,5.79-9.13.19-.35-.31-.63-.56-.36-2.46,2.61-4.38,5.71-6.23,8.78-1.4,2.33-2.56,4.77-3.56,7.29-.9,2.29-1.67,4.65-2.42,7-.41,1.29-.81,2.59-1.22,3.88-.54,1.72-.92,3.55-1.6,5.22-.01.03.03.04.04.01h0Z"/>
      <path class="cls-12" d="m24.39,83.47c.1-1.16.89-2.46,1.42-3.46.74-1.4,1.58-2.74,2.46-4.05,2.07-3.11,4.43-6.01,6.93-8.78,2.71-3,5.59-5.88,8.52-8.68,2.67-2.55,5.54-4.87,8.29-7.33.33-.29-.01-.77-.4-.55-3.18,1.8-5.85,4.27-8.5,6.77-2.95,2.78-5.66,5.77-8.23,8.91-2.38,2.91-4.68,5.91-6.71,9.07-1.48,2.29-2.86,4.74-3.61,7.37-.07.24-.11.5-.2.74-.01.03.04.04.04.01h0Z"/>
      <path class="cls-12" d="m32.87,76.6c.33-1.97,1.4-4.02,2.31-5.78,1.06-2.04,2.36-3.93,3.86-5.67,1.7-1.97,3.61-3.74,5.54-5.49,2.19-1.98,4.63-3.65,6.73-5.72.24-.23-.08-.68-.38-.53-2.71,1.37-5.03,3.4-7.27,5.43-1.94,1.75-3.66,3.72-5.21,5.82-1.35,1.82-2.57,3.76-3.57,5.79-.48.98-.88,1.99-1.22,3.03-.33,1.02-.5,2.09-.83,3.11-.01.03.04.04.04.01h0Z"/>
      <path class="cls-9" d="m55.12,46.97c-1.62-.56-3.02-1.87-4.25-3.02-1.88-1.74-3.61-3.64-5.32-5.54-3.59-4-7.01-8.22-10.95-11.9-1.2-1.12-2.58-2.43-4.17-2.97-1.14-.38-2.21.32-2.75,1.32-2.48,4.65,2.68,9.77,5.9,12.46,5.81,4.86,13.82,9.21,21.54,9.63"/>
      <path class="cls-2" d="m49.66,43.93c-.26.15-1.04-.29-1.27-.39-.77-.32-1.52-.7-2.25-1.09-2.22-1.18-4.41-2.47-6.39-4.02-2.37-1.85-4.47-4-6.3-6.38-1.89-2.45-3.02-5.24-3.9-8.17-.1-.35-.6-.19-.59.13.03,3.15,1.61,6.05,3.47,8.53,1.88,2.52,4.38,4.56,6.97,6.32,2.11,1.44,4.3,2.8,6.64,3.84.79.35,1.59.68,2.41.95.38.13.88.15,1.24.31.04.02.04-.06,0-.04h-.01Z"/>
      <path class="cls-2" d="m54.3,46.88c-2.47-.77-4.87-1.96-7.21-3.05-1.92-.89-3.82-1.87-5.62-2.97-2.81-1.72-5.43-3.72-7.75-6.04s-4.99-5.42-5.01-8.89c0-.34,0-.88.14-1.21.1-.24.31-.44.44-.43.39.03.5-.58.11-.6-2.17-.14-1.85,2.99-1.5,4.29,1.11,4.15,4.58,7.54,7.93,10,2.36,1.74,4.93,3.19,7.54,4.52,1.59.81,3.22,1.55,4.86,2.24,1.99.83,4.06,1.41,6.06,2.2.03.01.04-.03.01-.04h0Z"/>
      <path class="cls-3" d="m56.95,53.2c-2.14,3.28-2.16,8.08-2.34,11.84-.28,5.65-.16,11.3-.24,16.95-.07,4.84-.06,9.92-1.3,14.64-.38,1.46-.92,3.05-2.04,4.13-.41.4-.91.7-1.47.84-.28.07-.58.1-.87.1-.22,0-.28-.12-.44-.28-.23-.22-.45.19-.78-.2-5.84-7.25-5.11-17.46-2.68-25.89,2.52-8.77,7.05-17.43,13.21-24.21"/>
      <path class="cls-9" d="m55.22,57.79c-1.07,1.34-1.84,2.66-2.4,4.3-.54,1.62-.75,3.33-1.03,5.01-.78,4.66-1.13,9.38-1.42,14.09-.27,4.46-.59,8.96-.64,13.43-.01,1.07.01,2.13-.06,3.19-.03.54-.07,2.8-.87,2.86-.46.03-.39.74.06.71.83-.06,1.11-1,1.27-1.67.29-1.2.28-2.49.29-3.71.03-4.02.26-8.04.46-12.06.24-4.95.56-9.91,1.24-14.81.28-1.97.58-3.96,1.01-5.91.4-1.83.74-3.99,2.11-5.39.02-.02-.02-.05-.04-.03Z"/>
      <path class="cls-9" d="m48.82,69.35c.02.19-.56.92-.64,1.11-.38.77-.7,1.58-.99,2.4-.92,2.53-1.51,5.19-1.92,7.85-.51,3.32-.86,6.72-.5,10.08.39,3.67,1.24,7.56,3.38,10.6.22.32.71.04.59-.31-1.17-3.43-2.34-6.77-2.75-10.41-.37-3.27-.52-6.58-.15-9.86.29-2.57.84-5.09,1.52-7.58.24-.86.5-1.72.82-2.55.05-.14.44-1.32.65-1.3.08,0-.03-.09-.02-.02h0Z"/>
      <path class="cls-10" d="m57.37,54.91c-1.61,3.84-.29,9.16.34,13.08.92,5.64,2.16,11.24,2.79,16.94.29,2.68,1.31,8.63-1.7,10.31-2.15,1.2-4.11-2.05-5.12-3.72-1.73-2.86-2.58-6.17-2.9-9.47-.95-9.77,1.98-20.64,7.14-28.96"/>
      <path class="cls-9" d="m57.99,91.66c-.79-1.72-1.31-3.62-1.84-5.44-.52-1.79-1-3.58-1.38-5.4-.65-3.18-.94-6.4-.93-9.64,0-2.91.23-5.85.71-8.73.44-2.57,1.16-5.1,1.75-7.65.09-.38-.47-.53-.64-.2-1.24,2.41-1.86,4.96-2.33,7.63-.51,2.91-.69,5.84-.54,8.78.17,3.32.72,6.61,1.46,9.84.4,1.75.9,3.48,1.46,5.19.63,1.92,1.53,3.72,2.23,5.62.01.03.06.01.04-.02h0Z"/>
      <path class="cls-9" d="m58.55,85.8c-.27-2.09-.27-4.23-.47-6.32-.18-1.84-.37-3.67-.58-5.51-.34-3.1-.62-6.2-.81-9.31-.15-2.45-.31-4.91-.15-7.36.15-2.31.62-4.63,1.06-6.89.08-.38-.47-.54-.64-.2-2.08,4.28-1.99,9.55-1.43,14.18.37,3.07.92,6.1,1.35,9.15.27,1.9.53,3.8.78,5.7.28,2.18.73,4.38.85,6.57,0,.03.05.03.04,0h0Z"/>
      <path class="cls-9" d="m56.08,47.73c-.98-4.96,1.03-10.48,2.65-15.08,1.9-5.39,4.28-10.6,6.16-15.99.52-1.48,3.02-7.51.04-8.05-2.43-.44-4.77,2.49-6.11,4.15-2.1,2.58-3.58,5.62-4.55,8.78-2.58,8.37-2.13,18.3,1.82,26.19"/>
      <path class="cls-2" d="m61.7,11.96c-.72,1.02-1.66,1.91-2.41,2.93-.76,1.04-1.42,2.13-2.01,3.28-1.24,2.44-2.06,5.07-2.63,7.74-.68,3.16-.95,6.47-.81,9.7.17,4.1.59,8.36,1.9,12.25.13.38.7.23.67-.15-.28-3.93-1.07-7.79-1.29-11.73-.17-3.19-.22-6.38.19-9.55.35-2.68,1.1-5.29,2.2-7.76.52-1.16,1.13-2.27,1.79-3.36.67-1.11,1.45-2.43,2.41-3.32.03-.03-.01-.06-.03-.03h.01Z"/>
      <path class="cls-2" d="m62.07,19.06c-.39.79-1.11,1.51-1.63,2.24-.54.75-1.05,1.51-1.52,2.3-1.09,1.85-1.9,3.79-2.58,5.83-.88,2.63-1.37,5.38-1.65,8.14-.18,1.76-.13,3.58-.1,5.35.02,1.03.07,2.07.13,3.1.06,1.09.28,2.08.54,3.14.08.33.65.27.67-.06.24-3.76-.19-7.53.01-11.31.15-2.77.34-5.47,1-8.17.49-1.99,1.31-3.92,2.28-5.73.42-.8.88-1.58,1.34-2.36.47-.79.93-1.77,1.56-2.43.03-.03-.03-.06-.04-.03h0Z"/>
      <path class="cls-2" d="m68.78,17.98c-.39.79-1.11,1.51-1.63,2.24-.54.75-1.05,1.51-1.52,2.3-1.09,1.85-1.9,3.79-2.58,5.83-.88,2.63-1.37,5.38-1.65,8.14-.18,1.76-.13,3.58-.1,5.35.02,1.03.07,2.07.13,3.1.06,1.09.28,2.08.54,3.14.08.33.65.27.67-.06.24-3.76-.19-7.53,0-11.31.15-2.77.34-5.47,1-8.17.49-1.99,1.31-3.92,2.28-5.73.42-.8.88-1.58,1.34-2.36.47-.79.93-1.77,1.56-2.43.03-.03-.03-.06-.04-.03h0Z"/>
      <path class="cls-9" d="m55.9,50.31c1.9-3.35,5.58-5.91,8.56-8.22,4.48-3.48,9.15-6.72,13.75-10.04,4.14-2.98,8.37-5.97,12.14-9.43,1.22-1.12,5.12-4.33,3.72-6.39-4.83-7.09-15.77,2.57-19.63,6.26-4.31,4.11-8.14,8.76-11.45,13.7-2.91,4.34-5.63,9.05-7.07,14.11"/>
      <path class="cls-12" d="m56.61,48.46c.6-4.65,3.37-9.31,5.5-13.4,2.86-5.46,5.98-10.78,9.29-15.97,2.17-3.39,5.34-6.62,6.3-10.57.11-.46.78-2.52-.2-2.2-1.26.42-2.43,1.05-3.51,1.8-2.41,1.67-4.4,3.9-6.12,6.26-3.91,5.37-6.65,11.63-8.58,17.96-1.54,5.07-3,10.85-2.23,16.18"/>
      <path class="cls-9" d="m71.87,16.3c-1.29,2.19-2.86,4.24-4.22,6.39-1.15,1.81-2.25,3.65-3.38,5.47-1.7,2.73-3.43,5.5-4.84,8.4-1.45,2.98-2.95,6.18-3.41,9.5-.11.81.06,1.72.26,2.51.1.4.65.2.65-.15.01-1.86.62-4.06,1.26-5.87.71-2.02,1.61-3.97,2.56-5.89,1.45-2.96,2.87-5.93,4.43-8.85.94-1.76,1.97-3.47,2.99-5.18,1.23-2.09,2.34-4.31,3.72-6.31.02-.03-.02-.05-.04-.03h0Z"/>
      <path class="cls-3" d="m57.26,47.96c1.1-4.34,4.45-8.43,7.03-11.97,3.63-5,7.52-9.81,11.54-14.49,2.46-2.87,4.99-5.63,7.7-8.26,1.28-1.24,2.65-2.38,3.88-3.67.33-.34,2.3-2.34.92-2.53-1.59-.21-3.55.75-4.98,1.29-2.2.83-4.23,1.83-6.12,3.25-3.88,2.91-7.03,6.75-9.73,10.74-2.86,4.23-5.26,8.8-7.09,13.56-1.48,3.84-2.81,8.06-2.72,12.21"/>
      <path class="cls-9" d="m82.38,8.87c-1.74,1.94-3.72,3.67-5.5,5.58-1.58,1.71-3.12,3.44-4.62,5.21-2.49,2.94-4.91,5.94-7.14,9.08-2.89,4.08-5.42,8.49-7.12,13.2-.44,1.2-.88,2.46-1.02,3.73-.08.77-.06,1.53-.06,2.3,0,.43.67.37.67-.06,0-.66.35-1.69.58-2.36.5-1.48.86-2.96,1.45-4.41,2.03-5.08,4.97-9.86,8.03-14.38,1.93-2.84,4-5.56,6.19-8.21,1.27-1.54,2.59-3.04,3.91-4.54,1.51-1.72,2.98-3.56,4.65-5.12.02-.02-.01-.05-.04-.03h0Z"/>
      <path class="cls-2" d="m73.3,14.19c-1.47,1.92-3.2,3.65-4.71,5.55-1.17,1.46-2.27,2.94-3.38,4.44-1.52,2.05-2.95,4.19-4.1,6.48-.86,1.72-1.43,3.56-1.96,5.4-.6,2.08-1.38,4.18-1.77,6.3-.07.37-.15.74-.22,1.11-.08.4.48.55.66.21.61-1.15,1.08-2.25,1.46-3.49.31-1,.59-2.01.88-3.02.51-1.81,1.1-3.57,1.76-5.33,2.35-6.16,6.66-11.42,10.62-16.6.26-.34.52-.69.81-1.02.02-.03-.02-.06-.04-.03h0Z"/>
      <path class="cls-9" d="m78.04,16.1c-1.68,1.91-3.59,3.63-5.3,5.53-1.45,1.61-2.83,3.26-4.22,4.92-2.11,2.5-4.2,5.12-5.88,7.93-1.13,1.89-2.16,3.86-2.95,5.92-.5,1.3-1.03,2.72-1.06,4.12-.02.58.01,1.16.09,1.74.05.36.62.42.67.03.12-.96.41-1.83.61-2.72.35-1.57.95-3.08,1.62-4.54,1.08-2.33,2.42-4.55,3.77-6.73,2.04-3.27,4.34-6.36,6.8-9.33.92-1.11,1.86-2.18,2.78-3.28,1.01-1.19,2-2.46,3.12-3.56.02-.02-.01-.05-.04-.03h0Z"/>
      <path class="cls-12" d="m80.59,19.59c-1.83,1.88-3.89,3.56-5.76,5.42-1.67,1.66-3.29,3.38-4.92,5.08-2.68,2.78-5.34,5.63-7.67,8.71-1.64,2.17-3.2,4.4-4.56,6.75-.78,1.35-1.53,2.75-1.67,4.33-.02.22-.03.43,0,.65.04.37.62.42.67.03.06-.49.27-.94.49-1.37.36-.72.72-1.45,1.1-2.17,1.18-2.24,2.63-4.32,4.12-6.36,2.19-2.99,4.45-5.93,6.82-8.79,3.08-3.71,6.45-7.18,9.81-10.64.53-.54,1.04-1.11,1.61-1.61.03-.02,0-.06-.03-.03h0Z"/>
      <path class="cls-12" d="m91.38,17.56c-1.36.89-2.91,1.55-4.3,2.4-1.53.93-3.02,1.92-4.47,2.96-3.08,2.19-6.05,4.55-8.96,6.96-5.14,4.25-10,8.83-14.35,13.89-.98,1.14-2.03,2.31-2.75,3.64-.39.72-.79,1.48-.81,2.31,0,.43.67.36.67-.06,0-.28.47-.87.68-1.16.53-.71,1.1-1.4,1.65-2.1,1.67-2.13,3.5-4.12,5.37-6.07,5.07-5.3,10.35-10.46,16.09-15.03,1.84-1.46,3.73-2.85,5.65-4.21.9-.64,1.81-1.25,2.74-1.85.9-.57,1.84-1.26,2.83-1.66.03-.01,0-.06-.02-.04h0Z"/>
      <path class="cls-2" d="m74.39,73.66s.03-.05,0-.04c-.03,0-.03.05,0,.04Z"/>
      <path class="cls-3" d="m54.99,51.81c2.51.65,4.91,2.13,7.22,3.27,3.75,1.85,7.5,3.68,11.37,5.27,3.74,1.53,7.66,2.96,11.7,3.43,1.62.19,3.31.22,4.89-.2.68-.18,1.35-.45,1.94-.82.24-.15,1.4-1.37,1.6-1.02-1.59-2.71-4.98-4.93-7.7-6.34-3.09-1.61-6.48-2.59-9.91-3.19-6.96-1.22-14.1-.92-21.11-.4,4.94,1.27,12.79-.96,0,0h0Z"/>
      <path class="cls-3" d="m89.75,57.72c-1.91-2.08-4.75-3.17-7.4-4-3.13-.98-6.36-1.58-9.61-1.97-5.35-.65-10.9-1.08-16.28-.61-.6.05-1.2.11-1.81.17-.17.01-.78.16-.75.17-.13-.03-.17.18-.04.21.9.21,2.08.18,3.09.2,2.43.06,4.86-.04,7.3,0,6.44.11,13.05.72,19.15,2.89,2.2.79,4.25,1.9,6.29,3.01.04.02.09-.03.06-.07h0Z"/>
      <path class="cls-9" d="m93.49,61.61c-2.38-2.44-5.84-3.79-8.99-4.96-3.36-1.25-6.83-2.19-10.33-2.95-3.24-.7-6.49-1.3-9.77-1.74-2.45-.34-4.89-.64-7.37-.66h-2.22c-.22,0-.49-.03-.7.05-.13.05-.3.07-.2.1-.17-.04-.22.23-.05.27-.14-.03.1.07.17.11.2.11.4.12.62.15.7.09,1.41.18,2.11.27,2.42.33,4.84.49,7.26.76,6.91.76,13.79,2.06,20.31,4.5,3.15,1.18,6.03,2.86,9.1,4.2.06.03.11-.05.06-.1h0Z"/>
      <path class="cls-9" d="m76.04,59.41c-1.92-.38-3.66-1.37-5.44-2.13-1.61-.68-3.22-1.28-4.77-2.07-1.56-.79-3.01-1.78-4.71-2.26-1.91-.53-3.86-.79-5.83-.82-.17,0-.15.24-.01.27.9.26,1.77.6,2.68.84,1.03.27,2.08.54,3.08.91,1.67.6,3.26,1.51,4.79,2.4,1.47.86,3.16,1.14,4.79,1.6,1.81.51,3.59.92,5.43,1.3.03,0,.04-.04,0-.04h0Z"/>
      <path class="cls-3" d="m56.71,50.34c2.27-3.72,6.91-6.06,10.65-7.98,5.33-2.73,10.92-4.94,16.49-7.12,4.73-1.85,9.55-3.55,14.16-5.7,2.3-1.08,6.96-3.62,3.91-6.53-2.01-1.91-6.89.2-9.05,1-4.51,1.67-8.81,3.94-12.93,6.39-8.31,4.94-17.1,10.92-22.97,18.74"/>
      <path class="cls-9" d="m102.11,23.79c-3.54-.03-7.02,1-10.33,2.17-3.51,1.25-6.91,2.84-10.19,4.6-6.11,3.28-11.9,7.14-17.41,11.35-2.14,1.64-4.18,3.35-6.11,5.23-.15.14-2.04,1.99-1.6,2.07.13.03.17-.19.04-.21.22.04-.06.24.22.06.16-.1.31-.2.45-.33.48-.43.98-.84,1.48-1.25,1.74-1.42,3.5-2.82,5.25-4.22,5.31-4.26,10.92-8.19,16.88-11.5,3.41-1.9,6.94-3.58,10.6-4.94,3.49-1.3,7.1-2.13,10.73-2.94.06-.01.05-.09,0-.09h-.01Z"/>
      <path class="cls-9" d="m82.51,32.55c-2.12.54-4.07,1.68-6,2.71-1.84.98-3.65,2.01-5.45,3.07-2.79,1.67-5.54,3.42-8.19,5.3-1.63,1.16-3.26,2.33-4.71,3.7-.41.38-.81.77-1.22,1.15-.1.09-.54.52-.45.52-.13.01-.12.22.02.21.61-.06,1.31-.69,1.88-1.1,1.6-1.15,3.12-2.41,4.7-3.6,2.56-1.92,5.21-3.71,7.94-5.37,1.76-1.07,3.55-2.08,5.36-3.06,2.06-1.11,4.29-2.04,6.16-3.45.04-.03,0-.09-.05-.08h0Z"/>
      <path class="cls-10" d="m60.15,48.4c2.17-3.04,6.88-4.27,10.25-5.27,5.28-1.57,10.69-2.66,16.06-3.85,4.55-1.02,9.31-1.92,13.59-3.83,1.86-.83,5.51-3.33,2.63-5.47-2.34-1.74-5.89-1.23-8.55-.7-4.29.86-8.43,2.52-12.38,4.38-7.66,3.6-16,8.26-21.62,14.74"/>
      <path class="cls-9" d="m98.61,30.36c-2.43.31-4.8,1-7.16,1.71-2.21.66-4.41,1.37-6.59,2.13-3.7,1.29-7.33,2.75-10.91,4.33-4.51,2-9.05,4.21-13.1,7.05-.63.45-1.26.9-1.88,1.35-.15.11-.67.57-.67.57-.12,0-.1.19.02.19.4-.01,1.1-.49,1.56-.77,1.38-.84,2.79-1.64,4.18-2.47,5.32-3.21,10.95-5.89,16.74-8.14,2.68-1.04,5.39-1.99,8.13-2.86,3.22-1.03,6.54-1.8,9.69-3.01.04-.01.03-.08-.02-.08Z"/>
      <path class="cls-9" d="m85.87,36.98c-2.53-.11-5.11.57-7.55,1.19-2.43.62-4.8,1.42-7.12,2.39-2.22.93-4.38,1.99-6.46,3.19-1.13.65-2.25,1.35-3.34,2.08-.52.35-.99.79-1.48,1.18-.44.36-.95.68-1.24,1.18-.04.08.04.14.12.12.54-.13,1-.53,1.47-.83.53-.34,1.07-.67,1.61-.99,1.04-.63,2.03-1.37,3.07-2.01,2.06-1.28,4.22-2.43,6.46-3.38,2.22-.95,4.52-1.71,6.85-2.32,2.51-.66,5.14-.93,7.61-1.72.03-.01.03-.08,0-.08h0Z"/>
      <path class="cls-3" d="m57.66,49.36c2.9-2.47,7.89-2.49,11.47-2.63,5.6-.23,11.2.05,16.8.19,4.63.12,9.51.42,14.08-.51,2.3-.47,5.72-2.4,3.04-4.97-2.12-2.04-5.65-2.31-8.43-2.38-4.34-.11-8.71.52-12.96,1.38-8.13,1.65-17.12,4.11-24,8.92Z"/>
      <path class="cls-9" d="m98.59,41.08c-3.75-1.19-7.95-1.03-11.83-.72-3.98.33-7.91,1.09-11.77,2.03-5.53,1.34-10.92,3.16-16.1,5.52-.29.13-.59.24-.86.4-.07.04-.13.1-.2.15-.1.07-.12.03-.04.04-.12-.02-.15.16-.03.18.11.02.51-.02.78-.11.72-.25,1.43-.51,2.15-.77,2.56-.91,5.09-1.9,7.67-2.78,7.46-2.53,15.28-4.31,23.19-4.27,2.35.01,4.7.27,7.04.41.04,0,.07-.06.03-.08Z"/>
      <path class="cls-9" d="m88.16,43.63c-2.08-.59-4.27-.62-6.41-.6-2,.02-3.99.19-5.97.47-3.26.45-6.49,1.26-9.62,2.29-2.22.72-4.47,1.51-6.62,2.44-.85.36-2.22,1.11-3.13.56-.08-.04-.15.04-.12.12.29,1,2.04.45,2.7.28,2.18-.57,4.25-1.6,6.37-2.38,3.16-1.17,6.41-2.08,9.74-2.61,2.04-.33,4.09-.5,6.15-.56,2.31-.06,4.61.19,6.91.1.04,0,.04-.06,0-.08h0Z"/>
      <path class="cls-10" d="m57.3,51.48c2.27-.75,5.34-.02,7.64.26,4.09.49,8.18,1.06,12.29,1.39,4,.32,8.14.52,12.11-.22,1.59-.3,3.2-.77,4.58-1.64.59-.38,1.13-.83,1.59-1.37.19-.22.91-1.73,1.2-1.46-2.25-2.01-6.02-3.08-8.92-3.61-3.47-.63-7.04-.55-10.52-.03-6.97,1.03-13.63,3.69-19.96,6.69,4.71-1.57,11.77-5.57,0,0h-.01Z"/>
      <path class="cls-3" d="m91.9,46.61c-2.32-1.27-5.21-1.28-7.8-1.27-3.34.01-6.67.38-9.96.91-3.15.5-6.28,1.12-9.37,1.95-2.22.6-4.43,1.26-6.4,2.48-.51.31-1.23.72-1.31,1.35-.01.09.09.17.17.1,1.26-.98,2.77-1.39,4.24-1.95,2.72-1.03,5.55-1.78,8.38-2.42,6.29-1.42,12.83-2.18,19.26-1.48.92.1,1.84.26,2.75.4.05,0,.07-.06.03-.08h0Z"/>
      <path class="cls-3" d="m96.45,48.4c-2.19-1.15-4.8-1.3-7.24-1.42-3.18-.15-6.37-.03-9.54.2-6.06.45-12.18,1.19-18.08,2.66-1.01.25-2.02.66-2.97,1.09-.57.26-1.23.5-1.54,1.07-.04.08.05.18.13.15,4.03-1.54,8.37-2.37,12.61-3.09,6.44-1.09,13.08-1.74,19.62-1.41,2.34.11,4.68.42,6.98.83.05.01.07-.06.03-.08h0Z"/>
      <path class="cls-3" d="m79.18,51.68c-1.91.22-3.9.06-5.8-.09-1.94-.16-3.89-.41-5.82-.72-1.85-.29-3.59-.75-5.48-.53-.85.1-1.72.24-2.53.49-.85.26-1.56.84-2.42,1.11-.12.04-.07.22.04.2.72-.08,1.4-.31,2.1-.52.94-.27,1.91-.37,2.88-.45,1.99-.16,3.89.38,5.84.67,3.77.56,7.41.27,11.17-.15.03,0,.02-.04,0-.03h0Z"/>
      <path class="cls-10" d="m56.68,50.58c1.51,1.99,3.71,3.58,5.58,5.21,3.11,2.72,6.23,5.45,9.15,8.36,2.77,2.76,5.55,5.72,7.48,9.15.72,1.28,1.33,2.69,1.49,4.16.06.61.08,1.24-.16,1.81-.22.52-.75,1.14-.5,1.47-.14-.18-1.4-.15-1.67-.21-.6-.12-1.18-.3-1.75-.52-1.33-.54-2.54-1.34-3.64-2.26-2.54-2.11-4.57-4.79-6.35-7.54-3.98-6.12-6.92-12.88-9.62-19.64,2.94,3.86,4.51,11.28,0,0h0Z"/>
      <path class="cls-3" d="m75.76,78.32c-4.25-3.85-7.56-8.54-10.61-13.35-2.86-4.52-5.24-9.3-7.99-13.88-.31-.51-.69-1.03-1.01-1.45-.07-.1-.22.01-.15.11.12.16.24.72.35.95.35.73.69,1.46,1.04,2.18,1.1,2.31,2.49,4.52,3.79,6.71,3.18,5.36,6.48,10.82,10.61,15.5,1.13,1.28,2.37,2.56,3.94,3.28.04.02.08-.04.04-.06h0Z"/>
      <path class="cls-3" d="m79.56,80.63c-3.97-3.48-7.28-7.68-10.41-11.92-3.5-4.74-6.72-9.68-9.86-14.67-.7-1.11-1.47-2.16-2.22-3.23-.21-.3-.42-.6-.63-.9-.06-.08-.16-.14-.24-.2-.08-.07-.12-.11-.08-.06-.07-.1-.22.01-.15.11-.05-.07,0,.03.04.15.05.19.13.34.23.51.33.57.65,1.15.98,1.73,1.13,1.99,2.4,3.89,3.67,5.79,3.45,5.16,6.99,10.29,10.85,15.14,1.3,1.63,2.65,3.23,4.09,4.73,1.08,1.12,2.26,2.21,3.68,2.89.04.02.08-.04.04-.06h0Z"/>
      <path class="cls-3" d="m70.84,66.35c-1.99-2.85-3.95-5.57-6.48-7.96-1.2-1.14-2.52-2.13-3.63-3.37-1.23-1.38-2.36-2.91-3.49-4.37-.06-.08-.21-.01-.16.08.77,1.51,1.67,2.89,2.66,4.26.97,1.33,2.24,2.33,3.47,3.4,1.34,1.19,2.62,2.46,3.88,3.72,1.32,1.32,2.66,2.71,3.73,4.25.01.02.04,0,.03-.02Z"/>
      <path class="cls-3" d="m56.82,54.43c.87,1.85,2.36,3.49,3.58,5.11,1.96,2.61,3.92,5.23,5.71,7.95,1.7,2.59,3.36,5.32,4.3,8.29.35,1.08.6,2.22.54,3.37-.03.5-.09,1.09-.36,1.52-.08.13-1.01,1.22-.73,1.21-2.24.12-4.67-3.1-5.68-4.63-4.39-6.61-6.03-15.15-7.37-22.83,1.67,3.51,4.24,24.44,0,0h0Z"/>
      <path class="cls-3" d="m67.17,79.32c-3.25-4.51-5.31-9.75-7.07-14.99-.85-2.51-1.62-5.04-2.35-7.58-.22-.79-.54-1.55-.81-2.33-.06-.19-.11-.47-.23-.64-.04-.06-.19-.27-.15-.19-.04-.08-.18-.03-.14.05.04.08.09.69.15.91.19.8.38,1.61.58,2.41.65,2.61,1.65,5.18,2.56,7.7,1.05,2.94,2.16,5.88,3.48,8.71.97,2.08,2.06,4.55,3.95,5.96.03.02.07-.01.04-.04h0Z"/>
      <path class="cls-9" d="m65.3,69.12c-1-2.41-1.74-4.88-3.33-7-.82-1.09-1.72-2.13-2.42-3.3-.83-1.37-1.52-2.86-2.28-4.27-.05-.1-.24-.08-.2.04.33,1.46.84,2.79,1.44,4.15.53,1.21,1.45,2.21,2.24,3.26,1.67,2.23,3.43,4.53,4.53,7.11,0,.02.04,0,.03-.01h0Z"/>
      <path class="cls-9" d="m68.68,80.49c-.87-.6-1.54-1.74-2.1-2.62-.78-1.21-1.42-2.51-2.03-3.81-1.35-2.87-2.54-5.85-3.66-8.81-.98-2.61-1.91-5.23-2.81-7.87-.42-1.21-.95-2.38-1.37-3.59-.04-.13-.24-.05-.2.08.43,1.2.53,2.54.89,3.77.79,2.68,1.65,5.32,2.63,7.93,1.11,2.96,2.33,5.85,3.87,8.62,1.2,2.18,2.59,4.43,4.49,6.08.09.08.18.15.26.24.02.02.04-.01.03-.03h0Z"/>
      <path class="cls-8" d="m43.75,46.04c-2.06-.02-2.37,2.44-2.12,4,.38,2.29,2.09,1.88,3.67,2.91,1.76,1.13,2.04,4.16,4.76,3.64,1.53-.29,2.62-1.69,2.4-3.25.22-.17,1.2.24,1.43.31.9.22,1.88.45,2.81.31,1.83-.29,1.88-2.4,1.89-3.84,0-.75,1.04-.58,1.59-.56,1.02.04,1.82-.15,2.29-1.12.55-1.12.24-2.38-.49-3.35-.04-.05-1.31-1.37-1.33-1.32.03-.08.85-.33.94-.38.59-.33,1.33-.78,1.36-1.53.06-1.32-1.39-2.33-2.18-3.19-.26-.29-.31-1.51-.45-1.58-.86-.43-1.53-.93-2.33-1.42-.64-.4-1.47.02-2.11-.38-.7-.43-1.04-.8-1.93-.92-2.38-.33-3.72.94-5.66,2.01-1.43.79-3.23,1.26-4.41,2.43-.92.92-1.93,2.82-2.23,4.11-.22.95,1.45,2.68,2.11,3.1-.51,0-.26-.17,0,0h0Z"/>
      <path class="cls-11" d="m44.62,51.79c-2.16.17-4.33-.46-6.45-.73.05.22.1.44.15.66.01-.01.03-.03.04-.04.36-.3-.03-.86-.42-.59-.02.01-.03.02-.05.03-.28.19-.15.59.15.66,1.01.22,1.94.7,2.99.68,1.21-.02,2.4-.62,3.6-.57.06,0,.06-.11-.01-.11h0Z"/>
      <path class="cls-11" d="m45.27,47.94c-1.15-.29-2.16-.89-3.32-1.16-.9-.22-1.95-.25-2.68-.89-.53-.47-1.23.38-.7.84.76.66,1.84.89,2.8,1.05.61.1,1.22.36,1.84.38.69.02,1.38.01,2.06-.12.05-.01.06-.08,0-.09h0Z"/>
      <path class="cls-11" d="m47.83,42.88c-.81-.68-1.63-1.3-2.48-1.93-.49-.38-.94-.1-1.35.27-.48.43-.96.86-1.43,1.3-.23.22-.47.49-.76.65.64-.33.24.68.44.21.07-.16.15-.32.23-.47.31-.6.65-1.18.99-1.76.24-.41.51-.96.07-1.35-.45-.42-1.16-.51-1.72-.74-.49-.2-1.06-.55-1.59-.63-.47-.07-.6.65-.13.72.37.06.99.41,1.4.59.32.13,1.63.43,1.44.8-.51.92-1.33,1.88-1.55,2.91-.08.38.32.63.65.51.51-.18.93-.65,1.29-1.02.43-.43.78-.94,1.18-1.39.45-.52,1.01,0,1.44.22.61.31,1.45.59,1.81,1.21.04.06.14-.02.08-.07Z"/>
      <path class="cls-11" d="m47.75,40.14c-.9-1.35-1.99-2.53-3.19-3.61-.53-.48-1.17-.86-1.79-1.19-.57-.31-1.31-.47-1.76-.96-.03.17-.06.34-.08.51l.04-.04c.37-.28-.04-.87-.42-.59-.01.01-.03.03-.04.03-.15.11-.22.36-.08.51.31.36.7.58,1.13.8.72.36,1.39.71,2.04,1.19,1.46,1.06,2.88,2.04,4.1,3.4.04.04.11,0,.08-.05h-.01Z"/>
      <path class="cls-11" d="m49.88,37.22c-.22-1.26-.64-2.53-1.34-3.62-.77-1.18-1.71-2.25-2.54-3.39-.42-.57-1.33.08-.89.64,1.63,2.04,3.6,3.95,4.59,6.41.04.09.19.06.18-.04Z"/>
      <path class="cls-11" d="m49.17,38.5c-.72-1.16-1.61-2.26-2.56-3.24-.47-.49-1.01-.96-1.55-1.37-.51-.38-1.13-.5-1.57-.97-.32-.34-.9.2-.6.56.32.36.69.58,1.11.8.65.34,1.11.82,1.64,1.32,1.11,1.05,2.42,1.85,3.47,2.97.04.04.09-.02.06-.06h0Z"/>
      <path class="cls-11" d="m54.21,39.31c-.17-.76-.15-1.53-.19-2.31-.04-.75-.29-1.38-.63-2.04-.74-1.49-1.57-2.92-2.49-4.31-.39-.59-1.34.1-.89.64.98,1.18,1.88,2.4,2.72,3.67.5.76.85,1.45.99,2.36.11.68.17,1.35.4,2.01.02.04.1.03.09-.02Z"/>
      <path class="cls-11" d="m55.42,38.87c.23-1.8.19-3.55-.4-5.28-.28-.82-.69-1.63-1.11-2.38-.24-.43-.83-.97-.83-1.48.01-.8-1.33-.72-1.27.11.04.52.38.95.69,1.34.46.59.85,1.19,1.24,1.84,1.04,1.76,1.49,3.81,1.59,5.84,0,.05.08.06.09,0h0Z"/>
      <path class="cls-11" d="m57.86,38.94c-.02-.56.24-1.2.33-1.76.1-.63.15-1.27.17-1.91.04-1.18-.07-2.44-.62-3.5-.16-.31-.42-.42-.76-.34-.1.03-.19.08-.24.17-.14.22-.2.49-.03.71.65.88.89,1.95,1.04,3.01.08.54.11,1.08.13,1.62.02.6.12,1.42-.13,1.97-.03.08.1.11.1.02h0Z"/>
      <path class="cls-11" d="m59.86,42.32c.59-1.12,1.06-2.28,1.14-3.56.03-.57.25-1.15.24-1.72-.01-.52-.35-.95-.35-1.44,0-.7-1.19-.61-1.09.1.05.39.22.68.43,1.01.3.49.09,1.2.1,1.75.01.66.08,1.26-.03,1.92-.1.65-.31,1.29-.53,1.9-.02.06.06.09.08.04h0Z"/>
      <path class="cls-11" d="m56.55,50.77c-.2-.91-.31-3.2-1.58-3.33-1.02-.1-.92,1.48.12,1.23-.29.07-.31-.06-.17.04.1.07.19.17.26.26.18.21.34.45.49.68.26.38.47.8.71,1.19.04.08.19.03.17-.06h0Z"/>
      <path class="cls-11" d="m53.13,45.75c-.02-.31.04-.71-.13-.98-.2-.31-.44-.6-.7-.87-.22-.23-.52-.38-.78-.56-.24-.16-.4-.34-.69-.41-.21-.04-.38.15-.37.34.02.52.63.84.99,1.15.29.26.46.65.69.96.17.25.6.34.86.45.06.03.13-.02.13-.09h0Z"/>
      <path class="cls-11" d="m49.7,42.8c-.31-.69-.54-1.62-1.4-1.81-.19-.04-.45.04-.56.2,0,0-.01.02-.02.03-.18.26-.17.56.07.78.11.1.3.19.45.15.03,0,.06-.01.09-.01-.12.01,0,0,.04.02-.07-.02.1.06.12.06.08.04.14.1.21.15.25.19.45.42.69.63.13.12.37-.04.29-.2h0Z"/>
      <path class="cls-11" d="m48.83,47.2c-.18-.86-.74-1.24-1.45-1.7-.78-.5-1.66-.96-2.61-.98-.7,0-.61,1.11.1,1.09.69-.03,1.4.38,1.99.71.35.19.67.42.99.66.24.18.58.2.85.31.06.03.15-.02.13-.09h0Z"/>
      <path class="cls-11" d="m51.59,50.93c-.31-.01-.64-.52-.85-.71-.23-.21-.55-.39-.83-.52-.85-.39-1.72-.75-2.66-.53-.89.2-.37,1.72.51,1.35.62-.26,1.63.06,2.21.34.37.18,1.25.44,1.63.14.03-.02.03-.08-.02-.08h0Z"/>
      <path class="cls-11" d="m51.43,52.89c-.63.29-1.33.43-2.01.5-.66.07-1.51.29-2.04-.22-.59-.56-1.45.45-.81.98,1.52,1.25,3.81.08,4.97-1.12.06-.06-.02-.18-.1-.14Z"/>
      <path class="cls-11" d="m45.94,54.49c-.2.2-.56.1-.8.05-.35-.07-.71-.05-1.07-.09-.54-.06-1.35-.2-1.72-.65-.45-.55-1.36.13-.89.64.58.63,1.42.84,2.25.95.41.05.95.11,1.35-.04.43-.16.62-.5.95-.77.06-.04-.02-.13-.07-.08Z"/>
      <path class="cls-11" d="m51.69,55.54c-.56.4-1.19.19-1.81.21-.4.02-.85.08-1.21-.06-.42-.17-1.23-.41-1.51-.77-.37-.46-1.11.08-.74.53.46.55,1.41.86,2.07,1.08,1.22.41,2.29-.31,3.26-.91.06-.04,0-.13-.06-.08h0Z"/>
      <path class="cls-11" d="m55.09,55.58c-.82,1.46-3.31,1.07-4.64.83-.65-.12-.81.93-.18.98.95.08,1.86,0,2.78-.26.95-.27,1.47-.84,2.13-1.51.05-.05-.05-.13-.09-.06h0Z"/>
      <path class="cls-11" d="m46.21,56.65c-.47,0-.98-.22-1.39-.42-.24-.11-.49-.26-.67-.47-.17-.2-.03-.31-.08-.53-.04-.21-.24-.31-.43-.2-.28.17-.24.57-.08.82.17.27.47.44.76.57.54.23,1.31.42,1.9.31.06-.01.05-.09,0-.09h0Z"/>
      <path class="cls-11" d="m59.06,53.02c-.33.09-.73.19-1.02.38-.4.27-.74.62-1.2.78-.54.19-1.7.65-2.18.2-.3-.27-.81.18-.53.49.61.69,1.69.52,2.5.38.45-.08.88-.19,1.28-.41.65-.35.99-.81,1.5-1.33.24-.25-.08-.58-.36-.5h0Z"/>
      <path class="cls-11" d="m56.01,51.8c-.47,1.1-2.65,2.09-3.63,1.16-.42-.4-1.02.31-.58.7,1.44,1.3,4.31.15,4.3-1.84,0-.04-.07-.06-.09-.01h0Z"/>
      <path class="cls-11" d="m61.19,50.79c-.5.4-1.43.13-2.01,0-.66-.15-1.53-.47-1.99-1-.3-.36-.9.06-.6.42.83.98,3.9,2.34,4.65.63.02-.04-.03-.09-.07-.06h0Z"/>
      <path class="cls-11" d="m62.14,50.85c.02-1.07,0-2.21-1.05-2.82-.56-.33-1.11-.63-1.76-.78-.45-.11-1.1.02-1.46-.31-.44-.4-.99.29-.58.7.58.57,1.52.43,2.24.7,1.15.45,1.87,1.53,2.45,2.57.05.09.17.02.17-.06Z"/>
      <path class="cls-11" d="m62.68,48.53c.38-1.07.02-2.49-.74-3.33-.77-.85-2-.8-2.93-1.39-.5-.31-.88.52-.38.82.65.41,1.38.5,2.08.79,1.05.43,1.97,2.01,1.9,3.08,0,.04.07.08.08.03h0Z"/>
      <path class="cls-11" d="m63.06,46.24c-.24-1.05.04-2.05-.99-2.75-1.13-.76-2.64-.79-3.84-1.4-.74-.38-1.3.84-.54,1.16,1.84.75,4.91.42,5.27,3,.01.07.12.06.11-.01h0Z"/>
      <path class="cls-11" d="m62.67,43.29c.1-1.4.04-3.77-1.55-4.35-.6-.22-1.03.68-.42.91.59.22.97,1.03,1.23,1.56.29.59.52,1.24.65,1.88.01.04.08.06.09,0Z"/>
      <path class="cls-11" d="m56.8,41.6c.4-1.06.67-2.22.31-3.36-.26-.8-.88-1.87-1.77-2.03-.37-.06-.65.18-.74.51-.08.31.18.72.51.73.38.03.67.54.85.82.48.71,1.26,2.48.75,3.26-.04.07.06.12.09.06h0Z"/>
      <path class="cls-11" d="m53.99,42.48c.35-.11.4-.64.39-.93-.02-.68-.75-1.48-1.15-2-.61-.8-2.05-2.46-3.24-2.18-.37.09-.19.62.14.61.8-.02,1.68,1.55,2.09,2.08.36.45.69.92.97,1.42.06.11.64.73.61.83-.04.11.05.22.17.19h0Z"/>
      <path class="cls-11" d="m56.64,46.45c.65-2.61-2.9-4.61-5.04-5.01-.7-.13-.88.93-.19,1.08,1.02.23,1.95.79,2.77,1.44.7.56,1.65,1.57,1.84,2.47.07.35.54.39.63.03h0Z"/>
      <path class="cls-11" d="m45.93,44.09c-.76-1.33-1.63-2.27-2.92-3.06-.79-.49-1.93-1.06-2.88-.83-.62.15-.27,1.11.35.94.64-.17,1.72.51,2.25.82,1.12.65,2.2,1.29,3.13,2.2.04.04.09-.02.06-.06Z"/>
      <path class="cls-11" d="m43.99,46.53c-.24-2.03-3.44-2.4-5.07-2.34-.7.03-.6,1.12.1,1.09.83-.03,1.65.05,2.45.25.49.12.97.34,1.4.61.35.23.66.29,1.05.43.03.01.07,0,.06-.04Z"/>
      <path class="cls-11" d="m45.17,49.13c-1.1.15-2.19.24-3.29.03-.72-.13-1.71-.29-2.18-.91-.36-.47-1.14-.07-.92.49.38,1,1.84,1.26,2.77,1.46,1.32.27,2.93.48,3.82-.71.12-.15.01-.4-.2-.37h0Z"/>
      <path class="cls-11" d="m44.34,52.68c-.59-.09-1.27-.11-1.85-.03-.66.09-1.85.47-2.36-.15-.45-.55-1.36.13-.89.64.63.69,1.47.75,2.36.63,1.04-.14,1.79-.68,2.75-1.01.04-.01.04-.08,0-.09Z"/>
      <path class="cls-11" d="m34.68,51.92c.06,0,.12.04.18.06.07.03.09-.09.01-.09-.06,0-.13.03-.15-.04-.01-.04-.07-.04-.09-.01-.03.04,0,.09.04.09Z"/>
      <path class="cls-4" d="m34.57,52.03c.17-.06.46.05.63.08.3.06.56.15.88.15.42,0,1.11-.13,1.08-.69-.04-.5-.38-.78-.86-.74-.78.06-1.49.43-2.12-.22-.04-.04-.1.01-.08.06.44,1,1.69.26,2.43.57.17.07.12.35,0,.44-.17.13-.46.15-.67.17-.42.04-.86.2-1.28.16-.02,0-.01.03,0,.03h0Z"/>
      <path class="cls-11" d="m35.86,46.32c.26.13.42.4.61.61.33.37.7.52,1.2.45.69-.1,1.35-.89.9-1.56-.29-.44-.89-.57-1.36-.71-.22-.06-.45-.15-.63-.3-.15-.13-.28-.32-.5-.15-.08.06-.15.18-.13.28.07.33.35.53.63.7.32.2.65.42.93.67-.06-.05.05.07.05.07-.08-.11-.05-.24.03-.35.03-.04.03-.01.06,0-.12,0-.24-.06-.37-.08-.4-.04-1.05.03-1.42.22-.07.04-.08.13,0,.17h0Z"/>
      <path class="cls-11" d="m37.29,40.09c.41.2.47.68.7,1.04.26.42.8.6,1.28.58.91-.04,1.85-.88,1.24-1.81-.43-.67-1.02-.65-1.73-.73-.31-.04-.63-.06-.92-.18-.35-.15-.15-.54-.28-.8-.05-.1-.18-.16-.28-.08-.38.27-.3.9-.04,1.24.31.4.91.5,1.38.62.21.05.43.16.6.3.02.02.04.08.03.13.05-.22.07-.06-.18-.08-.63-.07-1.11-.6-1.79-.39-.08.03-.07.13,0,.17h0Z"/>
      <path class="cls-11" d="m37.45,37.34c.8.08,1.08.95,1.51,1.51.4.52,1.31.99,1.87.4.52-.55.13-1.35-.33-1.8-.63-.62-1.64-.58-2.09-1.42-.09-.16-.35-.04-.33.12.08.66.44,1.05.97,1.43.2.15.53.33.65.56.05.1.08.2.12.29.12.36-.19.18.21-.03-.33.17-1.05-.67-1.26-.84-.38-.31-.81-.5-1.29-.41-.1.02-.12.17,0,.18Z"/>
      <path class="cls-11" d="m38.2,33.99c.49.36.84.91,1.29,1.31.54.48,1.35.33,1.68-.29.24-.46.2-1.01-.32-1.23-.47-.2-1.08-.1-1.58-.13-.06,0-.08.08-.01.09.37.07.71.12,1.05.28.12.06.28.14.35.27.06.14-.34.24-.15.26-.16-.02-.3-.15-.48-.17-.24-.03-.47-.1-.69-.16-.36-.1-.72-.26-1.1-.29-.04,0-.08.05-.04.08h0Z"/>
      <path class="cls-11" d="m41.03,31.86c.25.16.36.49.47.75.13.32.26.65.43.96.39.72,1.12.91,1.77.37.62-.52.49-1.23-.04-1.74-.4-.4-1.1-.59-1.44-.98-.34-.39-.99.04-.67.48.24.34.64.57.96.82.19.14.37.29.51.48.02.02.06.14.05.1-.01-.08,0-.06-.1,0-.17.11-.04,0,.07.04-.1-.04-.21-.11-.31-.16-.22-.12-.41-.31-.6-.48-.29-.26-.65-.66-1.07-.72-.04,0-.08.05-.04.08h0Z"/>
      <path class="cls-11" d="m43.72,28.8c-.01.17-.06.34-.1.5-.08.29.22.75.35,1,.25.52.7,1.37,1.42,1.27.77-.11,1.27-.94.89-1.65-.35-.66-1.04-.96-1.52-1.5-.11-.12-.19-.26-.34-.33-.08-.04-.16-.05-.24-.04.19-.01-.04,0-.03,0-.28.03-.43.33-.4.59.06.61.82,1.16,1.16,1.64.05.07.08.21.09.04q.03-.07-.01.01s0-.02.01-.03c-.18.16-.06.13.35-.09.16.01,0-.03-.1-.12-.1-.1-.19-.22-.27-.33-.17-.23-.37-.72-.65-.83-.17-.06-.33-.15-.5-.2-.04-.01-.1.03-.11.08h0Z"/>
      <path class="cls-11" d="m50.37,30.87s.03.02.03.03c0-.01-.01-.03-.02-.04-.03-.08-.13-.12-.2-.06-.07.05-.08.17,0,.22.09.06.19.1.28.01.05-.06,0-.16-.08-.15Z"/>
      <path class="cls-11" d="m47.54,29.48c.47.57.71,1.37,1.29,1.85.72.6,1.7.52,2.18-.29.43-.75-.2-1.48-.79-1.87-.33-.23-.69-.42-1.01-.65-.14-.1-.28-.21-.38-.34-.12-.15-.1-.33-.23-.49-.19-.22-.51-.26-.7-.03-.86,1,1.28,2.15,1.77,2.72.24.28-.12-.19.37-.12-.2-.03-.53-.26-.76-.34-.54-.19-1.05-.49-1.6-.66-.12-.03-.2.13-.13.21h0Z"/>
      <path class="cls-11" d="m50.93,27.75c.23.33.67.91.61,1.34-.05.34-.22.73-.08,1.07.26.65,1.06.97,1.63.45.51-.47.45-1.18.31-1.79-.08-.32-.28-.61-.4-.91-.15-.38.24-.65.1-1.05-.03-.08-.1-.13-.17-.14-.04,0-.07-.01-.11-.02-.14-.03-.29.03-.39.14-.35.43-.47.88-.34,1.41.12.47.31.86.21,1.35-.12.19.04.25.46.19-.04-.1-.08-.23-.12-.33-.08-.2-.11-.42-.2-.61-.28-.54-.93-.89-1.45-1.16-.04-.02-.08.03-.06.07v-.02Z"/>
      <path class="cls-11" d="m56.81,29.56c-.14.45-.35.74-.37,1.24,0,.29.12.58.19.86,0,.03.01.07.02.1.01.33.21.17.59-.5-.16-.04-.3,0-.45-.04.12.04.13.03.03-.06-.08-.1-.13-.23-.18-.34-.08-.19-.16-.39-.26-.58-.09-.17-.42-.21-.44.04-.03.6-.2,1.17.04,1.75.24.59,1.1.96,1.65.58.56-.39.44-1.02.02-1.46-.4-.41-1.05-.87-.74-1.56.03-.07-.08-.11-.1-.03h0Z"/>
      <path class="cls-11" d="m59.96,33.67s-.14.85-.15.95c-.03.23-.11.53,0,.74.04.09.08.18.12.27q.03.08,0,0c.42-.34.53-.49.32-.44-.28-.02-.45-.56-.57-.77-.19-.33-.45-.59-.83-.68-.22-.05-.28.24-.11.34.42.26.4.93.53,1.35.16.51.81,1.07,1.39.84.52-.22.7-1.12.35-1.56-.06-.08-1.01-1.02-.97-1.05.13-.1-.19-.12-.06,0Z"/>
      <path class="cls-11" d="m58.93,38.58c-.4.23-.54.58-.51,1.03.01.22.08.45.14.67.03.09.04.17.06.27.03.15.27-.14.06-.05.06-.03.18.05.17.03-.04-.07-.07-.16-.09-.24-.05-.26-.04-.51-.11-.77-.14-.52-.74-1.06-1.3-.88-.14.04-.14.22-.05.31.28.29.6.4.57.88-.01.27-.09.51-.07.79.04.61.53,1.26,1.2.98.58-.24.72-.83.44-1.34-.27-.49-.84-.98-.37-1.53.07-.08-.04-.18-.12-.13h0Z"/>
      <path class="cls-11" d="m62.5,39.01c-.72.5-.3,1.37-.52,2.06.29-.15.57-.29.86-.45-.3-.15-.31-.91-.37-1.2-.1-.42-.34-.91-.83-.96-.36-.04-.67.45-.32.69.33.23.24.73.25,1.1.03.52.17,1.08.63,1.39.33.22.76.17.94-.21.19-.38.19-.75-.03-1.13-.2-.35-.59-.7-.4-1.13.05-.13-.09-.25-.2-.17h0Z"/>
      <path class="cls-11" d="m63.19,52.98c-.08-.42-.19-.84-.35-1.23-.09-.22-.22-.47-.45-.58-.31-.15-.56.11-.7.36-.22.41.4.67.64.3-.03.04-.07.08-.1.13-.09.02-.18.04-.27.06-.17-.04-.26-.14-.28-.28v.31c0,.07-.01.14-.02.21-.01.13-.04.27-.07.4.03-.08.03-.09,0-.04-.03.07.1-.11.11-.11.4-.06.47-.09.2-.09-.12.01-.19.04-.28.1-.19.12-.28.42-.19.62h0c.1.23.31.38.56.36.7-.06.6-.89.51-1.38-.04-.18-.07-.39-.15-.56-.17-.34-.6-.32-.71.06.23.04.46.08.7.12.02-.08.03-.04-.06,0-.09.04-.13-.03-.04.04.15.12.26.29.37.45.17.25.33.51.47.79.02.04.1.03.09-.02Z"/>
      <path class="cls-11" d="m52.1,55.55c.35.29.95.28,1.38.25.44-.04,1.24-.34,1.13-.93-.1-.52-.6-.54-1.03-.58-.37-.03-1.04-.01-1.16-.45-.16-.56-1.01-.24-.85.32.25.89,1.28.97,2.05,1.03.11.01.31.04.31.04-.1-.04-.13-.36-.19-.26-.04.08-.16.14-.23.19-.31.2-.94.37-1.3.22-.1-.04-.18.08-.1.15h-.01Z"/>
      <path class="cls-11" d="m48.68,57.97c.17-.2.76-.12,1-.15.42-.04.79-.26.8-.72.01-.56-.64-.99-1.14-.88-.61.14-1.04.72-1.67.36-.17-.1-.33.13-.22.27.28.38.64.59,1.11.58.23,0,.46-.03.7-.04.06,0,.15.03.21.05.28.08.06-.04.02-.23-.05-.24.12-.26.03-.17-.04.04-.1.08-.15.11-.13.09-.27.17-.4.26-.17.11-.4.25-.45.47-.02.09.1.14.16.08h0Z"/>
      <path class="cls-11" d="m45.33,50.97c.29-.12.76.14,1.05.2.42.09.81-.06.95-.49.16-.5-.02-1.36-.67-1.34-.1,0-.2.03-.3.08-.1.04-.2.04-.09.09-.33-.11-.24-.63-.19-.89.05-.26-.32-.37-.43-.13-.2.42-.35.97-.08,1.4.12.2.3.36.53.43.11.03.22.03.33.02.04,0,.1-.02.14-.03.16-.01.1-.06-.19-.13.04.11.1.21.13.31.06.15-.01.11.06.05-.09.08-.33.05-.44.05-.29,0-.68-.04-.92.16-.12.1-.03.31.13.24h0Z"/>
      <path class="cls-11" d="m51.32,48.79c.25-.12.49-.21.77-.19.22.02.39.21.6.27.33.1.69.16,1.04.13.79-.06,1.06-.89.9-1.56-.29-1.18-2.2-.24-2.49-1.3-.06-.25-.49-.15-.44.1.21,1.03,1.13.99,1.93,1.35.13.06.15.13.05.29-.03.04-.7-.24-.76-.26-.72-.22-1.41.52-1.64,1.09-.01.03.02.08.06.06h0Z"/>
      <path class="cls-11" d="m48.55,41.39c.35-.02.58.19.81.43.22.22.47.37.75.52.45.24,1.19.28,1.44-.27.26-.57-.18-1.15-.71-1.37-.62-.26-1.6.13-1.54-.88.01-.23-.32-.3-.36-.06-.08.49,0,.9.45,1.17.45.27,1.11.11,1.45.55.25.32-.13.24-.29.15-.23-.13-.4-.35-.66-.45-.48-.18-.97-.3-1.44-.03-.12.07-.03.26.09.25h0Z"/>
      <path class="cls-11" d="m42.18,44.9c.21-.1.43.12.58.25.22.19.54.28.81.37.53.17,1.05.11,1.22-.49.15-.54-.26-1-.7-1.21-.21-.1-.45-.16-.64-.29-.27-.18-.17-.53-.08-.79.09-.27-.28-.47-.42-.19-.23.48-.33.98.09,1.38.29.29.9.32,1.1.7.31.64-.74.03-.94-.03-.29-.09-.9-.1-1.06.24-.01.03.02.08.06.06h0Z"/>
      <path class="cls-11" d="m55.22,42.62c.44-.01.66.77.95,1.03.44.39,1.13.13,1.36-.36.49-1.03-1.72-1.6-1.8-2.5-.03-.25-.42-.28-.45-.02-.1.93.96,1.53,1.43,2.22.09.13-.05.1.08-.11-.04.06-.2.1-.26.13-.08.04-.35-.18-.44-.24-.26-.19-.57-.4-.89-.24-.04.03-.03.09.02.09h0Z"/>
      <path class="cls-11" d="m55.87,47.66c.22-.15.45.08.63.19.25.16.53.28.83.27.5,0,1.19-.57,1.1-1.12-.1-.55-.65-.65-1.12-.56-.21.04-.42.09-.63.15-.17.04-.38.14-.55.08-.06-.02-.1.06-.04.08.24.1.51.14.76.22.17.06.35.12.51.2.06.03.13.07.19.11.15.1,0-.05-.02-.15-.03-.13.04-.13-.04-.03-.08.1-.19.13-.29.2-.17.11-.4.06-.59.03-.33-.05-.67-.1-.86.22-.05.08.06.16.13.11h0Z"/>
      <path class="cls-4" d="m50.54,49.11c.07-.31.7-.56.99-.46.43.15.74.43,1.23.38.73-.07,1.37-.8,1.11-1.53-.2-.56-1.04-.6-1.29-.04.52-.19.6-.3.26-.33-.24-.05-.47.03-.69.11-.3.11-.58.4-.8.63-.15.15-.33.27-.48.43-.22.21-.28.54-.49.74-.1.1.12.23.15.07h.01Z"/>
      <path class="cls-4" d="m48,41.16c.37.29.69.62,1.07.89.29.2.54.31.91.24.26-.05.51-.15.67-.37.25-.33-.07-.93-.51-.72-.06.03-.1,0-.2-.04-.24-.1-.51-.03-.76-.04-.37,0-.74-.08-1.11-.1-.07,0-.13.08-.06.13Z"/>
      <path class="cls-4" d="m48.38,58.04c.19-.1.44,0,.63.04.19.04.37.06.56.07.29.01.61-.06.81-.29.47-.56-.24-1.05-.72-1.26-.51-.22-.77.62-.22.72.15.03.29.06.43.12.29.12.04.31-.16.38-.19.07-.4.08-.59.1-.22.01-.54.08-.73-.04-.15-.09-.16.24,0,.16h0Z"/>
      <path class="cls-4" d="m50.44,57.51c.78.04,1.65.53,2.44.28.85-.27,1.61-.68,2.31-1.21.47-.36-.04-1.07-.53-.74-.59.4-1.2.69-1.89.89-.74.22-1.49.75-2.31.61-.12-.02-.14.17-.03.17h0Z"/>
      <path class="cls-4" d="m51.84,56.19c.67-.2,1.36.2,2.04.03.58-.14,1.01-.42,1.17-1.01.1-.39-.1-.77-.48-.89-.4-.11-1.43.13-1.68-.19-.12-.15-.25.15-.06.14.31-.03.71.15,1.01.22.4.08,1.08.34.5.79-.17.13-.45.11-.64.11-.29,0-.56.06-.85.12-.4.08-.81.17-1.15.42-.14.11-.02.31.14.27h0Z"/>
      <path class="cls-4" d="m55.29,55.88c.35-.06.81.06,1.17.04.45-.02.89-.15,1.31-.29.75-.26,1.45-.75,1.88-1.42.24-.38-.33-.72-.51-.32-.29.6-.77,1.01-1.32,1.35-.52.33-1.88.94-2.47.47-.14-.11-.2.19-.05.15h0Z"/>
      <path class="cls-4" d="m53.64,57.79c.08-.11.67-.1.81-.13.38-.07.76-.17,1.12-.3.54-.18,1.26-.47,1.38-1.1.14-.77-1.15-.8-1.05-.04.03.26-2.09,1.69-2.25,1.46-.17-.26-.17.35,0,.11h0Z"/>
      <path class="cls-4" d="m54.62,52.05c.6-.26,1.21,0,1.76.26.53.24,1.08.43,1.63.61,1.1.36,2.02.27,2.99-.4.48-.33-.04-1.07-.53-.74-1.2.83-2.27.2-3.5-.19-.76-.24-1.83-.33-2.49.2-.13.1-.02.34.14.27Z"/>
      <path class="cls-4" d="m60.32,53.81c.1-.11.67-.08.81-.1.4-.06.79-.18,1.17-.33.74-.31,1.31-.88,1.1-1.72-.24-.93-1.83-.19-1.2.64.11.14,0-.03,0-.1,0,.08-.04.15-.08.22-.12.21-.34.4-.52.55-.13.11-1.12.92-1.28.75-.2-.21-.17.31,0,.11Z"/>
      <path class="cls-4" d="m57.31,49.58c.37.28.71.6,1.05.92.46.43.99.58,1.59.75.7.2,2.03.42,2.44-.38.11-.21-.08-.44-.3-.43-.36.02-.63.14-1.01.08-.49-.08-.95-.33-1.39-.56-.7-.36-1.54-.46-2.32-.52-.07,0-.13.08-.06.13Z"/>
      <path class="cls-4" d="m55.97,49.83c.08-.33,1.65.73,1.85-.14.08-.33-.35-.5-.57-.62-.22-.12-.45-.29-.7-.33-.2-.03-.45-.05-.62-.17-.06-.04-.15,0-.12.08.12.25.37.43.58.61.27.22.74.24,1.05.39.12.05,0-.11.02,0,0,.07-.08.08-.13.1-.17.03-.35,0-.53,0-.16-.01-.31-.04-.47-.04-.13,0-.3.05-.43.01-.23-.07,0,.37.07.1h0Z"/>
      <path class="cls-4" d="m58.49,46.53c.88.04,1.65.66,2.25,1.23.36.34.7.75.92,1.2.17.34.13.73.34,1.03.21.31.61.2.79-.07.54-.87-.86-2.13-1.47-2.57-.78-.56-1.84-1.11-2.83-.98-.08.01-.1.15,0,.15h0Z"/>
      <path class="cls-4" d="m60.43,44.22c.32.33.67.63.99.96.26.27.98.95.8,1.38-.21.51.6.77.72.23.28-1.25-1.61-2.11-2.41-2.69-.08-.06-.17.04-.1.11Z"/>
      <path class="cls-4" d="m60.3,42.67c.19.01.37.19.53.29.23.14.45.27.68.43.42.28.74.58.73,1.1,0,.39.6.33.61-.06.01-.53-.42-.9-.85-1.14-.24-.13-.51-.23-.78-.33-.22-.08-.73-.17-.82-.41-.08-.19-.28.11-.1.12h0Z"/>
      <path class="cls-4" d="m60.37,40.32c.11.29.16.59.2.9.04.34-.11.68-.02,1,.12.38.6.38.84.14.56-.58-.45-1.74-.9-2.12-.06-.05-.15.01-.12.08Z"/>
      <path class="cls-4" d="m36.1,36.67c.79-.12,1.38.53,2.03.88.56.31,1.41.08,1.73-.45.31-.52-.36-.91-.75-1.02-.63-.17-1.56-.1-1.86-.79-.12-.27-.51-.12-.43.16.3,1.1,1.45.95,2.22,1.48-.01-.1-.03-.19-.04-.29-.1.01-.19,0-.28-.02-.14-.03-.28-.06-.42-.08-.29-.04-.58-.12-.87-.18-.48-.1-.94-.09-1.37.16-.06.04-.02.15.05.13h0Z"/>
      <path class="cls-4" d="m40.62,36.69c.49-.56,1.72.51,2.31.49.31-.01.88-.17.73-.6-.28-.82-1.48-.93-2.01-1.49-.2-.21-.49.14-.29.35.15.17.42.27.61.38.37.21.74.42,1.07.69.06.04.11.1.16.16.04.06.08-.01-.02.03-.3.12-.67.02-.97-.05-.27-.06-.53-.13-.8-.15-.28-.03-.57.12-.84.08-.19-.03-.07.29.05.14h0Z"/>
      <path class="cls-4" d="m38.55,40.42c.63-.04,1.07.57,1.65.7.45.1,1.16.21,1.49-.22.29-.38.31-.86-.06-1.19-.4-.35-.99-.43-1.37-.79-.19-.18-.49.1-.33.31.19.26.49.42.74.59.22.15.76.57.17.44-.2-.04-.38-.17-.58-.2-.25-.04-.51-.04-.76-.04-.35,0-.72.04-1.01.26-.06.04-.03.14.05.13h0Z"/>
      <path class="cls-4" d="m37.47,44.87c.5-.12,1.11.37,1.59.5.5.13.94-.24,1.1-.67.45-1.17-1.4-.75-1.65-1.4-.07-.19-.33-.08-.28.11.08.3.37.44.63.55.2.08.95.21.83.52-.19.51-.84.25-1.23.15-.36-.1-.75-.2-1.1-.04-.19.08-.08.33.11.28h0Z"/>
      <path class="cls-4" d="m44.29,46.2c.33.04.65.1.95.25.27.14.44.4.72.53.45.22,1.1.09,1.32-.39.22-.49.03-1.19-.45-1.44-.28-.15-.68-.08-.89-.32-.19-.2-.22-.56-.29-.81-.06-.26-.47-.15-.44.1.03.35.04.75.24,1.06.09.14.2.26.34.34.22.13.6.14.7.4.1.26-.1.45-.33.43-.22-.02-.42-.18-.62-.26-.4-.16-.83-.11-1.25-.05-.08.01-.1.14,0,.15Z"/>
      <path class="cls-4" d="m47.56,37.4c.67.11,1,.91,1.44,1.35.54.54,1.49.35,1.86-.3.59-1.02-.97-1.84-1.6-2.33-.27-.2-.66.13-.44.41.2.26.44.5.64.77.12.15.23.32.31.5.05.11.03.07.04.13-.01-.09.06-.2.14-.24.07-.03-.18.02-.22.03-.2.04-.24.05-.11.03.13-.03-.03-.01.01,0-.23-.08-.45-.22-.66-.34-.44-.25-.92-.45-1.43-.32-.15.04-.11.27.03.29h0Z"/>
      <path class="cls-4" d="m35.57,51.02c.67.11,1,.91,1.44,1.35.54.54,1.49.35,1.86-.29.59-1.02-.97-1.84-1.61-2.33-.27-.2-.66.13-.44.41.2.26.44.5.64.77.12.15.23.32.31.5.05.11.03.07.04.13-.01-.09.06-.2.14-.24.07-.03-.18.02-.22.03-.2.04-.24.05-.11.03.13-.03-.03-.01.01,0-.23-.08-.45-.22-.66-.34-.44-.25-.92-.45-1.43-.32-.15.04-.11.27.03.29h0Z"/>
      <path class="cls-4" d="m36.58,47.88c.67.11,1,.91,1.44,1.35.54.54,1.49.34,1.86-.29.59-1.02-.97-1.84-1.6-2.33-.27-.2-.66.13-.44.41.2.26.44.5.64.77.12.15.23.32.31.5.05.11.03.07.04.13-.01-.09.06-.2.14-.24.07-.03-.18.02-.22.03-.2.04-.24.05-.11.03.13-.03-.03-.01.01,0-.23-.08-.45-.22-.66-.34-.44-.25-.92-.45-1.43-.32-.15.04-.11.27.03.29h0Z"/>
      <path class="cls-4" d="m43.44,30.43c.67.11,1,.91,1.44,1.35.54.54,1.49.34,1.86-.3.59-1.02-.97-1.84-1.6-2.33-.27-.2-.66.13-.44.41.2.26.44.5.64.77.12.15.23.32.31.5.05.11.03.07.04.13-.01-.09.06-.2.14-.24.07-.03-.18.02-.22.03-.2.04-.24.05-.11.03.13-.03-.04-.01.01,0-.23-.08-.45-.22-.66-.34-.44-.25-.92-.45-1.43-.32-.15.04-.11.27.03.29h0Z"/>
      <path class="cls-4" d="m54.83,31.4c.67.11,1,.91,1.44,1.35.54.54,1.49.34,1.86-.29.59-1.02-.97-1.84-1.6-2.33-.27-.2-.66.13-.44.41.2.26.44.5.64.77.12.15.23.32.31.5.05.11.03.07.04.13-.01-.09.06-.2.14-.24.07-.03-.18.02-.22.03-.2.04-.24.05-.11.03.13-.03-.04-.01.01,0-.23-.08-.45-.22-.66-.34-.44-.25-.92-.45-1.43-.32-.15.04-.11.27.03.29h0Z"/>
      <path class="cls-4" d="m59.55,39.49c.67.11,1,.91,1.43,1.35.54.54,1.49.34,1.86-.29.59-1.02-.97-1.84-1.6-2.33-.27-.2-.66.13-.44.41.2.26.44.5.64.77.12.15.23.32.31.5.05.11.03.07.04.13-.01-.09.06-.2.14-.24.07-.03-.18.02-.22.03-.2.04-.24.05-.11.03.13-.03-.03-.01.01,0-.23-.08-.45-.22-.66-.34-.44-.25-.92-.45-1.43-.32-.15.04-.11.27.03.29Z"/>
      <path class="cls-4" d="m43.86,56.02c.79.09,2.18.79,2.86.14.42-.4-.24-.98-.55-1.14-.89-.44-2.06.51-2.81-.32-.19-.21-.56.03-.37.27.4.49.88.62,1.5.6.37-.01.72-.08,1.09-.06.12,0,.94.23.74.4-.3.25-1.07.1-1.42.08-.35-.03-.7-.11-1.06-.11-.08,0-.09.14,0,.15h0Z"/>
      <path class="cls-4" d="m41.09,51.2c.74.4,1.98,2.01,2.93,1.06.51-.51.13-1.37-.45-1.62-.47-.2-1.52.11-1.75-.43-.1-.24-.46-.16-.44.1.04.5.39.78.83.96.23.1.47.15.7.26.01,0,.1.07.07,0-.07-.14.44-.42.24-.32-.45.21.12.01-.08.04-.06.01-.13.01-.2.01-.26-.01-.51-.06-.76-.11-.32-.06-.66-.22-.99-.24-.17-.01-.25.2-.09.29h-.01Z"/>
      <path class="cls-4" d="m49.55,43.79c.09.04,0,.34.06.47.09.24.32.47.48.67.39.49.9.8,1.51.46.57-.33.63-1.26.33-1.77-.37-.63-1.07-.87-.69-1.7.1-.23-.22-.45-.38-.24-.38.5-.49,1.02-.22,1.6.17.35.6.83.24,1.12.14-.11.39.01.29-.07-.06-.05-.1-.11-.15-.17-.17-.22-.34-.54-.6-.66-.24-.11-.79-.12-.91.19-.01.04,0,.08.04.1h0Z"/>
      <path class="cls-4" d="m56.11,37.12c.56.61.38,1.55.73,2.28.28.57.92.86,1.46.46.46-.34.34-1.02.22-1.49-.09-.38-.6-1.46-.33-1.81.36-.47-.34-1.05-.7-.58-.64.82.08,2.04.21,2.93.04.29.06.33-.08.04-.16-.33-.14-.66-.2-1.01-.11-.67-.63-.92-1.27-.93-.06,0-.09.08-.06.12h0Z"/>
      <path class="cls-4" d="m49.57,52.79c.64-.09,1.36.38,1.99.48.73.12,1.36-.28,1.39-1.05.03-.65-.61-1-1.13-1.19-.11-.04-.22-.08-.33-.13-.06-.02-.43-.21-.25-.1-.23-.15-.42-.2-.68-.23.14.02.23.17.08-.03-.22-.29-.7-.34-.93-.03-.42.57-.24,1.26.21,1.75.24.26.6.3.94.32.17,0,.34.01.51.01.06,0,.39,0,.3,0,.42.03-.04.04.05-.26.03-.09-.03,0-.15.04-.17.05-.35.06-.53.07-.49.04-1.08-.04-1.52.2-.06.04-.02.15.05.13Z"/>
      <path class="cls-4" d="m41.88,44.47c.65.16,1.75.91,2.35.26.41-.44.08-1.05-.33-1.34-.08-.06-.17-.11-.26-.17-.04-.03-.08-.06-.12-.1-.02-.02.12.26-.01-.1s-.51-.42-.81-.24c-.15.08-.26.32-.22.48.08.39.28.65.61.86.11.07.24.14.31.24.1.14-.03.08.05-.12.03-.08.12-.1,0-.05-.49.21-1.06.06-1.58.13-.09.01-.09.13,0,.15h0Z"/>
      <path class="cls-4" d="m50.13,35.24c.49.19.53.68.75,1.09.23.42.72.71,1.2.56.44-.14.52-.68.47-1.07-.06-.44-.27-1.23-.74-1.38-.26-.08-.51-.1-.74.07-.19.14-.35.42-.3.66.06.31.2.47.42.67.05.05.04.04-.02-.03.03.03.04.05.07.08.06.06.1.13.15.2.1.13,0-.01.04.07.03.05.04.1.06.16-.02-.08-.02-.1-.01-.04,0-.05,0-.1.03-.15.02-.04.05-.08.09-.1.03-.02.16-.04.05-.03-.24.03-.48-.36-.63-.52-.24-.25-.51-.4-.85-.4-.08,0-.1.12-.03.15h-.01Z"/>
      <path class="cls-7" d="m45.34,55.74c1.03.04,1.83.4,2.65,1.02.56.42,1.02.8,1.67,1.09,1.24.55,2.53.75,3.58-.23.6-.56-.3-1.31-.9-.97-1.02.57-2.58.38-3.61-.06-1.06-.46-2.21-.91-3.39-.88-.02,0-.02.03,0,.03h0Z"/>
      <path class="cls-7" d="m48.08,55.68c.64.27,1.27.52,1.86.9.34.22.63.49.99.69.62.36,1.58.59,2.24.23.52-.27-.02-1.02-.53-.74-.38.2-1.48-.3-1.87-.45-.89-.34-1.72-.54-2.66-.68-.03,0-.05.04-.02.06Z"/>
      <path class="cls-7" d="m51.34,55.82c1.37.8,3.09,2.49,4.59.93,1.18-1.22-1.88-1.92-1.77-2.9.04-.35-.48-.45-.54-.1-.17.95.99,1.55,1.44,2.24.38.58-1.24.53-1.48.49-.77-.14-1.47-.53-2.22-.75-.05-.01-.07.06-.03.08h0Z"/>
      <path class="cls-7" d="m54.15,53.62c.75.56,1.41,1.41,2.34,1.67.45.13,1.31.3,1.72-.03.61-.5.09-1.15-.44-1.46-.91-.52-1.82-.4-1.93-1.71,0-.1-.18-.11-.18,0-.03.52.03,1.02.38,1.43.32.37.82.56,1.19.86.26.22.08.26.37.1-.1.05-.22.07-.33.09-.22.04-.45.05-.69.05-.83,0-1.7-.73-2.43-1.05-.01,0-.03.01-.02.03h0Z"/>
      <path class="cls-7" d="m54.79,50.94c1.33.23,1.84,1.72,3.04,2.23.48.2,1.03.26,1.54.31.43.04,1.08,0,1.46.2.1-.22.2-.43.3-.65-.46-.29-.95-.5-1.39-.84-.52-.4-.62-1-1.06-1.43-.74-.72-1.54-1.3-2.59-1.34-.08,0-.1.11-.05.16.74.68,1.52,1.35,2.3,1.99.78.65,1.76,1.18,2.36,1.99.24.32.81.04.63-.34-.54-1.16-2.05-.8-3.07-.85-1.31-.06-2.06-1.53-3.45-1.47-.02,0-.02.03,0,.03Z"/>
      <path class="cls-7" d="m57.1,49.12c.63.9,1.68,1.52,2.66,1.99,1.15.55,2.58.54,3.56,1.44.15.14.41-.1.27-.25-.61-.68-.79-1.6-.94-2.49-.12-.74-.39-1.24-.92-1.77-.79-.8-2.64-1.53-3.75-1.16-.08.03-.08.13,0,.17.48.22,1.01.29,1.51.51.65.29,1.24.76,1.7,1.3.92,1.07,1.43,2.38,2.09,3.6l.33-.17c-.65-.98-1.78-1.44-2.9-1.57-1.25-.15-2.67-.7-3.56-1.62-.01-.01-.03,0-.02.02h-.02Z"/>
      <path class="cls-7" d="m59.91,46.79c.52.77,1.63,1.57,2.61,1.43.44-.06.88-.24,1.29-.38.17-.06,1.12-.5,1.26-.4.13-.21.27-.42.4-.63-.48-.2-.94-.17-1.45-.15-.59.01-.99-.54-1.52-.7-.68-.19-1.82-.33-2.36.24-.06.06,0,.16.08.15.89-.12,1.65-.33,2.52.09.37.18.58.47.99.62.44.16.94.1,1.35.38.41.28.81-.23.48-.58-.49-.52-1.52-.02-2.02.22-.4.19-.83.47-1.27.55-.77.14-1.79-.38-2.31-.89-.03-.03-.06.01-.04.04h0Z"/>
      <path class="cls-7" d="m59.39,45.67c.88-.51,1.86-.71,2.87-.52.85.17,1.7-.01,2.55-.09.49-.04.42-.82-.07-.75-1.22.18-2.72-.15-3.73-.86-.54-.38-1.18-.72-1.81-.37-.12.06-.06.25.06.27.49.08.86.08,1.28.38.32.22.61.46.97.63.96.46,2.24.68,3.29.72-.03-.25-.04-.5-.07-.75-1.01.06-1.99.22-3,.29-.88.06-1.72.47-2.39,1.02-.03.03,0,.07.04.05h0Z"/>
      <path class="cls-7" d="m58.06,39.71c.4,1.04,1.47,1.23,2.34,1.76.66.4,1.98,1.39,2.76.77-.12-.17-.24-.33-.36-.5-.61.49-1.41.02-2.09.1-.42.04-.83.33-1.08.64-.06.07.02.18.1.14.24-.1.24-.1.46-.24.47-.31.98-.24,1.49-.11.49.11.93.18,1.41.01.38-.13.16-.68-.22-.57-.2.06-.69-.21-.88-.29-.39-.17-.78-.33-1.18-.47-.86-.31-2.31-.26-2.72-1.24,0-.02-.04,0-.03.01h0Z"/>
      <path class="cls-7" d="m39.95,53.51c1.35-.7,2.81.24,4.15.45.4.06.67-.38.45-.72-.37-.56-.99-.76-1.62-.91-.38-.08-.76-.17-1.13-.3-.44-.15-.57-.4-.74-.8-.03-.08-.15-.11-.2-.03-.89,1.39,2.5,1.62,2.9,2.46.17-.2.34-.41.51-.61-1.36-.21-3.2-.6-4.37.34-.05.04,0,.14.06.11h0Z"/>
      <path class="cls-7" d="m45.42,53.62c.85.29,1.2,1.41,2.14,1.57.81.13,1.69-.33,2.43.1.19.11.47-.08.43-.3-.12-.7-1.08-.96-1.65-1.16-.35-.12-.7-.22-1.06-.3-.92-.22-1.24-.62-1.61-1.44-.04-.1-.18-.06-.18.04.01.9.7,1.41,1.49,1.67.42.14,2.46.56,2.41,1.16.18-.04.36-.08.54-.12-.4-.72-1.51-.43-2.17-.31-.72.14-1.13-.03-1.72-.46-.33-.24-.63-.45-1.04-.5-.03,0-.05.04-.02.06Z"/>
      <path class="cls-7" d="m49.96,43.86c.29.49.63,1.11,1.2,1.35.6.25,1.47.27,1.94.73.24.24.66-.15.44-.4-.48-.56-.9-1.15-1.35-1.73-.39-.51-.86-1.05-1.56-.96-.08.01-.16.1-.12.19.28.55.81.77,1.26,1.16.55.49.88,1.09,1.27,1.69.16-.11.33-.23.49-.35-.4-.49-.96-.55-1.56-.59-.91-.07-1.4-.44-2-1.1-.01-.01-.03,0-.03.02h0Z"/>
      <path class="cls-7" d="m52.42,48.62c.6.08,1.21.08,1.82.16.56.07.81.77,1.22,1.08.2.15.54.01.5-.26-.13-.78-.6-1.26-1.19-1.75-.32-.26-.65-.5-.92-.82-.26-.31-.15-.7-.37-1-.06-.08-.15-.07-.22,0-.45.43.1,1.19.42,1.52.67.69,1.62,1,1.66,2.11.17-.09.33-.17.5-.26-.39-.35-.5-.94-1.06-1.09-.76-.2-1.6.13-2.36.23-.05,0-.06.08,0,.09h0Z"/>
      <path class="cls-7" d="m44.31,44.79c.9,1.26,2.44,1.45,3.82,1.87.27.08.39-.26.29-.45-.28-.49-.78-.88-1.21-1.23-.28-.23-.76-.75-1.15-.73-.09,0-.12.1-.08.17.17.29.61.52.85.74.39.36.86.82,1.08,1.32.11-.13.21-.26.32-.38-1.38-.26-2.87-.21-3.9-1.32-.01-.01-.04,0-.03.02h0Z"/>
      <path class="cls-7" d="m47.41,47.88c.9,1.26,2.44,1.45,3.82,1.87.27.08.39-.26.29-.45-.28-.49-.78-.88-1.21-1.23-.28-.23-.76-.75-1.15-.73-.09,0-.12.1-.08.17.17.29.61.52.85.74.39.36.86.82,1.08,1.32.11-.13.21-.26.32-.38-1.38-.26-2.87-.21-3.9-1.32-.01-.01-.04,0-.03.02h0Z"/>
      <path class="cls-7" d="m44.75,54.98c.9,1.26,2.44,1.45,3.82,1.87.27.08.39-.26.28-.45-.28-.49-.78-.88-1.2-1.23-.28-.23-.76-.75-1.15-.73-.09,0-.12.1-.08.17.17.29.61.51.85.74.39.36.86.82,1.08,1.32.11-.13.21-.26.32-.38-1.38-.26-2.87-.21-3.9-1.32-.01-.01-.04,0-.03.02h0Z"/>
      <path class="cls-7" d="m48.5,53.69c.9,1.26,2.44,1.45,3.82,1.87.27.08.39-.26.28-.45-.28-.49-.78-.88-1.21-1.23-.28-.23-.76-.75-1.15-.73-.09,0-.12.1-.08.17.17.29.61.52.85.74.39.36.86.82,1.08,1.32.11-.13.21-.26.32-.38-1.38-.26-2.87-.21-3.9-1.32-.01-.01-.04,0-.03.02h.01Z"/>
      <path class="cls-7" d="m52.78,49.46c.9,1.26,2.44,1.45,3.82,1.87.27.08.39-.26.29-.45-.28-.49-.78-.88-1.2-1.23-.28-.23-.76-.75-1.15-.73-.09,0-.12.1-.08.17.17.29.61.52.85.74.39.36.86.82,1.08,1.32.11-.13.21-.26.32-.38-1.38-.26-2.87-.21-3.9-1.32-.01-.01-.04,0-.03.02Z"/>
      <path class="cls-7" d="m56.06,45.78c.9,1.26,2.44,1.45,3.82,1.87.27.08.39-.26.29-.45-.28-.49-.78-.88-1.21-1.23-.28-.23-.76-.75-1.15-.73-.09,0-.12.1-.08.17.17.29.61.52.85.74.39.36.86.82,1.08,1.32.11-.13.21-.26.32-.38-1.38-.26-2.87-.21-3.9-1.32-.01-.01-.04,0-.03.02h0Z"/>
      <path class="cls-7" d="m56.17,47.61c.9,1.26,2.44,1.45,3.82,1.87.27.08.39-.26.28-.45-.28-.49-.78-.88-1.2-1.23-.28-.23-.76-.75-1.15-.73-.09,0-.12.1-.08.17.17.29.61.52.85.74.39.36.86.82,1.08,1.32.11-.13.21-.26.32-.38-1.38-.26-2.87-.21-3.9-1.32-.01-.01-.04,0-.03.02h0Z"/>
      <path class="cls-7" d="m57.3,44c.9,1.26,2.44,1.45,3.82,1.87.27.08.39-.26.29-.45-.28-.49-.78-.88-1.21-1.23-.28-.23-.76-.75-1.15-.73-.09,0-.12.1-.08.17.17.29.61.51.85.74.39.36.86.82,1.08,1.32.11-.13.21-.26.32-.38-1.38-.26-2.87-.21-3.9-1.32-.01-.01-.04,0-.03.02h0Z"/>
      <path class="cls-7" d="m55.83,39.91c.9,1.26,2.44,1.45,3.82,1.87.27.08.39-.26.29-.45-.28-.49-.78-.88-1.2-1.23-.28-.23-.76-.75-1.15-.73-.09,0-.12.1-.08.17.17.29.61.52.85.74.39.36.86.82,1.08,1.32.11-.13.21-.26.32-.38-1.38-.26-2.87-.21-3.9-1.32-.01-.01-.04,0-.03.02Z"/>
      <path class="cls-7" d="m48.41,50.42c1.07.38,2.2.31,3.27.73.25.1.56-.19.35-.43-.53-.63-1.58-1.99-2.52-1.86-.05,0-.11.04-.12.09,0,.02-.01.03-.02.05-.01.04-.01.08.03.11.13.08.27.05.42.11.26.11.49.34.69.53.4.39.76.84,1.08,1.3.12-.14.24-.29.35-.43-1.1-.55-2.34-.06-3.51-.24-.02,0-.03.03,0,.03h0Z"/>
      <path class="cls-7" d="m55.35,36.42c.16.94-.04,1.96.4,2.82.21.42.78,1.41,1.4,1.04.64-.38.35-1.21.08-1.72-.22-.4-.47-.79-.65-1.2-.24-.54-.03-.76.22-1.21.04-.08-.03-.15-.11-.15-.56,0-.79.51-.77,1,.03.7.58,1.35.87,1.95.03.06.29.89.07.81-.31-.11-.55-.69-.68-.96-.39-.82-.17-1.64-.78-2.4-.02-.02-.06-.01-.06.02h0Z"/>
      <path class="cls-7" d="m57.18,38.15c0,.54.64.82,1.06,1.02.66.3,1.06,1,1.79,1.18.19.05.4-.15.37-.34-.11-.68-.78-1.21-1.3-1.6-.44-.33-1.22-.86-1.79-.64-.1.04-.1.17,0,.22.9.49,2.36.81,2.47,2.07.12-.11.25-.23.37-.34-.52-.11-.92-.65-1.43-.83-.49-.18-1.35-.1-1.51-.74,0-.02-.03,0-.03,0h0Z"/>
      <path class="cls-7" d="m58.25,42.99c.21.19.6.23.87.19.23-.03.39-.15.51-.35.11-.19.06-.56-.09-.72-.14-.15-.29-.25-.47-.37-.1-.07-.19-.14-.29-.21-.03-.03-.16-.16-.06-.04-.01-.01-.02-.03-.03-.04.12.17-.19.6-.1.54.4-.23.13-.95-.32-.85-.45.1-.59.51-.36.89.13.22.35.4.53.57.1.1.2.18.32.25.03.02.05.03.08.05-.25-.15-.35-.53.04-.7-.06.03.12-.01-.03,0-.06,0-.13.01-.2.02-.2.02-.42.15-.52.33-.08.15-.02.33.1.43h0Z"/>
      <path class="cls-7" d="m58.31,45.32c.08-.03.22-.1.31-.09.06,0,.08.01.11.03.15.06.3.09.45.12.42.09.99.04,1.12-.5.2-.84-1.15-1.5-1.74-.95-.19.18-.06.5.13.6.06.03.12.04.18.05.03,0,.06,0,.08.01t.01,0s.05.03.08.04c-.04-.03-.04-.03,0,0,.02.01.15.14.06.04.03.04.06.08.09.12-.11-.17.04.06.07.11-.04-.08-.05-.1-.03-.05-.03-.06-.03-.13-.01-.19.02-.1.07-.19.16-.25.08-.04.1-.05.04-.03.13-.04.01-.01-.03-.01-.14,0-.24.04-.37.11-.09.05-.22.1-.31.16-.2.13-.33.4-.47.59-.03.04,0,.09.05.07Z"/>
      <path class="cls-7" d="m56.95,48.92c.37-.15.6.14.78.41.17.25.4.47.62.68.51.47,1.35.52,1.7-.15.08-.16.03-.37-.11-.49-.56-.47-1.36-.52-1.87-1.04-.15-.15-.38.08-.26.25.18.25.4.43.66.58.29.17.74.32.83.66.12-.19.23-.36.35-.55-.6.05-.97-.25-1.51-.43-.4-.13-.89-.33-1.24,0-.03.03.01.09.05.07h0Z"/>
      <path class="cls-7" d="m53.12,52.08c.15,0,.33.19.44.29.17.15.34.29.52.43.31.25.83.53,1.18.17.56-.59-.78-1.26-.96-1.74-.13-.33-.59-.2-.58.13.01.3.31.61.49.83.12.15.24.28.36.42.03.04.07.08.1.12.01.01.02.03.03.04-.1-.14-.06-.38.15-.4.06,0-.03-.02-.05-.03-.1-.04-.22-.06-.32-.08-.19-.04-.38-.11-.57-.17-.2-.06-.59-.2-.79-.1-.04.03-.03.09.02.09Z"/>
      <path class="cls-7" d="m49.8,53.48c.51-.04.67.72.87,1.07.2.34.71.48.98.13.28-.35-.03-.8-.22-1.11-.08-.13-.74-.93-.57-1.09.35-.31-.06-.9-.42-.59-.8.68.11,1.68.49,2.33.02.03.06.13.06.13-.04-.22.24-.19.16-.24-.16-.11-.29-.28-.42-.42-.25-.26-.58-.49-.94-.33-.06.03-.04.12.03.12h0Z"/>
      <path class="cls-7" d="m51.07,51.83c.76.27.42,1.76,1.51,1.64,1.22-.13.45-1.76-.08-2.22-.26-.24-.71-.13-.67.29.02.23.26.42.39.59.14.18.3.39.33.62.02.13-.18.08-.23.05-.17-.08-.29-.3-.4-.44-.2-.27-.45-.59-.81-.61-.04,0-.08.06-.03.08h0Z"/>
      <path class="cls-7" d="m48.15,42.76c.37.11.55.45.9.59.29.11.62.04.93.05.21,0,.29-.27.19-.42-.19-.27-.26-.42-.22-.76.02-.19.02-.36-.02-.55-.06-.3-.42-.89-.74-.47-.06.08-.04.19.03.26-.09-.1.05.07.06.08.07.06.08.11.11.19.04.12.04.27.01.4-.13.47.06.81.35,1.17.06-.14.13-.28.19-.42-.33.02-.69.15-1.01.04-.28-.1-.45-.24-.76-.24-.06,0-.05.08,0,.09h0Z"/>
      <path class="cls-7" d="m51,37.71c.17.45.34.92.61,1.32.27.39.54.93,1.04,1.06.15.04.32-.04.42-.15.44-.52-.35-1.11-.65-1.46-.24-.28-.47-.56-.73-.82-.33-.33-.74-.79-1.2-.92-.1-.03-.16.08-.13.16.1.29.3.43.52.64.29.28.57.57.82.89.12.15.22.29.33.44.08.11.15.2.2.33.03.07.06.13.08.2.03.17.08.13.15-.11.18,0,.36.01.54.02.15.11-.13-.22-.18-.27-.2-.2-.41-.38-.61-.57-.35-.33-.78-.54-1.17-.8-.03-.02-.06,0-.04.03h0Z"/>
      <path class="cls-7" d="m53.35,42.89c.78.47,1.03,1.28,1.62,1.91.22.23.65.04.69-.25.06-.55.16-1.12-.13-1.62-.34-.58-.88-1.19-1.36-1.65-.07-.06-.18-.01-.2.07-.12.5.12.81.42,1.21.22.29.49.57.56.93.06.29-.06.63-.12.91l.69-.25c-.72-.49-1.27-1.12-2.15-1.32-.04,0-.04.04-.02.06h0Z"/>
      <path class="cls-7" d="m57.88,34.74c-.38.34-.67.76-.54,1.3.13.59.49,1.12.66,1.7.12.39.6.37.84.14.37-.36.31-.86.15-1.3-.11-.31-.61-.97-.37-1.28.25-.32-.14-.72-.47-.5-.41.26-.43.73-.31,1.16.04.17.48,1.11.35,1.22.26.12.52.24.78.35-.1-.49-.36-.78-.72-1.12-.51-.49-.63-.94-.24-1.57.04-.06-.06-.15-.12-.1h0Z"/>
      <path class="cls-7" d="m40.61,47.58c.58,0,1.13.01,1.67.23.23.09.31.31.59.26.56-.1.35-.82.14-1.12-.29-.42-1.02-.72-1.47-.91-.35-.15-.67-.34-.96-.58-.31-.26-.31-.58-.44-.93-.03-.06-.12-.08-.15-.03-.62.82.74,1.85,1.29,2.24.23.16.49.27.74.39.12.06.22.11.34.17.08.07.15.15.22.22.24-.03.29-.07.16-.13-.65-.3-1.5-.04-2.15.11-.05.01-.03.09.02.09h0Z"/>
    </g>
  </g>
</svg>