<?xml version="1.0" encoding="UTF-8"?>
<svg id="Capa_1" data-name="Capa 1" xmlns="http://www.w3.org/2000/svg" xmlns:xlink="http://www.w3.org/1999/xlink" viewBox="0 0 141.73 141.73">
  <defs>
    <style>
      .cls-1 {
        fill: #fff;
      }

      .cls-2 {
        fill: #7e4293;
      }

      .cls-3 {
        fill: #221f20;
      }

      .cls-4 {
        fill: #cdb2d6;
      }

      .cls-5 {
        fill: #c48b47;
      }

      .cls-6 {
        fill: #a6ba4d;
      }

      .cls-7 {
        fill: #788d29;
      }

      .cls-8 {
        fill: #60192a;
      }

      .cls-9 {
        fill: #b288bd;
      }

      .cls-10 {
        fill: #895662;
      }

      .cls-11 {
        fill: #e1d0e7;
      }

      .cls-12 {
        fill: #8b663a;
      }

      .cls-13 {
        fill: #9660a4;
      }

      .cls-14 {
        fill: #515c27;
      }

      .cls-15 {
        mask: url(#mask);
      }
    </style>
    <mask id="mask" x="-102.46" y="-115.7" width="264.74" height="371.51" maskUnits="userSpaceOnUse">
      <g id="mask0_825_570" data-name="mask0 825 570">
        <path class="cls-1" d="m162.28-70.86L-23.7-115.7-102.46,210.97l185.98,44.84L162.28-70.86Z"/>
      </g>
    </mask>
  </defs>
  <g class="cls-15">
    <g>
      <path class="cls-7" d="m-77.6,234.11c12.09-28.44,25.33-56.37,39.73-83.72,10.82-20.55,22.45-40.66,33.37-61.15,8.73-16.38,16.99-33.17,22.42-50.97,5.28-17.3,7.46-35.26,6.54-53.33-.26-4.96-.7-9.92-1.44-14.83-.19-1.24-2.09-1.06-1.94.2,1.1,9.76,1.81,19.52,1.4,29.34-.36,8.88-1.56,17.73-3.5,26.39C15.01,43.67,7.79,60.34-.34,76.41c-9.9,19.55-21.01,38.47-31.63,57.64-14.02,25.3-27.17,51.02-38.86,77.49-3.15,7.13-6.17,14.3-9.09,21.52-.61,1.52,1.67,2.57,2.32,1.06h0Z"/>
      <path class="cls-7" d="m-14.28,106.84c5.93-9.75,12.02-19.43,18.91-28.53,5.07-6.69,10.64-13.03,17-18.52,4.93-4.25,10.33-7.98,16.15-10.9,5.11-2.56,10.51-4.5,16.02-6.04,6.35-1.79,12.88-2.8,19.24-4.52,1.18-.32.71-2.28-.49-2.08-5.58.93-11.17,2.25-16.66,3.64-5.48,1.39-10.88,3.1-16.06,5.39-13.21,5.86-24.17,15.43-33.55,26.3-8.99,10.41-16.58,22.02-23.12,34.09-.88,1.62,1.64,2.67,2.55,1.16h0Z"/>
      <path class="cls-13" d="m78.76,38.39c6.58,10.03,13.06,20.12,19.71,30.11,1.56,2.35,3.49,4.52,5.55,6.44,1.46,1.36,3.73,3.56,5.91,3.52,4.8-.08-5.83-15.12-6.45-15.94-3.11-4.16-6.88-7.81-10.95-11.03-4.87-3.85-10.24-7.91-13.77-13.1.19.28,3.33,5.07,0,0h0Z"/>
      <path class="cls-13" d="m53.18,35.38c-1.85-.24-3.69-.32-5.55-.45-1.93-.14-3.89-.67-5.83-.67-.13,0-.17.22-.04.26,1.71.57,3.69.51,5.47.6,1.98.11,3.98-.05,5.94.28.02,0,.02-.02,0-.03Z"/>
      <path class="cls-4" d="m77.7,36.79c-11.69-2.67-23.35-5.45-35.06-8.04-2.71-.6-5.55-.83-8.32-.8-2.05.02-5.07.02-6.74,1.47-3.66,3.18,13.1,6.68,14.05,6.85,5.56.99,11.22,1.2,16.84.65,6.27-.61,13.01-1.43,19.24-.13-.33-.07-5.92-1.35,0,0Z"/>
      <path class="cls-9" d="m50.52,35.19c-4.28-.15-8.62-1.21-12.78-2.16-2.17-.5-4.31-1.13-6.44-1.81-.87-.28-2.7-.68-3.24-1.31-.39-.46-1.17.07-.78.55.66.8,2.18,1.02,3.11,1.28,2.16.61,4.37,1,6.56,1.48,4.4.97,9.03,2.02,13.56,2,.01,0,.01-.03,0-.02h0Z"/>
      <path class="cls-9" d="m43.79,35.45c-3.51-.15-7.18-1.04-10.51-2.14-1.31-.43-2.58-.96-3.82-1.57-.86-.41-1.25-.83-1.74-1.57-.18-.27-.53-.17-.67.06-.42.7.65,1.51,1.13,1.82,1.17.77,2.53,1.17,3.86,1.55,3.85,1.08,7.77,1.49,11.72,1.86.02,0,.02-.03,0-.03h0Z"/>
      <path class="cls-4" d="m78.92,36.48c-6.64-9.99-13.19-20.05-19.89-30-1.57-2.33-3.51-4.5-5.59-6.41-1.47-1.35-3.75-3.53-5.93-3.49-4.79.11,5.92,15.09,6.54,15.9,3.13,4.14,6.93,7.77,11.02,10.96,4.9,3.82,10.29,7.84,13.85,13.02-3.36-5.05-.19-.28,0,0h0Z"/>
      <path class="cls-9" d="m71.89,28.11c-7.36-5.33-14.02-11.99-19.02-19.61-1.64-2.5-3.17-5.12-4.33-7.89-.32-.77-.62-1.57-.78-2.39-.05-.27-.07-1.07-.06-1.09.04-.1,0-.2-.09-.24-1.44-.7-.47,2.49-.33,2.85,1,2.71,2.58,5.23,4.19,7.61,5.47,8.08,12.37,15.23,20.39,20.77.01,0,.03,0,.02-.02h0Z"/>
      <path class="cls-9" d="m72.35,28.19c-2.64-2.07-4.84-4.67-6.98-7.24-2.6-3.11-5.03-6.37-7.41-9.65-2.18-3-4.22-6.12-6.3-9.19-.76-1.12-1.52-2.24-2.29-3.35-.44-.63-.96-1.83-1.8-1.88-.1,0-.19.05-.21.16-.11.79.74,1.51,1.2,2.12.84,1.12,1.66,2.26,2.49,3.39,2.24,3.08,4.53,6.11,6.79,9.18,2.41,3.26,4.88,6.48,7.51,9.56,2.11,2.49,4.37,4.96,6.99,6.93.01,0,.03,0,.02-.02h-.01Z"/>
      <path class="cls-4" d="m79.43,37.41c-11.82,2.07-23.65,4.03-35.45,6.17-2.78.51-5.54,1.41-8.11,2.54-1.83.81-4.74,2.02-5.57,4.03-1.83,4.43,16.19.64,17.18.39,4.97-1.19,9.76-3.15,14.25-5.57,5.53-2.99,11.45-6.38,17.69-7.57-5.98,1.05-.33.06,0,0h0Z"/>
      <path class="cls-9" d="m57.7,43.22c-6.55.53-12.98,1.37-19.2,3.56-1.9.67-3.76,1.32-5.53,2.31-.88.5-1.98,1.06-2.49,1.98-.29.53.44,1.13.9.75.04-.03.08-.07.12-.1.32-.26.26-.68-.08-.87-.04-.02-.09-.05-.14-.08.07.32.15.63.22.95.46-.52,1.46-1.16,2.18-1.61,1.69-1.03,3.47-2,5.29-2.75,5.87-2.4,12.39-3.88,18.73-4.11.02,0,.01-.03,0-.03h0Z"/>
      <path class="cls-9" d="m68.35,40.92c-.02.12-1.04.42-1.15.47-.9.37-1.79.72-2.68,1.08-2.83,1.13-5.67,2.23-8.53,3.29-6.4,2.37-13.02,4.82-19.79,5.87-1,.16-2.01.27-3.02.26-.74,0-1.35-.33-2.05-.41.02.23.05.45.07.67.06-.01.12-.03.17-.05.17-.05.23-.33.08-.43-.05-.03-.1-.07-.15-.11-.32-.23-.72.12-.51.47.39.62,1.49.67,2.14.71,1.12.07,2.25-.07,3.36-.24,3.11-.48,6.16-1.47,9.14-2.46,6.4-2.13,12.66-4.69,18.85-7.36,1.18-.51,2.35-1.02,3.52-1.53.13-.05.53-.22.54-.23h.01Z"/>
      <path class="cls-4" d="m77.57,36.91c-11.23-4.21-22.42-8.52-33.68-12.65-2.56-.94-5.3-1.54-8-1.88-2.08-.26-4.97-.65-6.89.47-4.27,2.48,10.66,8,11.55,8.3,5.72,1.92,11.64,3.1,17.67,3.32,6.38.23,13.29.29,19.36,2.45-5.68-2.13-.32-.11,0,0h0Z"/>
      <path class="cls-9" d="m55.9,30.9c-5.91-2.86-11.89-5.39-18.37-6.67-2.01-.39-3.96-.78-6.02-.81-.99-.02-2.18-.08-3.06.45-.53.31-.17,1.19.41,1.11.05,0,.1-.02.15-.03.4-.06.55-.46.36-.8-.02-.05-.06-.09-.08-.14-.1.31-.19.61-.29.92.66-.22,1.91-.27,2.77-.28,1.95-.03,3.95.04,5.88.32,6.27.9,12.64,2.93,18.22,5.96.02,0,.02-.02,0-.03h0Z"/>
      <path class="cls-9" d="m66.24,34.31c-.08.09-1.11-.16-1.23-.18-.95-.14-1.91-.28-2.86-.43-3.01-.46-6.02-.95-9.01-1.49-6.72-1.2-13.66-2.44-20.03-4.97-.94-.38-1.87-.78-2.74-1.3-.63-.39-1-.97-1.56-1.39-.09.2-.18.41-.28.61l.18.04c.18.04.36-.18.28-.34-.03-.06-.05-.11-.08-.17-.17-.37-.68-.24-.67.16.02.72.95,1.33,1.48,1.69.94.63,1.97,1.09,3.02,1.5,2.92,1.16,6.06,1.86,9.13,2.51,6.6,1.41,13.29,2.37,19.97,3.21,1.27.16,2.54.31,3.81.46.14.02.57.08.58.07h0Z"/>
      <path class="cls-13" d="m78.54,36.82c8.59-8.38,17.26-16.67,25.79-25.11,2.01-1.98,3.77-4.29,5.26-6.68,1.06-1.69,2.77-4.34,2.33-6.48-.98-4.69-13.73,8.62-14.41,9.38-3.57,3.94-6.44,8.44-8.89,13.14-2.81,5.44-5.74,11.38-10.09,15.75.24-.24,4.35-4.24,0,0h0Z"/>
      <path class="cls-3" d="m78.54,36.82l18.8-18.31,4.7-4.58,2.35-2.29,1.13-1.19.28-.3.26-.31.53-.63.53-.63c.17-.21.33-.44.49-.65l.49-.66c.16-.22.33-.44.48-.66l.9-1.37c.3-.46.58-.92.87-1.39.56-.94,1.08-1.91,1.4-2.96.16-.52.26-1.06.26-1.61,0-.28-.03-.55-.1-.81-.06-.26-.19-.52-.41-.69-.22-.17-.51-.22-.78-.21-.27.01-.54.07-.8.16-.52.17-1.01.42-1.48.7-.95.55-1.83,1.19-2.69,1.87-1.72,1.35-3.34,2.82-4.92,4.33-1.57,1.52-3.14,3.05-4.54,4.74-1.4,1.68-2.69,3.45-3.9,5.27-1.21,1.83-2.3,3.72-3.33,5.65-1.03,1.93-2.01,3.89-3.05,5.81-.52.96-1.05,1.92-1.61,2.86-.27.47-.56.93-.85,1.4-.3.46-.58.92-.9,1.37-1.22,1.82-2.58,3.54-4.11,5.1h0Zm0-.01l1.99-1.94c-.16.17-.33.32-.49.49l-.5.48-.99.97c1.54-1.56,2.89-3.28,4.11-5.1.31-.45.6-.92.9-1.37.28-.47.58-.93.85-1.4.56-.94,1.09-1.9,1.61-2.86,1.04-1.92,2.02-3.88,3.05-5.81,1.02-1.93,2.12-3.82,3.33-5.65,1.2-1.83,2.49-3.59,3.9-5.27,1.4-1.68,2.96-3.22,4.54-4.74,1.58-1.51,3.2-2.98,4.92-4.33.86-.67,1.75-1.32,2.7-1.87.47-.28.96-.53,1.48-.7.26-.09.52-.15.8-.16.27-.01.55.05.78.21.22.17.35.43.41.69.06.26.1.54.09.82,0,.55-.11,1.09-.26,1.62-.32,1.05-.84,2.02-1.4,2.96-.28.47-.56.93-.87,1.39l-.9,1.37c-.15.23-.32.45-.48.66l-.49.66c-.17.22-.32.44-.49.65l-.53.63-.53.63-.26.31-.28.3-1.13,1.19-2.35,2.29-4.7,4.58-18.8,18.3h-.01Z"/>
      <path class="cls-2" d="m110.93-1.85c-1.97-.24-3.59,1.54-4.97,2.75-2.42,2.12-4.58,4.54-6.68,6.96-4.18,4.84-8.05,10.03-11.03,15.7,0,.01.02.02.02,0,2.9-5.27,6.45-10.13,10.48-14.59,1.97-2.17,4.03-4.25,6.17-6.26,1.06-1,2.22-1.88,3.32-2.83.82-.71,1.58-1.32,2.68-1.47.15-.02.17-.25,0-.27Z"/>
      <path class="cls-2" d="m110.51-1.75c1.37.03.08,1.35-.2,1.7-.47.59-.99,1.14-1.46,1.72-1.49,1.87-3.04,3.71-4.57,5.55-3.11,3.74-6.33,7.36-9.64,10.93-.03.04.02.08.06.05,4.43-4.13,8.42-8.77,12.45-13.29,1.43-1.6,2.93-3.2,4.07-5.02.55-.87.47-1.86-.71-1.67-.02,0-.01.03,0,.03h0Z"/>
      <path class="cls-13" d="m76.03,38.07c11.98.54,23.96,1.18,35.94,1.64,2.82.11,5.71-.18,8.47-.73,1.96-.39,5.06-.95,6.32-2.74,2.75-3.94-15.67-4.12-16.68-4.1-5.11.09-10.21.97-15.12,2.36-6.05,1.72-12.56,3.75-18.91,3.57.34.01,6.06.27,0,0h0Z"/>
      <path class="cls-2" d="m126.92,35.1s.03-.02,0-.03-.03.02,0,.03Z"/>
      <path class="cls-2" d="m126.98,34.8c-1.25-1.72-4.3-1.38-6.18-1.47-3.4-.15-6.79.06-10.18.26-6.12.36-12.45.78-18.12,3.3-.01,0,0,.03,0,.02,5.39-2.28,11.34-2.81,17.14-2.96,3.17-.09,6.33-.12,9.5-.02,1.48.04,2.95.18,4.42.27,1.12.07,2.31.04,3.22.79.12.1.29-.06.2-.18h0Z"/>
      <path class="cls-2" d="m126.62,34.57c.98,1.04-.91.96-1.48,1.01-.61.05-1.22.04-1.83.05-2.99.07-5.98.33-8.97.5-5.98.35-12.03.47-17.96,1.37-.04.01-.04.08.01.07,7.08-.63,14.17-.73,21.27-.91,2.57-.07,5.19-.04,7.74-.41.97-.14,2.36-.79,1.23-1.71-.01,0-.03,0-.02.02h0Z"/>
      <path class="cls-9" d="m79.09,34.31c10.74-5.35,21.53-10.59,32.23-16,2.52-1.27,4.9-2.93,7.06-4.75,1.53-1.29,3.97-3.28,4.2-5.46.5-4.77-15.7,4-16.59,4.51-4.52,2.61-8.6,5.94-12.3,9.62-4.4,4.37-9.05,9.2-14.6,12.08.3-.15,5.44-2.71,0,0h0Z"/>
      <path class="cls-2" d="m122.18,7.02s.03-.02,0-.03-.03.02,0,.03Z"/>
      <path class="cls-2" d="m122.09,6.74c-1.86-.85-4.13.73-5.77,1.54-3.01,1.47-5.84,3.25-8.67,5.04-5.33,3.37-10.87,6.87-14.73,11.96,0,.01,0,.03.02.02,3.72-4.74,8.83-8.14,13.98-11.15,2.71-1.59,5.44-3.13,8.23-4.56,1.2-.61,2.44-1.15,3.65-1.73,1.02-.49,2.04-1.07,3.2-.87.15.03.22-.19.08-.26h0Z"/>
      <path class="cls-2" d="m121.67,6.71c1.33.44-.41,1.39-.8,1.68-.66.46-1.36.88-2.04,1.31-2.52,1.61-4.95,3.38-7.43,5.05-4.82,3.25-9.66,6.41-14.77,9.2-.03.02,0,.08.03.06,6.11-2.86,11.76-6.69,17.46-10.27,2.42-1.52,4.87-3.03,7.14-4.78.76-.58,1.95-1.99.4-2.28-.01,0-.03.02,0,.03h0Z"/>
      <path class="cls-9" d="m79.81,33.66c-4.13-11.27-8.16-22.57-12.35-33.81-.99-2.64-2.37-5.2-3.95-7.53-1.12-1.66-2.83-4.31-4.96-4.77-4.68-1.02,2.25,16.06,2.66,16.99,2.05,4.68,4.83,9.06,8.02,13.05,3.92,4.93,8.28,10.14,10.58,16.08-2.09-5.7-.12-.32,0,0h0Z"/>
      <path class="cls-9" d="m79.36,37.62c2.06-11.82,4.22-23.63,6.2-35.46.46-2.76.55-5.64.36-8.43-.14-2.02-.29-5.11-1.86-6.63-3.46-3.36-6.03,14.22-6.15,15.21-.63,5.35-.48,10.78.33,16.1.93,6.23,2.12,12.94,1.13,19.22,1.04-5.98.05-.33,0,0h0Z"/>
      <path class="cls-2" d="m81.44-3.75c-.54,3.07-1.06,6.08-1.29,9.21-.28,3.69-.38,7.4-.4,11.11-.03,5.53.08,11.07.51,16.58.04.51.82.42.78-.08-.41-5.33-.54-10.69-.65-16.02-.07-3.76-.08-7.52.06-11.27.06-1.71.17-3.42.34-5.12.14-1.44.25-3,.68-4.39,0-.02-.02-.03-.03,0h0Z"/>
      <path class="cls-2" d="m83.77-9.59c-.19,1.39-.56,2.78-.79,4.17-.29,1.8-.52,3.61-.74,5.41-.51,4.21-.9,8.44-1.22,12.67-.48,6.41-1.06,12.93-.85,19.37,0,.16.01.32.03.48.04.51.81.42.78-.08-.16-2.21,0-4.47.08-6.68.14-3.9.3-7.8.51-11.69.41-7.62.68-15.41,2.07-22.92.04-.24.08-.48.16-.71,0-.02-.02-.03-.03,0h0Z"/>
      <path class="cls-2" d="m60.02-6.37c.92,1.42,1.62,3.01,2.39,4.51.86,1.7,1.7,3.42,2.53,5.14,1.78,3.73,3.51,7.5,5.16,11.28,1.49,3.4,2.91,6.84,4.21,10.31.77,2.06,1.76,4.36,1.85,6.59.02.51.8.43.78-.08-.08-2.17-1-4.39-1.73-6.39-1.28-3.54-2.81-6.98-4.38-10.41-1.77-3.86-3.63-7.66-5.58-11.43-.84-1.63-1.7-3.27-2.59-4.88-.85-1.56-1.83-3.08-2.62-4.67-.01-.02-.03,0-.02.02Z"/>
      <path class="cls-2" d="m59.18-10.83c.97.39,1.76,1.52,2.37,2.31.88,1.18,1.64,2.46,2.35,3.75,1.84,3.36,3.34,6.9,4.79,10.44,2.55,6.22,4.84,12.59,6.87,19,.17.54.35,1.09.5,1.64.14.49.86.21.73-.28-1.51-5.48-3.59-10.84-5.71-16.1-1.48-3.68-3.06-7.33-4.85-10.87-1.39-2.77-2.89-5.59-4.89-7.98-.64-.77-1.36-1.33-2.15-1.93-.02-.01-.03.01-.01.03Z"/>
      <path class="cls-13" d="m77.81,35.82c5.33-10.75,10.76-21.46,16.03-32.24,1.2-2.45,2.08-5.12,2.69-7.78.48-2.05,1.16-4.88.24-6.91-2.02-4.5-9.04,9.8-9.43,10.65-2.49,5.5-4.27,11.27-5.11,17.25-.88,6.32-1.64,13.21-4.42,19.02,2.7-5.44.14-.31,0,0Z"/>
      <path class="cls-2" d="m91.56-3.25c-1.39,2.8-2.74,5.53-3.86,8.46-1.32,3.46-2.47,6.99-3.54,10.54-1.59,5.29-3.07,10.64-4.22,16.04-.1.49.67.61.77.12,1.12-5.22,2.52-10.4,3.94-15.55,1-3.62,2.06-7.23,3.26-10.78.55-1.62,1.13-3.23,1.78-4.81.54-1.34,1.09-2.8,1.89-4.01.01-.02-.01-.03-.03-.01h0Z"/>
      <path class="cls-2" d="m95.46-8.19c-.58,1.28-1.32,2.5-1.94,3.77-.79,1.65-1.53,3.31-2.25,4.98-1.69,3.89-3.26,7.84-4.77,11.8-2.29,6.01-4.69,12.1-6.32,18.33l-.11.46c-.1.49.67.61.77.12.47-2.17,1.27-4.29,1.97-6.38,1.24-3.7,2.51-7.39,3.81-11.06,2.55-7.18,5.03-14.57,8.5-21.39.11-.21.21-.44.35-.63.01-.02-.01-.03-.03-.01h0Z"/>
      <path class="cls-11" d="m78.62,36.97c-10.66-5.49-21.27-11.08-31.97-16.5-2.44-1.23-5.09-2.15-7.73-2.81-2.04-.51-4.86-1.22-6.9-.34-4.53,1.96,9.65,9.19,10.5,9.59,5.45,2.58,11.2,4.44,17.16,5.36,6.31.98,13.16,1.84,18.94,4.69-5.4-2.77-.3-.15,0,0h0Z"/>
      <path class="cls-9" d="m42.91,22.17c2.63,1.63,5.22,3.18,8.02,4.51,3.35,1.59,6.77,3,10.23,4.33,4.99,1.92,10.04,3.65,15.15,5.22.47.15.81-.56.32-.72-5.02-1.56-10-3.24-14.94-5.01-3.49-1.25-6.97-2.57-10.38-4.03-1.51-.65-3-1.33-4.48-2.07-1.31-.66-2.75-1.35-3.9-2.27-.02-.01-.03.01-.01.03Z"/>
      <path class="cls-9" d="m38.34,17.84c1.22.68,2.36,1.54,3.56,2.26,1.55.93,3.14,1.81,4.73,2.68,3.71,2.03,7.46,3.95,11.26,5.8,5.78,2.83,11.63,5.79,17.69,7.98.15.05.3.11.45.15.47.15.81-.56.32-.72-2.07-.66-4.06-1.62-6.05-2.49-3.52-1.55-7.03-3.13-10.53-4.74-6.94-3.2-14.06-6.36-20.57-10.39-.29-.18-.6-.35-.85-.57-.02-.01-.03.01-.01.03h0Z"/>
      <path class="cls-4" d="m81.11,36.56c-9.91-6.75-19.76-13.6-29.71-20.28-2.28-1.54-4.82-2.78-7.39-3.75-1.94-.74-4.7-1.82-6.81-1.14-4.65,1.51,9.1,10.65,9.9,11.15,5,3.12,10.38,5.51,16.06,7.12,6.06,1.72,12.65,3.42,17.96,6.9-5.01-3.42-.29-.19,0,0h0Z"/>
      <path class="cls-9" d="m42.27,17.64c3.35,2.44,6.7,4.69,10.36,6.64,3.81,2.02,7.75,3.77,11.75,5.39,3.35,1.36,6.74,2.6,10.16,3.77,1.93.66,3.92,1.24,5.79,2.06.46.2.79-.5.32-.72-1.8-.8-3.72-1.36-5.58-2-3.39-1.17-6.78-2.36-10.14-3.63-3.92-1.49-7.8-3.12-11.58-4.95-3.8-1.83-7.82-3.86-11.06-6.6-.01,0-.03.01-.02.02h0Z"/>
      <path class="cls-9" d="m37.59,12.33c1.09.21,2.2.88,3.18,1.35,1.37.66,2.72,1.38,4.05,2.12,3.35,1.84,6.64,3.8,9.9,5.78,6.41,3.88,12.76,7.88,19.18,11.74,1.53.92,3.07,1.94,4.7,2.69.46.21.78-.5.32-.72-1.68-.77-3.26-1.83-4.84-2.79-2.94-1.77-5.87-3.57-8.82-5.33-6.76-4.03-13.53-8.07-20.54-11.67-1.34-.69-2.69-1.36-4.07-1.98-1-.45-2.07-.76-3.07-1.23-.02,0-.03.02,0,.03h0Z"/>
      <path class="cls-11" d="m79.33,37.05c-8.77-8.18-17.47-16.44-26.3-24.56-2.07-1.91-4.46-3.56-6.92-4.93-1.75-.97-4.46-2.56-6.58-2.01-4.64,1.21,9.26,13.3,10.05,13.95,4.1,3.38,8.72,6.03,13.54,8.24,5.56,2.55,11.62,5.19,16.21,9.32-.26-.23-4.44-4.14,0,0Z"/>
      <path class="cls-9" d="m42.51,9.35c1.19.33,2.35,1.16,3.39,1.79,1.47.91,2.9,1.9,4.31,2.91,3.29,2.35,6.48,4.85,9.66,7.34,3.11,2.44,6.17,4.94,9.3,7.36,2.08,1.61,4.15,3.28,6.37,4.7.3.19.61.39.93.54.46.21.78-.5.32-.72-1.88-.87-3.58-2.42-5.22-3.67-2.97-2.28-5.94-4.58-8.92-6.85-3.3-2.51-6.6-4.99-10-7.36-2.67-1.87-5.39-3.73-8.3-5.23-.6-.31-1.24-.53-1.83-.85-.02,0-.03.02,0,.03h0Z"/>
      <path class="cls-9" d="m39.88,6.74c.6,1.99,1.69,3.47,3.13,4.98,2.22,2.31,4.79,4.29,7.37,6.17,5.95,4.34,12.33,8.18,18.79,11.71,3.21,1.76,6.43,3.55,9.77,5.06.46.21.78-.51.32-.72-4.33-1.97-8.5-4.37-12.66-6.67-6.53-3.61-13.05-7.42-19.03-11.91-1.8-1.36-3.56-2.8-5.12-4.44-.97-1.01-2.55-2.67-2.54-4.19,0-.02-.03,0-.03,0h0Z"/>
      <path class="cls-11" d="m75.56,40.01c-11.39,3.78-22.8,7.45-34.17,11.3-2.67.91-5.27,2.21-7.65,3.71-1.69,1.07-4.39,2.69-4.92,4.81-1.17,4.66,16.11-1.75,17.05-2.13,4.74-1.9,9.2-4.55,13.29-7.61,5.04-3.77,10.4-7.98,16.4-10.08-5.76,1.91-.32.11,0,0h0Z"/>
      <path class="cls-9" d="m44.54,56.11c2.86-1.05,5.62-2.13,8.34-3.52,3.2-1.63,6.32-3.42,9.4-5.26,2.93-1.75,5.84-3.53,8.75-5.32,1.9-1.17,3.83-2.48,5.91-3.31.47-.18.19-.92-.28-.73-1.95.76-3.76,1.96-5.54,3.04-2.87,1.74-5.68,3.58-8.51,5.36-3.1,1.95-6.23,3.88-9.42,5.68-1.51.85-3.05,1.66-4.61,2.4-1.29.61-2.66,1.29-4.05,1.62-.02,0,0,.03,0,.03Z"/>
      <path class="cls-9" d="m38.32,57.02c1.3-.54,2.68-.91,3.99-1.41,1.7-.65,3.38-1.35,5.05-2.07,3.9-1.67,7.75-3.45,11.57-5.29,5.79-2.79,11.72-5.56,17.17-8.97.13-.09.27-.17.4-.26.42-.29-.03-.92-.45-.64-1.8,1.23-3.81,2.21-5.74,3.24-3.47,1.85-6.95,3.67-10.45,5.46-6.79,3.46-13.67,7.13-20.87,9.69-.22.08-.45.17-.69.22-.02,0,0,.03,0,.03h0Z"/>
      <path class="cls-11" d="m77.91,37.39c-11.99-.06-23.98-.23-35.97-.21-2.82,0-5.7.4-8.43,1.06-1.95.47-5.02,1.14-6.2,2.98-2.59,4.04,15.82,3.5,16.84,3.44,5.1-.29,10.17-1.37,15.02-2.96,5.98-1.96,12.4-4.24,18.76-4.31-6.07-.03-.34,0,0,0h0Z"/>
      <path class="cls-9" d="m28.04,42.33c1.3.18,2.57.45,3.89.55,1.6.12,3.21.14,4.81.13,3.99-.04,7.99-.33,11.95-.75,7.42-.8,14.87-1.88,22.12-3.7,1.54-.39,3.43-.71,4.78-1.62.42-.28-.03-.92-.45-.64-1.49,1-3.7,1.3-5.41,1.71-3.45.82-6.95,1.48-10.44,2.1-7.92,1.39-16,2.56-24.04,2.7-2.26.04-5,.21-7.18-.52-.02,0-.03.02,0,.03h-.02Z"/>
      <path class="cls-9" d="m41.27,39.1c3.17-.67,6.6-.63,9.83-.65,3.62-.03,7.24.08,10.86.18,3.05.08,6.11.18,9.16.04,1.59-.07,3.66-.05,5.05-.97.42-.28-.03-.91-.45-.64-1.35.89-3.55.77-5.09.83-3,.12-6.02.07-9.02.06-3.51-.01-7.03-.02-10.55.13-3.3.14-6.52.55-9.79.99-.02,0,0,.03,0,.03h0Z"/>
      <path class="cls-4" d="m78.17,37.29c-9.54,7.28-19.14,14.46-28.63,21.8-2.23,1.72-4.26,3.8-6.03,6-1.25,1.55-3.28,3.97-3.1,6.15.41,4.78,14.66-6.89,15.43-7.56,4.02-3.48,7.42-7.59,10.4-11.97,3.45-5.06,7.08-10.59,11.92-14.42-4.83,3.68-.27.21,0,0h0Z"/>
      <path class="cls-9" d="m46.82,67.42c6.36-2.68,11.31-8.03,15.93-13.02,2.68-2.89,5.29-5.85,7.84-8.86,1.71-2.01,3.37-4.1,5.26-5.95.21-.2.43-.4.67-.57.41-.29-.04-.93-.45-.64-1.65,1.17-2.98,3.02-4.29,4.54-2.42,2.8-4.77,5.67-7.19,8.48-2.68,3.11-5.43,6.19-8.35,9.07-2.42,2.39-5.03,4.83-8.08,6.38-.42.21-.88.44-1.34.55-.02,0,0,.03,0,.03h0Z"/>
      <path class="cls-9" d="m47.51,63.21c2.5-1.93,5.14-3.68,7.63-5.64,3.07-2.42,6.09-4.91,9.08-7.42,2.7-2.27,5.38-4.55,8.05-6.86,1.55-1.34,3.09-2.76,4.77-3.94.42-.29-.04-.92-.45-.64-1.63,1.13-3.12,2.5-4.62,3.79-2.67,2.28-5.28,4.62-7.92,6.93-2.95,2.59-5.9,5.17-8.89,7.7-1.33,1.13-2.67,2.23-4.03,3.32-1.17.93-2.35,1.97-3.63,2.73-.02.01,0,.04.02.02h0Z"/>
      <path class="cls-11" d="m77.71,37.91c-7.5,9.37-15.09,18.66-22.53,28.09-1.73,2.2-3.19,4.68-4.38,7.21-.86,1.84-2.21,4.61-1.57,6.71,1.41,4.61,12.14-9.55,12.71-10.35,3.2-4.48,5.68-9.4,7.58-14.55,2.15-5.81,4.35-12.15,8.17-17.1-3.8,4.74-.21.27,0,0h0Z"/>
      <path class="cls-9" d="m53.13,71.06c2.5-1.96,4.72-4.03,6.8-6.45,2.55-2.97,4.85-6.14,7.04-9.38,3.35-4.95,6.55-10.08,9.2-15.45.22-.46-.49-.78-.72-.32-2.62,5.3-5.76,10.41-8.97,15.37-2.08,3.22-4.26,6.38-6.64,9.39-1.04,1.32-2.13,2.59-3.29,3.8-1.03,1.08-2.16,2.26-3.45,3.02-.02.01,0,.04.02.02h0Z"/>
      <path class="cls-9" d="m53.1,74.89c3.25-3.35,6.31-6.75,9.07-10.54,2.51-3.45,4.76-7.06,6.91-10.75,1.76-3.01,3.41-6.08,5.1-9.13.6-1.08,1.21-2.15,1.89-3.19.41-.62.85-1.33,1.47-1.76.41-.3-.04-.93-.45-.64-1.4,1.01-2.28,2.91-3.11,4.37-1.71,2.97-3.28,6.02-4.94,9.03-2.17,3.93-4.46,7.8-6.98,11.52-2.62,3.89-5.52,7.86-8.97,11.07,0,.01,0,.03.02.02h-.02Z"/>
      <path class="cls-9" d="m80.82,39.88c7.22,9.58,14.36,19.22,21.65,28.75,1.71,2.24,3.78,4.28,5.96,6.06,1.55,1.26,3.95,3.3,6.13,3.12,4.78-.39-6.82-14.7-7.48-15.48-3.46-4.04-7.55-7.45-11.91-10.46-5.04-3.47-10.54-7.12-14.34-11.99.21.27,3.66,4.84,0,0h0Z"/>
      <path class="cls-2" d="m106,64.1c-1.91-2.37-3.77-4.69-5.9-6.88-2.63-2.7-5.4-5.27-8.22-7.77-4.13-3.66-8.36-7.23-12.79-10.54-.4-.3-.91.3-.5.6,4.27,3.2,8.39,6.64,12.47,10.08,2.88,2.43,5.73,4.92,8.47,7.51,1.24,1.17,2.45,2.37,3.62,3.61.99,1.05,2.08,2.16,2.84,3.39.01.02.04,0,.03-.02h0Z"/>
      <path class="cls-2" d="m108.86,69.71c-.92-1.06-1.72-2.25-2.61-3.33-1.16-1.4-2.36-2.77-3.57-4.12-2.79-3.11-5.66-6.14-8.58-9.12-4.54-4.64-9.09-9.41-14.12-13.53-.12-.1-.25-.2-.37-.3-.4-.3-.91.3-.5.6,1.74,1.32,3.32,2.9,4.91,4.4,2.82,2.66,5.62,5.33,8.39,8.03,5.51,5.37,11.23,10.75,16,16.8.15.19.3.38.43.59.01.02.04,0,.03-.02h0Z"/>
      <path class="cls-13" d="m77.61,33.86c11.71-2.6,23.44-5.08,35.14-7.75,2.75-.63,5.46-1.66,7.99-2.91,1.79-.89,4.64-2.22,5.39-4.28,1.63-4.51-16.2.1-17.18.38-4.91,1.41-9.61,3.58-13.99,6.21-5.4,3.24-11.16,6.87-17.34,8.36.33-.08,5.92-1.31,0,0h0Z"/>
      <path class="cls-2" d="m110.1,21.01c-3.02.77-5.98,1.53-8.93,2.59-3.55,1.28-7.02,2.74-10.47,4.27-4.99,2.22-9.94,4.57-14.74,7.19-.44.24.02.88.45.64,4.74-2.58,9.63-4.93,14.51-7.23,3.34-1.57,6.7-3.09,10.12-4.48,1.58-.64,3.18-1.25,4.8-1.79,1.37-.46,2.83-1,4.27-1.17.02,0,0-.03,0-.03h0Z"/>
      <path class="cls-2" d="m116.38,20.74c-1.35.4-2.76.62-4.12,1-1.76.48-3.51,1-5.24,1.55-4.06,1.26-8.07,2.65-12.06,4.08-6.03,2.18-12.22,4.31-17.99,7.17-.15.08-.3.15-.45.23-.44.24.02.88.45.64,1.95-1.05,4.08-1.83,6.13-2.67,3.61-1.47,7.22-2.92,10.86-4.32,7.1-2.74,14.3-5.69,21.71-7.5.23-.06.47-.12.71-.15.02,0,0-.03,0-.03h0Z"/>
      <path class="cls-13" d="m77.96,35.73c10.44,5.89,20.83,11.88,31.32,17.7,2.38,1.33,5,2.34,7.62,3.1,2.01.58,4.81,1.41,6.88.6,4.6-1.79-9.3-9.55-10.12-9.98-5.35-2.78-11.02-4.86-16.94-6-6.27-1.21-13.07-2.34-18.75-5.41.3.16,5.28,2.98,0,0h-.01Z"/>
      <path class="cls-2" d="m110.71,47.87c-2.77-1.45-5.47-2.86-8.37-4.04-3.49-1.42-7.05-2.66-10.63-3.82-5.19-1.68-10.45-3.25-15.76-4.49-.49-.12-.61.66-.12.77,5.19,1.23,10.34,2.73,15.44,4.25,3.59,1.07,7.17,2.21,10.7,3.49,1.61.58,3.2,1.2,4.77,1.87,1.33.57,2.77,1.15,3.97,1.98.02.01.03-.01.01-.03h0Z"/>
      <path class="cls-2" d="m115.56,51.87c-1.27-.6-2.47-1.38-3.73-2.01-1.63-.82-3.27-1.6-4.93-2.35-3.86-1.77-7.76-3.42-11.69-5.02-5.96-2.41-11.99-4.94-18.18-6.69-.15-.04-.31-.08-.46-.12-.49-.12-.61.65-.12.77,2.15.52,4.26,1.36,6.34,2.11,3.67,1.32,7.32,2.66,10.97,4.04,7.12,2.7,14.45,5.33,21.18,8.93.21.12.43.22.63.36.02.01.03-.01.01-.03h0Z"/>
      <path class="cls-9" d="m78.1,34.58c11.96-.85,23.93-1.58,35.89-2.51,2.81-.21,5.65-.84,8.33-1.7,1.9-.61,4.92-1.52,5.95-3.45,2.28-4.22-16.04-2.29-17.05-2.15-5.07.68-10.03,2.14-14.75,4.09-5.82,2.41-12.04,5.15-18.37,5.72.34-.03,6.06-.43,0,0h0Z"/>
      <path class="cls-2" d="m112.12,26.64c-3.1.32-6.13.63-9.2,1.25-3.63.73-7.22,1.64-10.79,2.63-5.32,1.47-10.62,3.08-15.81,5-.47.18-.2.91.28.73,5.01-1.84,10.13-3.42,15.24-4.98,3.6-1.09,7.24-2.12,10.9-3.01,1.72-.41,3.45-.79,5.2-1.1,1.35-.24,2.8-.53,4.18-.5.02,0,.01-.03,0-.03h0Z"/>
      <path class="cls-2" d="m118.37,27.3c-1.39.2-2.82.21-4.22.38-1.81.21-3.61.48-5.41.76-4.19.65-8.36,1.43-12.52,2.27-6.3,1.27-12.72,2.49-18.85,4.45-.15.05-.3.1-.45.15-.47.18-.2.9.28.73,2.06-.74,4.24-1.2,6.36-1.73,3.81-.94,7.64-1.84,11.47-2.7,7.44-1.68,15.01-3.53,22.62-4.23.24-.02.48-.05.73-.04.02,0,.02-.03,0-.03h-.01Z"/>
      <path class="cls-9" d="m77.93,36.91c6.65-9.99,13.4-19.91,19.99-29.94,1.51-2.3,2.73-4.85,3.68-7.44.72-1.95,1.78-4.72,1.07-6.83-1.55-4.65-10.56,9.21-11.05,10.02-3.07,5.04-5.41,10.45-6.97,16.14-1.66,6.08-3.3,12.69-6.73,18.04,3.37-5.05.18-.29,0,0Z"/>
      <path class="cls-2" d="m93.13,2.37c-1.61,2.45-3.05,4.88-4.28,7.55-1.53,3.3-2.82,6.71-4.02,10.15-1.73,4.92-3.05,9.97-4.69,14.92-.16.47.55.81.72.32,1.63-4.86,2.91-9.84,4.49-14.72,1.09-3.39,2.27-6.76,3.61-10.05,1.11-2.73,2.31-5.87,4.22-8.15,0-.01-.01-.03-.02-.02h0Z"/>
      <path class="cls-2" d="m97.57-2.08c-.73,1.23-1.61,2.37-2.36,3.6-.95,1.58-1.85,3.18-2.72,4.81-2.02,3.75-3.9,7.57-5.67,11.44-1.64,3.58-3.22,7.2-4.58,10.9-.78,2.12-1.8,4.48-1.94,6.77,0,.1,0,.2,0,.3,0,.5.78.42.78-.08,0-.79.25-1.62.46-2.38.38-1.39.87-2.75,1.36-4.1,1.35-3.68,2.84-7.31,4.39-10.91,1.69-3.91,3.47-7.79,5.37-11.6.82-1.66,1.68-3.3,2.58-4.91.71-1.27,1.41-2.71,2.36-3.82.01-.02-.01-.03-.03-.01h0Z"/>
      <path class="cls-9" d="m77.07,36.84c9.45,7.39,18.83,14.86,28.33,22.18,2.21,1.71,4.72,3.13,7.26,4.29,1.84.83,4.63,2.15,6.73,1.49,4.59-1.46-9.69-12.03-10.5-12.59-4.51-3.14-9.46-5.56-14.63-7.4-5.83-2.08-12.19-4.19-17.18-7.96,4.78,3.74.27.21,0,0Z"/>
      <path class="cls-2" d="m109.94,54.54c-2.34-1.76-4.66-3.4-7.21-4.85-3.19-1.82-6.47-3.44-9.78-5.01-2.98-1.42-5.98-2.8-8.97-4.22-1.61-.76-3.69-1.49-4.98-2.79-.36-.36-.85.25-.5.6,1.2,1.21,3.1,1.92,4.6,2.65,2.92,1.41,5.89,2.69,8.84,4.01,3.35,1.49,6.69,3.02,9.95,4.69,1.46.74,2.89,1.53,4.3,2.36,1.26.75,2.65,1.55,3.71,2.58.01,0,.03-.01.02-.02h0Z"/>
      <path class="cls-2" d="m114.08,59.26c-1.14-.78-2.2-1.68-3.35-2.46-1.42-.96-2.89-1.86-4.36-2.74-3.57-2.15-7.21-4.18-10.86-6.17-3.47-1.89-6.93-3.78-10.39-5.68-2.13-1.17-4.47-2.3-6.32-3.9-.12-.11-.24-.21-.33-.34-.31-.4-.95.05-.64.45,1.15,1.5,3.34,2.46,4.93,3.39,3.21,1.85,6.51,3.55,9.8,5.25,6.84,3.55,14.01,6.88,20.32,11.33.4.28.83.56,1.18.91.01,0,.03-.01.02-.02Z"/>
      <path class="cls-13" d="m78.63,38.99c2.54,11.73,4.97,23.49,7.58,35.2.62,2.76,1.63,5.47,2.87,8.01.88,1.8,2.2,4.65,4.25,5.41,4.5,1.65-.02-16.21-.29-17.19-1.38-4.92-3.54-9.64-6.14-14.03-3.21-5.41-6.82-11.19-8.27-17.38.08.33,1.29,5.94,0,0v-.02Z"/>
      <path class="cls-3" d="m78.63,38.99l5.53,25.65,1.38,6.41.69,3.21.41,1.59.1.39.13.39.26.78.26.78c.09.26.2.51.3.77l.3.76c.1.25.19.51.31.76l.68,1.49c.23.49.47.98.72,1.47.5.97,1.05,1.93,1.76,2.76.36.41.76.79,1.23,1.08.23.14.48.26.74.35.26.08.55.11.8.02.26-.1.45-.31.58-.55.13-.24.22-.5.29-.77.13-.53.17-1.08.19-1.63.04-1.1-.05-2.19-.16-3.28-.23-2.17-.62-4.33-1.06-6.48-.45-2.14-.92-4.28-1.6-6.36-.68-2.08-1.48-4.12-2.39-6.1-.91-1.99-1.92-3.93-3.03-5.82-1.1-1.89-2.24-3.76-3.31-5.66-1.08-1.9-2.1-3.84-2.99-5.84-.89-1.99-1.62-4.07-2.14-6.19v.02Zm.01,0l.59,2.71c-.05-.23-.1-.45-.15-.68l-.15-.68-.29-1.36c.51,2.12,1.25,4.2,2.14,6.19.88,2,1.91,3.93,2.99,5.84,1.08,1.9,2.21,3.77,3.31,5.66,1.11,1.88,2.12,3.83,3.03,5.82.91,1.99,1.71,4.03,2.39,6.11.68,2.08,1.15,4.22,1.6,6.36.44,2.14.82,4.3,1.06,6.48.11,1.09.19,2.18.16,3.28-.02.55-.07,1.1-.19,1.63-.06.27-.15.53-.29.77-.13.24-.33.44-.59.55-.26.09-.55.07-.8-.01-.26-.09-.51-.21-.74-.35-.47-.29-.86-.67-1.23-1.08-.72-.83-1.27-1.79-1.76-2.76-.25-.49-.49-.98-.72-1.47l-.68-1.49c-.12-.25-.21-.5-.31-.76l-.3-.76c-.1-.26-.2-.51-.3-.77l-.26-.78-.26-.78-.13-.39-.1-.39-.41-1.59-.69-3.21-1.38-6.41-5.53-25.65v-.03Z"/>
      <path class="cls-2" d="m92.39,73.66c-.64-2.87-1.27-5.67-2.19-8.47-1.15-3.48-2.49-6.89-3.9-10.26-2.02-4.82-4.21-9.57-6.61-14.22-.23-.44-.96-.18-.73.28,2.34,4.57,4.53,9.24,6.63,13.93,1.46,3.26,2.87,6.56,4.14,9.9,1.05,2.79,2.34,5.86,2.65,8.86,0,.02.03,0,.03,0h-.01Z"/>
      <path class="cls-2" d="m92.49,79.95c-.37-1.38-.58-2.81-.93-4.19-.46-1.78-.96-3.55-1.49-5.31-1.22-4.09-2.58-8.13-4.01-12.15-2.1-5.92-4.15-12.01-6.91-17.66-.03-.06-.06-.11-.09-.17-.23-.44-.96-.18-.73.28,1,1.98,1.78,4.09,2.6,6.14,1.45,3.62,2.88,7.26,4.26,10.91,1.51,4,2.99,8.02,4.37,12.07,1.09,3.22,2.18,6.48,2.86,9.81.03.09.04.19.04.29,0,.02.03,0,.03,0Z"/>
      <path class="cls-9" d="m79.62,39.32c4.56,11.1,9.01,22.24,13.63,33.31,1.09,2.6,2.56,5.1,4.22,7.38,1.17,1.62,2.99,4.2,5.13,4.57,4.72.83-2.86-15.96-3.31-16.88-2.28-4.7-5.3-9.01-8.7-12.96-4.04-4.7-8.52-9.68-10.99-15.43.14.32,2.3,5.62,0,0h0Z"/>
      <path class="cls-2" d="m103.65,81.78c-.56-4.16-1.59-7.99-3.34-11.82-1.83-4.02-4.17-7.78-6.71-11.38-3.45-4.88-7.4-9.32-11.48-13.67-.34-.37-.84.24-.5.6,3.97,4.24,7.81,8.59,11.28,13.25,2.6,3.5,4.99,7.19,6.95,11.09,1.82,3.62,3.59,7.83,3.77,11.93,0,.02.03.01.03,0h0Z"/>
      <path class="cls-2" d="m102.79,83.64c-.11-.53-.13-1.04-.3-1.58-.31-.97-.72-1.92-1.13-2.86-1.23-2.78-2.63-5.47-4.05-8.14-3.4-6.43-7.04-12.78-10.92-18.93-1.53-2.42-2.98-5.15-4.93-7.26-.3-.33-.87.2-.57.53,1.16,1.26,2.06,2.84,2.99,4.28,1.74,2.69,3.42,5.41,5.1,8.13,3.81,6.17,7.56,12.41,10.93,18.83.75,1.43,1.47,2.87,2.1,4.35.23.53,1.07,2.06.75,2.67,0,.03.03.03.03,0h0Z"/>
      <path class="cls-9" d="m78.84,37.29c-2.81,11.67-5.74,23.31-8.48,34.99-.63,2.7-.9,5.54-.9,8.32,0,2.05-.04,5.08,1.39,6.76,3.13,3.7,6.84-13.03,7.02-13.98,1.06-5.55,1.34-11.21.85-16.84-.53-6.28-1.27-13.04.12-19.26-1.42,5.91-.08.33,0,0Z"/>
      <path class="cls-2" d="m76.14,74.5c.7-2.94,1.35-5.82,1.74-8.83.47-3.63.74-7.29.93-10.95.26-5.17.36-10.34.22-15.51-.01-.51-.79-.42-.78.08.12,5.1.05,10.23-.09,15.33-.1,3.58-.27,7.17-.58,10.73-.26,2.98-.44,6.3-1.47,9.14,0,.02.02.03.03,0Z"/>
      <path class="cls-2" d="m73.5,80.21c.27-1.4.7-2.78.99-4.17.36-1.8.67-3.61.96-5.43.67-4.21,1.21-8.44,1.67-12.67.69-6.26,1.46-12.63,1.46-18.94,0-.09,0-.17,0-.26-.01-.51-.79-.42-.78.08.05,2.25-.18,4.52-.33,6.76-.28,3.91-.57,7.83-.92,11.74-.38,4.26-.8,8.52-1.33,12.76-.41,3.29-.85,6.63-1.66,9.85-.02.09-.06.18-.09.27,0,.02.02.03.03,0h0Z"/>
      <path class="cls-9" d="m78.08,37.67c11.59,3.06,23.16,6.22,34.78,9.21,2.67.69,5.48,1.01,8.22,1.08,2.08.05,5.04.15,6.8-1.2,3.89-2.97-12.13-7-13.05-7.21-5.66-1.24-11.45-1.75-17.23-1.38-6.37.41-13.25,1.04-19.51-.5.33.08,5.87,1.55,0,0h0Z"/>
      <path class="cls-2" d="m115.18,41.14c-2.95-.76-5.84-1.41-8.88-1.77-3.56-.43-7.12-.64-10.7-.76-5.12-.18-10.24-.05-15.36,0-.5,0-.42.78.08.78,5-.02,9.99-.18,14.99-.13,3.56.04,7.13.15,10.67.42,2.99.23,6.36.41,9.19,1.49.02,0,.03-.02,0-.03h0Z"/>
      <path class="cls-2" d="m120.83,43.89c-1.39-.29-2.74-.74-4.14-1.03-1.79-.37-3.59-.69-5.39-.97-4.19-.67-8.4-1.19-12.62-1.63-6.32-.67-12.69-1.32-19.05-1.41-.11,0-.22,0-.33,0-.5,0-.42.78.08.78,2.24,0,4.49.19,6.73.34,3.9.26,7.8.53,11.7.86,4.25.36,8.5.76,12.74,1.28,3.31.41,6.65.84,9.87,1.71.14.03.28.08.41.13.02,0,.03-.02,0-.03h0Z"/>
      <path class="cls-9" d="m77.07,38.58c1.15,11.94,2.18,23.91,3.41,35.84.29,2.8.98,5.63,1.91,8.29.66,1.89,1.64,4.88,3.59,5.87,4.28,2.17,1.88-16.1,1.72-17.11-.8-5.05-2.38-9.98-4.45-14.65-2.55-5.76-5.46-11.91-6.18-18.24.04.34.58,6.05,0,0h0Z"/>
      <path class="cls-2" d="m86.67,74.62c-.3-3.01-.62-5.94-1.24-8.9-.73-3.52-1.65-7-2.64-10.46-1.45-5.03-3.07-10.01-4.91-14.91-.18-.47-.91-.2-.73.28,1.79,4.81,3.41,9.71,4.95,14.6,1.08,3.4,2.08,6.84,2.94,10.31.72,2.89,1.63,6.09,1.59,9.09,0,.02.03.01.03,0h0Z"/>
      <path class="cls-2" d="m86.04,80.88c-.21-1.41-.24-2.85-.43-4.27-.24-1.82-.54-3.63-.86-5.44-.74-4.19-1.62-8.36-2.56-12.5-1.39-6.14-2.73-12.41-4.79-18.37-.03-.08-.06-.16-.09-.24-.18-.47-.91-.2-.73.28.77,2.08,1.29,4.26,1.87,6.4,1.01,3.76,2,7.54,2.95,11.32,1.05,4.21,2.06,8.43,2.96,12.68.69,3.25,1.36,6.54,1.65,9.86.01.1.02.19,0,.29,0,.02.03.01.03,0Z"/>
      <path class="cls-4" d="m78.92,36.39c-5.24,10.8-10.57,21.55-15.74,32.39-1.17,2.47-2.03,5.14-2.62,7.8-.46,2.05-1.11,4.89-.18,6.91,2.06,4.49,8.96-9.88,9.33-10.74,2.45-5.52,4.17-11.31,4.95-17.3.83-6.33,1.52-13.22,4.25-19.07-2.65,5.47-.15.31,0,0h0Z"/>
      <path class="cls-2" d="m68.62,73.21c1.22-2.76,2.4-5.46,3.34-8.34,1.12-3.42,2.04-6.9,2.9-10.39,1.24-5.09,2.31-10.21,3.14-15.38.08-.5-.69-.62-.77-.12-.83,5.07-1.86,10.11-2.95,15.13-.76,3.49-1.59,6.97-2.56,10.41-.8,2.86-1.61,6.09-3.13,8.67,0,.02.02.03.03,0h0Z"/>
      <path class="cls-2" d="m64.97,78.33c.52-1.33,1.21-2.59,1.74-3.92.69-1.7,1.33-3.42,1.95-5.15,1.44-4,2.74-8.06,3.99-12.13,1.84-6.03,3.79-12.14,4.95-18.34.02-.08.03-.17.05-.25.08-.5-.69-.62-.77-.12-.36,2.19-1,4.34-1.56,6.49-.99,3.77-2,7.54-3.06,11.3-1.18,4.17-2.39,8.34-3.72,12.48-1.02,3.16-2.06,6.36-3.46,9.38-.04.09-.08.17-.14.25,0,.01.02.03.03,0h0Z"/>
      <path class="cls-4" d="m78.12,35.5c-.17-.26.09-1.61.1-1.93.04-1.77.04-3.53.03-5.3-.05-5.57-.29-11.15-.82-16.7-.53-5.59-1.24-11.34-3.08-16.67-.64-1.86-1.44-3.75-2.72-5.26-.88-1.03-3.29-2.93-4.24-.93-1.74-1.72-2.25,3.39-2.18,4.11.24,2.77,1.5,5.33,2.76,7.77,1.86,3.59,3.2,7.07,4.27,10.94,2.16,7.83,4.84,15.9,5.89,23.97.21.32-.61-4.72,0,0Z"/>
      <path class="cls-9" d="m67.4-11.34c1.22,1,2.15,2.73,2.83,4.16,1.18,2.47,1.94,5.09,2.62,7.74,1.25,4.91,2.08,9.93,2.91,14.93,0,.02.03.01.03,0-.61-4.97-1.45-9.91-2.63-14.77-.67-2.8-1.44-5.63-2.53-8.3-.45-1.1-1.56-4.08-3.19-3.84-.04.01-.07.07-.02.1h0Z"/>
      <path class="cls-9" d="m66.86-11.46c-.26,2.44,1.45,4.28,2.43,6.34,1.53,3.26,2.58,6.73,3.54,10.19.98,3.55,1.84,7.14,2.57,10.75.69,3.41,1.65,7.1,1.37,10.6,0,.02.02.02.03,0,.44-3.14-.4-6.37-.96-9.46-.64-3.53-1.45-7.03-2.3-10.51-.83-3.4-1.76-6.78-2.84-10.11-.44-1.37-.97-2.78-1.81-3.96-.81-1.15-2.07-2.35-1.99-3.86,0-.02-.03-.03-.03,0h0Z"/>
      <path class="cls-11" d="m77.24,30.96c-.24-.16-.5-1.35-.62-1.62-.6-1.47-1.24-2.93-1.89-4.37-2.06-4.59-4.26-9.12-6.69-13.53-2.4-4.35-4.98-8.74-8.27-12.49-1.18-1.35-2.5-2.68-4.09-3.56-1.06-.59-3.99-1.54-4.01.61-1.96-.73-.64,3.44-.35,4.01,1.18,2.29,3.17,4.01,5.11,5.63,2.87,2.38,5.25,4.87,7.57,7.77,4.52,5.65,9.51,11.33,13.24,17.56-2.2-3.69.28.19,0,0h0Z"/>
      <path class="cls-9" d="m51.67-4.05c1.35.38,2.7,1.5,3.74,2.41,1.9,1.66,3.49,3.62,5.02,5.62,2.75,3.6,5.2,7.42,7.66,11.22.01.02.03,0,.02-.02-2.34-3.99-4.86-7.86-7.63-11.55-1.52-2.02-3.13-4.04-4.94-5.82-.74-.73-2.65-2.73-3.88-1.96-.04.03-.02.08.02.09h0Z"/>
      <path class="cls-9" d="m51.18-3.47c.21.05.39.48.54.61.49.42.95.87,1.4,1.32,1.7,1.7,3.43,3.34,5.04,5.12,5.92,6.49,10.87,13.93,15.58,21.32.01.02.03,0,.02-.02-4.63-7.78-9.96-15.07-15.77-22-1.48-1.77-3-3.61-4.74-5.14-.39-.35-1.43-1.53-2.09-1.3-.05.02-.03.08.01.1h0Z"/>
      <path class="cls-10" d="m85.93,33.74c.65-.54,1.13-1.92.27-2.51-.6-.43-1.74.24-2.05-.59-.52-1.37-.34-2.74-2.31-1.66-.98.53-1.54-2.44-3-1-1.01,1-.9-.13-2.03-.32-.82-.13-1.52,1.01-2.5.84-1.13-.19-.57.09-1.28.82-.46.47-1.22.37-1.76.71-.79.5-.67,1.59-.25,2.29.57.94.27.74-.53,1.45-.76.68-.9,1.48-.48,2.41.13.28,1.08,1.31,1.03,1.57-.14.86-1.53,1.16-.89,2.29.39.68,1.62,1.09,1.47,2.02-.48,2.95,1.37,1.41,2.71,3.05.77.94-.09,2.65,1.34,3.14,2.1.7,1.99-2.19,3.96-.09.8.87,1.78.74,1.86-.5.13-2.05,1.45-.61,2.58-1,1-.34,0-1.43.6-2.04.37-.38,1.06-.27,1.55-.28.61-.02,1.19-.17,1.44-.79.43-1.12-.71-1.45-.55-2.4.12-.74,3.8-1.34,1.83-2.88-.67-.52-1.28-.64-.79-1.66.58-1.19.39-1.5-.71-2.24-.55-.37-.91-.52-1.53-.62.15.02.99-.81,0,0h.01Z"/>
      <path class="cls-8" d="m85.29,34c.61-.5,1.05-1.79.25-2.35-.58-.41-1.64.23-1.93-.58-.44-1.3-.35-2.49-2.14-1.51-1.12.59-1.56-2.72-3.15-.52-.29.39-1.29-.86-1.75-.68-.97.35-1.49,1.07-2.63.61-.37-.14-.61.91-.92,1.08-.52.29-1.22.21-1.65.69-.59.68-.25,1.59.2,2.23.43.61-.47.81-.89,1.25-1.38,1.45,1.21,3.08.56,3.83-1.75,1.99.89,2.35.55,4.46-.33,1.98,2.53,1.01,2.95,2.64.29,1.1.04,2.8,1.85,2.47.7-.13,1.01-1.2,1.74-1.08.93.15,1.21,1.77,2.33,1.44.93-.27.07-1.81,1.06-2.13.7-.22,2.61.89,2.23-.74-.4-1.76,1.73-.87,2.57-1.45,1.67-1.16-1.35-2.49.84-3.33.7-.27,1.48-1.08.95-1.88-.32-.48-1.25-.54-1.13-1.26.15-.9,1.01-1.35.15-2.11-.63-.56-1.26-.93-2.07-1.07.14.02.92-.76,0,0h.02Z"/>
      <path class="cls-12" d="m94.84,33.62c-.25.47-.77.31-1.18.28-.42-.04-.77.13-.97.5-.2.37.05.77.39.92.19.08.39.12.59.12.07,0,.11,0,.16,0,.12,0-.06-.09-.01,0,.2.36.7.08.69-.26-.02-.32-.26-.51-.52-.64-.14-.08-.3-.12-.47-.13-.06,0-.11-.01-.16-.02.15.03.25.24.2.38.11-.31.35-.41.62-.55.31-.16.47-.25.67-.55.01-.02-.01-.03-.03-.01v-.02Z"/>
      <path class="cls-5" d="m93.54,41.54c-.26.08-.55.09-.82.04-.27-.07-.56.04-.8.15-.5.23-.81.8-.36,1.24.27.27.73.32,1.09.38.18.03.35.06.53.1.11.03.09.09.1-.03,0,.06,0,.11-.02.17,0,.04.03.1.07.09.26,0,.46-.21.3-.46-.17-.28-.58-.39-.85-.52-.15-.07-.31-.14-.45-.24-.07-.04-.09-.09-.07-.04.07.16-.05.19.08.09.21-.18.45-.26.63-.48.16-.2.41-.29.58-.48,0-.01,0-.02-.02-.02v.02Z"/>
      <path class="cls-12" d="m87.94,25.13c-.21.52-.81.73-1.16,1.12-.39.44-.13,1.19.47,1.26.47.06,1.02-.26,1.36-.56.16-.15.33-.3.54-.38.13-.05.19.1.32.16.05.01.09,0,.13-.03.28-.27-.06-.66-.36-.71-.42-.08-.89.09-1.3.2-.19.05-.37.19-.56.27-.06.02-.07.03-.02.01-.1.02.04,0,.08.03.14.05.06.25.09.04.07-.48.42-.9.45-1.39,0-.03-.03-.04-.05-.01h0Z"/>
      <path class="cls-12" d="m79.22,22.64c.24.45-.3,1.25-.5,1.63-.19.38-.49,1.16.11,1.38.47.16.78-.2,1.03-.55.09-.13.73-1.11.88-.97.05.05.14.03.17-.04.15-.4-.3-.44-.56-.33-.49.19-1.01.6-1.38.98-.07.07-.12.12-.1.11.32-.09.5-.03.56.16,0-.06-.01-.12-.02-.17-.04-.3,0-.62,0-.92.01-.38.18-.99-.14-1.3-.02-.02-.04.01-.04.03h0Z"/>
      <path class="cls-5" d="m72.34,24.67c.31.54.06,1.18.09,1.75.03.49.46.93.96.79.42-.12.7-.64.77-1.04.04-.2.07-.39.14-.57.08-.2.19-.23.33-.37.03-.04.02-.09,0-.12-.17-.26-.6-.15-.81,0-.33.23-.58.69-.73,1.05,0-.03-.09.16-.06.11-.08.12.15-.02.02,0-.12.02-.2-.27-.24-.4-.15-.42-.15-.89-.48-1.23-.01-.01-.02,0-.02.02h0Z"/>
      <path class="cls-5" d="m84.62,29.11c-.08.12-.27.17-.39.23-.2.09-.39.18-.59.28-.45.24-.71.69-.43,1.17.28.49.99.46,1.36.14.16-.14.29-.3.45-.44.17-.15.33-.11.54-.04.05.01.11-.02.1-.07-.03-.43-.39-.61-.8-.51-.18.05-.34.13-.5.22-.08.04-.16.08-.25.11-.12.05.04,0-.08.02.1-.01-.03,0-.05-.01-.1-.02-.02,0,0,.09,0,.15.01.18.02.1-.03.16.07-.19.05-.12-.01.06.06-.13.07-.16.04-.08.09-.16.14-.24.12-.2.4-.48.4-.73,0-.03-.05-.05-.07-.02h0Z"/>
      <path class="cls-12" d="m93.75,39.41c-.27.02-.59-.07-.86-.09-.38-.04-.79-.21-1.1.14-.32.38,0,.83.39.97.23.08.49.08.73.09.16.01.4.01.47.18.06.12.22.17.31.05.3-.37-.08-.68-.41-.81-.2-.08-.41-.12-.61-.18-.09-.02-.17-.06-.25-.1.03.02.03.01-.02-.02.08.06.06.22.03.28-.02.07-.17.2.03.04.05-.04.11-.09.16-.13.14-.09.29-.16.45-.21.21-.07.47-.09.68-.19,0,0,0-.03,0-.02h0Z"/>
      <path class="cls-12" d="m93.04,34.6c-.84-.2-1.67-.28-2.53-.35-.87-.07-1.7.28-2.57.23-.22,0-.28.31-.05.34.71.09,1.36-.11,2.05-.21.93-.15,2.14,0,3.09.04.03,0,.04-.04.01-.05Z"/>
      <path class="cls-12" d="m92.86,36.61c-.25.47-.77.31-1.18.28-.42-.04-.77.13-.97.5-.2.37.05.77.39.92.18.08.4.13.59.12.07,0,.11,0,.16,0,.12,0-.06-.09-.01,0,.2.36.7.08.69-.26-.02-.32-.26-.51-.52-.64-.14-.08-.3-.12-.47-.13-.06,0-.11-.01-.16-.02.15.03.25.24.2.38.11-.31.35-.41.62-.55.31-.16.47-.25.67-.55,0-.02-.01-.03-.03-.01h0Z"/>
      <path class="cls-5" d="m91.05,37.59c-.84-.2-1.67-.28-2.53-.35-.87-.07-1.7.28-2.57.23-.22,0-.28.31-.05.34.71.09,1.36-.11,2.05-.21.93-.15,2.14,0,3.09.04.03,0,.04-.04.01-.05Z"/>
      <path class="cls-5" d="m91.62,39.27c-.25.47-.77.31-1.18.28-.42-.04-.77.13-.97.5-.2.37.05.77.39.92.19.08.39.12.6.12.07,0,.11,0,.16,0,.12,0-.06-.09-.01-.01.2.36.7.08.69-.26,0-.31-.26-.52-.52-.64-.15-.08-.3-.12-.47-.13-.06,0-.11-.01-.16-.02.15.03.25.24.2.37.11-.3.34-.41.62-.55.31-.16.47-.25.67-.55.01-.02-.01-.03-.03-.01h0Z"/>
      <path class="cls-12" d="m89.82,40.24c-.84-.2-1.67-.28-2.53-.35-.87-.07-1.7.28-2.57.23-.22,0-.28.31-.05.34.71.09,1.36-.11,2.05-.21.93-.15,2.14,0,3.09.04.03,0,.04-.04.01-.05Z"/>
      <path class="cls-12" d="m87.32,27.19c.1.63-.5.75-.85,1.08-.33.3-.42.74-.19,1.14.18.31.59.29.88.18.18-.06.34-.16.47-.29.09-.08.17-.04.02-.1.32.12.74-.26.47-.56-.2-.22-.43-.3-.72-.24-.13.02-.27.06-.4.12-.08.04-.15.08-.22.13,0,0-.16.09-.07.05-.19.1.3,0,.34.14-.02-.06-.05-.15-.05-.22,0-.17.1-.34.16-.49.14-.36.25-.53.19-.92,0-.01-.03-.01-.03,0h0Z"/>
      <path class="cls-12" d="m86.57,29.1c-.78.39-1.47.86-2.18,1.35-.71.49-1.13,1.31-1.83,1.83-.18.13,0,.4.19.28.62-.39.99-.99,1.47-1.52.63-.71,1.6-1.32,2.36-1.9.02-.02,0-.06-.03-.04h0Z"/>
      <path class="cls-12" d="m80.85,24.4c.38.42.01.87-.16,1.27-.18.42-.07.9.33,1.14.33.21.71-.01.91-.29.11-.15.21-.36.24-.45,0-.02.08-.18.04-.12.06-.09-.12.05.03,0,.34-.12.28-.53.02-.68-.29-.18-.62.03-.83.22-.12.11-.21.22-.29.36-.02.04-.04.1-.07.14-.03.05-.03.04.01,0,.27-.21.52.14.3-.09-.05-.05-.09-.07-.12-.14-.06-.14-.07-.31-.1-.46-.06-.38-.06-.59-.31-.9-.01-.02-.04,0-.02.02h0Z"/>
      <path class="cls-12" d="m81.18,26.43c-.48.73-.83,1.49-1.19,2.28-.36.79-.32,1.69-.65,2.5-.09.21.21.34.31.14.31-.62.35-1.26.47-1.93.16-.97.72-2.04,1.1-2.96,0-.03-.02-.05-.04-.02h0Z"/>
      <path class="cls-12" d="m86.82,26.82c-.51.31-1.01.64-1.5.98-.26.19-1.01.66-.95,1.04,0,.06.06.11.12.1.32-.04.68-.61.92-.82.47-.43.93-.87,1.42-1.27,0-.01,0-.03-.02-.02h0Z"/>
      <path class="cls-12" d="m78.87,25.89l.02-.07s-.05-.05-.06-.01c-.36,1.33-.7,2.67-.96,4.03-.04.23.33.29.36.06.21-1.34.5-2.7.59-4.01,0,.03.04.04.05.01h0Z"/>
      <path class="cls-12" d="m75.19,27.87c-.34.63-.25,1.5-.48,2.18-.01.06-.16.29-.07.22.1-.02.2-.04.31-.07-.05-.08-.09-.16-.12-.25-.06-.15-.1-.3-.14-.46-.1-.35-.34-.78-.65-.98-.21-.14-.51.08-.35.32.35.52.29,1.06.49,1.63.13.38.9.95,1.11.3.3-.91-.31-1.97-.08-2.9,0-.01-.02-.02-.03,0h0Z"/>
      <path class="cls-12" d="m74.93,30.78c-.13.25.02.47.19.65.1.12.22.22.31.34.03.04.05.09.07.14.02.08.08.12.11.18.12.19.44.11.46-.11.04-.35-.24-.46-.5-.62-.22-.14-.55-.32-.62-.59,0,0-.02,0-.02,0h0Z"/>
      <path class="cls-5" d="m78.23,35.4c-.26-.17-.68-.23-.98-.3-.45-.11-1.13-.2-1.52.15-.5.45-.02,1.11.5,1.26.42.12,2.03-.24,2.09.35.02.2.29.15.29-.03,0-1.09-1.94-.45-2.32-1.18.03.06,0,.17-.06.2.08-.04.17-.06.25-.07.25-.05.5-.1.75-.15.27-.05.67-.18.96-.15.03,0,.06-.04.03-.06h0Z"/>
      <path class="cls-12" d="m77.79,35.96c-.44-.16-1.09-.69-1.58-.48-.16.07-.18.26-.06.37.18.17.49.22.73.25.29.04.58.08.88.09.12,0,.15-.19.03-.23Z"/>
      <path class="cls-12" d="m69.32,29.43c0,.14.05.26.13.38.11.17.35.28.44.45.09.18.3.32.43.47.07.08.15.15.23.23-.03-.04,0-.16.01-.16-.2.17-.68,0-.9-.04-.23-.05-.47-.03-.66.11-.3.23.04.66.21.41.03-.05.04-.1,0-.15.05.08-.22.31.03.16.12-.08.24,0,.35.06.21.12.55.19.79.22.43.05.96-.27.89-.76-.15-.98-1.72-.47-1.92-1.38,0-.01-.03-.01-.02,0h0Z"/>
      <path class="cls-12" d="m71.65,28.73c-.05.19.07.36.19.5.09.11.12.25.24.34.09.07.19.14.27.22.03.04.04.04.05.07-.03-.07.04-.12-.03-.07.08-.06.06-.02-.01-.03-.1,0-.19-.01-.28-.01-.24,0-.62-.08-.77.17-.06.11.01.22.1.27.1.06.26.06.37.09.18.06.36.12.56.13.32,0,.66-.24.63-.59-.02-.31-.31-.48-.55-.61-.24-.13-.7-.1-.72-.47,0-.03-.04-.02-.05,0h0Z"/>
      <path class="cls-12" d="m66.02,35.52c.42.68,1.05.33,1.67.15.08-.02.17-.01.26,0,.03,0,.24.02.09.05-.23.05-.47.08-.7.15-.53.16-.76.64-.61,1.15.05.15.2.25.34.28.23.06.46-.13.5-.36.04-.29.17-.33.44-.43.25-.09.48-.15.64-.37.15-.21.17-.5.03-.72-.29-.47-.78-.33-1.18-.12-.49.27-.94.71-1.46.2-.01,0-.02,0-.02.02Z"/>
      <path class="cls-12" d="m67.76,32.78c.12.36.55.46.89.54.21.05.43.07.65.11.09.02.19.03.27.09.14.09-.05.26-.15.28-.36.07-1.93-.21-1.76.57.09.44.79.38.7-.07.06.3-.33.28,0,.24.09-.01.18-.01.27-.01.11,0,.27.03.47.03.48,0,1.12-.24,1.08-.82-.03-.5-.31-.75-.79-.75-.58,0-1.09.08-1.61-.23-.01,0-.02,0-.02.02h0Z"/>
      <path class="cls-5" d="m81.52,53.29c-.31-.57.35-1.23.35-1.82,0-.3-.14-.58-.38-.77-.19-.14-.39-.33-.67-.28-.64.11-.57.82-.48,1.3.06.27.13.53.21.79.05.17.09.48.24.6.21.17.48.05.49-.3.01-.46-.11-.91-.08-1.38,0-.05.06-.3.02-.19,0-.04.07-.13-.01,0-.09.13-.31.19-.43.1.25.16.26.15.29.46.04.53-.11,1.17.36,1.56.07.06.14-.03.11-.1v.02Z"/>
      <path class="cls-12" d="m77.15,51.97c-.38-.18.47-1.32.56-1.58.24-.6-.24-1.2-.89-1.13-.63.07-.64.86-.62,1.33.02.46.07.99-.17,1.4-.02.04,0,.11.03.13.69.56.78-1.85.96-2-.08.07-.06,0-.08-.04.02.04,0,.18,0,.24-.02.32-.1.64-.14.96-.04.27-.07.85.36.72,0,0,0-.02,0-.02h-.01Z"/>
      <path class="cls-12" d="m72.39,48.52c-.2-.8.85-.94,1.3-1.3.47-.38.37-1.17-.25-1.31-.46-.11-.97.41-1.26.7-.19.19-.36.39-.55.58-.06.06-.12.13-.18.18-.06.06-.12.11-.15.18.03-.05-.08.23-.02.07-.07.15,0,.34.15.4.37.16.65-.19.9-.41.31-.27.64-.65,1.02-.82-.09.04-.26-.17-.27-.18.01.06.03.15.01.21-.07.21-.35.36-.51.51-.4.37-.45.71-.24,1.2.01.02.03,0,.02,0h.01Z"/>
      <path class="cls-5" d="m72.22,42.3c-.07.38.37.39.63.34.41-.08.93-.28,1.21-.6l-.26.14c.32-.06.58-.42.34-.72-.12-.16-.29-.21-.47-.26-.28-.08-.57-.14-.85-.19-.59-.11-.74.83-.14.91.15.02.3.04.45.07.11.02.22.04.32.06l.11.03c-.06-.01-.07-.02-.03,0,.08.03.04,0-.12-.11-.03-.07-.05-.14-.08-.21.02.1.03.18.1.26-.02-.1-.05-.19-.07-.28.02-.1-.03.05-.04.08,0,0-.07.1-.09.13-.09.12-.21.21-.33.3-.14.11-.59.41-.64.07,0-.04-.07-.04-.07,0h.01Z"/>
      <path class="cls-5" d="m79.64,50.54c.26-.19.48-.44.51-.77.03-.28-.15-.48-.3-.68-.27-.33-.73-1.17-1.25-.99-.55.2-.37.86-.21,1.27.1.25.21.49.3.74.03.09.07.19.09.29.03.17.02-.02.06-.01-.35-.03-.45.5-.09.55.66.1.66-.54.54-.99-.08-.3-.2-.58-.29-.88-.04-.11-.06-.23-.07-.35,0-.04-.15.08,0,.04-.09,0-.18,0-.27,0,.05.02-.09-.06.01,0,.07.05.13.1.2.15.17.13.34.27.5.41.11.09.22.18.32.27.24.21.04.67-.1.88-.02.03.02.08.05.05h0Z"/>
      <path class="cls-12" d="m86.07,50.76c-.19-.31-.25-.74-.39-1.08-.14-.32-.39-.93-.83-.89-.47.04-.65.65-.58,1.04.06.27.21.51.33.75.04.09.1.19.12.28.02.11-.05-.04.1-.1-.06.03-.14.04-.21.08-.15.08-.16.36-.02.46.51.34.87-.21.76-.68-.06-.23-.16-.44-.24-.65-.05-.12-.09-.23-.14-.35-.06-.12-.04-.07-.02-.16l.03-.13c-.1.08-.08,0,.04.09.18.14.32.35.46.54.19.27.33.63.56.86.02.02.05,0,.04-.03h0Z"/>
      <path class="cls-5" d="m82.3,46.9c-.99-.05-.35-.94-.53-1.5-.18-.53-.62-1.03-1.22-.84-.56.18-.66.94-.4,1.38.23.39.59.65,1,.81.19.08.35-.1.3-.28-.08-.3-.25-.51-.4-.77-.02-.05-.05-.1-.05-.15.02.08-.24.11-.35.04.12.08.18.23.25.35.17.27.33.62.55.84.26.26.53.23.86.14.01,0,0-.03,0-.03h0Z"/>
      <path class="cls-5" d="m79.32,45.33s-.39-.34-.33-.38c.06-.06.17-.1.24-.15.23-.14.49-.22.72-.35.52-.29.81-.9.46-1.45-.65-1-1.91.83-2.08,1.35-.02.07-.02.12.04.17.34.3.76-.26.96-.48.16-.17.32-.35.52-.49.15-.11-.01,0-.11-.12.03.03.03.11.01.15-.17.4-.75.57-1,.93-.29.44.21.74.56.85.01,0,.02,0,.01-.02h0Z"/>
      <path class="cls-12" d="m82.24,39.39c-.63-.39-.11-1.14-.41-1.7-.17-.32-.58-.4-.89-.51-.27-.09-.55-.1-.76.11-.36.35.07,1.1.29,1.41.13.19.29.45.54.5.15.03.33-.03.31-.21-.01-.1-.13-.19-.23-.14.16-.08.21.14.19.05-.02-.1-.07-.15-.12-.23-.12-.16-.2-.33-.3-.5-.08-.15-.16-.3-.18-.47-.01-.07-.02.02-.08.04.03-.01.18.04.23.06.21.07.43.07.55.29.1.17.11.37.16.56.09.41.27.7.71.77.01,0,.02-.02,0-.03h0Z"/>
      <path class="cls-5" d="m88.26,39.88c-.31.37-.79-.01-1.11-.18-.41-.22-.84-.42-1.29-.17-.6.34-.39,1.24.06,1.59.38.29,1.21.45,1.66.25.32-.14.21-.61-.14-.59-.25.02-.74-.33-.88-.51.07.09.01-.06.01-.13,0-.07,0-.07,0,0,0,.06-.05.11-.1.15-.04.03-.08.02.03,0,.04,0,.11,0,.18.02.5.06,1.47.32,1.62-.41,0-.03-.03-.03-.05-.02h0Z"/>
      <path class="cls-5" d="m93.38,31.99c-.48.12-.96.15-1.46.16-.46.02-1.18.24-1.16.83.03.59.69.64,1.14.6.27-.03.53-.06.79-.09.1-.01.55-.02.55-.03.02.05.08.06.12.02.24-.23-.22-.39-.38-.43-.4-.08-1.02-.04-1.33-.25.1.07.07.29-.02.36.05-.04.13-.07.21-.11.24-.1.46-.29.69-.41.25-.13.82-.33.88-.64,0-.02-.01-.03-.04-.03h.01Z"/>
      <path class="cls-12" d="m90.75,33.16c-1.22-.27-2.36,0-3.5.47-.27.11-.1.54.16.41,1.07-.51,2.13-.95,3.34-.86.01,0,.02-.02,0-.03h0Z"/>
      <path class="cls-12" d="m83.53,30.66c-.98-.2-2.69.32-2.95,1.41-.06.24.33.31.39.07.1-.46.62-.74,1-.96.45-.27,1.03-.5,1.56-.47.03,0,.04-.04.01-.05h0Z"/>
      <path class="cls-12" d="m80.31,29.86c-.33.75-1.75,1.19-1.39,2.2.24.66,1.17.52,1.55.11.09-.09.15-.21.23-.31.1-.13-.05-.04.09-.06.1-.02.22,0,.32.01.05.01.1.02.16.02.27.05-.07.04.1-.17-.15.18.1.46.28.3.29-.25.01-.49-.24-.59-.41-.16-.82-.29-1.21-.07-.13.07-.37.27-.49.19.07.05.02.08.04-.04.01-.14.08-.27.13-.4.17-.37.48-.77.5-1.18,0-.04-.05-.06-.07-.02Z"/>
      <path class="cls-5" d="m81.26,32.02c-.33.75-1.75,1.19-1.38,2.2.21.58,1.12.58,1.5.17.09-.09.15-.2.23-.3.04-.05.07-.1.12-.15-.05.02-.06.03-.03.02.11-.02.22,0,.33,0,.06,0,.12.01.17.03l.08.02c.11.06.13,0,.06-.18-.15.18.1.46.28.3.31-.26-.01-.5-.27-.6-.47-.18-.82-.26-1.27-.02-.11.06-.34.23-.39.16.06.08.02-.04.04-.13.02-.11.07-.22.12-.33.16-.37.48-.77.5-1.18,0-.04-.05-.06-.07-.02h0Z"/>
      <path class="cls-5" d="m83.15,33.46c-.33.75-1.75,1.19-1.39,2.2.24.66,1.17.52,1.55.11.09-.09.15-.21.23-.31.1-.14-.05-.04.09-.06.11-.02.22,0,.32.01.05.01.1.02.16.02.27.05-.07.04.1-.17-.15.18.1.46.28.3.29-.25.01-.49-.24-.59-.41-.16-.82-.29-1.21-.07-.13.07-.37.27-.49.19.07.05.02.08.04-.04.01-.14.08-.27.13-.4.16-.37.48-.77.5-1.18,0-.04-.05-.06-.07-.02Z"/>
      <path class="cls-5" d="m85.23,34.51c-.33.75-1.75,1.19-1.39,2.2.24.66,1.17.52,1.55.11.09-.09.15-.21.23-.31.1-.13-.05-.04.09-.06.11-.02.22,0,.32.01.05.01.1.02.16.02.27.05-.07.04.1-.17-.15.18.1.46.28.3.29-.25.01-.49-.24-.59-.41-.16-.82-.29-1.21-.07-.13.07-.37.27-.49.19.07.05.02.08.04-.04.01-.14.08-.27.13-.4.16-.37.48-.77.5-1.18,0-.04-.05-.06-.07-.02Z"/>
      <path class="cls-5" d="m85.17,31.87c-.33.75-1.75,1.19-1.39,2.2.21.58,1.12.58,1.5.17.09-.09.15-.2.23-.3.04-.05.07-.1.12-.15-.05.02-.06.03-.03.02.11-.02.22,0,.33,0,.06,0,.12.01.17.03l.08.02c.11.06.13,0,.06-.18-.15.18.1.46.28.3.3-.26-.01-.5-.27-.6-.47-.18-.82-.26-1.27-.02-.11.06-.34.23-.39.16.06.08.02-.04.04-.13.02-.11.07-.22.12-.33.17-.37.48-.77.5-1.18,0-.04-.05-.06-.07-.02h0Z"/>
      <path class="cls-5" d="m84.52,40.9c-.73-.24-1.38-1.64-2.28-1.18-.6.3-.52,1.18-.03,1.55.11.08.23.14.34.2.12.07.05-.05.09.09.03.09.01.2.02.3,0,.06,0,.12,0,.18-.02.27-.04-.04.19.12-.22-.15-.46.13-.27.32.31.31.51-.21.57-.44.12-.49.15-.81-.16-1.23-.06-.09-.13-.18-.18-.28.01-.06.01-.05-.03.04.08-.12.1-.15.06-.1-.06.09-.07.03.06.03.14,0,.28.05.41.1.38.13.8.39,1.21.37.04,0,.05-.06.02-.07h-.01Z"/>
      <path class="cls-12" d="m81.85,40.61c-.73-.23-1.38-1.64-2.28-1.18-.6.3-.52,1.18-.03,1.55.11.08.23.14.34.2.12.07.05-.05.09.09.03.09.02.2.02.3,0,.06,0,.12,0,.18-.02.27-.04-.04.19.12-.22-.15-.46.13-.27.32.31.31.51-.21.57-.44.12-.49.15-.81-.16-1.23-.06-.09-.13-.18-.18-.28.01-.06.01-.05-.03.04.08-.12.1-.15.06-.1-.06.09-.07.03.06.03.14,0,.28.05.41.1.38.13.8.39,1.21.37.04,0,.05-.06.02-.07h-.01Z"/>
      <path class="cls-5" d="m83.79,43.53c-.73-.24-1.38-1.64-2.28-1.18-.6.3-.52,1.18-.03,1.55.11.08.23.14.34.2.12.07.05-.05.09.09.03.09.01.2.01.29,0,.06,0,.12,0,.18-.02.27-.04-.04.19.12-.22-.16-.46.13-.27.32.31.31.51-.22.57-.44.12-.49.15-.81-.16-1.23-.06-.09-.13-.18-.18-.28.01-.06.01-.05-.03.04.08-.12.1-.15.06-.1-.06.09-.07.03.06.03.14,0,.28.05.41.1.38.13.8.39,1.21.37.04,0,.05-.06.02-.07h0Z"/>
      <path class="cls-5" d="m78.57,38.72c-.73-.23-1.38-1.64-2.28-1.18-.6.3-.52,1.18-.03,1.55.11.08.23.14.34.2.12.07.05-.05.09.09.03.09.01.2.02.3,0,.06,0,.12,0,.18-.02.27-.04-.04.19.12-.22-.15-.46.13-.27.32.31.31.51-.21.57-.44.12-.49.15-.81-.16-1.23-.06-.09-.13-.18-.18-.28.01-.06.01-.05-.03.04.08-.12.1-.15.06-.1-.06.09-.07.03.06.03.14,0,.28.05.41.1.38.13.8.39,1.21.37.04,0,.05-.06.02-.07h-.01Z"/>
      <path class="cls-5" d="m78.91,32c-.36,0-.59.13-.83.4-.21.25-.46.63-.47.96,0,.21.33.26.4.07.08-.23.09-.48.17-.71.1-.29.34-.78.72-.7.02,0,.02-.03,0-.03h0Z"/>
      <path class="cls-5" d="m75.91,25.19c.15.6-.11,1.26-.21,1.85-.07.48.13.85.63.95.44.09.76-.32.96-.65.11-.17.2-.38.35-.52.15-.13.1.02.29-.05.19-.07.18-.32.01-.41-.65-.33-1.07.57-1.51.87.02-.01-.07-.09-.08-.12-.08-.2-.1-.45-.13-.66-.07-.43-.06-.91-.27-1.3-.02-.02-.05,0-.04.03h0Z"/>
      <path class="cls-12" d="m76.11,27.43c-.29.33-.29.86-.29,1.26,0,.35-.03,1.16.37,1.32.06.02.15,0,.15-.08.01-.34-.2-.71-.27-1.05-.08-.42-.17-1.04.09-1.41.03-.04-.02-.08-.06-.05h0Z"/>
      <path class="cls-12" d="m72.62,30.34c0,.4.12.7.39.98.14.15.31.26.46.39.15.13.25.3.43.41.11.07.21-.07.18-.17-.08-.27-.39-.42-.61-.56-.43-.27-.73-.52-.8-1.05,0-.03-.05-.03-.05,0h0Z"/>
      <path class="cls-5" d="m73.95,27.09c0,.22-.07.41-.04.64.03.18.08.4.16.56.03.06.13.05.12-.03-.02-.17-.12-.33-.18-.48-.08-.2-.1-.48-.03-.69,0-.02-.03-.03-.03,0Z"/>
      <path class="cls-5" d="m69.89,33.93c.88.19,1.75.44,2.64.64.17.04.21-.25.04-.27-.89-.11-1.78-.28-2.67-.39-.01,0-.02.02,0,.03h0Z"/>
      <path class="cls-5" d="m73.89,36.32c.88.19,1.75.44,2.63.63.17.04.21-.25.04-.27-.89-.11-1.78-.27-2.67-.39-.01,0-.02.02,0,.03h0Z"/>
      <path class="cls-5" d="m86.02,41.39c.57.7,1.08,1.43,1.65,2.13.12.15.33-.04.2-.18-.62-.64-1.2-1.32-1.83-1.96-.01,0-.03,0-.02.02h0Z"/>
      <path class="cls-5" d="m88.65,41.7c.88.18,1.75.43,2.63.62.17.04.21-.25.04-.27-.89-.11-1.78-.27-2.68-.38-.01,0-.02.02,0,.03h0Z"/>
      <path class="cls-5" d="m82.07,41.29c.88.18,1.75.43,2.63.62.17.04.21-.25.04-.27-.89-.11-1.78-.27-2.68-.38-.01,0-.02.02,0,.03h0Z"/>
      <path class="cls-5" d="m70.61,31.31c.48-.19,1,.21,1.33.52.35.32.4.71.63,1.09.04.06.12.05.15,0,.36-.41-.35-1.03-.64-1.26-.38-.3-1.01-.63-1.48-.38,0,0,0,.03,0,.02Z"/>
      <path class="cls-12" d="m68.65,35.74c.36.5,1.36.55,1.9.57.41.01,1.46.08,1.63-.46.07-.22-.24-.31-.3-.09-.11.38-1.42.27-1.68.26-.44-.02-1.18.04-1.53-.29-.01,0-.02,0-.02.02h0Z"/>
      <path class="cls-12" d="m73.57,40.97c.69-.35,2.03-1.33,1.54-2.26-.11-.21-.4-.15-.4.1,0,.48,0,.79-.27,1.21-.23.35-.57.64-.9.89-.03.02,0,.08.03.06h0Z"/>
      <path class="cls-5" d="m90.4,30.72c-.28.5-1,.43-1.47.65-.38.18-.69.67-.44,1.07.26.4.86.21,1.2.09.22-.08.41-.17.6-.29.07-.05.14-.09.21-.14.06-.04.18-.08.06-.06-.1-.06-.19-.12-.29-.18.04.12.13.21.2.32.03.04.1.04.13,0,.08-.09.14-.19.17-.31.06-.17-.01-.35-.21-.39-.22-.04-.49.07-.71.12-.33.06-.62.2-.95.26-.1.01.17.02.19.17,0-.04.01-.11.04-.15.11-.17.35-.27.52-.36.34-.19.69-.39.8-.79,0-.04-.05-.05-.07-.02h.02Z"/>
      <path class="cls-5" d="m89.46,37.9c-.17.02-.37-.06-.53-.11-.25-.07-.5-.14-.75-.19-.38-.08-1.01-.08-1.09.44-.08.58.42.77.9.81.24.02.48,0,.72.03.06,0,.18,0,.23.03-.02,0-.05-.19-.03,0,0,.04.02.1.04.14.04.12.17.17.28.13.45-.16.22-.67-.08-.83-.37-.2-.84-.14-1.23-.28-.09-.03-.07-.02-.13-.09.04.02.06.05.06.09.01.07-.1.17-.03.12.14-.09.39-.09.55-.11.33-.03.8.04,1.1-.11.03-.02.03-.08-.02-.07h.01Z"/>
      <path class="cls-12" d="m87.45,37.95c-.44-.19-.92-.18-1.38-.34-.29-.11-.35-.48-.71-.48-.19,0-.24.26-.11.37.19.16.47.42.72.46.49.1.98.07,1.48.02.01,0,.02-.02,0-.02h0Z"/>
      <path class="cls-12" d="m85.84,39.84c-.39-.16-.74-.41-1.07-.67-.26-.21-.52-.47-.87-.48-.09,0-.14.13-.09.19.24.28.65.45.96.66.34.23.65.32,1.06.33.01,0,.01-.02,0-.02h0Z"/>
      <path class="cls-12" d="m90.39,44.62c-.39-.17-.73-.47-1.05-.74-.35-.3-.76-.8-1.31-.6-.41.16-.54.56-.44.96.06.25.33.4.44.49.2.16.42.28.6.46.16.15.26.35.43.49.03.04.09.03.13,0,.31-.21.08-.59-.07-.84-.12-.19-.25-.36-.34-.57-.12-.26-.02.1-.21.23.51-.36-.45.03-.32.04.39.04.75-.02,1.14,0,.33.02.66.1.98.11.03,0,.03-.04.01-.05h0Z"/>
      <path class="cls-5" d="m86.74,44.89c-.62-.23-1.05-.88-1.63-1.21-.29-.16-.6-.29-.93-.19-.4.12-.41.62-.32.94.13.43.87.37.89-.09l-.53.39c-.25-.07-.25-.14-.15-.04.06.06.12.11.18.17.15.16.3.33.46.48.16.14.3.31.42.48.08.12.01.15.1.02.04-.07-.17.05-.21.07-.12.06-.16.21-.05.31.21.2.59.24.77-.04.19-.27.06-.61-.06-.88-.24-.51-.73-1.32-1.32-1.49-.23-.06-.52.15-.53.39.3-.03.6-.06.89-.09-.11-.29-.03.11-.26.16.07-.02.16,0,.23.02.28.05.55.15.83.22.4.1.79.35,1.2.42.01,0,.02-.02,0-.03v-.02Z"/>
      <path class="cls-5" d="m84.61,47.78s-.01,0-.02-.01c.01-.05-.02-.1-.05-.14-.42-.38-.8-1.68-1.59-1.35-.35.15-.49.52-.43.88.03.17.08.35.12.52.02.08.03.16.04.24,0,.14.01-.06.11-.06-.13,0-.27.04-.32.17l-.02.08c-.03.12.06.28.17.32.78.27.81-.65.85-1.17,0-.06,0-.12.02-.17.02-.14,0-.14,0-.19-.04.26-.37.2-.21.27.08.03.14.08.21.12.3.21.57.46.91.6.06.02.14.01.17-.04.01,0,.02,0,.04-.02.02,0,.02-.03,0-.04h0Z"/>
      <path class="cls-5" d="m88.21,46.73s-.01,0-.02-.01c.01-.05-.02-.1-.05-.14-.42-.38-.8-1.68-1.59-1.34-.35.15-.49.52-.43.88.03.17.08.35.12.52.02.07.03.16.04.24,0,.14.01-.06.11-.06-.13,0-.27.04-.32.17l-.02.08c-.03.12.06.28.17.32.78.27.81-.65.85-1.17,0-.06,0-.12.02-.17.02-.14,0-.14,0-.19-.04.26-.37.2-.21.27.08.03.14.08.21.12.3.21.57.46.91.6.06.02.14.01.17-.04.01,0,.02,0,.04-.02.02,0,.02-.03,0-.04h0Z"/>
      <path class="cls-12" d="m84.64,49.03c.08-.25-.07-.56-.22-.75-.2-.25-.4-.53-.69-.67-.07-.04-.17.03-.15.11.05.27.24.4.43.59.11.1.2.23.31.33.12.1.26.22.28.39,0,.02.04.03.05.01h0Z"/>
      <path class="cls-12" d="m83.12,46.41c.19-.4,0-.83-.23-1.17-.29-.42-.63-.82-1.02-1.14-.07-.05-.17.02-.14.09.15.35.42.6.67.9.27.33.75.84.68,1.3,0,.03.03.04.05.01h0Z"/>
      <path class="cls-5" d="m76.27,47.03c-.09,0-.06.02-.05-.01,0-.08.05-.17.09-.24.09-.19.2-.37.31-.54.19-.29.59-.69.44-1.08-.24-.58-.8-.57-1.25-.24-.34.24-.53.95-1.03.96-.28.01-.29.46-.01.49.44.05.83-.31,1.2-.49.09-.04.19-.08.28-.12-.11.06.24-.13.14-.08.02-.02.15-.03.04-.02-.32.04-.36-.27-.29-.48,0,.03-.02.05-.03.07-.04.1-.05.22-.08.32-.07.28-.54,2.17.31,1.72.12-.06.09-.24-.06-.23v-.02Z"/>
      <path class="cls-5" d="m69.28,44.77c.03-.42.16-.75.55-.94.26-.13.59-.12.86-.23.53-.21.98-1.1.32-1.45-.44-.23-.97.14-1.33.36-.33.2-.9.48-1.09.84-.11.21.09.47.32.44.29-.03.62-.27.88-.38.31-.13.63-.26.96-.29-.36-.09-.51-.27-.42-.53,0,.04-.03.08-.06.11-.07.11-.13.22-.2.33-.13.19-.31.36-.49.52-.37.32-.44.74-.36,1.22,0,.02.05.03.05,0h0Z"/>
      <path class="cls-12" d="m68.53,41.4c-.2-.35-.08-.49.28-.55.32-.04.64-.03.95-.02.64.02,1.51-.14,1.47-.96-.04-.83-.99-.54-1.47-.42-.33.09-.65.22-.97.34-.19.07-.43.21-.63.22-.06,0-.06.09,0,.1.45.08.98-.02,1.44-.02.24,0,.49.01.71.12-.2-.1-.21-.41-.09-.57-.1.13-.26.25.02.02-.09.07.12-.05-.01,0-.05.02-.11.04-.16.05-.53.16-2.65.97-1.55,1.7.01,0,.02,0,.02-.02h0Z"/>
      <path class="cls-5" d="m68.99,38.05c.58.3,1.07.68,1.74.78.75.11,1.43-.56,1.28-1.33-.13-.67-.8-.6-1.3-.47-.3.08-.59.18-.9.22-.27.03-.33-.11-.58-.17-.06-.01-.14.02-.17.06-.02.04-.04.07-.07.1-.04.09-.03.2.03.28.24.36.69.34,1.07.3.23-.03.47-.09.7-.14.1-.02.19-.03.29-.05.07-.01.24.02.16-.03-.11-.08-.01-.24-.1-.02-.04.09-.05.25-.13.32-.16.15-.35.18-.56.18-.49.02-.95-.14-1.44-.08-.02,0-.03.04-.01.05h0Z"/>
      <path class="cls-5" d="m72.55,36.68c.56-.38.8.45,1.15.73.49.39,1.15-.02,1.26-.57.1-.52-.39-.82-.8-.98-.15-.06-.33-.11-.43-.2.03.02-.01.08.03,0,.05-.12.13-.17.13-.32,0-.06-.06-.11-.11-.12-.4-.12-.7.48-.54.79.17.32.54.58.82.81.09.07.04.06.03-.03-.02-.1.04-.05-.05.02-.16.12-.31-.02-.46-.13-.36-.29-.74-.47-1.06-.02-.01.03,0,.05.03.04h0Z"/>
      <path class="cls-12" d="m77.09,33.55c-.33-.13-.36-.22-.15-.48.18-.22.41-.4.6-.62.36-.39.54-1.22-.2-1.32-.34-.05-.51.37-.27.59.02.02.19.16.18.09.01.07-.07.19-.11.26-.15.26-.36.49-.51.74-.29.47-.08.81.46.81.04,0,.04-.06.02-.07h-.01Z"/>
      <path class="cls-5" d="m77.22,31.46c-.3-.13-.69.06-.94.21-.35.22-.76.49-.83.93-.04.29.31.41.5.23.21-.21.39-.43.61-.64.12-.12.26-.21.37-.35.08-.1.18-.23.3-.27.05-.02.05-.09,0-.11h0Z"/>
      <path class="cls-5" d="m83.99,27.42c-.62.13-.84.61-1.2,1.07-.17.22-.35.43-.63.46-.04,0,.15.24.16.12,0-.05.04-.15.05-.21.08-.25.5-.86.29-1.11-.18-.21-.6-.04-.41.19-.07-.09.3-.45-.02-.24-.06.04-.1.12-.14.18-.12.17-.24.33-.35.5-.24.38-.47.85-.11,1.23.35.38,1.05.15,1.27-.25.36-.68.24-1.54,1.09-1.89.02,0,.01-.05-.01-.05h0Z"/>
      <path class="cls-5" d="m80.98,27.65c-.32.31-1.71,1.47-.96,1.89.1-.22.2-.43.3-.64-.14-.06-.12-.33-.14-.51-.04-.33-.22-.51-.55-.51-.05,0-.09.04-.12.08-.07.16-.16.25-.13.44.02.16.01.33.03.49.03.39.31.66.7.69.45.02.57-.61.11-.7.3.06.23.42.27.22l.04-.17c.06-.17.12-.33.18-.5.1-.25.2-.5.31-.74,0-.03-.03-.04-.04-.02Z"/>
      <path class="cls-12" d="m83.62,30.91c-.16.5-.72.8-1.17,1.01-.23.11-.47.2-.72.25-.16.04-.32-.01-.44.11-.04.04-.03.11,0,.15.23.35,1.05-.13,1.29-.28.44-.26.99-.69,1.07-1.22,0-.01-.02-.02-.03,0Z"/>
      <path class="cls-12" d="m88.69,32.17c-.29-.4-1.05-.03-1.38.11-.63.27-1.25.68-1.78,1.11-.21.17.04.51.24.34.39-.33.8-.64,1.23-.92.34-.22,1.27-1.02,1.68-.61.01,0,.02,0,.02-.02h0Z"/>
      <path class="cls-12" d="m86.22,30.47c-.49.63-1.79.83-1.94,1.71-.09.54.62.67.99.51.48-.22.67-1.07,1.32-.82.18.07.34-.16.18-.29-.24-.21-.68-.3-.98-.24-.22.05-.42.32-.55.48-.07.08-.18.23-.3.22-.27-.01.03,0-.01.13.22-.7,1.05-1.05,1.32-1.71,0-.01-.02-.02-.02-.01h0Z"/>
      <path class="cls-12" d="m84.49,32.21c-.13.41-.6.71-.96.9-.19.1-.42.18-.63.22-.14.03-.26,0-.39.08-.06.03-.05.12,0,.15.3.26.87-.07,1.13-.25.41-.28.65-.66.88-1.08,0-.02-.02-.03-.03,0h0Z"/>
      <path class="cls-5" d="m90.44,35.77c-.6.65-2.7-.55-2.74.84-.01.58.71.65,1.12.62.28-.02,1.33-.36,1.5-.08.09.13.27.07.31-.07.17-.71-1.87-.34-2.17-.59.07.06.02.22-.05.25.1-.05.2-.09.3-.13.26-.1.53-.17.79-.25.32-.09.84-.22.98-.56,0-.03-.02-.05-.04-.02h0Z"/>
      <path class="cls-12" d="m88.22,36.33c-.77-.19-1.93-.39-2.39.44-.04.07-.01.17.05.22.03.02.06.03.09.04.09.01.16-.03.19-.1.35-.62,1.44-.59,2.05-.55.03,0,.04-.04.01-.05h0Z"/>
      <path class="cls-12" d="m87.24,43.16c-.71-.37-1.48-2.28-2.55-1.59-.41.26-.19.66.05.95.16.18.33.35.49.53.07.08.14.16.2.25.1.13.05.01.03.03-.07.05-.06.14-.01.2.23.23.54.07.52-.24-.03-.38-.41-.78-.6-1.08-.05-.07-.1-.15-.14-.23-.05-.15-.1-.06-.14.26.04,0,.08,0,.13.02.26.09.52.26.76.4.38.23.79.58,1.26.58.03,0,.03-.04.01-.05v-.02Z"/>
      <path class="cls-12" d="m90.9,43c-.71-.37-1.48-2.28-2.55-1.59-.41.26-.19.66.05.95.16.18.33.35.49.53.07.08.14.16.2.25.1.13.05.01.03.03-.07.05-.06.14-.01.2.23.23.54.07.51-.24-.03-.38-.41-.78-.6-1.08-.05-.07-.1-.15-.14-.23-.05-.15-.1-.06-.14.26.04,0,.08,0,.13.02.26.09.52.26.76.4.38.23.79.58,1.26.58.03,0,.03-.04.01-.05v-.02Z"/>
      <path class="cls-5" d="m72.3,38.92c-.28.29.1.48.36.55.18.04.36.03.52-.07.28-.16.52-.57.83-.64h-.24c.31.11-.02-.03,0-.21,0,.03-.02.07-.06.13-.09.16-.22.31-.34.45-.23.27-.6.62-.57,1,.01.16.16.26.31.25.35,0,.65-.42.83-.69.22-.31.54-.73.52-1.13-.02-.39-.64-.64-.84-.22-.15.32-.31.62-.59.85-.17.14-.99.15-.71-.26,0-.01,0-.03-.02-.02h0Z"/>
      <path class="cls-5" d="m72.66,33.4c-.28.29.1.48.36.55.18.04.36.03.52-.07.28-.16.52-.57.83-.64h-.24c.31.12-.02-.03,0-.21,0,.03-.02.07-.06.13-.09.16-.22.31-.34.45-.23.27-.6.62-.57,1,.01.16.16.26.31.25.35,0,.65-.42.83-.69.22-.31.54-.73.52-1.13-.02-.39-.64-.64-.84-.22-.15.32-.31.62-.59.85-.17.14-.99.15-.71-.26,0-.01,0-.03-.02-.02h0Z"/>
      <path class="cls-5" d="m74.32,34.36c-.28.29.1.48.36.55.18.04.36.03.52-.07.28-.16.52-.57.83-.64-.08,0-.16,0-.24,0,.31.12-.01-.03,0-.21,0,.03-.02.07-.06.13-.09.16-.22.31-.34.45-.23.27-.59.61-.57,1,.01.16.16.26.31.25.35-.01.65-.42.83-.69.22-.31.54-.73.52-1.13-.02-.39-.64-.64-.84-.22-.15.32-.31.62-.59.85-.17.14-.99.15-.71-.26,0-.01,0-.03-.02-.02h0Z"/>
      <path class="cls-12" d="m72.2,42.8c-.28.29.1.48.36.55.18.04.36.03.52-.07.28-.16.52-.57.83-.64-.08,0-.16,0-.24,0,.31.12-.02-.02,0-.21,0,.03-.02.07-.06.13-.09.16-.22.31-.34.45-.23.27-.59.61-.57,1,.01.16.16.26.31.25.35,0,.65-.42.83-.69.22-.31.54-.73.52-1.13-.02-.39-.64-.64-.84-.22-.15.32-.31.62-.59.85-.17.14-.99.15-.71-.26,0-.01,0-.03-.02-.02h0Z"/>
      <path class="cls-12" d="m74.09,43.8c-.28.29.1.48.36.55.18.04.36.03.52-.07.28-.16.52-.57.83-.64h-.24c.31.11-.02-.03,0-.21,0,.03-.02.07-.06.13-.09.16-.22.31-.34.45-.23.27-.6.62-.57,1,.01.16.16.26.31.25.35,0,.65-.42.83-.69.22-.31.54-.73.52-1.13-.02-.39-.64-.64-.84-.22-.15.32-.31.62-.59.85-.17.14-.99.15-.71-.26,0-.01,0-.03-.02-.02h0Z"/>
      <path class="cls-5" d="m77.13,43.39c-.4-.68,1.26-1.72.22-2.24-.47-.24-.87-.05-1.12.39-.11.19-.17.41-.26.6-.1.22-.22.15-.41.25-.19.1-.27.35-.08.5.37.31.85,0,1.06-.35.11-.18.25-.87.52-.85.3.02,0,.64-.05.83-.09.31-.13.66.12.91.01,0,.02,0,.02-.02h0Z"/>
      <path class="cls-12" d="m76.17,44.41c.2-.18.38-.38.55-.59.2-.24.5-.43.63-.72.03-.08-.03-.19-.12-.17-.58.1-.8,1.01-1.09,1.44-.01.03,0,.05.03.04h0Z"/>
      <path class="cls-12" d="m79.81,42.97c.1-.36.22-.76.14-1.14-.06-.31-.46-.78-.81-.59-.06.03-.11.12-.06.18.1.12.25.12.37.21.13.09.21.21.26.35.11.3.07.66.05.98,0,.03.04.04.05.01h0Z"/>
      <path class="cls-12" d="m81.16,44.71c.11-.46-.03-1.3-.54-1.47-.09-.03-.17.07-.09.14.35.32.62.84.61,1.32,0,.01.02.02.03,0h0Z"/>
      <path class="cls-12" d="m78.71,48.27c.06-.46.03-.89-.07-1.33-.05-.24-.08-.48-.08-.72,0-.23.06-.39-.09-.58-.03-.04-.09-.06-.14-.03-.33.23-.18.79-.11,1.13.11.52.35,1,.44,1.53,0,.03.04.03.05,0h0Z"/>
      <path class="cls-12" d="m81.06,50.61c.19-.57.15-1.08-.02-1.66-.16-.54-.47-1.21-.94-1.54-.09-.06-.18.01-.15.11.14.52.54.94.75,1.42.23.52.29,1.1.31,1.66,0,.02.04.03.05.01h0Z"/>
      <path class="cls-12" d="m77.08,49.36c-.24-.6-.1-1.41-.02-2.03.05-.36.14-.71.21-1.06.05-.19.16-.4.09-.6-.03-.07-.1-.1-.17-.08-.5.18-.47,1.45-.49,1.84-.03.62-.08,1.43.35,1.93.01,0,.03,0,.02,0h0Z"/>
      <path class="cls-12" d="m73.69,45.87c.75.22,1.81-2.09,1.22-2.19-.05-.01-.09.04-.08.08.03.37-.07.66-.23,1-.14.3-.47,1.14-.91,1.09-.01,0-.02.02,0,.03h0Z"/>
      <path class="cls-12" d="m71.06,42.19c.08-.23.33-.42.52-.55.11-.08.21-.16.33-.22.08-.03.16-.02.22-.09.02-.02.03-.06.02-.08-.13-.25-.52.06-.65.16-.2.16-.43.51-.45.78,0,.01.02.02.03,0h-.01Z"/>
      <path class="cls-7" d="m1.3,102.33s-.09.05-.27.13c-.18.09-.43.2-.76.35-.16.07-.35.14-.55.23-.19.1-.39.19-.61.29-.21.1-.44.21-.68.31-.24.1-.5.24-.76.36-.26.14-.54.25-.82.39-.28.14-.57.29-.87.45-.15.07-.3.15-.46.22-.15.09-.3.17-.46.25-.31.17-.62.33-.96.5-.64.36-1.29.73-1.95,1.14-.33.2-.67.39-1,.61-.33.21-.67.42-1,.63-.65.45-1.33.87-1.96,1.33-.65.44-1.27.91-1.88,1.35-.6.46-1.18.89-1.72,1.34-.27.22-.53.43-.78.64-.25.21-.49.42-.71.61-.23.2-.45.39-.66.56-.21.18-.41.35-.57.53-.34.36-.56.75-.8,1.02-.23.27-.43.46-.57.59-.14.13-.23.19-.23.19l-1.18-1.29s.06-.08.2-.21c.14-.13.34-.31.64-.53.29-.21.67-.43,1.07-.72.2-.15.4-.32.6-.51.21-.18.43-.37.66-.58.46-.4.96-.83,1.49-1.28.26-.23.54-.46.83-.69.28-.24.57-.48.86-.72.6-.48,1.2-.99,1.85-1.47.63-.5,1.3-.98,1.95-1.46.68-.46,1.34-.93,2.04-1.34.68-.44,1.38-.82,2.05-1.19.35-.17.68-.34,1.01-.51.17-.08.33-.16.49-.24.17-.07.33-.15.49-.21.32-.14.64-.28.94-.41.31-.12.61-.23.9-.34.29-.1.56-.21.84-.29.27-.08.53-.15.77-.23.24-.07.47-.14.68-.2.21-.06.4-.1.57-.13.69-.16,1.09-.25,1.09-.25l.18.79.03-.02Z"/>
      <path class="cls-4" d="m44.29,105.76c-.07.1-.11.16-.2.17l.2-.17Z"/>
      <path class="cls-4" d="m6.48,96.44c12.16-6.55,17.34-11.02,31.64-11.13-13.69-2.92-24.79,3.08-30.88,10.61"/>
      <path class="cls-2" d="m18.27,87.6c1.58-.84,3.51-1.24,5.24-1.6,1.59-.32,3.22-.49,4.83-.63,1.66-.15,3.31-.48,4.98-.54,1.88-.06,3.79.47,5.67.6.36.02.45-.49.09-.55-1.89-.36-3.81-.84-5.74-.89-1.81-.05-3.65.32-5.44.56-1.64.23-3.28.5-4.88.91-1.77.44-3.22,1.22-4.78,2.12-.02.01,0,.06.03.04v-.02Z"/>
      <path class="cls-2" d="m15.93,91.09c.48-.63,1.68-.88,2.4-1.12,1-.35,1.94-.93,2.89-1.37,1.8-.83,3.53-1.74,5.55-1.87,2.04-.13,3.94-.81,5.93-1.21.96-.2,1.94-.27,2.92-.3,1.09-.03,2.22.13,3.3-.03.1-.02.14-.16.03-.2-1.88-.76-4.38-.48-6.33-.15-2.21.38-4.36,1-6.59,1.33-1.89.27-3.66,1.31-5.32,2.2-.95.5-1.88,1.05-2.81,1.57-.69.39-1.44.58-2.02,1.14-.02.02.02.06.04.03h0Z"/>
      <path class="cls-2" d="m27.27,84.95c.24-.23,1.48-.13,1.79-.16,1.14-.09,2.29-.12,3.43-.17,2.72-.09,5.65.19,8.19,1.22.06.03.13-.06.07-.11-2.07-1.75-4.95-1.83-7.53-1.72-1.29.05-2.55.23-3.81.47-.28.05-1.9.62-2.14.43-.05-.04-.05.09,0,.04h0Z"/>
      <path class="cls-2" d="m25.23,87.03c1.11-.56,2.63-.59,3.85-.79,1.58-.26,3.17-.44,4.77-.6,1.25-.12,2.52-.22,3.77-.3.42-.03,1.33.11,1.63-.24.04-.05.05-.13,0-.18-.29-.35-1.14-.11-1.53-.08-1.31.1-2.63.23-3.93.38-1.59.18-3.18.39-4.76.67-1.33.24-2.54.75-3.83,1.1-.03,0-.01.06.02.05Z"/>
      <path class="cls-9" d="m5.85,96.31c12.81-5.54,18.33-9.59,33.08-8.39-13.99-4.22-25.69.84-32.28,7.94"/>
      <path class="cls-13" d="m18.35,88.42c1.54-.66,3.35-.88,5.01-1.1,1.72-.22,3.46-.24,5.18-.25,1.78,0,3.58-.18,5.35-.08,1.99.1,3.96.83,5.92,1.14.37.06.44-.47.09-.57-1.93-.54-3.89-1.21-5.88-1.45-1.84-.22-3.74,0-5.58.08-1.73.08-3.45.2-5.17.48-1.8.29-3.32.94-4.95,1.7-.03.01-.01.06.02.05h.01Z"/>
      <path class="cls-13" d="m15.8,91.75c.53-.59,1.78-.74,2.52-.92,1.05-.26,2.04-.77,3.05-1.13,2.02-.72,3.91-1.44,6.09-1.37,1.98.06,3.92-.47,5.89-.69,1.11-.12,2.22-.09,3.33-.01,1.02.08,2.06.31,3.09.24.11,0,.12-.16.04-.21-1.79-.91-4.2-.86-6.16-.76-2.31.13-4.55.74-6.87.75-2.06.01-4.01,1-5.87,1.74-1.02.41-1.95,1-2.99,1.34-.74.25-1.54.47-2.14.98-.03.02.01.07.03.04Z"/>
      <path class="cls-2" d="m27.74,86.56c.24-.19,1.34,0,1.63,0,1.28.01,2.56.08,3.84.16,2.83.17,5.78.74,8.33,2,.07.04.12-.06.07-.11-2.11-2.05-5.24-2.36-8.04-2.46-1.23-.05-2.43.02-3.65.15-.29.03-1.95.44-2.16.23-.05-.05-.06.09,0,.04h-.01Z"/>
      <path class="cls-2" d="m25.56,88.48c1.22-.49,2.84-.36,4.12-.46,1.6-.12,3.21-.15,4.82-.16,1.36-.01,2.72,0,4.09.04.42,0,1.19.21,1.52-.11.05-.05.04-.14.01-.19-.25-.37-1.14-.2-1.51-.21-1.38-.02-2.77,0-4.15.02-1.6.03-3.2.11-4.81.24-1.42.12-2.72.53-4.1.78-.04,0-.02.07,0,.05h0Z"/>
      <path class="cls-4" d="m7.99,98.04c12.81-5.54,18.33-9.59,33.08-8.39-13.99-4.22-25.69.84-32.28,7.94"/>
      <path class="cls-9" d="m20.5,90.16c1.55-.66,3.35-.88,5.01-1.09,1.72-.22,3.46-.24,5.18-.25,1.78,0,3.58-.18,5.35-.08,1.99.1,3.96.83,5.92,1.14.37.06.44-.47.09-.57-1.92-.54-3.88-1.21-5.88-1.45-1.84-.22-3.74,0-5.58.08-1.73.08-3.45.2-5.17.48-1.8.29-3.32.94-4.95,1.7-.03.01-.01.06.02.05h.02Z"/>
      <path class="cls-9" d="m17.94,93.48c.53-.59,1.78-.74,2.52-.92,1.05-.26,2.04-.77,3.05-1.13,2.02-.73,3.91-1.45,6.09-1.37,1.98.06,3.92-.47,5.89-.69,1.11-.12,2.22-.09,3.33-.01,1.02.08,2.06.31,3.09.24.11,0,.12-.16.04-.21-1.79-.91-4.2-.86-6.16-.76-2.31.13-4.54.73-6.87.75-2.06.01-4,1-5.87,1.74-1.02.41-1.94.99-2.99,1.34-.74.25-1.54.47-2.14.98-.03.02.01.07.03.04Z"/>
      <path class="cls-2" d="m29.88,88.29c.24-.19,1.34,0,1.63,0,1.28.01,2.56.08,3.84.16,2.83.17,5.78.74,8.33,2,.07.04.12-.06.07-.11-2.11-2.05-5.24-2.36-8.04-2.46-1.23-.05-2.43.02-3.65.15-.29.03-1.95.44-2.16.23-.05-.05-.06.09,0,.04h-.01Z"/>
      <path class="cls-13" d="m27.7,90.22c1.22-.49,2.84-.36,4.12-.46,1.6-.12,3.21-.15,4.82-.16,1.36-.01,2.72,0,4.09.04.42,0,1.19.21,1.52-.11.05-.05.04-.14.01-.19-.25-.37-1.14-.2-1.51-.21-1.38-.02-2.77,0-4.15.02-1.6.03-3.2.11-4.81.24-1.42.12-2.72.53-4.1.78-.04,0-.02.07,0,.05h0Z"/>
      <path class="cls-4" d="m11.88,104.93c13.72-2.24,20.61-1.86,31.97-10.59-8.96,10.77-21.49,12.81-31.04,10.53"/>
      <path class="cls-2" d="m26.74,104.79c1.63-.22,3.12-.45,4.66-1.07,1.61-.64,3.13-1.48,4.63-2.34,1.63-.93,3.32-1.83,4.82-2.98,1.54-1.19,2.77-2.87,4.04-4.32.21-.24-.14-.63-.38-.41-1.34,1.21-2.5,2.64-3.87,3.81-1.34,1.14-3.05,1.89-4.52,2.84-1.4.9-2.82,1.77-4.31,2.52-1.55.78-3.33,1.61-5.05,1.9-.03,0-.03.06,0,.05h0Z"/>
      <path class="cls-2" d="m22.68,103.44c.73.08,1.38-.14,2.08-.29,1.14-.25,2.29-.32,3.44-.52,1.86-.32,3.91-.58,5.59-1.53,1.97-1.12,4.05-1.94,6.04-3,1.75-.93,3.88-2.24,4.89-4.01.06-.11-.08-.18-.16-.13-.84.48-1.58,1.19-2.34,1.79-.94.74-1.96,1.37-3.03,1.9-1.74.86-3.58,1.45-5.2,2.56-1.74,1.2-3.81,1.52-5.83,1.98-.84.19-1.69.32-2.53.52-.88.21-2.05.91-2.94.67-.03,0-.04.05-.01.05h0Z"/>
      <path class="cls-2" d="m35.52,101.35c.07-.29,1.68-.84,1.93-.97,1.08-.55,2.12-1.15,3.12-1.84,2.17-1.5,4.52-3.44,5.06-6.17.02-.07-.09-.1-.13-.04-1.35,2.42-3.5,4.4-5.7,6.04-.91.68-1.85,1.34-2.8,1.98-.25.17-1.18,1-1.51.97-.07,0,0,.1.02.03h0Z"/>
      <path class="cls-2" d="m32.61,100.96c1.23-.5,2.49-.84,3.68-1.46,1.37-.71,2.69-1.49,4.01-2.28,1.15-.7,2.29-1.42,3.42-2.17.35-.23,1.26-.61,1.28-1.1,0-.07-.07-.12-.13-.14-.42-.09-.99.52-1.31.73-1.02.7-2.05,1.38-3.1,2.05-1.28.82-2.58,1.61-3.91,2.35-1.19.67-2.6,1.7-3.96,1.97-.04,0-.02.07,0,.05h0Z"/>
      <path class="cls-9" d="m10.71,104.29c13.76-2.3,20.6-1.88,32.34-10.9-9.47,11.15-22.04,13.24-31.42,10.85"/>
      <path class="cls-13" d="m25.5,104.18c1.79-.25,3.38-.53,5.06-1.25,1.62-.69,3.17-1.57,4.68-2.46,1.59-.93,3.24-1.81,4.7-2.95,1.58-1.23,2.85-2.93,4.16-4.42.21-.24-.14-.64-.39-.42-1.39,1.25-2.6,2.7-4.01,3.91-1.31,1.12-2.95,1.85-4.39,2.78-1.52.99-3.06,1.96-4.68,2.78-1.58.8-3.38,1.66-5.14,1.96-.03,0-.03.06,0,.05h.01Z"/>
      <path class="cls-13" d="m21.53,102.77c.74.09,1.39-.14,2.1-.3,1.14-.26,2.3-.33,3.45-.53,1.88-.32,3.96-.62,5.65-1.58,1.99-1.13,4.06-2.02,6.1-3.06,1.83-.94,4.06-2.35,5.12-4.18.06-.11-.08-.18-.16-.14-.88.5-1.63,1.23-2.42,1.85-.96.75-2,1.4-3.09,1.95-1.68.84-3.46,1.44-5.05,2.47-1.85,1.2-3.72,1.68-5.85,2.16-.95.22-1.92.39-2.87.61-.87.21-2.06.94-2.96.69-.03,0-.04.05-.01.05h0Z"/>
      <path class="cls-2" d="m34.41,100.63c.06-.29,1.68-.85,1.93-.98,1.17-.6,2.28-1.25,3.36-2,2.23-1.56,4.59-3.53,5.24-6.3.02-.08-.09-.1-.13-.04-1.46,2.44-3.63,4.48-5.88,6.17-.94.7-1.9,1.38-2.87,2.04-.28.19-1.31,1.12-1.66,1.08-.07,0,0,.1.02.03h0Z"/>
      <path class="cls-13" d="m31.53,100.21c1.21-.51,2.46-.84,3.63-1.45,1.43-.75,2.84-1.58,4.21-2.42,1.16-.71,2.31-1.44,3.44-2.19.34-.22,1.37-.67,1.39-1.14,0-.09-.04-.16-.13-.18-.42-.08-.97.5-1.29.72-1.07.74-2.16,1.46-3.25,2.16-1.35.86-2.72,1.7-4.12,2.48-1.18.67-2.56,1.7-3.91,1.96-.04,0-.02.07,0,.05Z"/>
      <path class="cls-4" d="m11.29,101.9c13.76-2.3,20.6-1.89,32.34-10.91-9.47,11.15-22.04,13.24-31.42,10.85"/>
      <path class="cls-9" d="m26.07,101.79c1.79-.26,3.38-.54,5.06-1.25,1.62-.69,3.17-1.57,4.68-2.46,1.59-.93,3.24-1.81,4.7-2.95,1.58-1.23,2.85-2.93,4.17-4.42.21-.24-.14-.64-.39-.42-1.38,1.25-2.6,2.7-4.01,3.91-1.31,1.12-2.95,1.85-4.39,2.78-1.52.99-3.06,1.96-4.68,2.78-1.58.8-3.38,1.66-5.14,1.96-.03,0-.03.06,0,.05v.02Z"/>
      <path class="cls-9" d="m22.11,100.38c.74.09,1.39-.14,2.09-.3,1.15-.26,2.3-.33,3.45-.53,1.88-.33,3.96-.62,5.65-1.58,1.99-1.14,4.06-2.01,6.1-3.06,1.83-.94,4.06-2.35,5.12-4.18.06-.11-.08-.18-.16-.14-.88.5-1.63,1.23-2.42,1.85-.96.75-2,1.4-3.09,1.95-1.68.84-3.46,1.44-5.05,2.47-1.85,1.2-3.72,1.68-5.85,2.16-.95.22-1.92.38-2.87.61-.87.21-2.06.93-2.96.69-.03,0-.04.05-.01.05h0Z"/>
      <path class="cls-13" d="m34.98,98.24c.06-.29,1.68-.85,1.93-.98,1.17-.6,2.28-1.25,3.36-2,2.23-1.56,4.59-3.53,5.24-6.3.02-.08-.09-.1-.13-.04-1.46,2.44-3.63,4.48-5.88,6.17-.94.7-1.9,1.38-2.87,2.04-.28.19-1.31,1.12-1.66,1.08-.07,0,0,.1.02.03h0Z"/>
      <path class="cls-13" d="m32.1,97.82c1.21-.51,2.46-.84,3.63-1.45,1.43-.75,2.84-1.58,4.22-2.42,1.16-.71,2.31-1.44,3.44-2.19.34-.22,1.37-.67,1.39-1.14,0-.09-.04-.16-.13-.18-.43-.08-.97.5-1.29.72-1.07.74-2.16,1.46-3.25,2.16-1.35.86-2.72,1.7-4.12,2.49-1.18.66-2.56,1.7-3.91,1.96-.04,0-.02.07,0,.05h0Z"/>
      <path class="cls-4" d="m8.32,98.01c13.94-.49,20.67.8,33.48-6.62-10.83,9.82-23.57,10.27-32.56,6.69"/>
      <path class="cls-13" d="m22.99,99.82c1.68-.02,3.24-.06,4.88-.5,1.78-.47,3.51-1.17,5.2-1.88,1.63-.68,3.29-1.33,4.84-2.19,1.82-1,3.37-2.6,4.93-3.96.28-.24-.02-.68-.33-.47-1.55,1.07-2.94,2.35-4.51,3.36-1.5.98-3.31,1.52-4.92,2.28-1.57.74-3.14,1.46-4.78,2.04-1.66.59-3.55,1.2-5.32,1.27-.04,0-.03.05,0,.05h.01Z"/>
      <path class="cls-13" d="m19.24,97.91c.72.19,1.4.04,2.12-.03,1.17-.11,2.34-.03,3.51-.07,2.04-.08,4.14-.16,6.05-.94,2.04-.83,4.13-1.4,6.21-2.14,1.89-.68,4.33-1.81,5.56-3.45.06-.08-.02-.22-.12-.17-.79.31-1.51.82-2.22,1.27-.99.63-2.05,1.14-3.14,1.57-1.94.77-4,1.1-5.9,1.99-1.9.9-3.73,1.18-5.81,1.37-1.07.1-2.15.15-3.21.27-.89.1-2.17.67-3.03.3-.03,0-.05.04-.01.05v-.02Z"/>
      <path class="cls-13" d="m32.29,97.47c.09-.27,1.62-.57,1.87-.66,1.28-.45,2.52-.97,3.73-1.6,2.43-1.26,5.03-2.9,6.04-5.58.02-.07-.06-.13-.11-.07-1.77,2.24-4.2,3.99-6.67,5.38-1.06.59-2.14,1.17-3.23,1.71-.28.14-1.31.85-1.63.78-.07-.02,0,.1.02.03h-.02Z"/>
      <path class="cls-13" d="m29.49,96.67c1.27-.35,2.56-.52,3.81-.97,1.58-.58,3.13-1.25,4.67-1.93,1.21-.54,2.42-1.11,3.61-1.69.36-.18,1.34-.45,1.42-.91.01-.06-.02-.15-.09-.16-.45-.14-1.12.4-1.5.6-1.19.61-2.38,1.19-3.59,1.76-1.45.68-2.92,1.33-4.42,1.92-1.2.48-2.61,1.27-3.92,1.36-.04,0-.03.06,0,.05h0Z"/>
      <path class="cls-11" d="m13.48,96.2c6.55-.42,24.45-4.7,27.89-5.6-10.64-3.71-22.3,2.71-27.89,5.6Z"/>
      <path class="cls-4" d="m26.11,91.38c2.3-1.08,5.12-1.49,7.63-1.45,2.46.03,5.39-.41,7.63.85.09.05.17-.09.09-.15-2.05-1.53-4.8-1.21-7.21-1.2-1.39,0-2.67-.03-4.05.25-1.49.31-2.75,1.03-4.12,1.66-.03.01-.01.06.02.05Z"/>
      <path class="cls-4" d="m26.52,92.78c2.01.39,3.99-.44,5.96-.74,2.86-.42,5.62-.65,8.39-1.58.12-.04.07-.22-.05-.21-2.66.05-5.22.05-7.81.72-1.06.27-2.08.64-3.1,1.04-1,.4-2.3,1.01-3.39.71-.03,0-.04.05-.01.05h0Z"/>
      <path class="cls-9" d="m27.62,93.46c1.22,0,2.41.03,3.62-.15,1.2-.17,2.38-.47,3.56-.68,2.34-.42,4.42-1.47,6.68-2.15.1-.03.06-.18-.04-.17-1.07.12-2.02.47-3.03.84-1.1.41-2.26.57-3.38.91-1.24.38-2.57.57-3.83.81-1.18.22-2.36.56-3.58.53-.04,0-.03.05,0,.05h0Z"/>
      <path class="cls-11" d="m14.56,97.42c6.14-2.34,24.2-5.86,27.71-6.47-8.15,7.79-21.42,6.79-27.71,6.47Z"/>
      <path class="cls-4" d="m28.05,96.63c1.43.01,2.82.09,4.23-.26,1.43-.36,2.8-.85,4.16-1.44,2.14-.93,4.72-1.87,5.9-4.02.05-.09-.09-.17-.15-.09-1.4,1.9-4.07,2.84-6.16,3.74-1.17.51-2.37.92-3.6,1.24-1.41.37-2.92.78-4.38.79-.03,0-.03.05,0,.05Z"/>
      <path class="cls-4" d="m27.87,95.17c.85-.65,2.27-.53,3.29-.57,1.13-.05,2.25-.32,3.34-.63,1.23-.35,2.5-.54,3.74-.85,1.27-.32,2.47-1.1,3.66-1.63.11-.05.08-.23-.05-.21-1.22.14-2.48.37-3.67.67-1.39.35-2.71.49-4.03,1.1-1.15.54-2.39.97-3.64,1.16-.93.14-1.88.4-2.67.92-.03.02,0,.06.03.04h0Z"/>
      <path class="cls-4" d="m28.57,94.09c1.1-.52,2.31-.7,3.49-.99,1.22-.31,2.56-.76,3.82-.86,1.16-.1,2.29-.48,3.46-.57,1.07-.09,2.07-.15,3.1-.49.09-.03.06-.18-.04-.17-1.14.15-2.3.1-3.45.21-1.17.11-2.29.49-3.46.59-1.06.09-2.2.53-3.22.78-1.3.32-2.49.9-3.71,1.46-.03.01-.01.06.02.05h0Z"/>
      <path class="cls-7" d="m23.65,85.3c-.98.34-1.69,1.17-2.7,1.45-1.26.36-2.52.92-3.74,1.4-2.46.97-4.88,2.14-7.2,3.41-2.05,1.11-3.85,2.5-5.58,4.04-1.72,1.53-3.7,3.34-4.76,5.41-.68,1.34,1.19,2.35,2.14,1.34.73-.77,1.25-1.74,1.84-2.62.64-.95,1.33-1.87,2.05-2.76,1.5-1.83,3.34-3.35,5.31-4.63,2.15-1.39,4.53-2.46,6.88-3.49,1.22-.54,2.46-1.06,3.65-1.68.83-.43,1.31-1.36,2.12-1.85.03-.02,0-.05-.02-.04v.02Z"/>
      <path class="cls-7" d="m30.26,104.84c-.67-.66-1.64-.64-2.53-.66-1.22-.03-2.43-.15-3.65-.13-.7.01-1.37.22-2.07.07-.57-.12-1.06-.01-1.61.11-.74.18-1.42.44-2.19.51-.83.08-1.66.06-2.48.05-2.46-.02-4.96-1.03-6.95-2.45-1.26-.9-3.01-1.38-4.55-1.41-1.38-.02-2.7.5-4.07.43.06.56.11,1.12.17,1.68l.17-.04c.97-.23.56-1.77-.39-1.67l-.18.02c-.99.11-1.03,1.57-.05,1.73.58.1,1.16.1,1.74.09.71-.01,1.15.17,1.75.54,1.25.79,2.69,1.27,3.96,2.03,2.21,1.31,5.15,1.67,7.67,1.35,1.3-.17,2.65-.56,3.89-.98.66-.22,1.3-.46,1.95-.71.69-.27,1.39-.05,2.09-.17,1.26-.21,2.46-.33,3.75-.39,1.18-.06,2.38-.29,3.55.04.05.01.06-.05.03-.08v.02Z"/>
      <path class="cls-7" d="m23.82,89.32c-.73-.2-1.48.08-2.2.21-.87.16-1.65.37-2.5.62-2,.6-4.13,1-6.03,1.86-4.24,1.92-8.07,5.07-11.31,8.35.56-.05,1.12-.1,1.69-.15-.04-.02-.07-.05-.1-.07-1.25-.88-2.79.95-1.53,1.83l.1.07c.57.4,1.19.34,1.69-.15,2.97-3,6.2-5.79,9.46-8.49,1.51-1.24,3.56-1.6,5.31-2.41.78-.36,1.63-.67,2.45-.97.78-.29,2.19-.77,2.98-.62.05.01.07-.07.02-.09h-.02Z"/>
      <path class="cls-7" d="m27.61,102.32c-3.69-1.56-7.95-.58-11.81-.37-4.36.24-8.65-1.09-12.92-1.68-1.17-.16-2.19,1.56-1.04,2.29.77.49,1.48.51,2.33.77,1.12.35,2.19.68,3.36.83,2.34.3,4.63.66,6.96.13,4.32-.97,8.55-3.21,13.07-1.84.08.02.13-.09.06-.12h0Z"/>
      <path class="cls-7" d="m26.05,96.9c-2.53,3.07-7.42,2.49-10.93,2.21-2.62-.21-5.08.16-7.67.51-.91.13-1.82.25-2.7.51-.39.12-.79.21-1.18.32-.31.09-.7.48-.84.56-.21.13-.34.43-.3.67.11.88.92,1.31,1.74,1.33,1.03.03,2.01-.31,2.86-.49,1.32-.27,2.64-.48,3.96-.79,1.49-.35,2.94-.8,4.46-1.06,3.53-.6,8.4-.39,10.64-3.75.01-.02-.02-.05-.04-.03h0Z"/>
      <path class="cls-7" d="m25.44,92.82c-1.93-.05-3.75.42-5.58.97-2.05.62-4.21.71-6.26,1.28-2.2.6-4.28,1.75-6.44,2.51-1.15.41-2.26.85-3.26,1.59-.77.57-1.82,1.13-1.79,2.19.03.95,1.25.88,1.87.83,1.19-.1,2.39-.2,3.52-.6,2.28-.8,4.54-1.63,6.55-2.99.38-.26.87-.4,1.29-.58.49-.22.92-.6,1.34-.93.82-.63,1.64-1.29,2.52-1.84,1.89-1.19,4.01-2.06,6.24-2.33.06,0,.05-.09,0-.09h0Z"/>
      <path class="cls-7" d="m18.09,84.72c-.57.72-1.2,1.42-1.88,2.05-.82.74-1.82,1.1-2.84,1.47-1.89.7-3.75,1.74-5.24,3.09-1.57,1.43-2.98,3-4.29,4.66-1.34,1.7-2.89,3.55-3.71,5.57-.19.46.06,1.16.64,1.18.04,0,.08,0,.12,0,.55.03,1.09-.45.84-1.04-.01-.03-.03-.06-.04-.09-.1.33-.2.66-.3.98,1.55-1.39,2.64-3.27,3.93-4.89,1.42-1.81,2.97-3.52,4.72-5.01,1.58-1.34,3.35-2.39,5.02-3.61,1.57-1.15,2.13-2.75,3.09-4.34.01-.03-.02-.05-.04-.02h0Z"/>
      <path class="cls-14" d="m18.89,82.45c-1.76,4.32-6.07,5.83-9.73,8.14-4.3,2.7-7.5,6.72-10.05,11.04-.57.96,1,1.64,1.57.71,2.74-4.48,5.63-8.74,10.12-11.65,1.77-1.15,3.66-2.11,5.3-3.46,1.5-1.25,2.4-2.88,2.83-4.77,0-.03-.03-.04-.04,0h0Z"/>
      <path class="cls-14" d="m32.35,107.02s.05-.03.02-.05c-.03,0-.05.03-.02.05Z"/>
      <path class="cls-14" d="m32.37,106.97c-1.13-.58-1.96-1.51-3.04-2.14-1.08-.62-2.28-.7-3.48-.49-3.16.54-6.12,1.68-9.35,1.88-1.7.11-3.2.23-4.88-.16-1.49-.34-2.9-1-4.29-1.61-1.31-.57-2.64-1.08-4.02-1.47-1.11-.31-2.71-.77-3.75-.1-.16.1-.18.38-.02.49,1.03.67,2.55.6,3.72.98,1.41.45,2.75,1.12,4.1,1.71,2.74,1.2,5.51,2.09,8.53,1.72,1.48-.18,2.95-.27,4.42-.56,1.49-.3,2.97-.7,4.45-1.09,1.57-.42,2.81-.9,4.37-.2,1.05.47,2.1.91,3.25,1.09.03,0,.04-.03,0-.04h-.01Z"/>
      <path class="cls-14" d="m11.51,92.99c-2.77,1.61-5.87,2.7-8.28,4.9-1.12,1.03-2.71,2.31-3.18,3.82-.32,1.05,1.24,1.77,1.57.71.41-1.32,1.52-2.64,2.34-3.74,1.85-2.49,4.83-4.28,7.57-5.65.03-.01.01-.06-.02-.05h0Z"/>
      <path class="cls-14" d="m13.87,104.22c-2.32-.14-4.63-.56-6.92-.92-1.36-.21-2.72-.45-4.05-.8-.61-.16-1.95-.82-2.34.09-.93,2.2,5.23,1.93,6.14,1.94,2.37.02,4.8,0,7.16-.26.02,0,.02-.04,0-.04h0Z"/>
      <path class="cls-14" d="m14.82,97.19c-3.94,2.41-8.36,4.6-13.09,4.43-1.28-.05-1.3,1.83-.05,1.74,5.04-.36,9.32-3.04,13.2-6.09.04-.04,0-.1-.05-.07h0Z"/>
      <path class="cls-6" d="m19.49,79.57c-1.21,2.07-.63,4.65-2.18,6.56-.98,1.22-2.39,2.27-3.6,3.23-1.26,1.01-2.66,1.98-4.12,2.69-.1.05-.05.2.06.16,2.99-.98,5.41-3.16,7.68-5.27.96-.89,1.4-1.87,1.51-3.16.12-1.4-.19-2.98.7-4.2.02-.03-.02-.06-.04-.02h0Z"/>
      <path class="cls-6" d="m4.9,100.02c3.45-.09,6.2-3.12,8.4-5.44,1.53-1.61,3.05-2.91,5.18-3.68,2.44-.89,5.02-1.07,7.59-1.32.09,0,.07-.13-.01-.13-4.19-.1-8.97.7-12.39,3.28-1.44,1.09-2.67,2.48-3.8,3.88-1.28,1.58-2.89,3.04-4.97,3.36-.03,0-.02.04,0,.04h0Z"/>
      <path class="cls-6" d="m11.6,100.78c2.92-.96,5.42-2.77,7.93-4.49,1.31-.9,2.49-1.94,3.89-2.72,1.54-.85,3.28-1.02,5.01-1.03.13,0,.13-.2,0-.22-3.02-.5-6.15.93-8.71,2.38-1.39.79-2.62,1.99-3.83,3.02-1.34,1.14-2.74,2.22-4.31,3.01-.02.02-.01.05.02.04h0Z"/>
      <path class="cls-6" d="m13.27,102.44c2.7-.11,5.43.1,8.13-.09,2.79-.19,5.62-.42,8.38.11.09.02.15-.13.05-.17-2.52-.98-5.18-1.4-7.88-1.23-2.92.18-5.75,1.23-8.69,1.33-.04,0-.03.05,0,.05h0Z"/>
      <path class="cls-6" d="m21.11,104.49c4.14.09,11.58-.35,11.66,5.48,0,.03.04.02.04,0,.06-2.66-1.08-4.6-3.65-5.47-2.55-.86-5.45-.32-8.06-.09-.06,0-.05.09,0,.09h0Z"/>
      <path class="cls-7" d="m4.13,33.05c.47.93-.3,1.59-.78,2.31-.76,1.14-1.45,2.33-2.08,3.54-1.13,2.19-2.05,4.49-2.79,6.84-1.34,4.27-2.09,8.75-2.21,13.22-.08,3.06,0,6.42,1.11,9.31,1.36,3.56,5.93,4.04,7.64.38,4.34,3.3,6.08-2.57,6.13-5.81.07-4.45-.97-8.92-2.06-13.2-1.12-4.44-2.48-8.81-3.76-13.2-.33-1.11-2.38-5.97-1.32-7.03"/>
      <path class="cls-14" d="m3.99,69.54c-.98.6-2.77,1.17-3.75.29-.65-.58-1.01-1.85-1.24-2.65-.71-2.52-.73-5.33-.66-7.92.11-3.85.66-7.65,1.51-11.4.56-2.51,1.3-4.87,2.35-7.23,1.03-2.29,1.89-4.68,2.18-7.18.02-.12-.18-.19-.22-.07-.82,2.64-2.39,4.91-3.65,7.35-1.32,2.54-2.12,5.22-2.85,7.99-1.04,3.92-1.6,7.88-1.7,11.92-.08,3.05-.01,6.27,1.5,9.01.57,1.02,1.74,1.6,2.88,1.63,1.53.04,2.5-.83,3.68-1.66.03-.03,0-.08-.04-.05h0Z"/>
      <path class="cls-14" d="m5.95,69.34c4.4,1.66,5.71-3.61,6.05-6.87.31-2.98-.2-6.16-.75-9.07-.64-3.35-1.6-6.54-2.56-9.81-.94-3.17-1.99-6.28-3.09-9.39-.37-1.03-.73-2.06-1.08-3.11-.16-.48-.49-1.16-.46-1.68,0-.07-.11-.09-.12-.02-.08,1.21.34,2.53.56,3.71.5,2.59,1,5.19,1.56,7.77.7,3.21,1.15,6.46,1.79,9.68.61,3.11,1.14,6.25,1.51,9.4.35,3.02,1.62,9.85-3.38,9.34-.03,0-.05.05-.01.05h0Z"/>
      <path class="cls-14" d="m3.24,65.65c-.56-2.43-.82-5.02-1.09-7.5-.29-2.63-.28-5.27,0-7.9.61-5.63,1.8-11.16,2.28-16.8.02-.22-.3-.27-.34-.05-1.1,5.53-2.89,10.99-3.07,16.67-.09,2.61.15,5.21.6,7.78.45,2.6,1.25,5.18,1.55,7.8,0,.04.08.03.06,0h0Z"/>
      <path class="cls-6" d="m3.72,42.28c-.28,1.73-.82,3.44-1.18,5.16-.38,1.84-.71,3.7-.94,5.57-.27,2.25-.53,4.7-.15,6.95.3,1.74.63,3.47,1.09,5.18.47,1.74,1.42,3.88,3.46,4.16,1.04.14,1.81-.38,2.32-1.25.49-.82.11-1.99-.58-2.57-.18-.15-1.75-.68-.64-.35-.28-.08.52.42.12.06-.32-.27.36.43.07.07-.11-.14-.21-.29-.31-.45-.13-.14-.26-.28-.39-.42.21.24.24.26.08.08-.14-.17-.28-.34-.41-.52-.99-1.31-1.85-2.76-2.54-4.25-.93-1.99-1.03-4.12-1.08-6.29-.04-1.85.07-3.69.28-5.52.21-1.85.39-3.79.86-5.59,0-.04-.06-.06-.07-.02h0Z"/>
      <path class="cls-6" d="m5.91,48.24c0,3.17.79,6.28,1.02,9.44.12,1.6.06,3.18.06,4.78,0,.7-.1,1.4-.24,2.09-.15.73-.54,1.36-.73,2.08-.33,1.22,1.38,1.77,2.1.96.95-1.05,1.14-2.87,1.2-4.23.08-1.77-.31-3.43-.77-5.12-.9-3.31-2.16-6.56-2.54-10.01-.01-.07-.11-.06-.12.01h0Z"/>
      <path class="cls-6" d="m-1.14,59.96c.11.18.02.75.04.95.05.63.13,1.25.23,1.87.22,1.46.54,2.91.85,4.35.26,1.21.61,2.42,1.48,3.33.96,1,2.98.46,3.1-.98.05-.66-.43-1.3-1.14-1.21-.2.02-.4.04-.59.11-.65.24-.24.1.03.12-.18,0,.2.08-.12-.04-.06-.03-.1-.05-.31-.22-.77-.66-1.3-1.67-1.79-2.54-.56-1.01-.88-2.25-1.21-3.35-.1-.36-.8-2.06-.51-2.38.05-.06-.1-.07-.06,0h0Z"/>
      <path class="cls-7" d="m24.19,7.28C19.35.02,21.83-8.89,27.44-14.92c2.89-3.11,6.28-5.25,9.98-7.24,3.63-1.95,6.65-4.56,8.49-8.34.52,3.75.45,7.74-.8,11.35-1.16,3.39-3.24,5.14-5.86,7.29-3.69,3.02-7.62,6.15-10.6,9.91-1.35,1.69-2.41,3.59-3.17,5.61-.45,1.19-.7,2.52-1.31,3.64-5.1-7.65.95-1.76,0,0h0Z"/>
      <path class="cls-14" d="m24.21,8.56c.36-3.69,2.03-6.81,4.48-9.55,1.39-1.56,2.96-2.96,4.46-4.42,1.41-1.38,2.83-2.79,4.33-4.07,3.46-2.98,6.11-6.53,7.27-11,.58-2.24.73-4.58.77-6.88.02-1.28,0-2.55-.04-3.82-.04-1.32.06-2.74-.19-4.04-.04-.2-.33-.23-.37-.01-.21,1.22-.06,2.52-.03,3.75.02,1.28.03,2.57.01,3.84-.04,2.48-.28,4.95-.93,7.35-1.26,4.63-4.53,8.39-8.37,11.13-3.37,2.4-6.64,4.74-9.29,7.96-2.16,2.62-4.28,6.51-2.15,9.75.02.02.05.01.06-.01h0Z"/>
      <path class="cls-14" d="m32.86-15.06c-1.82.7-3.36,2.07-4.73,3.41-1.86,1.82-3.62,3.9-5.06,6.07-1.46,2.2-2.38,4.55-2.44,7.21-.04,1.83.67,5.33,3.06,5.26.39-.01.58-.38.58-.72.02-.79-.5-1.69-.78-2.45-.3-.82-.36-1.72-.29-2.59.17-2.12.96-4.35,1.75-6.32.89-2.24,2.1-4.22,3.64-6.07,1.2-1.44,2.59-2.9,4.29-3.75.03-.02.02-.07-.02-.06h0Z"/>
      <path class="cls-7" d="m23.49,1.28c.08.03.13-.08.05-.12-.08-.03-.13.08-.05.12Z"/>
      <path class="cls-6" d="m23.48,3.2c.45-2.73,1.22-5.29,2.72-7.63.73-1.13,1.28-2.33,2.1-3.42.8-1.07,1.73-2.08,2.74-2.95,1.68-1.45,3.47-2.73,5.07-4.27,1.66-1.58,2.89-3.35,3.7-5.5,0-.04-.04-.06-.06-.03-1.13,2.27-3.32,3.71-5.44,4.97-2.05,1.21-3.94,2.41-5.67,4.07-1.82,1.76-3.71,4.13-4.43,6.6-.76,2.61-.88,5.46-.8,8.16,0,.04.06.03.06,0Z"/>
      <path class="cls-6" d="m24.05,0c-.1-2.01,1.4-3.64,3.06-4.51.77-.4,1.65-.56,2.42-.96.95-.49,1.97-.85,2.87-1.43,1.66-1.06,2.95-2.41,4.45-3.66,1.13-.94,2.68-2.5,2.75-4.08,0-.14-.18-.27-.27-.12-.51.73-.85,1.48-1.48,2.14-.68.7-1.52,1.29-2.43,1.63-1.96.74-3.98,1.09-5.83,2.13-.92.52-1.78,1.02-2.52,1.78-.63.65-1.21,1.37-1.72,2.12-.48.71-.82,1.5-1.09,2.32-.29.89-.22,1.72-.27,2.63,0,.06.07.05.07,0h0Z"/>
      <path class="cls-6" d="m23.93-16.09c.11,1.63-.02,3.28,0,4.91.02,1.78-.01,3.55-.1,5.32-.16,3.3-.68,6.5-1.11,9.76-.41,3.16-.19,6.34-.63,9.51-.48,3.47-1.36,6.88-1.98,10.33-.03.15.21.23.26.08,1.17-3.23,2.13-6.46,2.74-9.84.6-3.32.45-6.57.66-9.92.21-3.31.68-6.58.75-9.91.03-1.67.01-3.34-.05-5.01-.06-1.77-.37-3.48-.53-5.24,0-.03-.04-.02-.04,0h.02Z"/>
    </g>
  </g>
</svg>