<?xml version="1.0" encoding="utf-8"?>
<!-- Generator: Adobe Illustrator 27.1.0, SVG Export Plug-In . SVG Version: 6.00 Build 0)  -->
<svg version="1.1" id="Capa_1" xmlns="http://www.w3.org/2000/svg" xmlns:xlink="http://www.w3.org/1999/xlink" x="0px" y="0px"
	 viewBox="0 0 20 20" style="enable-background:new 0 0 20 20;" xml:space="preserve">
<style type="text/css">
	.st0{fill:#6E2E78;}
</style>
<g id="Capa_2_00000167369151494109408210000015045183070030932116_">
	<g>
		<path class="st0" d="M19.92,19.84c0-0.01,0.01-0.02,0.01-0.03s0.01-0.02,0.01-0.03s0-0.02,0-0.03s0-0.02,0-0.03c0,0,0-0.01,0-0.01
			V7.43c0,0,0-0.01,0-0.01c0-0.01,0-0.03,0-0.04c0-0.01,0-0.01,0-0.02c0-0.01-0.01-0.03-0.01-0.04c0-0.01,0-0.01-0.01-0.02
			c-0.01-0.01-0.01-0.02-0.02-0.04c0,0-0.01-0.01-0.01-0.02c0,0,0,0,0,0c-0.01-0.02-0.03-0.03-0.04-0.04l0,0l-1.73-1.3V3.96
			c0-0.16-0.13-0.29-0.29-0.29h-2.99L10.1,0.06c-0.1-0.08-0.25-0.08-0.35,0L6.16,2.81C6.04,2.9,6.01,3.08,6.11,3.21
			c0.1,0.13,0.28,0.15,0.41,0.05l3.41-2.61l3.94,3.02H2.21c-0.16,0-0.29,0.13-0.29,0.29v1.93L0.17,7.2c0,0-0.01,0.01-0.01,0.01
			c0,0-0.01,0.01-0.01,0.01C0.13,7.24,0.12,7.25,0.11,7.27c0,0-0.01,0.01-0.01,0.01C0.08,7.3,0.07,7.32,0.07,7.35c0,0,0,0.01,0,0.01
			c0,0.02-0.01,0.04-0.01,0.06c0,0,0,0.01,0,0.01v12.28c0,0,0,0.01,0,0.01c0,0.01,0,0.02,0,0.03c0,0.01,0,0.02,0,0.03
			c0,0.01,0,0.02,0.01,0.03c0,0.01,0.01,0.02,0.01,0.03c0,0.01,0.01,0.02,0.01,0.02c0,0.01,0.01,0.02,0.02,0.03
			c0,0,0,0.01,0.01,0.01c0,0,0.01,0,0.01,0.01c0.01,0.01,0.02,0.02,0.03,0.03c0.01,0,0.01,0.01,0.02,0.01
			c0.01,0.01,0.02,0.01,0.03,0.02c0.01,0,0.01,0.01,0.02,0.01c0.01,0.01,0.03,0.01,0.04,0.01c0,0,0.01,0,0.01,0
			C0.3,20,0.32,20,0.34,20h19.31c0.02,0,0.04,0,0.06-0.01c0,0,0.01,0,0.01,0c0.01,0,0.03-0.01,0.04-0.01c0.01,0,0.01-0.01,0.02-0.01
			c0.01-0.01,0.02-0.01,0.03-0.02c0.01,0,0.01-0.01,0.02-0.01c0.01-0.01,0.02-0.02,0.03-0.03c0,0,0.01,0,0.01-0.01
			c0,0,0-0.01,0.01-0.01c0.01-0.01,0.01-0.02,0.02-0.02C19.91,19.85,19.91,19.84,19.92,19.84z M0.63,8.07l6.46,5.63l-6.46,5.39
			C0.63,19.09,0.63,8.07,0.63,8.07z M7.54,14.09L8.58,15c0.12,0.11,0.3,0.09,0.41-0.03c0.11-0.12,0.09-0.3-0.03-0.41L3.71,9.98V6.77
			c0.21-0.04,0.5-0.14,0.73-0.36C4.59,6.25,4.7,6.06,4.74,5.84h10.66c0.12,0.29,0.39,0.79,0.92,0.93v3.2L11,14.62
			c-0.12,0.11-0.13,0.29-0.03,0.41c0.06,0.07,0.14,0.1,0.22,0.1c0.07,0,0.14-0.02,0.19-0.07l1.09-0.96l6.39,5.33H1.14L7.54,14.09z
			 M12.91,13.71l6.45-5.64v11.02L12.91,13.71z M19.2,7.45l-1.1,0.96V6.63L19.2,7.45z M17.52,4.25v4.67L16.9,9.46V6.51
			c0-0.16-0.13-0.29-0.29-0.29c-0.52,0-0.71-0.73-0.72-0.74c-0.03-0.13-0.15-0.22-0.28-0.22H4.48c-0.16,0-0.29,0.13-0.29,0.29
			c0,0.28-0.11,0.47-0.35,0.58c-0.2,0.1-0.42,0.1-0.42,0.1c-0.08,0-0.15,0.03-0.21,0.08C3.16,6.36,3.13,6.43,3.13,6.51v2.97
			L2.5,8.93V4.25H17.52z M1.92,8.42L0.8,7.45l1.12-0.83V8.42z"/>
		<path class="st0" d="M12.95,9.83c0-1.67-1.36-3.02-3.02-3.02S6.91,8.16,6.91,9.83s1.36,3.02,3.02,3.02S12.95,11.5,12.95,9.83z
			 M9.93,12.27c-1.35,0-2.44-1.1-2.44-2.44c0-1.35,1.1-2.44,2.44-2.44s2.44,1.1,2.44,2.44C12.38,11.18,11.28,12.27,9.93,12.27z"/>
		<path class="st0" d="M9.97,9.58c-0.16,0-0.28-0.04-0.34-0.1C9.57,9.4,9.59,9.26,9.59,9.26l0,0c0-0.02,0.01-0.04,0.01-0.05
			C9.6,9.09,9.65,8.8,10,8.8c0.17,0,0.22,0.06,0.24,0.08c0.09,0.09,0.1,0.27,0.1,0.32c-0.01,0.16,0.11,0.3,0.27,0.31
			c0.16,0.01,0.3-0.11,0.31-0.27c0-0.05,0.02-0.46-0.25-0.75c-0.08-0.09-0.22-0.19-0.42-0.24V8c0-0.16-0.13-0.29-0.29-0.29
			S9.67,7.84,9.67,8v0.27c-0.45,0.15-0.64,0.58-0.65,0.9C9,9.27,8.97,9.58,9.18,9.84c0.17,0.21,0.43,0.32,0.79,0.32
			c0.11,0,0.27,0.02,0.34,0.1c0.07,0.09,0.05,0.23,0.05,0.23c0,0.01,0,0.03,0,0.05c0,0.11-0.05,0.37-0.37,0.37
			c-0.16,0-0.28-0.03-0.34-0.1c-0.07-0.07-0.1-0.21-0.09-0.41c0.01-0.16-0.11-0.3-0.27-0.3c-0.16,0-0.3,0.11-0.3,0.27
			c-0.02,0.37,0.06,0.64,0.25,0.84c0.11,0.12,0.26,0.2,0.44,0.24v0.18c0,0.16,0.13,0.29,0.29,0.29s0.29-0.13,0.29-0.29v-0.17
			c0.48-0.12,0.68-0.56,0.69-0.89c0.01-0.1,0.04-0.42-0.18-0.68C10.58,9.68,10.32,9.58,9.97,9.58z"/>
	</g>
</g>
</svg>
