<?xml version="1.0" encoding="UTF-8"?>
<svg id="Capa_1" data-name="Capa 1" xmlns="http://www.w3.org/2000/svg" viewBox="0 0 196.93 172.78">
  <defs>
    <style>
      .cls-1 {
        fill: #9845b0;
      }
    </style>
  </defs>
  <path class="cls-1" d="m4.87,47.2c.77.43,1.57.64,2.42.64.58,0,1.17-.12,1.79-.36,1.04-.43,1.9-.97,2.58-1.63.68-.66,1.19-1.36,1.53-2.09.34-.73.51-1.41.51-2.04,0-.7-.2-1.27-.59-1.71-.37-.46-.94-.69-1.71-.69-.48,0-.81.04-.99.13-.17.09-.26.16-.26.23s.05.13.15.18c.1.03.21.05.33.05h.31c.09-.02.16-.03.23-.03.6,0,1.03.16,1.3.48.27.32.41.73.41,1.22s-.1.99-.31,1.53c-.2.54-.48,1.08-.84,1.61-.36.53-.77.99-1.22,1.4-.46.39-.94.68-1.43.87-.2.07-.46.14-.77.2-.29.05-.55.08-.79.08-.68,0-1.32-.17-1.91-.51-.58-.34-1.05-.84-1.4-1.51-.34-.66-.51-1.47-.51-2.42,0-.49.05-1.02.15-1.58.12-.58.29-1.18.51-1.81.32-.88.79-1.75,1.4-2.6.61-.87,1.32-1.68,2.12-2.42.8-.77,1.63-1.44,2.5-2.02.88-.58,1.75-1.03,2.6-1.35.87-.34,1.67-.51,2.4-.51.87,0,1.57.28,2.12.84.56.56.84,1.5.84,2.81,0,.22,0,.45-.03.69-.02.24-.04.49-.08.77-.12.83-.34,1.82-.66,2.96-.32,1.12-.71,2.32-1.17,3.6-.44,1.26-.93,2.51-1.45,3.75-.51,1.22-1.02,2.36-1.53,3.39-.51,1.04-.99,1.9-1.43,2.58-.05.19,0,.33.15.43.15.1.35.15.59.15s.49-.06.77-.18c.29-.12.49-.31.61-.59.75-1.67,1.41-3.13,1.99-4.39.58-1.28,1.12-2.42,1.63-3.44.53-1.02,1.05-1.98,1.58-2.88.54-.9,1.14-1.8,1.79-2.7.65-.92,1.39-1.91,2.24-2.98.49-.61.98-1.08,1.45-1.4.48-.32.9-.48,1.28-.48.34,0,.61.14.82.43.2.27.31.71.31,1.3,0,.27-.02.53-.05.77-.26,2.09-.65,4.01-1.17,5.74-.51,1.72-1.05,3.23-1.61,4.54-.56,1.29-1.06,2.33-1.51,3.11-.44.78-.71,1.28-.82,1.48-.05.07-.08.15-.08.26,0,.17.08.31.23.43.17.12.37.18.59.18.26,0,.53-.1.82-.31.29-.19.54-.54.77-1.07.19-.44.48-1.04.89-1.79.43-.75.91-1.56,1.45-2.45.56-.9,1.13-1.79,1.71-2.65.58-.88,1.12-1.68,1.63-2.4.51-.73.93-1.3,1.25-1.71,1.24-1.53,2.33-2.67,3.27-3.42.95-.77,1.67-1.15,2.14-1.15.43,0,.64.28.64.84s-.23,1.38-.69,2.45c-.58,1.34-1.18,2.7-1.81,4.08-.63,1.38-1.16,2.7-1.61,3.98-.43,1.26-.64,2.42-.64,3.47,0,.92.16,1.65.48,2.19.32.56.71.98,1.17,1.25.46.27.91.45,1.35.54.44.1.79.17,1.05.2.31.03.54.02.71-.05.17-.07.26-.14.26-.2,0-.1-.13-.15-.38-.15h-.15c-1.07.03-1.83-.25-2.27-.84-.43-.58-.64-1.33-.64-2.27,0-.87.13-1.81.38-2.83.27-1.04.61-2.09,1.02-3.16.41-1.07.83-2.09,1.28-3.06.46-.99.88-1.85,1.25-2.6.34-.66.59-1.29.74-1.89.17-.6.26-1.11.26-1.53,0-1.12-.46-1.68-1.38-1.68-.73,0-1.66.41-2.78,1.22s-2.34,2.04-3.65,3.67c-1.07,1.34-2.06,2.64-2.96,3.9-.9,1.26-1.62,2.3-2.14,3.11.53-1.6,1.04-3.18,1.53-4.74.49-1.58.82-3.19.97-4.82.02-.14.03-.24.03-.31v-.26c0-.9-.2-1.54-.59-1.91-.39-.37-.87-.56-1.43-.56-.63,0-1.28.19-1.96.56-.68.37-1.28.88-1.81,1.51-.46.56-.87,1.07-1.22,1.53s-.69.91-.99,1.35c-.31.44-.62.94-.94,1.48-.31.53-.65,1.15-1.05,1.86-.2.36-.34.54-.41.54-.03,0-.05-.04-.05-.13,0-.05,0-.14.03-.28.03-.15.08-.3.13-.43.29-.8.55-1.63.79-2.5.26-.87.43-1.73.54-2.6.02-.1.03-.25.03-.43.02-.2.03-.37.03-.48,0-1.67-.42-2.87-1.25-3.62-.82-.75-1.85-1.12-3.11-1.12-1.04,0-2.16.23-3.37.69-1.21.46-2.4,1.11-3.57,1.94-1.17.82-2.24,1.79-3.21,2.91-.95,1.11-1.71,2.31-2.27,3.62-.26.6-.44,1.17-.56,1.73-.1.54-.15,1.06-.15,1.56,0,1.11.24,2.07.71,2.88.48.8,1.1,1.42,1.86,1.86Z"/>
  <path class="cls-1" d="m41.1,40.08c.26-.26.38-.54.38-.87,0-.24-.09-.44-.26-.61-.17-.17-.39-.26-.66-.26-.31,0-.59.12-.84.36-.26.24-.38.52-.38.84,0,.26.08.48.23.66.17.17.38.26.64.26.34,0,.64-.13.89-.38Z"/>
  <path class="cls-1" d="m38.39,42.35c.09.12.13.26.13.43,0,.1-.03.22-.08.36l-1.71,4.36c-.09.22-.16.47-.23.74-.05.26-.08.51-.08.77,0,.48.13.9.38,1.28.26.36.7.54,1.33.54.48,0,.92-.17,1.33-.51.27-.22.52-.5.76-.8.08.26.22.52.41.77.36.43.95.64,1.79.64.15,0,.31-.03.48-.08.19-.03.37-.09.54-.15.15.05.31.09.46.1.15.02.3.03.43.03.58,0,1.1-.15,1.56-.46.48-.32.89-.73,1.25-1.22.36-.51.67-1.04.94-1.58.29-.56.54-1.08.77-1.56.03-.08.03-.15-.03-.2-.03-.07-.09-.1-.18-.1-.07,0-.13.04-.18.13-.32.68-.66,1.33-1.02,1.94-.34.61-.65,1.09-.92,1.43-.27.34-.59.63-.94.87-.34.22-.71.33-1.1.33h-.08s-.09,0-.18-.03l-.18-.03c.53-.34.96-.79,1.3-1.35.34-.58.51-1.12.51-1.63s-.11-1.02-.33-1.48c-.2-.46-.4-.93-.59-1.4-.09-.22-.16-.47-.23-.74-.05-.29-.08-.57-.08-.84,0-.34.06-.66.18-.97.14-.31.37-.54.69-.71.08-.05.18-.08.28-.08.15,0,.33.04.54.13.08.05.15.08.2.08.12,0,.18-.05.18-.15,0-.17-.09-.3-.28-.38-.12-.05-.24-.08-.36-.1-.1-.02-.22-.03-.36-.03h-.26c-.44.07-.85.33-1.22.79-.36.46-.65.94-.89,1.43-.34.73-.71,1.49-1.12,2.27-.12.24-.23.46-.35.69-.01.02-.02.03-.03.05-.24.48-.5.96-.76,1.44-.25.03-.48.2-.67.5-.19.32-.28.68-.28,1.07,0,0,0,0,0,.01-.23.34-.47.63-.71.88-.1.1-.26.2-.48.31-.22.1-.42.15-.59.15-.27,0-.47-.08-.59-.23-.1-.15-.15-.34-.15-.56v-.2s0-.06.03-.13c.02-.07.05-.23.1-.48.02-.07.07-.2.15-.41.1-.22.15-.33.15-.33l2.12-4.97c.12-.27.18-.46.18-.56s-.06-.19-.18-.26c-.1-.08-.28-.12-.54-.1l-1.4.05c.03.05.09.14.18.28Zm3.92,3.6c.29-.56.58-1.14.87-1.73.29-.61.54-1.15.77-1.61-.02.09-.03.18-.05.28v.31c0,.58.07,1.24.2,1.99.14.75.2,1.45.2,2.12,0,.75-.12,1.35-.36,1.81-.22.46-.48.81-.77,1.05-.32-.14-.6-.38-.82-.74-.2-.37-.3-.77-.28-1.2.02-.32-.02-.54-.1-.64-.09-.12-.18-.18-.28-.18-.09-.02-.13-.03-.13-.03.2-.39.45-.87.74-1.43Zm-.61,2.5c.03.49.14.9.33,1.22.2.31.43.55.69.74-.07.02-.14.04-.23.08-.09.02-.18.03-.28.03-.31,0-.54-.1-.71-.31-.17-.2-.26-.44-.26-.71,0-.37.15-.72.46-1.05Z"/>
  <path class="cls-1" d="m97.44,77.87c-.34,1.77-.53,3.49-.53,5.13,0,4.29.92,8.05,2.76,11.3,1.84,3.18,4.22,5.66,7.16,7.44,2.94,1.78,6.03,2.66,9.28,2.66,2.88,0,5.88-.67,9-2.02,3.12-1.41,6.03-3.24,8.72-5.51,2.69-2.33,4.87-4.9,6.52-7.71,1.71-2.82,2.57-5.69,2.57-8.63,0-2.69-.7-4.99-2.11-6.89s-3.37-2.85-5.88-2.85c-1.53,0-3.18.4-4.96,1.19-.43.18-.77.43-1.01.73-.24.24-.37.43-.37.55,0,.18.15.28.46.28.37,0,.86-.09,1.47-.28.49-.18.95-.31,1.38-.37.49-.06.95-.09,1.38-.09,2.02,0,3.46.8,4.32,2.39.86,1.53,1.29,3.34,1.29,5.42,0,2.57-.61,5.11-1.84,7.62-1.22,2.51-2.88,4.81-4.96,6.89-2.02,2.08-4.32,3.77-6.89,5.05-2.51,1.22-5.05,1.84-7.62,1.84s-5.14-.61-7.53-1.84c-2.33-1.22-4.22-3.06-5.69-5.51-1.47-2.51-2.2-5.6-2.2-9.28,0-1.78.18-3.67.55-5.69.43-2.02,1.04-4.16,1.84-6.43,1.22-3.37,3-6.61,5.33-9.73,2.39-3.18,5.11-6.12,8.17-8.82,3.06-2.69,6.31-5.05,9.73-7.07,3.43-2.02,6.89-3.58,10.38-4.68,3.49-1.16,6.83-1.74,10.01-1.74,1.78,0,3.46.21,5.05.64,1.65.37,3.15.98,4.5,1.84,1.16.67,1.99,1.74,2.48,3.21.49,1.41.73,3.06.73,4.96,0,2.63-.4,5.57-1.19,8.82-.73,3.24-1.65,6.49-2.76,9.73-1.1,3.18-2.2,6.06-3.31,8.63-3.86,9.06-6.73,16.81-8.63,23.23-1.9,6.43-2.85,11.54-2.85,15.34,0,4.71,1.47,7.35,4.41,7.9.24.06.49.09.73.09h.83c2.51,0,5.36-.83,8.54-2.48,3.24-1.65,6.61-3.92,10.1-6.8,3.49-2.94,6.89-6.28,10.19-10.01,3.37-3.8,6.43-7.84,9.18-12.12,2.76-4.35,4.99-8.76,6.7-13.22,1.16-3.06,1.74-5.85,1.74-8.36,0-2.69-.52-4.93-1.56-6.7-1.04-1.78-2.27-3.18-3.67-4.22-1.41-1.04-2.69-1.71-3.86-2.02-.24-.06-.49-.09-.73-.09-.18-.06-.34-.09-.46-.09-1.04,0-1.56.31-1.56.92,0,.31.18.64.55,1.01.43.37,1.04.61,1.84.73.73.12,1.38.24,1.93.37.55.12,1.04.49,1.47,1.1.43.61.77,1.71,1.01,3.31.18,1.1.28,2.2.28,3.31,0,4.84-1.47,10.29-4.41,16.35-2.94,6-6.98,12-12.12,18-.49.55-1.38,1.53-2.66,2.94-1.29,1.35-2.82,2.91-4.59,4.68-1.78,1.71-3.64,3.37-5.6,4.96-1.9,1.59-3.73,2.91-5.51,3.95-1.78,1.1-3.31,1.65-4.59,1.65-1.9,0-2.85-1.44-2.85-4.32,0-.49.03-1.04.09-1.65.06-.55.15-1.16.28-1.84.49-2.82,1.29-6.15,2.39-10.01,1.1-3.92,2.45-8.02,4.04-12.31,1.59-4.35,3.37-8.51,5.33-12.49,1.9-3.8,3.46-7.78,4.68-11.94,1.29-4.22,1.93-8.2,1.93-11.94,0-3.43-.67-6.52-2.02-9.28-1.35-2.76-3.64-4.84-6.89-6.24-2.94-1.29-6.28-1.93-10.01-1.93-4.22,0-8.66.77-13.32,2.3-4.65,1.47-9.21,3.61-13.68,6.43-4.47,2.76-8.51,6.06-12.12,9.92-3.61,3.86-6.43,8.11-8.45,12.77-.6,1.38-1.08,2.74-1.47,4.07-.78.78-1.57,1.48-2.37,2.1-2.14,1.65-4.19,2.48-6.15,2.48-1.53,0-2.94-.64-4.22-1.93-1.29-1.22-2.3-3.21-3.03-5.97-.49-1.9-.83-4.56-1.01-7.99-.18-3.49-.28-7.29-.28-11.39v-6.34c.06-2.2.12-4.35.18-6.43,7.22-5.2,13.96-9.89,20.2-14.05,6.24-4.16,11.66-7.84,16.25-11.02,4.65-3.24,8.11-5.97,10.38-8.17,1.29-1.29,2.2-2.33,2.76-3.12.61-.86.92-1.47.92-1.84,0-.43-.24-.64-.73-.64-.61,0-1.65.43-3.12,1.29-1.47.86-3.09,2.14-4.87,3.86-2.88,2.82-6.43,5.72-10.65,8.72-4.22,3-8.97,6.24-14.23,9.73-5.27,3.43-10.96,7.32-17.08,11.66.06-4.29-.03-8.33-.28-12.12-.24-3.86-.67-7.13-1.29-9.83-.61-2.76-1.44-4.59-2.48-5.51-1.16-1.1-2.48-1.9-3.95-2.39-1.41-.49-2.91-.73-4.5-.73-2.51,0-5.11.49-7.81,1.47-2.69.98-5.33,2.2-7.9,3.67-2.57,1.47-4.9,2.97-6.98,4.5-2.08,1.53-3.8,2.91-5.14,4.13-1.29,1.16-2.02,1.9-2.2,2.2-.49.67-.73,1.22-.73,1.65,0,.49.21.86.64,1.1.43.18.8.28,1.1.28.24,0,.4-.03.46-.09,2.14-2.14,4.41-4.41,6.8-6.8s4.87-4.16,7.44-5.33c1.59-.73,3.18-1.32,4.78-1.74,1.59-.43,3.12-.64,4.59-.64,2.27,0,4.26.58,5.97,1.74s2.88,3.18,3.49,6.06c.49,2.02.83,4.53,1.01,7.53.24,2.94.37,6.67.37,11.2v4.41c-6.73,4.78-13.44,9.92-20.11,15.43-6.61,5.45-12.95,11.23-19.01,17.36-6,6.12-11.42,12.55-16.25,19.29-1.16,1.59-1.74,2.91-1.74,3.95,0,.8.37,1.19,1.1,1.19.67,0,1.5-.4,2.48-1.19.98-.73,2.08-2.05,3.31-3.95,3.98-6.18,8.63-12.06,13.96-17.63,5.39-5.63,11.17-11.02,17.36-16.16,6.18-5.14,12.52-10.04,19.01-14.69-.06,3.49-.15,6.89-.28,10.19-.06,3.24-.09,6.28-.09,9.09,0,3,.06,5.51.18,7.53.12,1.96.31,3.52.55,4.68.67,3.12,1.84,5.51,3.49,7.16,1.71,1.65,3.7,2.48,5.97,2.48,3.61,0,7.68-2.08,12.21-6.24.23-.21.46-.43.69-.65Z"/>
  <path class="cls-1" d="m37.68,171.1c-.1,0-.24.01-.43.04-.17.05-.36.13-.57.25-.64.31-1.23.46-1.75.46-.71,0-1.26-.29-1.64-.86-.38-.55-.57-1.31-.57-2.29,0-.88.14-1.9.43-3.07.31-1.19.79-2.48,1.43-3.86.88-1.93,1.8-3.76,2.75-5.5.95-1.74,1.83-3.37,2.64-4.89.83-1.52,1.5-2.94,2-4.25.52-1.31.79-2.5.79-3.57.02-1.29-.32-2.17-1.04-2.64-.71-.5-1.55-.75-2.5-.75-.6,0-1.23.08-1.89.25-.67.17-1.31.39-1.93.68-1.38.64-2.82,1.64-4.32,3-1.48,1.36-2.88,2.85-4.21,4.46-1.02,1.24-1.93,2.4-2.71,3.5-.79,1.1-1.45,2.07-2,2.93-.14.21-.31.48-.5.79-.17.31-.32.57-.46.79-.12.21-.18.3-.18.25s.07-.24.21-.57c.14-.33.38-.87.71-1.61.62-1.33,1.23-2.7,1.82-4.11.62-1.43,1-2.83,1.14-4.21.05-.31.07-.57.07-.79.02-.21.04-.44.04-.68,0-1.4-.29-2.52-.86-3.36-.55-.86-1.3-1.48-2.25-1.86-.95-.38-2-.57-3.14-.57-1.26,0-2.58.2-3.96.61-1.38.38-2.67.9-3.86,1.57-1.36.74-2.69,1.63-4,2.68-1.29,1.02-2.44,2.15-3.46,3.39-1.02,1.24-1.82,2.55-2.39,3.93-.38.88-.65,1.74-.82,2.57-.17.81-.25,1.58-.25,2.32,0,1.48.3,2.74.89,3.79.62,1.05,1.43,1.86,2.43,2.43,1,.55,2.07.82,3.21.82,1.5,0,2.87-.3,4.11-.89,1.24-.6,2.3-1.35,3.18-2.25.9-.93,1.6-1.9,2.07-2.93.5-1.05.75-2,.75-2.86,0-.81-.24-1.48-.71-2-.45-.52-1.17-.79-2.14-.79-.45,0-.99.07-1.61.21-.24.05-.36.18-.36.39,0,.12.11.18.32.18h.43c.1-.02.19-.04.29-.04.86,0,1.48.23,1.86.68.38.43.57.99.57,1.68,0,.76-.21,1.6-.64,2.5-.43.9-1.04,1.77-1.82,2.61-.76.83-1.68,1.51-2.75,2.04-1.05.52-2.2.79-3.46.79-1.48,0-2.6-.51-3.36-1.54-.74-1.02-1.11-2.31-1.11-3.86s.33-3.07,1-4.79c.67-1.74,1.68-3.44,3.04-5.11,1.36-1.69,3.07-3.17,5.14-4.43,1.29-.81,2.58-1.45,3.89-1.93,1.31-.48,2.51-.71,3.61-.71,1.21,0,2.2.36,2.96,1.07.79.69,1.18,1.87,1.18,3.54,0,.9-.12,1.88-.36,2.93-.33,1.52-.81,3.15-1.43,4.89-.6,1.71-1.26,3.44-2,5.18-.74,1.71-1.48,3.33-2.21,4.86-.71,1.52-1.38,2.86-2,4-.62,1.12-1.11,1.94-1.46,2.46-.07.26,0,.45.21.57.21.14.48.21.79.21.36,0,.73-.1,1.11-.29.4-.17.69-.42.86-.75.6-1.21,1.27-2.63,2.04-4.25.76-1.64,1.6-3.36,2.5-5.14.93-1.79,1.93-3.55,3-5.29,1.1-1.76,2.26-3.39,3.5-4.89,1.31-1.57,2.64-2.9,4-4,1.38-1.12,2.73-1.99,4.04-2.61,1.1-.52,2.02-.79,2.79-.79.48,0,.87.13,1.18.39.31.24.46.63.46,1.18v.29c0,.07-.01.17-.04.29-.1.62-.35,1.44-.75,2.46-.38,1-.86,2.13-1.43,3.39-.55,1.26-1.14,2.56-1.79,3.89-.64,1.33-1.26,2.63-1.86,3.89s-1.13,2.4-1.61,3.43c-.45,1-.79,1.81-1,2.43-.57,1.67-.86,3.12-.86,4.36,0,1.48.42,2.64,1.25,3.5.86.88,2.18,1.36,3.96,1.43.71.02,1.29-.12,1.71-.43s.64-.6.64-.86-.18-.39-.54-.39Z"/>
  <path class="cls-1" d="m42.5,152.67c.24.24.54.36.89.36.48,0,.89-.18,1.25-.54s.54-.76.54-1.21c0-.33-.12-.62-.36-.86-.24-.24-.55-.36-.93-.36-.43,0-.82.17-1.18.5-.36.33-.54.73-.54,1.18,0,.36.11.67.32.93Z"/>
  <path class="cls-1" d="m176.04,150.06c-.43,0-.82.17-1.18.5-.36.33-.54.73-.54,1.18,0,.36.11.67.32.93.24.24.54.36.89.36.48,0,.89-.18,1.25-.54s.54-.76.54-1.21c0-.33-.12-.62-.36-.86-.24-.24-.55-.36-.93-.36Z"/>
  <path class="cls-1" d="m83.9,160.28c-.24,0-.43.17-.57.5-.21.48-.5,1.06-.86,1.75-.33.69-.75,1.38-1.25,2.07-.5.67-1.07,1.23-1.71,1.68-.64.45-1.36.68-2.14.68-.64,0-1.08-.24-1.32-.71-.24-.48-.36-1.01-.36-1.61,0-.5.05-.99.14-1.46.12-.48.24-.86.36-1.14.36,0,.81-.07,1.36-.21.55-.17,1.09-.37,1.64-.61.55-.24,1-.49,1.36-.75.83-.62,1.48-1.29,1.93-2,.45-.71.68-1.37.68-1.96s-.2-1.01-.61-1.32c-.38-.29-.83-.43-1.36-.43-.76,0-1.57.26-2.43.79-.86.52-1.63,1.19-2.32,2-.81.93-1.48,2.01-2,3.25-.06.15-.11.29-.17.43-.21.41-.47.9-.79,1.5-.45.86-.96,1.7-1.54,2.54-.38.52-.79.93-1.21,1.21-.43.26-.83.39-1.21.39-.43,0-.8-.18-1.11-.54-.29-.38-.43-.94-.43-1.68,0-.45.07-1,.21-1.64.12-.43.25-.85.39-1.25.17-.43.3-.8.39-1.11,1.76-1.62,3.21-3.36,4.36-5.21,1.17-1.86,2.17-3.71,3-5.57.31-.67.52-1.26.64-1.79.14-.52.21-.98.21-1.36,0-.55-.12-.95-.36-1.21-.21-.29-.51-.43-.89-.43-.48,0-1.04.24-1.68.71-.62.45-1.2,1.14-1.75,2.07-.69,1.17-1.39,2.49-2.11,3.96-.69,1.45-1.33,2.94-1.93,4.46-.57,1.5-1.05,2.92-1.43,4.25,0,.03-.02.07-.03.1-.2.41-.45.92-.76,1.55-.33.69-.71,1.38-1.14,2.07-.43.67-.9,1.24-1.43,1.71-.5.48-1.04.71-1.61.71-.45,0-.81-.08-1.07-.25-.26-.19-.46-.42-.61-.68.67-.64,1.26-1.35,1.79-2.11.52-.79.93-1.5,1.21-2.14.5-1.14.75-2.26.75-3.36,0-.9-.21-1.65-.64-2.25-.43-.6-1.1-.89-2-.89-.81,0-1.64.29-2.5.86-.86.55-1.65,1.27-2.39,2.18-.74.9-1.35,1.9-1.82,3-.23.55-.41,1.08-.53,1.61-.18.32-.37.64-.56.96-.57.98-1.24,1.8-2,2.46-.74.64-1.63.96-2.68.96-.76,0-1.31-.27-1.64-.82-.31-.57-.46-1.21-.46-1.93s.12-1.39.36-2.11c.24-.74.5-1.4.79-2,.31-.62.57-1.07.79-1.36.52-.76,1.13-1.46,1.82-2.11.71-.67,1.39-1,2.04-1,.57,0,.86.3.86.89,0,.29-.05.57-.14.86-.1.31-.25.63-.46.96-.21.33-.42.62-.61.86.14.14.31.21.5.21.4,0,.81-.23,1.21-.68.4-.48.63-.95.68-1.43.1-.76-.07-1.37-.5-1.82-.43-.45-1.1-.68-2-.68-.86,0-1.7.26-2.54.79-.83.5-1.6,1.21-2.29,2.14-.55.72-1.03,1.55-1.47,2.48-.11.04-.2.15-.27.34-.5,1-1.05,2.01-1.64,3.04-.57,1-1.15,1.81-1.75,2.43-.14.14-.37.29-.68.43-.31.14-.58.21-.82.21-.38,0-.65-.11-.82-.32-.14-.21-.21-.48-.21-.79v-.29s.01-.08.04-.18.07-.32.14-.68c.02-.1.1-.29.21-.57.14-.31.21-.46.21-.46l2.96-6.96c.17-.38.25-.64.25-.79s-.08-.26-.25-.36c-.14-.12-.39-.17-.75-.14l-1.96.07c.05.07.13.2.25.39.12.17.18.37.18.61,0,.14-.04.31-.11.5l-2.39,6.11c-.12.31-.23.65-.32,1.04-.07.36-.11.71-.11,1.07,0,.67.18,1.26.54,1.79.36.5.98.75,1.86.75.67,0,1.29-.24,1.86-.71.57-.48,1.1-1.07,1.57-1.79.44-.64.81-1.29,1.13-1.93-.06.4-.11.8-.11,1.18,0,.95.27,1.76.82,2.43.55.64,1.5.96,2.86.96s2.42-.3,3.25-.89c.85-.59,1.58-1.4,2.17-2.42,0,0,0,.02,0,.02,0,.88.21,1.63.64,2.25.43.6,1.1.89,2,.89.5,0,1-.11,1.5-.32.5-.21,1-.51,1.5-.89.24.26.55.49.93.68.38.17.83.25,1.36.25.76,0,1.45-.26,2.07-.79.62-.52,1.17-1.15,1.64-1.89.21-.33.4-.66.58-.98-.07.45-.12.9-.12,1.33,0,.74.18,1.38.54,1.93.36.52,1.04.79,2.04.79.9,0,1.7-.25,2.39-.75.71-.52,1.32-1.15,1.82-1.89.27-.39.51-.78.73-1.17,0,.13-.02.26-.02.39,0,1.17.34,2.04,1.04,2.61.71.57,1.51.86,2.39.86,1,0,1.86-.21,2.57-.64.74-.43,1.37-.99,1.89-1.68.52-.71.98-1.46,1.36-2.25.38-.81.74-1.57,1.07-2.29.07-.14.11-.26.11-.36,0-.12-.06-.18-.18-.18Zm-6.61-.36c.4-.67.83-1.29,1.29-1.86.74-.9,1.36-1.55,1.86-1.93.5-.38.89-.57,1.18-.57.38,0,.57.26.57.79,0,.45-.17,1.01-.5,1.68-.33.64-.81,1.24-1.43,1.79-.64.55-1.36.95-2.14,1.21-.79.24-1.35.36-1.68.36.17-.31.45-.8.86-1.46Zm-6.96-3.11c.45-1.1.95-2.23,1.5-3.39.55-1.17,1.08-2.26,1.61-3.29.55-1.02,1.05-1.83,1.5-2.43.31-.43.56-.73.75-.89.19-.19.33-.29.43-.29.17,0,.25.17.25.5,0,.29-.06.64-.18,1.07-.1.43-.23.82-.39,1.18-.48,1.12-1.07,2.31-1.79,3.57-.69,1.24-1.44,2.44-2.25,3.61-.81,1.14-1.64,2.15-2.5,3.04.26-.71.62-1.61,1.07-2.68Zm-11.32,6.14c-.19.31-.29.68-.29,1.11,0,.26.05.55.14.86.1.31.24.61.43.89-.74.62-1.43.93-2.07.93-.4,0-.7-.14-.89-.43-.19-.29-.29-.67-.29-1.14,0-.55.11-1.19.32-1.93.24-.76.55-1.55.93-2.36.4-.88.87-1.68,1.39-2.39.55-.71,1.11-1.29,1.68-1.71.6-.43,1.14-.64,1.64-.64.43,0,.75.15.96.46.21.31.32.74.32,1.29,0,1.1-.39,2.49-1.18,4.18-.36.74-.74,1.38-1.14,1.93.02-.07.04-.13.04-.18.02-.07.04-.14.04-.21,0-.29-.11-.54-.32-.75-.19-.24-.44-.36-.75-.36-.43,0-.75.15-.96.46Z"/>
  <path class="cls-1" d="m196.57,145.49c-.21-.29-.51-.43-.89-.43-.48,0-1.04.24-1.68.71-.62.45-1.2,1.14-1.75,2.07-.69,1.17-1.39,2.49-2.11,3.96-.69,1.45-1.33,2.94-1.93,4.46-.56,1.48-1.03,2.87-1.41,4.18-.07.08-.14.18-.2.32-.21.48-.5,1.06-.86,1.75-.33.69-.75,1.38-1.25,2.07-.5.67-1.07,1.23-1.71,1.68-.64.45-1.36.68-2.14.68-.64,0-1.08-.24-1.32-.71-.24-.48-.36-1.01-.36-1.61,0-.5.05-.99.14-1.46.12-.48.24-.86.36-1.14.36,0,.81-.07,1.36-.21.55-.17,1.1-.37,1.64-.61.55-.24,1-.49,1.36-.75.83-.62,1.48-1.29,1.93-2,.45-.71.68-1.37.68-1.96s-.2-1.01-.61-1.32c-.38-.29-.83-.43-1.36-.43-.76,0-1.57.26-2.43.79-.86.52-1.63,1.19-2.32,2-.81.93-1.48,2.01-2,3.25-.04.1-.07.2-.11.3-.44.86-.91,1.72-1.41,2.6-.57,1-1.15,1.81-1.75,2.43-.14.14-.37.29-.68.43s-.58.21-.82.21c-.38,0-.65-.11-.82-.32-.14-.21-.21-.48-.21-.79v-.29s.01-.08.04-.18c.02-.1.07-.32.14-.68.02-.1.1-.29.21-.57.14-.31.21-.46.21-.46l2.96-6.96c.17-.38.25-.64.25-.79s-.08-.26-.25-.36c-.14-.12-.39-.17-.75-.14l-1.96.07c.05.07.13.2.25.39.12.17.18.37.18.61,0,.14-.04.31-.11.5l-1.78,4.55c-.41.77-.85,1.56-1.37,2.38-.62,1.02-1.34,1.83-2.18,2.43-.24.17-.45.29-.64.36-.19.05-.38.07-.57.07-.31,0-.58-.11-.82-.32-.24-.24-.36-.61-.36-1.11,0-.26.04-.55.11-.86,0,0,.02-.14.07-.43.07-.29.14-.63.21-1.04.1-.43.19-.85.29-1.25.12-.4.21-.71.29-.93,1.05-.98,1.95-1.95,2.71-2.93.76-.98,1.44-1.98,2.04-3h2.11c.1,0,.17-.05.21-.14.05-.12.07-.23.07-.32,0-.24-.08-.36-.25-.36h-1.71c.29-.48.57-1.02.86-1.64.31-.62.55-1.1.71-1.43.31-.64.54-1.25.68-1.82.14-.6.21-1.06.21-1.39,0-.55-.12-.95-.36-1.21-.24-.29-.54-.43-.89-.43-.45,0-.99.24-1.61.71-.62.48-1.2,1.19-1.75,2.14-.43.76-.87,1.57-1.32,2.43-.45.86-.88,1.74-1.29,2.64h-2.14c-.12,0-.21.05-.29.14-.05.1-.07.2-.07.32,0,.24.08.36.25.36h1.89c-.43,1.02-.87,2.17-1.32,3.43-.38,1.09-.7,2.16-.99,3.2-.13.25-.29.54-.47.88-.36.67-.77,1.36-1.25,2.07-.45.71-.93,1.32-1.43,1.82-.5.48-.98.71-1.43.71-.17,0-.32-.06-.46-.18-.14-.12-.21-.37-.21-.75,0-.26.04-.55.11-.86.09-.52.3-1.17.61-1.93.33-.79.7-1.6,1.11-2.43.4-.86.8-1.65,1.18-2.39.4-.76.74-1.37,1-1.82.26-.48.39-.71.39-.71-.07-.02-.19-.04-.36-.04-.45,0-1.06.18-1.82.54-.76.36-1.55.81-2.36,1.36-.79.52-1.46,1.04-2.04,1.54-.6.5-1.14,1.02-1.64,1.57-.48.55-.94,1.1-1.39,1.64.43-.86.92-1.77,1.46-2.75.55-.98,1.08-1.83,1.61-2.57.52-.76.95-1.24,1.29-1.43-.07.02-.18.04-.32.04-.21,0-.43-.02-.64-.07-.21-.07-.42-.11-.61-.11-.55,0-.99.18-1.32.54-.31.33-.7.93-1.18,1.79-.79,1.47-1.57,3.01-2.34,4.63-.3.61-.64,1.22-1.02,1.84-.43.67-.9,1.24-1.43,1.71-.5.48-1.04.71-1.61.71-.45,0-.81-.08-1.07-.25-.26-.19-.46-.42-.61-.68.67-.64,1.26-1.35,1.79-2.11.52-.79.93-1.5,1.21-2.14.5-1.14.75-2.26.75-3.36,0-.9-.21-1.65-.64-2.25-.43-.6-1.09-.89-2-.89-.81,0-1.64.29-2.5.86-.86.55-1.65,1.27-2.39,2.18-.74.9-1.34,1.9-1.82,3-.5,1.17-.75,2.29-.75,3.36,0,.88.21,1.63.64,2.25.43.6,1.1.89,2,.89.5,0,1-.11,1.5-.32.5-.21,1-.51,1.5-.89.24.26.55.49.93.68.38.17.83.25,1.36.25.76,0,1.45-.26,2.07-.79.11-.09.2-.21.31-.3-.27.55-.53,1.1-.81,1.66.14-.12.32-.19.54-.21.21,0,.44-.01.68-.04.36-.02.63-.05.82-.07.21-.02.4-.19.57-.5,1.07-2.05,2.01-3.6,2.82-4.64.83-1.05,1.55-1.86,2.14-2.43.62-.6,1.13-1.01,1.54-1.25.43-.24.75-.36.96-.36.26,0,.39.14.39.43,0,.1-.02.21-.07.36-.02.14-.12.35-.29.61-.6.95-1.02,1.7-1.29,2.25-.26.55-.49,1.06-.68,1.54-.12.36-.2.69-.25,1-.05.29-.07.56-.07.82,0,.9.25,1.52.75,1.86.52.33,1.02.5,1.5.5.69,0,1.33-.24,1.93-.71.59-.5,1.14-1.11,1.64-1.82.38-.56.71-1.12,1.02-1.69-.06.43-.09.83-.09,1.19,0,1,.26,1.74.79,2.21.52.45,1.12.68,1.79.68.43,0,.86-.08,1.29-.25.43-.17.81-.42,1.14-.75.45-.43.85-.86,1.18-1.29.19-.26.39-.56.58-.89-.03.21-.04.43-.04.64,0,.67.18,1.26.54,1.79.36.5.98.75,1.86.75.67,0,1.29-.24,1.86-.71.57-.48,1.1-1.07,1.57-1.79.33-.49.62-.98.89-1.47-.02.22-.04.43-.04.65,0,1.17.35,2.04,1.04,2.61.71.57,1.51.86,2.39.86,1,0,1.86-.21,2.57-.64.74-.43,1.37-.99,1.89-1.68.48-.65.89-1.33,1.24-2.04-.1.55-.17,1.09-.17,1.61,0,.74.18,1.38.54,1.93.36.52,1.04.79,2.04.79.91,0,1.7-.25,2.39-.75.71-.52,1.32-1.15,1.82-1.89.52-.76.95-1.51,1.29-2.25.36-.76.64-1.38.86-1.86.07-.14.11-.27.11-.39,0-.14-.06-.21-.18-.21-.17,0-.32.13-.46.39-.24.48-.59,1.15-1.07,2.04-.45.86-.96,1.7-1.54,2.54-.38.52-.79.93-1.21,1.21-.43.26-.83.39-1.21.39-.43,0-.8-.18-1.11-.54-.29-.38-.43-.94-.43-1.68,0-.45.07-1,.21-1.64.12-.43.25-.85.39-1.25.17-.43.3-.8.39-1.11,1.76-1.62,3.21-3.36,4.36-5.21,1.17-1.86,2.17-3.71,3-5.57.31-.67.52-1.26.64-1.79.14-.52.21-.98.21-1.36,0-.55-.12-.95-.36-1.21Zm-16,14.43c.41-.67.83-1.29,1.29-1.86.74-.9,1.36-1.55,1.86-1.93.5-.38.89-.57,1.18-.57.38,0,.57.26.57.79,0,.45-.17,1.01-.5,1.68-.33.64-.81,1.24-1.43,1.79-.64.55-1.36.95-2.14,1.21-.79.24-1.34.36-1.68.36.17-.31.45-.8.86-1.46Zm-10.36-8.93c.43-.95.86-1.73,1.29-2.32.33-.48.61-.81.82-1,.24-.21.42-.32.54-.32.17,0,.25.18.25.54,0,.26-.06.63-.18,1.11-.12.48-.26.9-.43,1.29-.24.6-.51,1.19-.82,1.79-.29.6-.59,1.2-.93,1.82h-1.82c.45-1,.88-1.96,1.29-2.89Zm-2.71,6.29c.33-.83.69-1.69,1.07-2.57h1.68c-.52.86-1.09,1.69-1.71,2.5-.59.81-1.24,1.57-1.93,2.29.26-.64.56-1.38.89-2.21Zm-23.07,5.68c-.19.31-.29.68-.29,1.11,0,.26.05.55.14.86.1.31.24.61.43.89-.74.62-1.43.93-2.07.93-.4,0-.7-.14-.89-.43-.19-.29-.29-.67-.29-1.14,0-.55.11-1.19.32-1.93.24-.76.55-1.55.93-2.36.41-.88.87-1.68,1.39-2.39.55-.71,1.11-1.29,1.68-1.71.6-.43,1.14-.64,1.64-.64.43,0,.75.15.96.46.21.31.32.74.32,1.29,0,1.1-.39,2.49-1.18,4.18-.36.74-.74,1.38-1.14,1.93.02-.07.04-.13.04-.18.02-.07.04-.14.04-.21,0-.29-.11-.54-.32-.75-.19-.24-.44-.36-.75-.36-.43,0-.75.15-.96.46Zm51.5-14.86c-.09.43-.23.82-.39,1.18-.48,1.12-1.07,2.31-1.79,3.57-.69,1.24-1.44,2.44-2.25,3.61-.81,1.14-1.64,2.15-2.5,3.04.26-.71.62-1.61,1.07-2.68.45-1.1.95-2.23,1.5-3.39.55-1.17,1.08-2.26,1.61-3.29.55-1.02,1.05-1.83,1.5-2.43.31-.43.56-.73.75-.89.19-.19.33-.29.43-.29.17,0,.25.17.25.5,0,.29-.06.64-.18,1.07Z"/>
  <path class="cls-1" d="m140.25,171.06h-.21c-1.5.05-2.56-.35-3.18-1.18-.6-.81-.89-1.87-.89-3.18,0-1.21.18-2.54.54-3.96.38-1.45.86-2.93,1.43-4.43.57-1.5,1.17-2.93,1.79-4.29.64-1.38,1.23-2.6,1.75-3.64.48-.93.82-1.81,1.04-2.64.24-.83.36-1.55.36-2.14,0-1.57-.64-2.36-1.93-2.36-1.02,0-2.32.57-3.89,1.71s-3.27,2.86-5.11,5.14c-1.5,1.88-2.88,3.7-4.14,5.46-1.26,1.76-2.26,3.21-3,4.36.74-2.24,1.45-4.45,2.14-6.64.69-2.21,1.14-4.46,1.36-6.75.02-.19.04-.33.04-.43v-.36c0-1.26-.27-2.15-.82-2.68-.55-.52-1.21-.79-2-.79-.88,0-1.8.26-2.75.79-.95.52-1.8,1.23-2.54,2.11-.64.79-1.21,1.5-1.71,2.14-.5.64-.96,1.27-1.39,1.89s-.87,1.31-1.32,2.07c-.43.74-.92,1.61-1.46,2.61-.29.5-.48.75-.57.75-.05,0-.07-.06-.07-.18,0-.07.01-.2.04-.39.05-.21.11-.42.18-.61.4-1.12.77-2.29,1.11-3.5.36-1.21.61-2.43.75-3.64.02-.14.04-.35.04-.61.02-.29.04-.51.04-.68,0-2.33-.58-4.02-1.75-5.07-1.14-1.05-2.6-1.57-4.36-1.57-1.45,0-3.02.32-4.71.96-1.69.64-3.36,1.55-5,2.71-1.64,1.14-3.14,2.5-4.5,4.07-1.33,1.55-2.39,3.24-3.18,5.07-.36.83-.62,1.64-.79,2.43-.14.76-.21,1.49-.21,2.18,0,1.55.33,2.89,1,4.04.67,1.12,1.54,1.99,2.61,2.61,1.07.6,2.2.89,3.39.89.81,0,1.64-.17,2.5-.5,1.45-.6,2.65-1.36,3.61-2.29.95-.93,1.67-1.9,2.14-2.93.48-1.02.71-1.98.71-2.86,0-.98-.27-1.77-.82-2.39-.52-.64-1.32-.96-2.39-.96-.67,0-1.13.06-1.39.18-.24.12-.36.23-.36.32s.07.18.21.25c.14.05.3.07.46.07h.43c.12-.02.23-.04.32-.04.83,0,1.44.23,1.82.68.38.45.57,1.02.57,1.71s-.14,1.38-.43,2.14c-.29.76-.68,1.51-1.18,2.25-.5.74-1.07,1.39-1.71,1.96-.64.55-1.31.95-2,1.21-.29.1-.64.19-1.07.29-.41.07-.77.11-1.11.11-.95,0-1.85-.24-2.68-.71-.81-.48-1.46-1.18-1.96-2.11-.48-.93-.71-2.06-.71-3.39,0-.69.07-1.43.21-2.21.17-.81.4-1.65.71-2.54.45-1.24,1.11-2.45,1.96-3.64.86-1.21,1.84-2.35,2.96-3.39,1.12-1.07,2.29-2.01,3.5-2.82,1.24-.81,2.45-1.44,3.64-1.89,1.21-.48,2.33-.71,3.36-.71,1.21,0,2.2.39,2.96,1.18.79.79,1.18,2.1,1.18,3.93,0,.31-.01.63-.04.96-.02.33-.06.69-.11,1.07-.17,1.17-.48,2.55-.93,4.14-.45,1.57-1,3.25-1.64,5.04-.62,1.76-1.3,3.51-2.04,5.25-.71,1.71-1.43,3.3-2.14,4.75-.71,1.45-1.38,2.65-2,3.61-.07.26,0,.46.21.61s.49.21.82.21.69-.08,1.07-.25c.4-.17.69-.44.86-.82,1.05-2.33,1.98-4.38,2.79-6.14.81-1.79,1.57-3.39,2.29-4.82.74-1.43,1.48-2.77,2.21-4.04.76-1.26,1.59-2.52,2.5-3.79.9-1.29,1.95-2.68,3.14-4.18.69-.86,1.37-1.51,2.04-1.96.67-.45,1.26-.68,1.79-.68.48,0,.86.2,1.14.61.29.38.43.99.43,1.82,0,.38-.02.74-.07,1.07-.36,2.93-.91,5.61-1.64,8.04-.71,2.4-1.46,4.52-2.25,6.36-.79,1.81-1.49,3.26-2.11,4.36-.62,1.1-1,1.79-1.14,2.07-.07.1-.11.21-.11.36,0,.24.11.44.32.61.24.17.51.25.82.25.36,0,.74-.14,1.14-.43.4-.26.76-.76,1.07-1.5.26-.62.68-1.45,1.25-2.5.59-1.05,1.27-2.19,2.04-3.43.79-1.26,1.58-2.5,2.39-3.71.81-1.24,1.57-2.36,2.29-3.36.71-1.02,1.3-1.82,1.75-2.39,1.74-2.14,3.26-3.74,4.57-4.79,1.33-1.07,2.33-1.61,3-1.61.59,0,.89.39.89,1.18s-.32,1.93-.96,3.43c-.81,1.88-1.66,3.79-2.54,5.71-.88,1.93-1.63,3.79-2.25,5.57-.6,1.76-.89,3.38-.89,4.86,0,1.29.23,2.31.68,3.07.45.79,1,1.37,1.64,1.75.64.38,1.27.63,1.89.75.62.14,1.11.24,1.46.29.43.05.76.02,1-.07.24-.1.36-.19.36-.29,0-.14-.18-.21-.54-.21Z"/>
</svg>