<svg id="Capa_1" data-name="Capa 1" xmlns="http://www.w3.org/2000/svg" viewBox="0 0 141.73 141.66"><defs><style>.cls-1{fill:#fff;}</style></defs><title>icon_whatsapp</title><path class="cls-1" d="M123.18,22.14C112,10,98,2.59,81.66.65c-27-3.2-49,6.15-65.66,27.65a64.63,64.63,0,0,0-13.15,34A67.27,67.27,0,0,0,11,101.92a4.73,4.73,0,0,1,.39,4.25C7.69,116.79,4.11,127.44.5,138.09c-.13.38-.33.75-.5,1.12v2.49H2.49c4.33-1.41,8.65-2.84,13-4.23,7.46-2.39,14.93-4.74,22.38-7.15a3.14,3.14,0,0,1,2.62.21,67.45,67.45,0,0,0,35,7.49c21.9-1.29,39.59-10.77,52.83-28.28A65,65,0,0,0,141.39,76C143.29,55.4,137.21,37.34,123.18,22.14Zm3.87,52a53.39,53.39,0,0,1-9.46,25.8A55.41,55.41,0,0,1,65.35,123.3a53.83,53.83,0,0,1-22.59-8.06,3.9,3.9,0,0,0-3.64-.44c-5.29,1.74-10.62,3.39-15.93,5.07-.38.12-.77.2-1.35.36,1.37-4.06,2.67-7.93,4-11.79.5-1.48,1-3,1.54-4.44a3.72,3.72,0,0,0-.49-3.87,51.6,51.6,0,0,1-8.14-17.58A53.31,53.31,0,0,1,20,51.37,55.21,55.21,0,0,1,67.24,14.56,54.17,54.17,0,0,1,98,20.75a54,54,0,0,1,23.22,23.39A53.18,53.18,0,0,1,127,74.12Z" transform="translate(0 -0.04)"/><path class="cls-1" d="M106.14,82c-1.86-.91-3.7-1.87-5.57-2.76C98,78.05,95.4,76.83,92.8,75.67c-2.89-1.28-4.45-.86-6.4,1.58-1.44,1.8-3,3.55-4.34,5.38a1.55,1.55,0,0,1-2.2.55C70.8,79.25,64.07,72.63,58.48,64.71a1.53,1.53,0,0,1,.17-1.38c1.05-1.4,2.31-2.64,3.31-4.08,1.16-1.67,2.29-3.51,1.42-5.65-2-4.81-4-9.61-6.12-14.35a4.35,4.35,0,0,0-4.88-2.59c-1.05.13-2.11.25-3.15.43-3.47.6-6.52,1.88-8.55,5a21.37,21.37,0,0,0-3.11,15.35c.84,5.51,3.56,10.19,6.69,14.7C53.19,85,64.08,95.29,79.47,99.94c3.84,1.16,7.69,2.28,11.67,2.29.68,0,1.28-.06,1.88-.12,7.34-.7,15.88-6,15.39-16.44A3.86,3.86,0,0,0,106.14,82Z" transform="translate(0 -0.04)"/></svg>