<?xml version="1.0" encoding="utf-8"?>
<!-- Generator: Adobe Illustrator 27.1.0, SVG Export Plug-In . SVG Version: 6.00 Build 0)  -->
<svg version="1.1" xmlns="http://www.w3.org/2000/svg" xmlns:xlink="http://www.w3.org/1999/xlink" x="0px" y="0px"
	 viewBox="0 0 170.08 170.08" style="enable-background:new 0 0 170.08 170.08;" xml:space="preserve">
<style type="text/css">
	.st0{fill:#6E2E78;}
</style>
<g id="Capa_1">
</g>
<g id="Capa_2">
	<g>
		<path class="st0" d="M166.23,165.56c0.03-0.07,0.06-0.14,0.09-0.21c0.03-0.07,0.05-0.15,0.07-0.22c0.02-0.07,0.03-0.14,0.04-0.22
			c0.01-0.08,0.02-0.16,0.03-0.25c0-0.04,0.01-0.08,0.01-0.11V64.02c0-0.04-0.01-0.08-0.01-0.11c-0.01-0.11-0.02-0.22-0.04-0.33
			c-0.01-0.06-0.02-0.12-0.04-0.18c-0.03-0.11-0.07-0.21-0.11-0.31c-0.02-0.06-0.04-0.11-0.07-0.16c-0.05-0.1-0.12-0.2-0.19-0.3
			c-0.03-0.04-0.06-0.09-0.09-0.13c-0.01-0.01-0.01-0.02-0.02-0.02c-0.11-0.13-0.23-0.24-0.36-0.33c0,0,0,0,0,0l-14.2-10.63V35.58
			c0-1.31-1.06-2.37-2.37-2.37h-24.5L85.86,3.66C85.01,3,83.83,3,82.98,3.66L53.64,26.14c-1.04,0.8-1.24,2.28-0.44,3.32
			c0.8,1.04,2.28,1.24,3.32,0.44l27.9-21.38l32.23,24.69H21.26c-1.31,0-2.37,1.06-2.37,2.37v15.84L4.56,62.12
			c-0.03,0.02-0.05,0.05-0.08,0.07c-0.04,0.04-0.08,0.07-0.12,0.11c-0.12,0.11-0.23,0.24-0.32,0.37c-0.02,0.03-0.05,0.06-0.07,0.1
			c-0.11,0.17-0.19,0.35-0.25,0.54c-0.01,0.04-0.02,0.08-0.03,0.12c-0.04,0.17-0.07,0.34-0.07,0.51c0,0.03-0.01,0.05-0.01,0.08
			v100.53c0,0.04,0.01,0.08,0.01,0.11c0,0.08,0.01,0.17,0.03,0.25c0.01,0.07,0.03,0.15,0.04,0.22c0.02,0.07,0.04,0.15,0.07,0.22
			c0.03,0.08,0.06,0.15,0.09,0.22c0.03,0.07,0.07,0.13,0.1,0.19c0.04,0.07,0.09,0.14,0.14,0.21c0.02,0.03,0.04,0.06,0.06,0.09
			c0.02,0.02,0.05,0.04,0.07,0.06c0.07,0.08,0.15,0.15,0.23,0.22c0.05,0.04,0.09,0.08,0.14,0.12c0.09,0.06,0.18,0.11,0.28,0.17
			c0.05,0.03,0.1,0.06,0.15,0.08c0.11,0.05,0.24,0.09,0.36,0.12c0.04,0.01,0.07,0.02,0.1,0.03c0.16,0.03,0.32,0.05,0.49,0.05H164.1
			c0.17,0,0.33-0.02,0.49-0.05c0.03-0.01,0.07-0.02,0.1-0.03c0.12-0.03,0.25-0.07,0.36-0.12c0.05-0.02,0.1-0.05,0.15-0.08
			c0.09-0.05,0.19-0.1,0.27-0.16c0.05-0.04,0.1-0.08,0.15-0.12c0.08-0.07,0.15-0.14,0.22-0.21c0.02-0.02,0.05-0.04,0.07-0.07
			c0.03-0.03,0.04-0.07,0.07-0.1c0.05-0.07,0.09-0.13,0.14-0.2C166.16,165.69,166.2,165.63,166.23,165.56z M8.35,69.23l52.9,46.13
			l-52.9,44.12V69.23z M64.86,118.51l8.53,7.43c0.99,0.86,2.48,0.76,3.34-0.23c0.86-0.99,0.76-2.48-0.23-3.34L33.54,84.91V58.59
			c1.74-0.33,4.1-1.11,5.95-2.94c1.29-1.28,2.13-2.85,2.51-4.69h87.31c0.95,2.4,3.17,6.46,7.5,7.58v26.19l-43.6,38.1
			c-0.99,0.86-1.09,2.36-0.23,3.34c0.47,0.54,1.12,0.81,1.79,0.81c0.55,0,1.11-0.19,1.56-0.59l8.96-7.83l52.28,43.61H12.52
			L64.86,118.51z M108.89,115.41l52.84-46.17v90.25L108.89,115.41z M160.34,64.16l-9.02,7.88V57.41L160.34,64.16z M146.58,37.95
			v38.23l-5.04,4.4V56.46c0-1.31-1.06-2.37-2.37-2.37c-4.29,0-5.85-6.01-5.86-6.06c-0.26-1.06-1.21-1.81-2.3-1.81H39.85
			c-1.31,0-2.37,1.06-2.37,2.37c0,2.31-0.9,3.81-2.83,4.71c-1.67,0.78-3.45,0.79-3.46,0.79c-0.62-0.02-1.24,0.24-1.69,0.68
			c-0.45,0.45-0.7,1.05-0.7,1.68v24.31l-5.17-4.51V37.95H146.58z M18.89,72.13l-9.14-7.97l9.14-6.82V72.13z"/>
		<path class="st0" d="M109.22,83.63c0-13.65-11.1-24.75-24.75-24.75c-13.65,0-24.75,11.1-24.75,24.75s11.1,24.75,24.75,24.75
			C98.12,108.38,109.22,97.28,109.22,83.63z M84.47,103.64c-11.04,0-20.01-8.98-20.01-20.01c0-11.04,8.98-20.01,20.01-20.01
			s20.01,8.98,20.01,20.01C104.49,94.66,95.51,103.64,84.47,103.64z"/>
		<path class="st0" d="M84.79,81.56c-1.34,0-2.32-0.29-2.75-0.81C81.49,80.1,81.67,79,81.66,79v0c0.03-0.13,0.05-0.29,0.05-0.42
			c0.04-1.02,0.45-3.4,3.32-3.4c1.36,0,1.84,0.5,2,0.67c0.73,0.77,0.84,2.17,0.82,2.65c-0.08,1.3,0.91,2.42,2.21,2.5
			c1.32,0.09,2.43-0.9,2.52-2.21c0.02-0.38,0.18-3.77-2.07-6.17c-0.68-0.73-1.78-1.55-3.43-1.94v-2.02c0-1.31-1.06-2.37-2.37-2.37
			s-2.37,1.06-2.37,2.37v2.2c-3.68,1.19-5.22,4.76-5.35,7.4c-0.13,0.83-0.35,3.37,1.35,5.46c1.38,1.71,3.56,2.58,6.45,2.58
			c0.94,0,2.19,0.14,2.78,0.83c0.61,0.71,0.44,1.91,0.44,1.91c-0.02,0.12-0.04,0.27-0.04,0.4c-0.03,0.92-0.37,3.05-3.01,3.05
			c-1.35,0-2.3-0.28-2.82-0.83c-0.58-0.61-0.83-1.74-0.75-3.36c0.06-1.31-0.94-2.42-2.25-2.48c-1.31-0.04-2.42,0.94-2.48,2.25
			c-0.15,3.01,0.52,5.25,2.05,6.86c0.94,0.99,2.16,1.65,3.63,2v1.44c0,1.31,1.06,2.37,2.37,2.37s2.37-1.06,2.37-2.37v-1.4
			c3.96-0.97,5.54-4.62,5.63-7.29c0.11-0.83,0.29-3.43-1.47-5.56C89.82,82.42,87.65,81.56,84.79,81.56z"/>
	</g>
</g>
</svg>
